<svg width="29" height="29" viewBox="0 0 29 29" fill="none" xmlns="http://www.w3.org/2000/svg">
<g clip-path="url(#clip0_332_775)">
<path d="M14.5 9.40631C11.6913 9.40631 9.40598 11.6913 9.40598 14.5C9.40598 17.3087 11.691 19.5938 14.5 19.5938C17.309 19.5938 19.5937 17.3087 19.5937 14.5C19.5937 11.6913 17.3084 9.40631 14.5 9.40631ZM14.5 16.6593C13.3074 16.6593 12.3404 15.6927 12.3404 14.5C12.3404 13.3074 13.3074 12.3408 14.5 12.3408C15.6927 12.3408 16.6593 13.3074 16.6593 14.5C16.6593 15.6927 15.6923 16.6593 14.5 16.6593Z" fill="#FCECE2"/>
<path d="M20.1819 11.6859C20.6037 12.5343 20.8423 13.4893 20.8423 14.5C20.8423 15.5106 20.6025 16.4703 20.1784 17.3203C21.4588 16.2264 22.4084 15.0674 22.8416 14.5006C22.4084 13.9351 21.4597 12.7783 20.1816 11.6862L20.1819 11.6859Z" fill="#FCECE2"/>
<path d="M14.5 0C6.49195 0 0 6.49195 0 14.5C0 22.5081 6.49195 29 14.5 29C22.5081 29 29 22.5081 29 14.5C29 6.49195 22.5084 0 14.5 0ZM24.132 14.853C23.9578 15.1073 19.8031 21.0828 14.5 21.0828C9.19692 21.0828 5.04217 15.1076 4.8677 14.853L4.62597 14.5L4.8677 14.147C5.04217 13.8927 9.19629 7.91752 14.5 7.91752C19.8037 7.91752 23.9578 13.8927 24.132 14.147L24.374 14.5L24.132 14.853Z" fill="#FCECE2"/>
<path d="M6.15811 14.4994C6.59097 15.0649 7.54031 16.2217 8.81845 17.314C8.39628 16.4653 8.15769 15.5103 8.15769 14.4997C8.15769 13.489 8.39754 12.5293 8.8216 11.6793C7.54125 12.7729 6.59129 13.9323 6.15843 14.499L6.15811 14.4994Z" fill="#FCECE2"/>
</g>
<defs>
<clipPath id="clip0_332_775">
<rect width="29" height="29" fill="white"/>
</clipPath>
</defs>
</svg>
