<?xml version="1.0" encoding="UTF-8"?>
<svg xmlns="http://www.w3.org/2000/svg" viewBox="0 0 210.98 194.71">
  <defs>
    <style>
      .cls-1 {
        fill: #5762b8;
      }
    </style>
  </defs>
  <g id="icon">
    <path class="cls-1" d="m96.24,194.71c-.03-.16.52-91.03.52-91.03,0-2.74-1.75-6.04-6.31-5.31-1.06.18-1.97.82-2.96,1.2-6.33,2.35-13.06,3.4-20.18,3.13-2.15-.07-3.9-1.69-3.9-5.89v-27.54c0-1.99,1.67-3.55,3.78-3.67,3.25-.18,6.46-1.02,9.66-2.5,4.44-2.05,8.72-4.76,12.86-8.12,3.59-2.93,9.54-7.91,11.02-9.16.23-.18.51-.28.81-.28h31.56c2.18,0,3.95,1.66,3.95,3.71v142.76c25.26-7.29,46.54-23.09,60.11-43.82,8.79-14.47,13.82-31.22,13.82-49.07C210.98,44.38,163.74,0,105.48,0S0,44.38,0,99.11c0,15.96,4.02,31.03,11.16,44.39,16.86,28.53,48.32,48.27,85.08,51.21Z"/>
  </g>
  <g id="Layer_2" data-name="Layer 2">
    <path class="cls-1" d="m131.21,166.91h-1.69v-71.58c0-1.84-1.6-3.35-3.56-3.35h-3.34c.13-.15.22-.34.22-.55v-2.26c0-.51-.43-.91-.97-.91-.94,0-.43-2.08-.46-3.02l-.67-11.34-1.54-13.64-1.51,13.82-1.05,11.27c-.03.94.52,2.93-.42,2.93-.54,0-.97.42-.97.91v2.26c0,.21.09.4.22.55h-3.34c-1.96,0-3.56,1.51-3.56,3.35v20.69h12.01c1.06,0,1.93.87,1.93,1.93s-.87,1.93-1.93,1.93h-12.01v4.53h6.82c1.06,0,1.93.87,1.93,1.93s-.87,1.93-1.93,1.93h-6.82v4.29h12.01c1.06,0,1.93.87,1.93,1.93s-.87,1.93-1.93,1.93h-12.01v3.16h5.74c1.06,0,1.93.87,1.93,1.93s-.87,1.93-1.93,1.93h-5.74v23.44h-1.69c-.78,0-1.41.6-1.41,1.32v5.04c0,.73.63,1.32,1.41,1.32h5c.97,0,1.75.78,1.75,1.75v11.15h-1.56c-.75,0-1.38.58-1.38,1.29v3.86c0,.7.61,2.08,1.38,2.08,0,0,15.36-.73,15.36-1.44l-.06-4.5c0-.7-.61-1.29-1.38-1.29h-1.56v-11.15c0-.97.78-1.75,1.75-1.75h5c.78,0,1.41-.6,1.41-1.32v-5.04c0-.73-.63-1.32-1.41-1.32h.01Z"/>
  </g>
</svg>