<svg width="31" height="26" viewBox="0 0 31 26" fill="none" xmlns="http://www.w3.org/2000/svg">
<g clip-path="url(#clip0_332_721)">
<path d="M30.4375 11.1365L25.1875 7.08751V2.40748C25.1875 2.14247 24.9694 1.92589 24.703 1.92589H21.7967C21.5304 1.92589 21.3123 2.14247 21.3123 2.40748V4.09874L16.3906 0.303081C15.8664 -0.101027 15.1335 -0.101027 14.6096 0.303081L0.562407 11.1365C-0.0717649 11.6258 -0.186908 12.5331 0.305107 13.163C0.796899 13.7931 1.70963 13.908 2.3438 13.4187L14.7732 3.83308C14.7732 3.83308 15.1244 3.52295 15.4998 3.52295C15.8751 3.52295 16.2258 3.83264 16.2258 3.83264L28.6562 13.419C28.921 13.6232 29.2347 13.7223 29.5459 13.7223C29.9794 13.7223 30.4088 13.5301 30.6948 13.1632C31.1869 12.5328 31.0717 11.6256 30.4375 11.1365Z" fill="#FCECE2"/>
<path d="M26.7424 13.726L15.8826 5.35067C15.6721 5.18845 15.3277 5.18845 15.1174 5.35067L4.25763 13.726C4.04683 13.8882 3.875 14.2379 3.875 14.5025V25.5184C3.875 25.7832 4.09311 26 4.35949 26H12.1095C12.3761 26 12.594 25.7832 12.594 25.5184V17.8146C12.594 17.5498 12.8121 17.333 13.0785 17.333H17.9222C18.1886 17.333 18.4067 17.5498 18.4067 17.8146V25.5184C18.4067 25.7832 18.6248 26 18.8912 26H26.6414C26.9078 26 27.1259 25.7832 27.1259 25.5184V14.5025C27.1259 14.2379 26.9536 13.8882 26.7433 13.726H26.7424Z" fill="#FCECE2"/>
</g>
<defs>
<clipPath id="clip0_332_721">
<rect width="31" height="26" fill="white"/>
</clipPath>
</defs>
</svg>
