<svg width="79" height="81" viewBox="0 0 79 81" fill="none" xmlns="http://www.w3.org/2000/svg">
<path opacity="0.5" d="M25.9356 35.2572C24.5028 35.0811 23.4266 33.8703 23.4266 32.4345V26.1061H6.87756V32.4345C6.87756 33.8703 5.80134 35.0811 4.36853 35.2572C2.4477 35.4935 1.00546 37.1162 1.00546 39.0407V71.3094C1.00546 73.9787 3.18121 76.1429 5.86581 76.1429H24.4388C27.1229 76.1429 29.2991 73.9792 29.2991 71.3094V39.0407C29.2991 37.1162 27.8569 35.4935 25.9361 35.2572H25.9356Z" fill="white" stroke="white" stroke-width="2" stroke-miterlimit="10"/>
<path opacity="0.3" d="M25.9395 35.2571C24.5067 35.081 23.4419 33.8702 23.4419 32.4344V26.104H6.90036V32.4344C6.90036 33.8702 5.81026 35.081 4.37695 35.2571C2.45612 35.4934 1 37.116 1 39.0406V71.3093C1 73.9786 3.1817 76.1467 5.8658 76.1467H24.4388C27.1229 76.1467 29.2907 73.9786 29.2907 71.3093V39.0406C29.2907 37.116 27.8599 35.4934 25.9395 35.2571ZM25.9609 71.3093C25.9609 72.1423 25.2819 72.817 24.4447 72.817H5.8663C5.02715 72.817 4.34075 72.1344 4.34075 71.2999V39.0406C4.34075 38.7915 4.52822 38.5809 4.77669 38.5503C7.87591 38.1691 10.2128 35.5402 10.2128 32.4344C10.2128 30.7679 11.5713 29.4169 13.2471 29.4169H17.0545C18.7304 29.4169 20.0888 30.7679 20.0888 32.4344C20.0888 35.5397 22.4277 38.1765 25.5269 38.5414C25.7754 38.5745 25.9614 38.7915 25.9614 39.0406V71.3093H25.9609Z" fill="white"/>
<path d="M25.9356 35.2572C24.5028 35.0811 23.4266 33.8703 23.4266 32.4345V26.1061H6.87756V32.4345C6.87756 33.8703 5.80134 35.0811 4.36853 35.2572C2.4477 35.4935 1.00546 37.1162 1.00546 39.0407V71.3094C1.00546 73.9787 3.18121 76.1429 5.86581 76.1429H24.4388C27.1229 76.1429 29.2991 73.9792 29.2991 71.3094V39.0407C29.2991 37.1162 27.8569 35.4935 25.9361 35.2572H25.9356Z" fill="#F2F2F2"/>
<path opacity="0.3" d="M25.9395 35.2571C24.5067 35.081 23.4419 33.8702 23.4419 32.4344V26.104H6.90036V32.4344C6.90036 33.8702 5.81026 35.081 4.37695 35.2571C2.45612 35.4934 1 37.116 1 39.0406V71.3093C1 73.9786 3.1817 76.1467 5.8658 76.1467H24.4388C27.1229 76.1467 29.2907 73.9786 29.2907 71.3093V39.0406C29.2907 37.116 27.8599 35.4934 25.9395 35.2571ZM25.9609 71.3093C25.9609 72.1423 25.2819 72.817 24.4447 72.817H5.8663C5.02715 72.817 4.34075 72.1344 4.34075 71.2999V39.0406C4.34075 38.7915 4.52822 38.5809 4.77669 38.5503C7.87591 38.1691 10.2128 35.5402 10.2128 32.4344C10.2128 30.7679 11.5713 29.4169 13.2471 29.4169H17.0545C18.7304 29.4169 20.0888 30.7679 20.0888 32.4344C20.0888 35.5397 22.4277 38.1765 25.5269 38.5414C25.7754 38.5745 25.9614 38.7915 25.9614 39.0406V71.3093H25.9609Z" fill="#CCCCCC"/>
<path d="M4.50938 14.403H25.7947C26.4618 14.403 27.0034 14.9415 27.0034 15.6049V18.8103C27.0034 19.0313 26.8229 19.2108 26.6007 19.2108H3.70395C3.48176 19.2108 3.30124 19.0313 3.30124 18.8103V15.6049C3.30124 14.9415 3.84282 14.403 4.50988 14.403H4.50938Z" fill="#F8A217"/>
<path d="M29.2986 69.4059H5.52557C3.86165 69.4059 2.51265 68.0643 2.51265 66.4096V44.6099C2.51265 42.9552 3.86165 41.6136 5.52557 41.6136H29.2986V69.4059Z" fill="#FCFCFC"/>
<path d="M16.7044 58.9031H4.39779C4.16168 58.9031 3.97027 59.0934 3.97027 59.3282V60.1623C3.97027 60.3971 4.16168 60.5874 4.39779 60.5874H16.7044C16.9405 60.5874 17.1319 60.3971 17.1319 60.1623V59.3282C17.1319 59.0934 16.9405 58.9031 16.7044 58.9031Z" fill="black"/>
<path d="M19.5408 61.9077H4.39779C4.16168 61.9077 3.97027 62.0981 3.97027 62.3329V63.1669C3.97027 63.4017 4.16168 63.592 4.39779 63.592H19.5408C19.7769 63.592 19.9683 63.4017 19.9683 63.1669V62.3329C19.9683 62.0981 19.7769 61.9077 19.5408 61.9077Z" fill="black"/>
<path d="M24.2593 64.9125H4.39779C4.16168 64.9125 3.97027 65.1028 3.97027 65.3376V66.1717C3.97027 66.4065 4.16168 66.5968 4.39779 66.5968H24.2593C24.4954 66.5968 24.6868 66.4065 24.6868 66.1717V65.3376C24.6868 65.1028 24.4954 64.9125 24.2593 64.9125Z" fill="black"/>
<path d="M12.4595 55.8988H4.39777C4.16166 55.8988 3.97026 56.0892 3.97026 56.324V57.158C3.97026 57.3928 4.16166 57.5831 4.39777 57.5831H12.4595C12.6956 57.5831 12.887 57.3928 12.887 57.158V56.324C12.887 56.0892 12.6956 55.8988 12.4595 55.8988Z" fill="black"/>
<path d="M16.1192 55.8988H14.1086C13.8724 55.8988 13.681 56.0892 13.681 56.324V57.158C13.681 57.3928 13.8724 57.5831 14.1086 57.5831H16.1192C16.3553 57.5831 16.5467 57.3928 16.5467 57.158V56.324C16.5467 56.0892 16.3553 55.8988 16.1192 55.8988Z" fill="black"/>
<path d="M22.4694 55.8988H17.9929C17.7568 55.8988 17.5654 56.0892 17.5654 56.324V57.158C17.5654 57.3928 17.7568 57.5831 17.9929 57.5831H22.4694C22.7055 57.5831 22.8969 57.3928 22.8969 57.158V56.324C22.8969 56.0892 22.7055 55.8988 22.4694 55.8988Z" fill="black"/>
<path d="M3.3548 15.2489H26.9498C26.7976 14.7512 26.3378 14.4193 25.7947 14.4193H4.50938C3.96631 14.4193 3.50706 14.7512 3.3543 15.2489H3.3548Z" fill="#F9B545"/>
<path d="M29.2986 69.4059H5.52557C3.86165 69.4059 2.51265 68.0643 2.51265 66.4096V44.6099C2.51265 42.9552 3.86165 41.6136 5.52557 41.6136H29.2986V69.4059Z" stroke="#B3B3B3" stroke-width="1.25" stroke-linecap="round" stroke-linejoin="round"/>
<path d="M6.65042 51.6318H6.13859L4.90664 48.3356L4.89126 48.3371V51.6318H4.30753V46.8289H4.82679L6.0627 50.1245L6.07808 50.1275V46.8289H6.65042V51.6318Z" fill="#5762B8"/>
<path d="M10.009 51.6318H9.38064L9.20408 50.6819H8.18192L8.00288 51.6318H7.38245L8.42494 46.8289H8.95958L10.0095 51.6318H10.009ZM9.1168 50.1956L8.69226 47.9169H8.67688L8.27565 50.1956H9.11729H9.1168Z" fill="#5762B8"/>
<path d="M12.5076 51.6318H10.7599V46.8289H11.4121V51.0927H12.5076V51.6318Z" fill="#5762B8"/>
<path d="M12.9208 49.217C12.9208 48.1748 13.0239 47.5006 13.2297 47.1943C13.4356 46.888 13.7748 46.7346 14.2474 46.7346C14.788 46.7346 15.1476 46.9063 15.3261 47.249C15.5042 47.5918 15.5935 48.2088 15.5935 49.1006C15.5935 49.8991 15.5538 50.453 15.4739 50.7617C15.3941 51.0705 15.2567 51.2979 15.0608 51.4434C14.8649 51.5889 14.5991 51.6619 14.2628 51.6619C13.9266 51.6619 13.6513 51.5948 13.4668 51.4606C13.2823 51.3265 13.1454 51.1085 13.0557 50.8071C12.9659 50.5058 12.9213 49.976 12.9213 49.2175L12.9208 49.217ZM14.911 49.2545C14.911 48.343 14.857 47.7797 14.7493 47.5652C14.6417 47.3506 14.48 47.2431 14.2648 47.2431C14.0114 47.2431 13.8378 47.3719 13.744 47.6293C13.6503 47.8868 13.6032 48.3203 13.6032 48.9304V49.1943C13.6032 49.8744 13.6414 50.3711 13.7173 50.6838C13.7931 50.9965 13.9756 51.1529 14.2648 51.1529C14.4423 51.1529 14.5941 51.0651 14.7211 50.8895C14.848 50.7139 14.911 50.2276 14.911 49.432V49.255V49.2545Z" fill="#5762B8"/>
<path d="M18.4968 51.6318H17.8843L17.243 49.9795L16.6013 51.6318H15.9719L16.9281 49.1578L16.0438 46.8289H16.6682L17.2435 48.3411L17.8282 46.8289H18.4655L17.5579 49.1672L18.4963 51.6318H18.4968Z" fill="#5762B8"/>
<path d="M18.9253 49.217C18.9253 48.1748 19.0284 47.5006 19.2342 47.1943C19.4401 46.888 19.7793 46.7346 20.2519 46.7346C20.7925 46.7346 21.1521 46.9063 21.3306 47.249C21.5087 47.5918 21.598 48.2088 21.598 49.1006C21.598 49.8991 21.5583 50.453 21.4784 50.7617C21.3986 51.0705 21.2612 51.2979 21.0653 51.4434C20.8694 51.5889 20.6036 51.6619 20.2673 51.6619C19.9311 51.6619 19.6558 51.5948 19.4713 51.4606C19.2868 51.3265 19.1499 51.1085 19.0602 50.8071C18.9704 50.5058 18.9258 49.976 18.9258 49.2175L18.9253 49.217ZM20.9155 49.2545C20.9155 48.343 20.8615 47.7797 20.7539 47.5652C20.6462 47.3506 20.4845 47.2431 20.2693 47.2431C20.0159 47.2431 19.8423 47.3719 19.7486 47.6293C19.6548 47.8868 19.6077 48.3203 19.6077 48.9304V49.1943C19.6077 49.8744 19.6459 50.3711 19.7218 50.6838C19.7977 50.9965 19.9802 51.1529 20.2693 51.1529C20.4469 51.1529 20.5986 51.0651 20.7256 50.8895C20.8525 50.7139 20.9155 50.2276 20.9155 49.432V49.255V49.2545Z" fill="#5762B8"/>
<path d="M24.8008 51.6318H24.289L23.0571 48.3356L23.0417 48.3371V51.6318H22.458V46.8289H22.9772L24.2131 50.1245L24.2285 50.1275V46.8289H24.8008V51.6318Z" fill="#5762B8"/>
<path d="M27.5038 51.6318H25.7561V46.8289H27.473V47.3753H26.4003V48.8984H27.3937V49.4449H26.4003V51.0996H27.5033V51.6313L27.5038 51.6318Z" fill="#5762B8"/>
<path d="M16.7044 58.9031H4.39779C4.16168 58.9031 3.97027 59.0934 3.97027 59.3282V60.1623C3.97027 60.3971 4.16168 60.5874 4.39779 60.5874H16.7044C16.9405 60.5874 17.1319 60.3971 17.1319 60.1623V59.3282C17.1319 59.0934 16.9405 58.9031 16.7044 58.9031Z" fill="#706D6D"/>
<path d="M19.5408 61.9077H4.39779C4.16168 61.9077 3.97027 62.0981 3.97027 62.3329V63.1669C3.97027 63.4017 4.16168 63.592 4.39779 63.592H19.5408C19.7769 63.592 19.9683 63.4017 19.9683 63.1669V62.3329C19.9683 62.0981 19.7769 61.9077 19.5408 61.9077Z" fill="#706D6D"/>
<path d="M24.2593 64.9125H4.39779C4.16168 64.9125 3.97027 65.1028 3.97027 65.3376V66.1717C3.97027 66.4065 4.16168 66.5968 4.39779 66.5968H24.2593C24.4954 66.5968 24.6868 66.4065 24.6868 66.1717V65.3376C24.6868 65.1028 24.4954 64.9125 24.2593 64.9125Z" fill="#706D6D"/>
<path d="M12.4595 55.8988H4.39777C4.16166 55.8988 3.97026 56.0892 3.97026 56.324V57.158C3.97026 57.3928 4.16166 57.5831 4.39777 57.5831H12.4595C12.6956 57.5831 12.887 57.3928 12.887 57.158V56.324C12.887 56.0892 12.6956 55.8988 12.4595 55.8988Z" fill="#706D6D"/>
<path d="M16.1192 55.8988H14.1086C13.8724 55.8988 13.681 56.0892 13.681 56.324V57.158C13.681 57.3928 13.8724 57.5831 14.1086 57.5831H16.1192C16.3553 57.5831 16.5467 57.3928 16.5467 57.158V56.324C16.5467 56.0892 16.3553 55.8988 16.1192 55.8988Z" fill="#706D6D"/>
<path d="M22.4694 55.8988H17.9929C17.7568 55.8988 17.5654 56.0892 17.5654 56.324V57.158C17.5654 57.3928 17.7568 57.5831 17.9929 57.5831H22.4694C22.7055 57.5831 22.8969 57.3928 22.8969 57.158V56.324C22.8969 56.0892 22.7055 55.8988 22.4694 55.8988Z" fill="#706D6D"/>
<path d="M25.9356 35.2572C24.5028 35.0811 23.4266 33.8703 23.4266 32.4345V26.1061H6.87756V32.4345C6.87756 33.8703 5.80134 35.0811 4.36853 35.2572C2.4477 35.4935 1.00546 37.1162 1.00546 39.0407V71.3094C1.00546 73.9787 3.18121 76.1429 5.86581 76.1429H24.4388C27.1229 76.1429 29.2991 73.9792 29.2991 71.3094V39.0407C29.2991 37.1162 27.8569 35.4935 25.9361 35.2572H25.9356Z" stroke="#B3B3B3" stroke-width="1.25" stroke-linecap="round" stroke-linejoin="round"/>
<path d="M4.14038 18.7769H26.1642V24.6195C26.1642 25.7805 25.2164 26.7231 24.049 26.7231H6.25512C5.08765 26.7231 4.13988 25.7805 4.13988 24.6195V18.7769H4.14038Z" fill="#CCCCCC"/>
<path d="M4.14038 18.7769H26.1642V24.6195C26.1642 25.7805 25.2164 26.7231 24.049 26.7231H6.25512C5.08765 26.7231 4.13988 25.7805 4.13988 24.6195V18.7769H4.14038Z" stroke="#B3B3B3" stroke-width="2" stroke-linecap="round" stroke-linejoin="round"/>
<path d="M4.50938 14.403H25.7947C26.4618 14.403 27.0034 14.9415 27.0034 15.6049V18.8103C27.0034 19.0313 26.8229 19.2108 26.6007 19.2108H3.70395C3.48176 19.2108 3.30124 19.0313 3.30124 18.8103V15.6049C3.30124 14.9415 3.84282 14.403 4.50988 14.403H4.50938Z" fill="#5F6AC4"/>
<path d="M4.50938 14.403H25.7947C26.4618 14.403 27.0034 14.9415 27.0034 15.6049V18.8103C27.0034 19.0313 26.8229 19.2108 26.6007 19.2108H3.70395C3.48176 19.2108 3.30124 19.0313 3.30124 18.8103V15.6049C3.30124 14.9415 3.84282 14.403 4.50988 14.403H4.50938Z" stroke="#5762B8" stroke-width="2" stroke-linecap="round" stroke-linejoin="round"/>
<path d="M70.616 80.0004L70.3234 79.5166L77.0376 75.4981L77.3303 75.9819L70.616 80.0004Z" fill="#E6E6E6"/>
<path d="M69.2908 73.7291L64.7924 66.2948L67.8834 64.4453L72.3817 71.8796L74.5959 76.9639L72.7711 78.0558L69.2908 73.7291Z" fill="#E6E6E6"/>
<path d="M42.1051 25.0263L28.7433 2.93569L29.1055 4.15391L41.83 25.191L42.1051 25.0263Z" fill="#F2F2F2"/>
<path d="M42.1051 25.0263L28.7433 2.93569L29.1055 4.15391L41.83 25.191L42.1051 25.0263Z" stroke="#B3B3B3" stroke-width="0.5" stroke-linecap="round" stroke-linejoin="round"/>
<path d="M45.581 34.9481L47.3999 37.9536L50.862 35.8824L49.0431 32.8769L45.581 34.9481Z" fill="#5F6AC4" stroke="#5762B8" stroke-width="0.5"/>
<path d="M45.753 33.0717L46.2838 33.9488L47.8268 33.0257L47.296 32.1486L45.753 33.0717Z" fill="#5F6AC4" stroke="#5762B8" stroke-width="0.5"/>
<mask id="path-40-inside-1_250_669" fill="white">
<path d="M44.8757 33.3073L44.65 32.9343L47.6914 31.1142L47.917 31.4872L44.8757 33.3073Z"/>
</mask>
<path d="M44.8757 33.3073L44.65 32.9343L47.6914 31.1142L47.917 31.4872L44.8757 33.3073Z" fill="#5F6AC4"/>
<path d="M44.65 32.9343L44.221 33.1911L43.9622 32.7633L44.3912 32.5065L44.65 32.9343ZM44.8757 33.3073L45.1345 33.7351L44.7055 33.9919L44.4466 33.5641L44.8757 33.3073ZM47.917 31.4872L48.3461 31.2305L48.6049 31.6583L48.1759 31.915L47.917 31.4872ZM47.6914 31.1142L47.4326 30.6864L47.8616 30.4297L48.1204 30.8575L47.6914 31.1142ZM45.0791 32.6776L45.3047 33.0506L44.4466 33.5641L44.221 33.1911L45.0791 32.6776ZM44.6169 32.8795L47.6582 31.0594L48.1759 31.915L45.1345 33.7351L44.6169 32.8795ZM47.488 31.744L47.2623 31.371L48.1204 30.8575L48.3461 31.2305L47.488 31.744ZM47.9502 31.542L44.9088 33.3621L44.3912 32.5065L47.4326 30.6864L47.9502 31.542Z" fill="#5762B8" mask="url(#path-40-inside-1_250_669)"/>
<path d="M44.2334 30.4293L45.1287 32.3586L46.9561 31.2654L45.6609 29.5753L44.2334 30.4293Z" fill="#5F6AC4" stroke="#5762B8" stroke-width="0.5"/>
<path d="M42.2591 26.0078L44.2842 29.8192L45.0665 29.3511L42.6285 25.7868L42.2591 26.0078Z" fill="#5F6AC4" stroke="#5762B8" stroke-width="0.5"/>
<path d="M42.7036 25.4525L42.1317 25.0097L41.8018 25.207L41.9278 25.9167L42.7036 25.4525Z" fill="#FBB03B"/>
<path d="M47.3148 38.2958L45.237 34.8625L49.1282 32.5347L51.206 35.968L47.3148 38.2958Z" stroke="#5762B8" stroke-width="0.5" stroke-linecap="round" stroke-linejoin="round"/>
<path d="M46.1987 34.291L45.4091 32.9862L47.3811 31.8064L48.1708 33.1113L46.1987 34.291Z" stroke="#5762B8" stroke-width="0.5" stroke-linecap="round" stroke-linejoin="round"/>
<path d="M44.8757 33.3073L44.65 32.9343L47.6914 31.1142L47.917 31.4872L44.8757 33.3073Z" stroke="#5762B8" stroke-width="0.5" stroke-linecap="round" stroke-linejoin="round"/>
<path d="M47.325 31.336L45.7237 29.2464L43.9117 30.3304L45.0187 32.7157L47.325 31.336Z" stroke="#5762B8" stroke-width="0.5" stroke-linecap="round" stroke-linejoin="round"/>
<path d="M45.4228 29.4293L42.702 25.4515L41.9268 25.9153L44.1868 30.1688L45.4228 29.4293Z" stroke="#5762B8" stroke-width="0.5" stroke-linecap="round" stroke-linejoin="round"/>
<path d="M42.7036 25.4525L42.1317 25.0097L41.8018 25.207L41.9278 25.9167L42.7036 25.4525Z" fill="#5F6AC4" stroke="#5762B8" stroke-width="0.5" stroke-linecap="round" stroke-linejoin="round"/>
<path d="M63.7186 65.9783L47.0583 38.4415L51.4512 35.8127L68.1115 63.3496L63.7186 65.9783Z" fill="#F2F2F2"/>
<path d="M61.3139 68.3811L60.8831 67.6691L70.9368 61.6519L71.3675 62.3639L61.3139 68.3811Z" fill="#E6E6E6"/>
<path d="M61.3139 68.3811L60.8831 67.6691L70.9368 61.6519L71.3675 62.3639L61.3139 68.3811Z" stroke="#B3B3B3" stroke-width="0.5" stroke-linecap="round" stroke-linejoin="round"/>
<path d="M70.616 80.0004L70.3234 79.5166L77.0376 75.4981L77.3303 75.9819L70.616 80.0004Z" stroke="#B3B3B3" stroke-width="0.5" stroke-linecap="round" stroke-linejoin="round"/>
<path d="M69.2908 73.7291L64.7924 66.2948L67.8834 64.4453L72.3817 71.8796L74.5959 76.9639L72.7711 78.0558L69.2908 73.7291Z" stroke="#B3B3B3" stroke-width="0.5" stroke-linecap="round" stroke-linejoin="round"/>
<path d="M73.485 77.6257L66.1438 65.4893L66.5368 65.254L73.878 77.3905L73.485 77.6257Z" fill="#B3B3B3"/>
<path d="M73.485 77.6257L66.1438 65.4893L66.5368 65.254L73.878 77.3905L73.485 77.6257Z" stroke="#B3B3B3" stroke-width="0.5" stroke-linecap="round" stroke-linejoin="round"/>
<path d="M51.6972 46.1158L51.3502 45.5422L55.7507 42.9088L56.0977 43.4824L51.6972 46.1158Z" fill="#666666"/>
<path d="M51.6774 45.3479L51.3536 44.8126L55.1008 42.5701L55.4247 43.1054L51.6774 45.3479Z" fill="#666666"/>
<path d="M64.3685 65.5878L52.3488 45.7211L55.4391 43.8718L67.4587 63.7385L64.3685 65.5878Z" fill="#E6E6E6"/>
<path d="M50.7489 44.113L50.8288 43.7307C50.8953 43.4129 51.0915 43.1372 51.3707 42.9702L53.4567 41.7221C53.7359 41.555 54.0727 41.5117 54.3862 41.6021L54.7633 41.7111C54.9678 41.7699 55.1423 41.9037 55.2523 42.0855L55.4284 42.3765L51.0287 45.009L50.8526 44.7179C50.7426 44.5362 50.7055 44.3202 50.7489 44.113Z" fill="#666666"/>
<path d="M65.7148 64.779L53.7001 44.9158L54.0931 44.6805L66.1077 64.5437L65.7148 64.779Z" fill="#B3B3B3"/>
<path d="M65.7148 64.779L53.7001 44.9158L54.0931 44.6805L66.1077 64.5437L65.7148 64.779Z" stroke="#B3B3B3" stroke-width="0.5" stroke-linecap="round" stroke-linejoin="round"/>
<path d="M51.6774 45.3479L51.3536 44.8126L55.1008 42.5701L55.4247 43.1054L51.6774 45.3479Z" stroke="#4D4D4D" stroke-width="0.5" stroke-linecap="round" stroke-linejoin="round"/>
<path d="M50.7489 44.113L50.8288 43.7307C50.8953 43.4129 51.0915 43.1372 51.3707 42.9702L53.4567 41.7221C53.7359 41.555 54.0727 41.5117 54.3862 41.6021L54.7633 41.7111C54.9678 41.7699 55.1423 41.9037 55.2523 42.0855L55.4284 42.3765L51.0287 45.009L50.8526 44.7179C50.7426 44.5362 50.7055 44.3202 50.7489 44.113Z" stroke="#4D4D4D" stroke-width="0.5" stroke-linecap="round" stroke-linejoin="round"/>
<path d="M64.3685 65.5878L52.3488 45.7211L55.4391 43.8718L67.4587 63.7385L64.3685 65.5878Z" stroke="#B3B3B3" stroke-width="0.5" stroke-linecap="round" stroke-linejoin="round"/>
<path d="M49.0424 38.0854L48.9458 37.9257L51.3796 36.469L51.4763 36.6288L49.0424 38.0854Z" fill="#333333"/>
<path d="M51.0985 41.485L51.0019 41.3252L53.4357 39.8685L53.5324 40.0283L51.0985 41.485Z" fill="#333333"/>
<path d="M51.4511 40.3481L51.3545 40.1884L52.4432 39.5368L52.5398 39.6966L51.4511 40.3481Z" fill="#333333"/>
<path d="M51.0398 39.668L50.9432 39.5083L52.0319 38.8568L52.1285 39.0165L51.0398 39.668Z" fill="#333333"/>
<path d="M50.6285 38.9881L50.5319 38.8284L51.6206 38.1769L51.7172 38.3366L50.6285 38.9881Z" fill="#333333"/>
<path d="M50.2172 38.308L50.1206 38.1483L51.2093 37.4968L51.3059 37.6565L50.2172 38.308Z" fill="#333333"/>
<path d="M53.5072 43.7476L53.4106 43.5879L54.4993 42.9364L54.5959 43.0961L53.5072 43.7476Z" fill="#333333"/>
<path d="M53.0959 43.0674L52.9993 42.9077L54.088 42.2562L54.1846 42.4159L53.0959 43.0674Z" fill="#333333"/>
<path d="M52.6848 42.3877L52.5882 42.228L53.6769 41.5765L53.7735 41.7362L52.6848 42.3877Z" fill="#333333"/>
<path d="M52.2735 41.7078L52.1769 41.5481L53.2656 40.8966L53.3622 41.0563L52.2735 41.7078Z" fill="#333333"/>
<path d="M55.5635 47.1473L55.4669 46.9875L56.5556 46.336L56.6522 46.4958L55.5635 47.1473Z" fill="#333333"/>
<path d="M55.1522 46.4671L55.0556 46.3074L56.1443 45.6559L56.2409 45.8156L55.1522 46.4671Z" fill="#333333"/>
<path d="M54.7409 45.7872L54.6443 45.6274L55.733 44.9759L55.8296 45.1356L54.7409 45.7872Z" fill="#333333"/>
<path d="M54.3298 45.1075L54.2332 44.9478L55.3219 44.2962L55.4185 44.456L54.3298 45.1075Z" fill="#333333"/>
<path d="M57.6198 50.547L57.5232 50.3873L58.6119 49.7358L58.7085 49.8955L57.6198 50.547Z" fill="#333333"/>
<path d="M57.2085 49.867L57.1119 49.7073L58.2006 49.0558L58.2972 49.2155L57.2085 49.867Z" fill="#333333"/>
<path d="M56.7972 49.1871L56.7006 49.0273L57.7893 48.3758L57.886 48.5356L56.7972 49.1871Z" fill="#333333"/>
<path d="M56.3859 48.5071L56.2893 48.3474L57.378 47.6959L57.4747 47.8556L56.3859 48.5071Z" fill="#333333"/>
<path d="M59.6759 53.9463L59.5793 53.7866L60.668 53.1351L60.7647 53.2948L59.6759 53.9463Z" fill="#333333"/>
<path d="M59.2648 53.2668L59.1682 53.1071L60.2569 52.4555L60.3535 52.6153L59.2648 53.2668Z" fill="#333333"/>
<path d="M58.8535 52.5868L58.7569 52.4271L59.8456 51.7756L59.9423 51.9353L58.8535 52.5868Z" fill="#333333"/>
<path d="M58.4422 51.9067L58.3456 51.7469L59.4343 51.0954L59.5309 51.2552L58.4422 51.9067Z" fill="#333333"/>
<path d="M61.7322 57.3461L61.6356 57.1864L62.7243 56.5349L62.821 56.6946L61.7322 57.3461Z" fill="#333333"/>
<path d="M61.3209 56.6662L61.2243 56.5065L62.313 55.855L62.4097 56.0147L61.3209 56.6662Z" fill="#333333"/>
<path d="M60.9098 55.9864L60.8132 55.8267L61.9019 55.1751L61.9986 55.3349L60.9098 55.9864Z" fill="#333333"/>
<path d="M60.4985 55.3063L60.4019 55.1466L61.4906 54.4951L61.5873 54.6548L60.4985 55.3063Z" fill="#333333"/>
<path d="M53.1548 44.8847L53.0582 44.725L55.492 43.2683L55.5887 43.4281L53.1548 44.8847Z" fill="#333333"/>
<path d="M55.2111 48.2844L55.1145 48.1246L57.5483 46.668L57.645 46.8277L55.2111 48.2844Z" fill="#333333"/>
<path d="M57.2672 51.6839L57.1706 51.5242L59.6044 50.0675L59.7011 50.2273L57.2672 51.6839Z" fill="#333333"/>
<path d="M59.3235 55.0835L59.2269 54.9237L61.6607 53.467L61.7574 53.6268L59.3235 55.0835Z" fill="#333333"/>
<path d="M61.3798 58.4832L61.2832 58.3235L63.717 56.8668L63.8137 57.0266L61.3798 58.4832Z" fill="#333333"/>
<path d="M51.6972 46.1158L51.3502 45.5422L55.7507 42.9088L56.0977 43.4824L51.6972 46.1158Z" stroke="#4D4D4D" stroke-width="0.5" stroke-linecap="round" stroke-linejoin="round"/>
<path d="M63.7186 65.9783L47.0583 38.4415L51.4512 35.8127L68.1115 63.3496L63.7186 65.9783Z" stroke="#B3B3B3" stroke-width="0.5" stroke-linecap="round" stroke-linejoin="round"/>
</svg>
