<?xml version="1.0" encoding="UTF-8"?>
<svg id="Layer_2" data-name="Layer 2" xmlns="http://www.w3.org/2000/svg" viewBox="0 0 291.22 130.14">
  <defs>
    <style>
      .cls-1 {
        fill: #5762b8;
      }
    </style>
  </defs>
  <g id="Layer_2-2" data-name="Layer 2">
    <g>
      <g>
        <path class="cls-1" d="m64.35,130.14c-.02-.11.35-60.84.35-60.84,0-1.83-1.17-4.04-4.22-3.55-.71.12-1.32.55-1.98.8-4.23,1.57-8.73,2.27-13.49,2.09-1.44-.05-2.61-1.13-2.61-3.94v-18.41c0-1.33,1.12-2.37,2.53-2.45,2.17-.12,4.32-.68,6.46-1.67,2.97-1.37,5.83-3.18,8.6-5.43,2.4-1.96,6.38-5.29,7.37-6.12.15-.12.34-.19.54-.19h21.1c1.46,0,2.64,1.11,2.64,2.48v95.42c16.89-4.87,31.12-15.43,40.19-29.29,5.88-9.67,9.24-20.87,9.24-32.8C141.06,29.66,109.48,0,70.53,0S0,29.66,0,66.24c0,10.67,2.69,20.74,7.46,29.67,11.27,19.07,32.31,32.26,56.89,34.23Z"/>
        <path class="cls-1" d="m85.69,111.54h-1.13s0-47.84,0-47.84c0-1.23-1.07-2.24-2.38-2.24h-2.23c.09-.1.15-.23.15-.37v-1.51c0-.34-.29-.61-.65-.61-.63,0-.29-1.39-.31-2.02l-.45-7.58-1.03-9.12-1.01,9.24-.7,7.53c-.02.63.35,1.96-.28,1.96h0c-.36,0-.65.28-.65.61v1.51c0,.14.06.27.15.37h-2.23c-1.31,0-2.38,1.01-2.38,2.24v13.83h8.03c.71,0,1.29.58,1.29,1.29s-.58,1.29-1.29,1.29h-8.03v3.03h4.56c.71,0,1.29.58,1.29,1.29s-.58,1.29-1.29,1.29h-4.56v2.87h8.03c.71,0,1.29.58,1.29,1.29s-.58,1.29-1.29,1.29h-8.03v2.11h3.84c.71,0,1.29.58,1.29,1.29s-.58,1.29-1.29,1.29h-3.84v15.67h-1.13c-.52,0-.94.4-.94.88v3.37c0,.49.42.88.94.88h3.34c.65,0,1.17.52,1.17,1.17v7.45h-1.04c-.5,0-.92.39-.92.86v2.58c0,.47.41,1.39.92,1.39,0,0,10.27-.49,10.27-.96l-.04-3.01c0-.47-.41-.86-.92-.86h-1.04v-7.45c0-.65.52-1.17,1.17-1.17h3.34c.52,0,.94-.4.94-.88v-3.37c0-.49-.42-.88-.94-.88Z"/>
      </g>
      <g>
        <path class="cls-1" d="m154.03,83.82v-16.01h2.4l.16,2.95v13.07h-2.56Zm11.24-8.2c0-1.58-.18-2.79-.54-3.62-.36-.83-.86-1.4-1.5-1.71-.64-.31-1.37-.47-2.18-.47-1.41,0-2.5.5-3.28,1.49-.78.99-1.17,2.4-1.17,4.21h-1.25c0-1.69.25-3.14.74-4.35.49-1.22,1.2-2.15,2.13-2.79.93-.64,2.05-.96,3.38-.96,1.94,0,3.47.6,4.6,1.79,1.12,1.2,1.67,3.01,1.65,5.44l-2.56.96Zm0,8.2v-8.2l2.56-.96v9.16h-2.56Z"/>
        <path class="cls-1" d="m177.06,84.21c-1.9,0-3.38-.43-4.44-1.3-1.06-.86-1.58-2.07-1.58-3.6,0-1.62.54-2.87,1.62-3.73,1.08-.86,2.59-1.3,4.53-1.3h5.64v2.15h-5.06c-1.5,0-2.56.25-3.19.74s-.94,1.2-.94,2.11c0,.83.31,1.49.93,1.97.62.48,1.48.72,2.59.72.94,0,1.75-.21,2.43-.64s1.21-1.01,1.57-1.75.54-1.57.54-2.51h1.57c0,2.18-.53,3.91-1.6,5.2-1.07,1.29-2.61,1.94-4.61,1.94Zm4.87-.38l-.26-8.45c-.04-1.26-.2-2.3-.48-3.12s-.7-1.44-1.28-1.86-1.34-.62-2.31-.62-1.71.18-2.39.54c-.67.36-1.22.93-1.65,1.7l-2.27-.93c.41-.75.91-1.39,1.5-1.94.6-.54,1.3-.97,2.11-1.26.81-.3,1.72-.45,2.72-.45,1.47,0,2.7.29,3.68.86.98.58,1.71,1.44,2.19,2.58.48,1.14.72,2.57.72,4.27v8.68h-2.31Z"/>
        <path class="cls-1" d="m188.3,83.82l.06-22.42h2.56l-.06,22.42h-2.56Z"/>
        <path class="cls-1" d="m200.56,84.21c-1.9,0-3.38-.43-4.44-1.3-1.06-.86-1.58-2.07-1.58-3.6,0-1.62.54-2.87,1.62-3.73,1.08-.86,2.59-1.3,4.53-1.3h5.64v2.15h-5.06c-1.5,0-2.56.25-3.19.74s-.94,1.2-.94,2.11c0,.83.31,1.49.93,1.97.62.48,1.48.72,2.59.72.94,0,1.75-.21,2.43-.64s1.21-1.01,1.57-1.75.54-1.57.54-2.51h1.57c0,2.18-.53,3.91-1.6,5.2-1.07,1.29-2.61,1.94-4.61,1.94Zm4.87-.38l-.26-8.45c-.04-1.26-.2-2.3-.48-3.12s-.7-1.44-1.28-1.86-1.34-.62-2.31-.62-1.71.18-2.39.54c-.67.36-1.22.93-1.65,1.7l-2.27-.93c.41-.75.91-1.39,1.5-1.94.6-.54,1.3-.97,2.11-1.26.81-.3,1.72-.45,2.72-.45,1.47,0,2.7.29,3.68.86.98.58,1.71,1.44,2.19,2.58.48,1.14.72,2.57.72,4.27v8.68h-2.31Z"/>
        <path class="cls-1" d="m209.75,83.82l6.53-9.19,4.61-6.82h3.04l-6.08,8.65-5,7.37h-3.11Zm11.5,0l-4.93-7.37-6.15-8.65h3.04l4.64,6.82,6.47,9.19h-3.07Z"/>
        <path class="cls-1" d="m237.2,84.21c-2.26,0-4.26-.5-6-1.49-1.74-.99-3.1-2.36-4.08-4.1-.98-1.74-1.47-3.74-1.47-6s.49-4.26,1.47-6c.98-1.74,2.33-3.1,4.05-4.08,1.72-.98,3.7-1.47,5.94-1.47s4.23.5,5.96,1.49c1.73.99,3.09,2.36,4.07,4.1.98,1.74,1.47,3.74,1.47,6s-.49,4.23-1.46,5.97c-.97,1.74-2.31,3.11-4.02,4.1-1.71.99-3.68,1.49-5.92,1.49Zm0-4c1.34,0,2.54-.33,3.59-.98,1.05-.65,1.86-1.55,2.45-2.69.59-1.14.88-2.45.88-3.92s-.3-2.78-.9-3.91c-.6-1.13-1.42-2.02-2.47-2.67-1.05-.65-2.26-.98-3.65-.98s-2.55.33-3.6.98c-1.06.65-1.88,1.54-2.48,2.67-.6,1.13-.9,2.44-.9,3.94s.3,2.78.9,3.91c.6,1.13,1.43,2.02,2.5,2.67s2.3.98,3.68.98Z"/>
        <path class="cls-1" d="m252.15,83.82v-22.42h4.58l-.19,3.88v18.57l-4.39-.03Zm15.53,0l-14.51-20.02,3.55-2.4,14.44,19.92-3.49,2.5Zm0,0v-22.42h4.36v22.42h-4.36Z"/>
        <path class="cls-1" d="m276.91,83.82v-22.42h4.39v22.42h-4.39Zm3.33-18.41v-4h10.86v4h-10.86Zm0,9v-3.91h9.51v3.91h-9.51Zm0,9.42v-4h10.98v4h-10.98Z"/>
      </g>
    </g>
  </g>
</svg>