<?xml version="1.0" encoding="UTF-8"?>
<svg id="Layer_2" data-name="Layer 2" xmlns="http://www.w3.org/2000/svg" viewBox="0 0 1400 1050">
  <defs>
    <style>
      .cls-1 {
        fill: #5762b8;
      }
    </style>
  </defs>
  <g id="Layer_1-2" data-name="Layer 1">
    <g>
      <path class="cls-1" d="m1400,962.5c0,48.13-39.37,87.5-87.5,87.5H87.5c-48.13,0-87.5-39.37-87.5-87.5h0c0-48.13,39.37-87.5,87.5-87.5h1225c48.13,0,87.5,39.37,87.5,87.5h0Z"/>
      <path class="cls-1" d="m1400,525c0,48.13-39.37,87.5-87.5,87.5H87.5c-48.13,0-87.5-39.37-87.5-87.5h0c0-48.13,39.37-87.5,87.5-87.5h1225c48.13,0,87.5,39.37,87.5,87.5h0Z"/>
      <path class="cls-1" d="m1400,87.5c0,48.13-39.37,87.5-87.5,87.5H87.5C39.37,175,0,135.63,0,87.5h0C0,39.37,39.37,0,87.5,0h1225c48.13,0,87.5,39.37,87.5,87.5h0Z"/>
    </g>
  </g>
</svg>