<svg width="74" height="37" viewBox="0 0 74 37" fill="none" xmlns="http://www.w3.org/2000/svg">
<g clip-path="url(#clip0_239_532)">
<path d="M57.4819 0.208252H11.2221C5.12394 0.208252 0.180429 5.1308 0.180429 11.2031V25.7935C0.180429 31.8657 5.12394 36.7883 11.2221 36.7883H57.4819C63.58 36.7883 68.5235 31.8657 68.5235 25.7935V11.2031C68.5235 5.1308 63.58 0.208252 57.4819 0.208252Z" fill="#838383"/>
<path opacity="0.3" d="M57.4817 0.214127H11.2288C5.13055 0.214127 0.215098 5.14689 0.215098 11.219V25.8056C0.215098 27.0972 0.425024 28.3398 0.835875 29.4928C0.839705 29.5032 0.836258 29.5137 0.840089 29.5242C0.852155 29.5576 0.860966 29.5895 0.873225 29.6226C2.43503 33.806 6.47707 36.7856 11.2221 36.7856H57.4819C63.5732 36.7856 68.5618 31.8763 68.5618 25.8131V11.2189C68.5618 5.1465 63.5799 0.213745 57.4817 0.213745V0.214127ZM66.9788 25.8228C66.9788 31.0285 62.7155 35.2514 57.4786 35.2514H11.2412C6.00435 35.2514 1.75583 31.0285 1.75583 25.8228V11.2135C1.75583 6.00783 6.00435 1.76931 11.2412 1.76931H57.4786C62.7155 1.76931 66.9788 6.00764 66.9788 11.2135V25.8228Z" fill="black"/>
<path d="M57.4817 0.214233H11.2288C5.13055 0.214233 0.215098 5.147 0.215098 11.2192V25.8057C0.215098 27.6985 0.681494 29.4782 1.52733 31.0334C3.39713 34.4605 7.02985 36.7859 11.2221 36.7859H57.4819C63.4838 36.7859 68.3864 32.0187 68.539 26.0789C68.5413 25.9877 68.5618 25.8975 68.5618 25.8059V11.2193C68.5618 5.147 63.5799 0.214233 57.4817 0.214233ZM67.3375 25.8008C67.3375 31.2046 62.9201 35.6089 57.493 35.6089H11.2479C5.82086 35.6089 1.43922 31.2044 1.43922 25.8008V11.215C1.43922 5.81111 5.82086 1.39121 11.2479 1.39121H57.4932C62.9203 1.39121 67.3377 5.81111 67.3377 11.215V25.8008H67.3375Z" fill="#F2F2F2"/>
<path d="M57.4817 0.214233H11.2288C5.13055 0.214233 0.215098 5.147 0.215098 11.2192V25.8057C0.215098 27.6985 0.681494 29.4782 1.52733 31.0334C3.39713 34.4605 7.02985 36.7859 11.2221 36.7859H57.4819C63.4838 36.7859 68.3864 32.0187 68.539 26.0789C68.5413 25.9877 68.5618 25.8975 68.5618 25.8059V11.2193C68.5618 5.147 63.5799 0.214233 57.4817 0.214233Z" stroke="#E6E6E6" stroke-width="3" stroke-miterlimit="10"/>
<path d="M63.306 11.2283C63.306 8.03437 60.6852 5.42676 57.4742 5.42676H11.2456C8.03466 5.42676 5.47092 8.03437 5.47092 11.2283V25.8295C5.47092 29.0234 8.03485 31.6154 11.2456 31.6154H57.4742C60.6852 31.6154 63.306 29.0234 63.306 25.8295V11.2283Z" fill="#939090"/>
<path d="M74 16.5183H67.3025V20.4782H74V16.5183Z" fill="#7A7979"/>
<path d="M15.9527 11.6292H52.8243C53.4073 11.6292 53.8808 12.1006 53.8808 12.6812V20.2742C53.8808 20.8548 53.4073 21.3263 52.8243 21.3263H15.9527C15.3696 21.3263 14.8962 20.8548 14.8962 20.2742V12.6812C14.8962 12.1006 15.3696 11.6292 15.9527 11.6292Z" fill="#5762B8"/>
<path d="M21.1978 19.9504H20.4684L18.7126 15.2463L18.6909 15.2484V19.9504H17.8589V13.0964H18.599L20.3602 17.7998L20.3818 17.8038V13.0964H21.1976V19.9504H21.1978Z" fill="white"/>
<path d="M25.9845 19.9504H25.0887L24.8368 18.5947H23.3798L23.1247 19.9504H22.2403L23.7261 13.0964H24.4878L25.9843 19.9504H25.9845ZM24.7131 17.9006L24.1082 14.6488H24.0862L23.5141 17.9006H24.7133H24.7131Z" fill="white"/>
<path d="M29.5448 19.9504H27.0543V13.0964H27.9836V19.181H29.545V19.9504H29.5448Z" fill="white"/>
<path d="M30.1338 16.5045C30.1338 15.0173 30.2805 14.055 30.5742 13.6177C30.8676 13.1806 31.3512 12.9618 32.0249 12.9618C32.7956 12.9618 33.308 13.2065 33.562 13.6957C33.816 14.1849 33.9429 15.0657 33.9429 16.3378C33.9429 17.4774 33.8863 18.2678 33.7727 18.7086C33.6593 19.1493 33.463 19.4738 33.1837 19.6817C32.9044 19.8896 32.5254 19.9935 32.0463 19.9935C31.5673 19.9935 31.1746 19.8978 30.9118 19.7059C30.6489 19.5142 30.4535 19.2031 30.3257 18.7732C30.1978 18.3431 30.134 17.5871 30.134 16.5047L30.1338 16.5045ZM32.9703 16.5583C32.9703 15.2578 32.8935 14.4542 32.7401 14.1479C32.5865 13.8416 32.3562 13.6883 32.0492 13.6883C31.688 13.6883 31.4405 13.8719 31.307 14.2393C31.1733 14.6066 31.1065 15.2255 31.1065 16.0962V16.4725C31.1065 17.4435 31.1607 18.152 31.2689 18.5981C31.3773 19.0443 31.6374 19.2672 32.0492 19.2672C32.302 19.2672 32.5187 19.1419 32.6995 18.8911C32.8801 18.6403 32.9705 17.947 32.9705 16.811V16.5585L32.9703 16.5583Z" fill="white"/>
<path d="M38.0811 19.9504H37.2083L36.2947 17.5924L35.3803 19.9504H34.4831L35.8461 16.42L34.5858 13.0964H35.476L36.2962 15.2543L37.1294 13.0964H38.038L36.7442 16.4332L38.0813 19.9504H38.0811Z" fill="white"/>
<path d="M38.6918 16.5045C38.6918 15.0173 38.8385 14.055 39.1321 13.6177C39.4256 13.1806 39.9092 12.9618 40.5828 12.9618C41.3536 12.9618 41.8659 13.2065 42.1199 13.6957C42.3739 14.1849 42.5009 15.0657 42.5009 16.3378C42.5009 17.4774 42.4442 18.2678 42.3306 18.7086C42.2172 19.1493 42.0209 19.4738 41.7416 19.6817C41.4624 19.8896 41.0833 19.9935 40.6043 19.9935C40.1252 19.9935 39.7326 19.8978 39.4698 19.7059C39.2068 19.5142 39.0114 19.2031 38.8837 18.7732C38.7557 18.3431 38.692 17.5871 38.692 16.5047L38.6918 16.5045ZM41.5283 16.5583C41.5283 15.2578 41.4515 14.4542 41.298 14.1479C41.1444 13.8416 40.9142 13.6883 40.6072 13.6883C40.2459 13.6883 39.9984 13.8719 39.8649 14.2393C39.7312 14.6066 39.6644 15.2255 39.6644 16.0962V16.4725C39.6644 17.4435 39.7186 18.152 39.8268 18.5981C39.9352 19.0443 40.1953 19.2672 40.6072 19.2672C40.86 19.2672 41.0766 19.1419 41.2574 18.8911C41.438 18.6403 41.5285 17.947 41.5285 16.811V16.5585L41.5283 16.5583Z" fill="white"/>
<path d="M47.066 19.9504H46.3366L44.5808 15.2463L44.5592 15.2484V19.9504H43.7271V13.0964H44.4672L46.2284 17.7998L46.2501 17.8038V13.0964H47.0658V19.9504H47.066Z" fill="white"/>
<path d="M50.9181 19.9504H48.4275V13.0964H50.875V13.8765H49.3459V16.05H50.7614V16.8301H49.3459V19.1919H50.9181V19.9504Z" fill="white"/>
<path d="M16.1281 25.4128C15.7646 25.4128 15.4685 25.2949 15.2396 25.0594C15.0107 24.8238 14.8962 24.5168 14.8962 24.1384C14.8962 23.7388 15.0124 23.4157 15.2449 23.1689C15.4775 22.9221 15.7855 22.7987 16.1689 22.7987C16.5311 22.7987 16.8242 22.9168 17.0477 23.1531C17.2712 23.3892 17.3831 23.7007 17.3831 24.0873C17.3831 24.4739 17.2672 24.8046 17.0353 25.0479C16.8033 25.2911 16.5011 25.4128 16.1281 25.4128ZM16.1528 23.2889C15.9523 23.2889 15.7929 23.3638 15.6749 23.5135C15.557 23.6635 15.498 23.8616 15.498 24.1084C15.498 24.3552 15.557 24.5568 15.6749 24.7023C15.7929 24.8481 15.9475 24.9209 16.1387 24.9209C16.3298 24.9209 16.4921 24.8502 16.6077 24.7085C16.7234 24.5669 16.7813 24.3703 16.7813 24.1189C16.7813 23.8675 16.7252 23.653 16.6131 23.5073C16.5011 23.3615 16.3476 23.2887 16.1528 23.2887V23.2889Z" fill="#F2F2F2"/>
<path d="M18.3762 24.498V25.3687H17.8045V22.8412H18.7001C19.3397 22.8412 19.6595 23.1097 19.6595 23.6466C19.6595 23.9005 19.5678 24.1057 19.3843 24.2627C19.2008 24.4194 18.9556 24.498 18.6488 24.498H18.3762ZM18.3762 23.2783V24.0662H18.6011C18.9056 24.0662 19.0577 23.9335 19.0577 23.6678C19.0577 23.4021 18.9054 23.2783 18.6011 23.2783H18.3762Z" fill="#F2F2F2"/>
<path d="M20.603 25.3687H20.0313V22.8412H20.603V25.3687Z" fill="#F2F2F2"/>
<path d="M22.2528 25.4128C21.8892 25.4128 21.5931 25.2949 21.3642 25.0594C21.1353 24.8238 21.0208 24.5168 21.0208 24.1384C21.0208 23.7388 21.1371 23.4157 21.3696 23.1689C21.6021 22.9221 21.9101 22.7987 22.2936 22.7987C22.6558 22.7987 22.9488 22.9168 23.1723 23.1531C23.3959 23.3892 23.5077 23.7007 23.5077 24.0873C23.5077 24.4739 23.3918 24.8046 23.1599 25.0479C22.9279 25.2911 22.6257 25.4128 22.2528 25.4128ZM22.2775 23.2889C22.0769 23.2889 21.9176 23.3638 21.7996 23.5135C21.6816 23.6635 21.6226 23.8616 21.6226 24.1084C21.6226 24.3552 21.6816 24.5568 21.7996 24.7023C21.9176 24.8481 22.0721 24.9209 22.2633 24.9209C22.4545 24.9209 22.6167 24.8502 22.7324 24.7085C22.8481 24.5669 22.9059 24.3703 22.9059 24.1189C22.9059 23.8675 22.8498 23.653 22.7377 23.5073C22.6257 23.3615 22.4723 23.2887 22.2775 23.2887V23.2889Z" fill="#F2F2F2"/>
<path d="M24.5007 25.3687H23.9289V22.8412H24.5007V25.3687Z" fill="#F2F2F2"/>
<path d="M25.0778 25.3687V22.8412H25.977C26.8786 22.8412 27.3293 23.2518 27.3293 24.0733C27.3293 24.4669 27.2063 24.7813 26.9602 25.0162C26.7141 25.2512 26.3864 25.3687 25.9769 25.3687H25.0776H25.0778ZM25.6495 23.3047V24.9068H25.9328C26.1807 24.9068 26.3751 24.8328 26.516 24.6848C26.657 24.5367 26.7275 24.3351 26.7275 24.0801C26.7275 23.8393 26.6576 23.6499 26.5178 23.5118C26.3779 23.3737 26.1818 23.3047 25.9292 23.3047H25.6495Z" fill="#F2F2F2"/>
<path d="M29.8233 25.4128C29.4598 25.4128 29.1637 25.2949 28.9348 25.0594C28.7059 24.8238 28.5914 24.5168 28.5914 24.1384C28.5914 23.7388 28.7076 23.4157 28.9402 23.1689C29.1727 22.9221 29.4807 22.7987 29.8641 22.7987C30.2263 22.7987 30.5194 22.9168 30.7429 23.1531C30.9664 23.3892 31.0783 23.7007 31.0783 24.0873C31.0783 24.4739 30.9624 24.8046 30.7305 25.0479C30.4985 25.2911 30.1963 25.4128 29.8233 25.4128ZM29.848 23.2889C29.6475 23.2889 29.4881 23.3638 29.3702 23.5135C29.2522 23.6635 29.1932 23.8616 29.1932 24.1084C29.1932 24.3552 29.2522 24.5568 29.3702 24.7023C29.4881 24.8481 29.6427 24.9209 29.8339 24.9209C30.025 24.9209 30.1873 24.8502 30.3029 24.7085C30.4186 24.5669 30.4765 24.3703 30.4765 24.1189C30.4765 23.8675 30.4204 23.653 30.3083 23.5073C30.1963 23.3615 30.0428 23.2887 29.848 23.2887V23.2889Z" fill="#F2F2F2"/>
<path d="M33.6131 22.8412L32.7387 25.3687H32.091L31.2271 22.8412H31.8431L32.3723 24.6003C32.4007 24.6954 32.4177 24.7795 32.4237 24.8524H32.4342C32.4424 24.7736 32.4608 24.6872 32.489 24.5934L33.0148 22.8414H33.6131V22.8412Z" fill="#F2F2F2"/>
<path d="M35.4398 25.3687H33.9175V22.8412H35.3814V23.3048H34.4892V23.8671H35.3193V24.3289H34.4892V24.9069H35.4398V25.3687Z" fill="#F2F2F2"/>
<path d="M37.9764 25.3687H37.3196L36.9248 24.7183C36.8953 24.6689 36.867 24.6249 36.8398 24.5861C36.8126 24.5474 36.7852 24.5142 36.7574 24.4866C36.7296 24.4589 36.7007 24.4378 36.6707 24.4231C36.6406 24.4084 36.6078 24.4009 36.5724 24.4009H36.4184V25.3687H35.8467V22.8412H36.753C37.369 22.8412 37.677 23.0702 37.677 23.5286C37.677 23.6167 37.6634 23.6981 37.6362 23.7727C37.609 23.8473 37.5707 23.9146 37.5211 23.9745C37.4715 24.0344 37.4117 24.0861 37.3414 24.1295C37.2711 24.173 37.193 24.2072 37.107 24.2318V24.2388C37.1447 24.2507 37.1813 24.2697 37.2167 24.296C37.2522 24.3224 37.2863 24.3533 37.3194 24.3886C37.3523 24.4238 37.3839 24.4618 37.414 24.5022C37.4441 24.5429 37.4715 24.5823 37.4964 24.6212L37.976 25.3685L37.9764 25.3687ZM36.4188 23.2677V23.9709H36.6666C36.7894 23.9709 36.8879 23.9356 36.9622 23.8652C37.0376 23.7935 37.0754 23.7048 37.0754 23.5991C37.0754 23.3783 36.9426 23.2678 36.6772 23.2678H36.4188V23.2677Z" fill="#F2F2F2"/>
<path d="M38.2137 25.3687V22.8412H39.113C40.0145 22.8412 40.4652 23.2518 40.4652 24.0733C40.4652 24.4669 40.3423 24.7813 40.0961 25.0162C39.85 25.2512 39.5223 25.3687 39.1128 25.3687H38.2135H38.2137ZM38.7854 23.3047V24.9068H39.0687C39.3166 24.9068 39.511 24.8328 39.6519 24.6848C39.7929 24.5367 39.8634 24.3351 39.8634 24.0801C39.8634 23.8393 39.7935 23.6499 39.6537 23.5118C39.5139 23.3737 39.3177 23.3047 39.0651 23.3047H38.7854Z" fill="#F2F2F2"/>
<path d="M41.9592 25.4128C41.5957 25.4128 41.2996 25.2949 41.0707 25.0594C40.8418 24.8238 40.7272 24.5168 40.7272 24.1384C40.7272 23.7388 40.8435 23.4157 41.076 23.1689C41.3086 22.9221 41.6166 22.7987 42 22.7987C42.3622 22.7987 42.6553 22.9168 42.8788 23.1531C43.1023 23.3892 43.2142 23.7007 43.2142 24.0873C43.2142 24.4739 43.0983 24.8046 42.8664 25.0479C42.6344 25.2911 42.3321 25.4128 41.9592 25.4128ZM41.9839 23.2889C41.7834 23.2889 41.624 23.3638 41.506 23.5135C41.3881 23.6635 41.3291 23.8616 41.3291 24.1084C41.3291 24.3552 41.3881 24.5568 41.506 24.7023C41.624 24.8481 41.7786 24.9209 41.9698 24.9209C42.1609 24.9209 42.3231 24.8502 42.4388 24.7085C42.5545 24.5669 42.6124 24.3703 42.6124 24.1189C42.6124 23.8675 42.5562 23.653 42.4442 23.5073C42.3321 23.3615 42.1787 23.2887 41.9839 23.2887V23.2889Z" fill="#F2F2F2"/>
<path d="M43.5185 25.2718V24.7079C43.6212 24.7937 43.7327 24.858 43.8532 24.9009C43.9734 24.9438 44.0951 24.9652 44.2178 24.9652C44.2899 24.9652 44.3527 24.9587 44.4063 24.9457C44.4599 24.9327 44.5048 24.9148 44.5408 24.8919C44.5768 24.869 44.6036 24.8419 44.6212 24.8109C44.6388 24.7798 44.6479 24.746 44.6479 24.7096C44.6479 24.6602 44.6337 24.6161 44.6053 24.5774C44.577 24.5387 44.5383 24.5028 44.4894 24.4698C44.4404 24.437 44.3824 24.4052 44.3151 24.3747C44.2479 24.3441 44.1753 24.3131 44.0974 24.2812C43.8991 24.199 43.7513 24.0985 43.654 23.9799C43.5567 23.8612 43.508 23.7178 43.508 23.5498C43.508 23.4182 43.5346 23.3051 43.5877 23.2105C43.6407 23.1159 43.7131 23.0381 43.8045 22.977C43.8959 22.916 44.0018 22.871 44.1223 22.8422C44.2426 22.8134 44.3701 22.7991 44.5046 22.7991C44.639 22.7991 44.7538 22.8071 44.8559 22.8229C44.958 22.8387 45.052 22.8632 45.1382 22.8962V23.4231C45.0957 23.3938 45.0493 23.3678 44.9993 23.3455C44.9491 23.3232 44.8976 23.3047 44.8444 23.29C44.7913 23.2753 44.7384 23.2644 44.686 23.2574C44.6335 23.2503 44.5835 23.2469 44.5364 23.2469C44.4714 23.2469 44.4124 23.253 44.3594 23.2654C44.3063 23.2778 44.2615 23.2952 44.2249 23.3175C44.1883 23.3398 44.16 23.3665 44.1399 23.3976C44.1198 23.4287 44.1098 23.4638 44.1098 23.5025C44.1098 23.5448 44.1209 23.5826 44.1435 23.6161C44.1659 23.6497 44.1977 23.6814 44.2391 23.7113C44.2805 23.7413 44.3305 23.7706 44.3897 23.7994C44.4487 23.8282 44.5153 23.858 44.5896 23.8885C44.6911 23.9308 44.7823 23.9757 44.8631 24.0233C44.944 24.071 45.0133 24.1246 45.0712 24.1847C45.129 24.2446 45.1732 24.3131 45.2039 24.3901C45.2345 24.4672 45.2499 24.5566 45.2499 24.6588C45.2499 24.7998 45.223 24.9182 45.1694 25.014C45.1158 25.1097 45.0428 25.1873 44.9509 25.2467C44.8587 25.306 44.7517 25.3487 44.6297 25.3745C44.5075 25.4002 44.3785 25.4132 44.2429 25.4132C44.1073 25.4132 43.9711 25.4013 43.8455 25.3779C43.7198 25.3544 43.6111 25.3191 43.5189 25.2722L43.5185 25.2718Z" fill="#F2F2F2"/>
<path d="M47.1898 25.3687H45.6674V22.8412H47.1313V23.3048H46.2392V23.8671H47.0693V24.3289H46.2392V24.9069H47.1898V25.3687Z" fill="#F2F2F2"/>
<path d="M50.707 25.3687H49.9847L49.2448 24.2707C49.2306 24.2496 49.2082 24.2032 49.1775 24.1315H49.1687V25.3689H48.597V22.8414H49.1687V24.0365H49.1775C49.1917 24.0037 49.2153 23.9566 49.2484 23.8956L49.9494 22.8416H50.6309L49.7458 24.0472L50.707 25.3691V25.3687Z" fill="#F2F2F2"/>
<path d="M51.5212 25.3687H50.9495V22.8412H51.5212V25.3687Z" fill="#F2F2F2"/>
<path d="M53.8808 23.3048H53.1568V25.3689H52.5833V23.3048H51.8629V22.8412H53.8808V23.3048Z" fill="#F2F2F2"/>
</g>
<defs>
<clipPath id="clip0_239_532">
<rect width="74" height="37" fill="white"/>
</clipPath>
</defs>
</svg>
