<svg width="71" height="52" viewBox="0 0 71 52" fill="none" xmlns="http://www.w3.org/2000/svg">
<g clip-path="url(#clip0_239_626)">
<path d="M62.991 40.8777L41.4472 3.70809C40.1009 1.38592 37.6916 0 35 0C32.3084 0 29.8991 1.38592 28.5528 3.70709L7.00897 40.8777C5.66368 43.1989 5.66368 45.9717 7.00897 48.2929C8.35427 50.6141 10.7646 52.001 13.4562 52.001H56.5438C59.2354 52.001 61.6447 50.6151 62.991 48.2939C64.3363 45.9727 64.3363 43.1999 62.991 40.8787V40.8777ZM56.5438 47.8921H13.4562C10.9007 47.8921 9.30319 45.1362 10.5814 42.9317L32.1252 5.76205C33.4025 3.55753 36.5975 3.55753 37.8748 5.76205L59.4186 42.9317C60.6958 45.1362 59.0993 47.8921 56.5438 47.8921Z" fill="#F9897A"/>
<path d="M32.9921 33.8145L31.5847 20.3989C31.3755 18.4028 32.947 16.6649 34.962 16.6649H35.038C37.052 16.6649 38.6225 18.3998 38.4153 20.3949L37.022 33.8115C36.9159 34.8305 36.054 35.6052 35.025 35.6052H34.988C33.96 35.6052 33.0982 34.8315 32.9911 33.8135L32.9921 33.8145ZM31.889 40.5955V40.5327C31.889 38.8287 33.2763 37.4468 34.987 37.4468H35.05C36.7607 37.4468 38.148 38.8287 38.148 40.5327V40.5955C38.148 42.2995 36.7607 43.6814 35.05 43.6814H34.987C33.2763 43.6814 31.889 42.2995 31.889 40.5955Z" fill="#F9897A"/>
</g>
<path d="M54.9724 35.9037L41.5411 17.7505C38.7437 13.9695 39.5396 8.63715 43.3294 5.83836C47.1138 3.04364 52.4556 3.84387 55.2528 7.62486L68.6841 25.7781C71.4815 29.5591 70.6802 34.8955 66.8958 37.6902C65.0037 39.0876 62.7195 39.5882 60.5635 39.2652C58.4037 38.9368 56.3711 37.7941 54.9724 35.9037Z" fill="#5762B8"/>
<path d="M54.9724 35.9038L48.2549 26.8244L61.9665 16.699L68.6841 25.7782C71.4815 29.5591 70.6802 34.8956 66.8959 37.6903C65.0037 39.0877 62.7195 39.5883 60.5635 39.2653C58.4037 38.9369 56.3709 37.7942 54.9721 35.9038H54.9724Z" fill="#E3E1DD"/>
<g style="mix-blend-mode:multiply" opacity="0.3">
<path d="M54.9724 35.9037L41.5412 17.7505C38.7437 13.9695 39.5396 8.6371 43.3294 5.83831C43.483 5.72496 43.6404 5.61703 43.8022 5.51453C41.3658 7.67795 41.5064 12.1667 44.1904 15.7939L57.6217 33.9474C59.0204 35.8378 60.8501 37.1302 62.6701 37.71C64.3376 38.2325 66.0091 38.1419 67.3445 37.3336C67.1993 37.458 67.0498 37.5771 66.8961 37.6902C65.0039 39.0875 62.7198 39.5881 60.5638 39.2652C58.4039 38.9368 56.3711 37.794 54.9724 35.9037Z" fill="#5762B8"/>
</g>
<g opacity="0.7">
<path d="M53.0591 9.24488L58.4653 16.5517C58.6892 16.8543 59.1165 16.9183 59.4191 16.6948C59.722 16.4711 59.7861 16.0443 59.5622 15.7419L54.1559 8.43515C53.932 8.13279 53.5048 8.06852 53.2021 8.29224C52.8992 8.51596 52.8351 8.94279 53.0591 9.24515V9.24488Z" fill="white"/>
<path d="M51.805 7.5118C52.1185 7.28022 52.1848 6.83847 51.9529 6.52554C51.7211 6.21206 51.279 6.14616 50.9657 6.37748C50.6519 6.60879 50.586 7.05053 50.8175 7.36374C51.0493 7.67694 51.4912 7.74311 51.805 7.5118Z" fill="white"/>
</g>
<g opacity="0.7">
<path d="M66.3874 27.2594L60.9812 19.9526C60.7573 19.65 60.8214 19.2232 61.1243 18.9995C61.4272 18.7758 61.8544 18.8398 62.0781 19.1424L67.4843 26.4492C67.7083 26.7518 67.6442 27.1784 67.3413 27.4021C67.0384 27.6258 66.6114 27.5615 66.3874 27.2592V27.2594Z" fill="white"/>
<path d="M67.6781 28.9654C67.9916 28.7338 68.4335 28.8 68.6656 29.1132C68.8972 29.4264 68.8309 29.8681 68.5174 30.0997C68.2039 30.331 67.7617 30.2648 67.5299 29.9516C67.2981 29.6384 67.3646 29.1967 67.6781 28.9654Z" fill="white"/>
</g>
<g style="mix-blend-mode:screen" opacity="0.2">
<path d="M64.3074 34.1926L45.917 9.33674C45.0916 8.22113 45.7096 6.63259 47.0695 6.35057C49.4707 5.85242 52.0558 6.74269 53.6071 8.83941L67.0403 26.9951C68.5883 29.0875 68.6835 31.819 67.5039 33.9672C66.8356 35.1843 65.1331 35.309 64.3074 34.1929V34.1926Z" fill="white"/>
</g>
<path d="M32.6442 37.7581L11.9534 46.8305C7.64404 48.72 2.6143 46.7657 0.720213 42.4543C-1.17116 38.1491 0.791329 33.1215 5.10067 31.232L25.7915 22.1596C30.1006 20.27 35.1331 22.2306 37.0247 26.5355C37.9701 28.6881 37.9538 31.0246 37.1618 33.0535C36.3635 35.0854 34.7989 36.813 32.6442 37.7581Z" fill="#E3E1DD"/>
<path d="M32.6442 37.7581L22.2957 42.2956L15.443 26.6974L25.7915 22.1598C30.1006 20.2703 35.1331 22.2309 37.0247 26.5358C37.9701 28.6884 37.9538 31.0248 37.1618 33.0537C36.3635 35.0856 34.7989 36.8133 32.6442 37.7583V37.7581Z" fill="#819DFF"/>
<g style="mix-blend-mode:multiply" opacity="0.3">
<path d="M32.6442 37.7581L11.9534 46.8305C7.64404 48.7201 2.61431 46.7657 0.720214 42.4543C0.643669 42.2794 0.573095 42.102 0.508765 41.9217C2.08202 44.7739 6.49505 45.6295 10.6293 43.8167L31.3202 34.7443C33.4748 33.7995 35.1409 32.3026 36.1091 30.6577C36.9881 29.1486 37.2693 27.5001 36.7755 26.0198C36.8646 26.189 36.9476 26.3609 37.0247 26.5355C37.9701 28.6881 37.9538 31.0246 37.1618 33.0535C36.3635 35.0854 34.7989 36.8131 32.6442 37.7581Z" fill="#9E3C1C"/>
</g>
<g opacity="0.7">
<path d="M6.19701 33.7279L14.5253 30.0762C14.87 29.9249 15.0269 29.523 14.8757 29.1784C14.7242 28.8337 14.3219 28.677 13.9769 28.8283L5.6487 32.4799C5.30371 32.6312 5.14682 33.0334 5.29828 33.3778C5.44974 33.7225 5.85201 33.8792 6.19701 33.7279Z" fill="white"/>
<path d="M4.22827 34.5663C4.07138 34.2095 3.655 34.0473 3.29806 34.2038C2.94111 34.3605 2.77852 34.7762 2.93541 35.1331C3.09203 35.4897 3.50842 35.6518 3.86563 35.4954C4.22284 35.3389 4.38516 34.9229 4.22854 34.5663H4.22827Z" fill="white"/>
</g>
<g opacity="0.7">
<path d="M26.7299 24.7249L18.4016 28.3765C18.0566 28.5278 17.6544 28.3708 17.5029 28.0264C17.3515 27.6818 17.5083 27.2799 17.8533 27.1286L26.1816 23.4769C26.5266 23.3259 26.9289 23.4826 27.0803 23.827C27.2318 24.1717 27.0749 24.5736 26.7299 24.7249Z" fill="white"/>
<path d="M28.6807 23.8446C28.5241 23.488 28.6864 23.0718 29.0434 22.9156C29.4003 22.7588 29.8167 22.9213 29.9736 23.2779C30.1305 23.6344 29.9679 24.0504 29.6107 24.2069C29.2537 24.3636 28.8373 24.2012 28.6807 23.8446Z" fill="white"/>
</g>
<g style="mix-blend-mode:screen" opacity="0.4">
<path d="M33.0196 28.2421L4.6889 40.664C3.41721 41.2215 2.0033 40.2681 2.02854 38.8808C2.07306 36.4312 3.51385 34.1092 5.90358 33.0614L26.5972 23.9879C28.982 22.9422 31.6695 23.4534 33.5058 25.0777C34.5459 25.9978 34.2916 27.6842 33.0196 28.2421Z" fill="white"/>
</g>
<defs>
<clipPath id="clip0_239_626">
<rect width="58" height="52" fill="white" transform="translate(6)"/>
</clipPath>
</defs>
</svg>
