<svg width="29" height="29" viewBox="0 0 29 29" fill="none" xmlns="http://www.w3.org/2000/svg">
<g clip-path="url(#clip0_332_735)">
<path d="M13.1887 12.461C14.14 11.5223 15.2482 10.7851 16.4829 10.2699C17.7621 9.73607 19.1196 9.46534 20.5181 9.46534C21.2823 9.46534 22.034 9.54644 22.7678 9.70687C24.1988 6.71091 23.2352 3.05228 20.3615 1.15278C17.1943 -0.940472 12.9074 -0.104114 10.7863 3.02073L6.53949 9.2766L12.4971 13.2142C12.714 12.9532 12.9445 12.702 13.1887 12.461Z" fill="#FCECE2"/>
<path d="M10.968 23.6746C10.427 22.4124 10.1527 21.073 10.1527 19.6931C10.1527 18.3132 10.427 16.9734 10.968 15.7115C11.0911 15.4246 11.2271 15.1444 11.3748 14.8716L5.41511 10.9326L1.16833 17.1884C-0.952818 20.3133 -0.105494 24.5431 3.06144 26.6361C5.94562 28.5424 9.75873 28.0183 12.0189 25.5491C11.6043 24.9643 11.2525 24.3379 10.968 23.6743V23.6746Z" fill="#FCECE2"/>
<path d="M29.0002 18.6963C28.5005 14.5112 24.8939 11.2646 20.5183 11.2646C16.1427 11.2646 12.5361 14.5112 12.0364 18.6963H29.0002Z" fill="#FCECE2"/>
<path d="M12.0359 20.6895C12.5356 24.8745 16.1422 28.1212 20.5178 28.1212C24.8934 28.1212 28.5 24.8745 28.9997 20.6895H12.0359Z" fill="#FCECE2"/>
</g>
<defs>
<clipPath id="clip0_332_735">
<rect width="29" height="28.1212" fill="white"/>
</clipPath>
</defs>
</svg>
