<svg width="30" height="29" viewBox="0 0 30 29" fill="none" xmlns="http://www.w3.org/2000/svg">
<g clip-path="url(#clip0_332_725)">
<path d="M27.4824 7.04325C27.1317 6.19351 26.9564 5.76183 26.6102 4.9121L26.9609 3.32623C26.9609 3.32623 25.756 2.20385 25.1536 1.59041L23.9128 2.18568C23.0721 1.83579 22.645 1.65857 21.8043 1.30414L21.3457 0H18.4505L17.9919 1.30414C17.1512 1.65857 16.7286 1.83579 15.8834 2.18568L14.6471 1.59041C13.9667 2.2811 13.2849 2.97028 12.6015 3.65794L13.1905 4.9121C12.8398 5.76183 12.6645 6.19351 12.3183 7.04325L11.0235 7.50674V10.4331L12.3183 10.8966C12.6645 11.7463 12.8398 12.178 13.1905 13.0277L12.6015 14.2773L14.6471 16.3449L15.8834 15.7496C16.7286 16.104 17.1512 16.2813 17.9919 16.6357L18.4505 17.9398H21.3457L21.8043 16.6357C22.645 16.2813 23.0721 16.104 23.9128 15.7496L25.1536 16.3449C25.834 15.6572 26.5158 14.968 27.1992 14.2773L26.6102 13.0277C26.9564 12.178 27.1317 11.7463 27.4824 10.8966L28.7727 10.4331V7.50674L27.4824 7.04325ZM23.2699 12.328C22.7259 10.9875 21.4221 10.0423 19.8981 10.0423C18.374 10.0423 17.0748 10.9829 16.5263 12.3234C15.6856 11.46 15.1641 10.2741 15.1641 8.96992C15.1641 6.32529 17.2861 4.18505 19.8981 4.18505C22.5101 4.18505 24.6321 6.32529 24.6321 8.96992C24.6321 10.2741 24.1106 11.4646 23.2699 12.328Z" fill="#FCECE2"/>
<path d="M21.3727 7.58395C21.3727 8.40642 20.7118 9.07439 19.8981 9.07439C19.0844 9.07439 18.4235 8.40642 18.4235 7.58395C18.4235 6.76148 19.0844 6.09351 19.8981 6.09351C20.7118 6.09351 21.3727 6.76148 21.3727 7.58395Z" fill="#FCECE2"/>
<path d="M28.1972 19.4122L17.2007 22.5703C16.4049 23.3564 15.762 23.9516 14.6336 23.7017C14.8449 23.7517 11.5136 23.0019 9.99401 22.6611C9.75124 22.5884 9.60288 22.334 9.65683 22.084C9.71527 21.8205 9.97602 21.6524 10.2413 21.7069L14.8404 22.7338C15.6002 22.902 16.5802 22.3976 16.7106 21.975C16.9219 21.1116 16.4274 20.2301 15.5867 19.9711L9.58939 18.1216C8.91953 17.9172 8.2137 17.8899 7.53934 18.0444L6.15915 18.3534C6.15915 18.4806 6.16364 20.3709 6.17713 26.6826L12.9027 28.7592C14.3144 29.1955 15.834 29.05 17.1287 28.3503L29.2852 21.8614C29.9056 21.5342 30.1843 20.7481 29.8606 20.0892C29.5594 19.4667 28.8401 19.1759 28.1972 19.4167V19.4122Z" fill="#FCECE2"/>
<path d="M3.54713 16.8447H0L0.0224786 28.4502H3.56511C4.46875 28.4411 5.20156 27.7004 5.20156 26.7825L5.18807 18.4942C5.18807 17.5809 4.45077 16.8402 3.54713 16.8447ZM3.48869 25.7238C3.32684 26.2645 2.75588 26.5735 2.22089 26.4054C1.6859 26.2418 1.38019 25.6647 1.54653 25.124C1.70838 24.5832 2.27933 24.2742 2.81433 24.4424C3.34932 24.606 3.65503 25.183 3.48869 25.7238Z" fill="#FCECE2"/>
</g>
<defs>
<clipPath id="clip0_332_725">
<rect width="30" height="29" fill="white"/>
</clipPath>
</defs>
</svg>
