<svg width="34" height="28" viewBox="0 0 34 28" fill="none" xmlns="http://www.w3.org/2000/svg">
<path d="M6.54782 16.4618C6.23913 16.1539 5.83398 16 5.43848 16C5.04298 16 4.64747 16.1539 4.34843 16.4522L3.51884 17.2796C2.90147 17.8954 2.8243 18.8864 3.34521 19.4829C3.91435 20.1371 5.01404 20.1756 5.62176 19.5695L5.71823 19.4733L6.54782 18.6458C7.14589 18.0493 7.15554 17.068 6.54782 16.4618Z" fill="#FCECE2"/>
<path d="M9.54995 21.6371C10.15 21.0308 10.15 20.0491 9.54995 19.4524C9.24991 19.154 8.85309 19 8.45627 19C8.05946 19 7.66264 19.154 7.35292 19.4524L6.52057 20.2801C5.90114 20.896 5.82372 21.8874 6.34636 22.4841C6.91739 23.1386 8.00138 23.1771 8.62081 22.5611L8.69824 22.4841L9.54027 21.6371H9.54995Z" fill="#FCECE2"/>
<path d="M10.806 2.31925L8.67581 0L0 9.4554L2.12152 11.784C2.25088 11.9249 2.42336 12 2.60447 12C2.78557 12 2.95806 11.9249 3.07879 11.784L10.806 3.3615C11.0647 3.07981 11.0647 2.61033 10.806 2.31925Z" fill="#FCECE2"/>
<path d="M11.9928 23.1617C11.9928 22.8514 11.8699 22.5628 11.653 22.3391C11.4362 22.1154 11.1399 22 10.8363 22C10.5255 22 10.2363 22.1227 10.0123 22.3391L9.38342 22.9741C8.92805 23.4286 8.87022 24.143 9.25331 24.5975C9.67977 25.1026 10.5038 25.1387 10.9664 24.6697L11.0314 24.6047L11.6603 23.977C11.8771 23.7605 12 23.4647 12 23.1545" fill="#FCECE2"/>
<path d="M13.4511 24.0191C13.0375 24.0191 12.6526 24.1817 12.3544 24.4687L11.5174 25.3009C10.9017 25.9131 10.8248 26.86 11.3443 27.4627C11.9119 28.1322 12.9894 28.1896 13.6243 27.5583L14.5478 26.64C14.8365 26.3531 15 25.9609 15 25.5496C15 25.1383 14.8365 24.7557 14.5478 24.4591C14.24 24.1626 13.8552 24 13.4511 24" fill="#FCECE2"/>
<path d="M22.2186 2.12598C21.9271 2.3928 21.9271 2.81455 22.2186 3.08138C22.2186 3.08138 22.228 3.09859 22.2374 3.1072C22.2468 3.11581 22.2656 3.12441 22.275 3.13302L27.7661 8.16823L30.6339 10.802C30.6339 10.802 30.6339 10.802 30.6433 10.802C30.7843 10.9311 30.9724 11 31.1698 11C31.3673 11 31.5553 10.9311 31.687 10.802L34 8.66745L24.5316 0L22.2092 2.12598H22.2186Z" fill="#FCECE2"/>
<path d="M19.7151 5.32558C18.6527 5.47384 17.6974 5.94477 16.9385 6.68605L13.3585 10.1919C13.0014 10.5407 12.9032 11.064 13.0996 11.5262C13.2781 11.9622 13.662 12.2151 14.1263 12.2238C15.0905 12.2238 15.9743 11.8663 16.635 11.2209L18.6884 9.22384C18.9384 8.98837 19.2598 8.86628 19.5812 8.86628C19.9026 8.86628 20.2329 8.98837 20.474 9.22384L20.5008 9.25L27.4199 16C27.9109 15.4331 28.2948 14.7355 28.4823 14.064L28.5894 13.6541C28.8394 12.7297 29.3215 11.8924 30 11.2122L22.6345 4C21.8132 4.68895 20.7954 5.15116 19.7062 5.31686" fill="#FCECE2"/>
<path d="M19.3795 9.76252C19.242 9.61732 19.0101 9.61732 18.8726 9.76252L16.8964 11.8407C16.0974 12.6846 15.032 13.1474 13.8979 13.1474C13.073 13.1474 12.3943 12.6483 12.0936 11.8588C11.7757 11.033 11.9475 10.0983 12.5318 9.4812L15.7194 6.11444C15.2296 5.80589 14.6969 5.59717 14.1556 5.48827C12.9184 5.24325 11.896 4.74414 11.0969 4L4 11.5049L4.08592 11.6047C4.7389 12.3216 5.21146 13.211 5.45203 14.1729L5.55513 14.5722C5.60669 14.79 5.68401 15.0078 5.77852 15.2256C6.39714 15.1893 7.02435 15.4071 7.48831 15.9062C8.01242 16.4688 8.21862 17.2402 8.10693 17.9571C8.79428 17.8391 9.516 18.0569 10.0487 18.6105C10.5728 19.164 10.779 19.9354 10.6673 20.6523C10.7876 20.6342 10.8993 20.616 11.0196 20.616C11.621 20.616 12.1795 20.861 12.6005 21.3057L12.2998 21.6324L12.6005 21.3148C13.0215 21.7595 13.2535 22.3584 13.2535 22.9846C13.2535 23.1207 13.2363 23.2477 13.2191 23.3748C13.9065 23.2659 14.6454 23.4746 15.1609 24.01L14.8602 24.3367L15.1609 24.0191C15.5819 24.4638 15.8139 25.0627 15.8139 25.6889C15.8139 25.8976 15.7795 26.0972 15.7279 26.2878L16.9566 27.5855C17.5151 28.1754 18.4774 28.13 19.0015 27.4857C19.4482 26.923 19.3881 26.0337 18.8554 25.4529L13.5284 19.8174C13.3566 19.6359 13.3566 19.3546 13.5284 19.1731C13.5714 19.1277 13.6143 19.0914 13.6745 19.0733C13.8291 19.0098 14.0182 19.037 14.1384 19.1731L19.4568 24.7904C19.4568 24.7904 19.4568 24.7904 19.4654 24.7995L19.5256 24.863C20.0669 25.4348 20.9432 25.4348 21.4759 24.863C21.7337 24.5908 21.8797 24.2187 21.8797 23.8285C21.8797 23.4383 21.7337 23.0753 21.4759 22.794L16.0888 17.095C15.917 16.9135 15.917 16.6322 16.0888 16.4507C16.2521 16.2692 16.527 16.2692 16.6988 16.4507L22.086 22.1406C22.6272 22.7123 23.5036 22.7123 24.0449 22.1406C24.3027 21.8683 24.4487 21.4963 24.4487 21.1061C24.4487 20.7158 24.3027 20.3529 24.0449 20.0715L18.6578 14.3816C18.5719 14.2909 18.5289 14.1729 18.5289 14.064C18.5289 13.9551 18.5719 13.828 18.6578 13.7464C18.8296 13.5649 19.096 13.5649 19.2678 13.7464L24.6549 19.4363C25.2564 20.0715 26.3561 19.9354 26.8115 19.164C27.1466 18.6014 27.0263 17.8028 26.5194 17.2765L19.3623 9.72622L19.3795 9.76252Z" fill="#FCECE2"/>
</svg>
