<svg width="59" height="84" viewBox="0 0 59 84" fill="none" xmlns="http://www.w3.org/2000/svg">
<g clip-path="url(#clip0_280_458)">
<path d="M23.3944 59.1185L23.5882 76.3957L23.7667 77.1308L24.2673 77.7643L25.0203 78.1652L26.4565 78.5481H29.2649H30.9536L32.6911 78.3991L33.6281 78.0483L34.2793 77.4134L34.8315 76.4124V72.24V58.5908L23.3944 58.2428V59.1185Z" fill="#F9897A"/>
<path d="M1.86157 43.7458L0.877097 45.6281V47.4951L0 82.9197L1.34005 83.5155L3.16536 83.8385L6.89546 84H9.20464L9.70524 83.8538L10.3523 82.9197L10.8041 74.9869L11.9433 66.1659L12.3324 65.0842L14.3877 62.4209L15.9997 61.1456L19.7493 59.3984L24.0274 58.9543L31.1404 58.9264L36.0572 59.3149L38.9744 60.0082L41.4746 61.2848L43.0308 62.6158L44.7808 64.7514L45.9479 67.6639L46.6702 75.1247L46.9756 81.0611V82.115L47.3925 83.0018L48.087 83.8065L48.9473 84H55.3659L57.1717 83.7508L57.7825 83.1967L58.0321 82.4756L58.2273 80.9219L57.9763 79.5631L57.5607 64.8628L57.2818 57.7055L57.0601 50.3839L57.0322 45.8063L56.9765 44.8916L56.3601 43.7458H1.86157Z" fill="#CBC8C3"/>
<path d="M13.0184 49.1685H13.5762L14.3041 51.5241V49.1685H14.8674V53.4272H14.3041L13.5804 51.0883V53.4272H13.0184V49.1685Z" fill="#F9897A"/>
<path d="M16.425 52.7241H15.7473L15.6525 53.4272H15.0431L15.7696 49.1685H16.4208L17.1473 53.4272H16.5226L16.4264 52.7241H16.425ZM16.3009 51.8039L16.0876 50.2725L15.877 51.8039H16.3009Z" fill="#F9897A"/>
<path d="M17.3439 53.4272V49.1685H18.3382C18.5222 49.1685 18.6631 49.2033 18.7607 49.2729C18.8583 49.3425 18.9364 49.472 18.9963 49.6613C19.0563 49.8506 19.0856 50.0804 19.0856 50.3518C19.0856 50.5885 19.0633 50.7918 19.0173 50.963C18.9712 51.1342 18.9085 51.2735 18.829 51.3793C18.7774 51.4475 18.7077 51.5032 18.6198 51.5477C18.691 51.6006 18.7426 51.6521 18.7746 51.7051C18.7969 51.7399 18.829 51.815 18.8694 51.9292C18.9113 52.0434 18.9392 52.1311 18.9531 52.1937L19.2418 53.4272H18.5669L18.2475 52.1255C18.2071 51.957 18.1708 51.8471 18.1402 51.7969C18.0969 51.7315 18.0481 51.6981 17.9937 51.6981H17.9408V53.4272H17.3411H17.3439ZM17.9435 50.8948H18.1945C18.2224 50.8948 18.274 50.8753 18.3521 50.8363C18.3912 50.8182 18.4246 50.7737 18.4483 50.7027C18.472 50.6317 18.486 50.5481 18.486 50.4562C18.486 50.3184 18.4665 50.2126 18.426 50.1402C18.3856 50.0678 18.3117 50.0302 18.2029 50.0302H17.9408V50.8962L17.9435 50.8948Z" fill="#F9897A"/>
<path d="M20.6724 51.6842L21.1954 52.0323C21.1605 52.3553 21.1047 52.6254 21.0294 52.8425C20.9541 53.0597 20.8607 53.2226 20.7477 53.334C20.6348 53.4454 20.4926 53.4997 20.3197 53.4997C20.1091 53.4997 19.9376 53.4328 19.8051 53.2978C19.6726 53.1627 19.5569 52.9261 19.4607 52.5878C19.3645 52.2495 19.3157 51.8151 19.3157 51.2874C19.3157 50.583 19.4007 50.0414 19.5708 49.6627C19.741 49.2841 19.9808 49.0947 20.2918 49.0947C20.5358 49.0947 20.7268 49.2033 20.8663 49.4205C21.0057 49.6377 21.1089 49.9704 21.1772 50.4201L20.6501 50.6791C20.632 50.5496 20.6125 50.4549 20.5916 50.395C20.5581 50.2948 20.5177 50.2168 20.4689 50.1625C20.4201 50.1082 20.3671 50.0818 20.3071 50.0818C20.1718 50.0818 20.0687 50.2015 19.9961 50.441C19.9418 50.6192 19.9139 50.899 19.9139 51.2791C19.9139 51.751 19.9459 52.074 20.0115 52.2495C20.077 52.4249 20.1677 52.5126 20.2862 52.5126C20.4047 52.5126 20.487 52.4416 20.5455 52.301C20.6041 52.1604 20.6459 51.9543 20.6724 51.6856V51.6842Z" fill="#F9897A"/>
<path d="M22.6735 52.7241H21.9958L21.9009 53.4272H21.2916L22.0181 49.1685H22.6693L23.3958 53.4272H22.7711L22.6748 52.7241H22.6735ZM22.5494 51.8039L22.336 50.2725L22.1254 51.8039H22.5494Z" fill="#F9897A"/>
<path d="M23.5882 49.1685H24.146L24.8739 51.5241V49.1685H25.4372V53.4272H24.8739L24.1502 51.0883V53.4272H23.5882V49.1685Z" fill="#F9897A"/>
<path d="M29.1129 46.2086C44.1627 46.2086 56.3629 45.1059 56.3629 43.7458C56.3629 42.3856 44.1627 41.283 29.1129 41.283C14.0632 41.283 1.86296 42.3856 1.86296 43.7458C1.86296 45.1059 14.0632 46.2086 29.1129 46.2086Z" fill="#E1E3E0"/>
<path d="M27.646 49.3522L28.247 49.3425L29.0697 51.6452L29.0321 49.3299L29.6386 49.3202L29.707 53.5052L29.1004 53.5149L28.2819 51.2289L28.3195 53.5274L27.7143 53.5372L27.646 49.3522Z" fill="#646161"/>
<path d="M31.3775 52.7868L30.6468 52.7993L30.5562 53.4912L29.898 53.5024L30.6133 49.3035L31.3161 49.2924L32.1681 53.4648L31.4932 53.4759L31.3775 52.7868ZM31.2297 51.8833L30.9745 50.3825L30.7709 51.8902L31.2283 51.8833H31.2297Z" fill="#646161"/>
<path d="M32.2379 52.0781L32.85 51.9904C32.8668 52.1895 32.896 52.3412 32.9379 52.4457C33.0076 52.6141 33.1038 52.6976 33.2265 52.6949C33.3185 52.6935 33.3883 52.6489 33.4371 52.5612C33.4859 52.4735 33.5082 52.3733 33.5068 52.2591C33.5054 52.1449 33.4803 52.0544 33.4315 51.9695C33.3827 51.8846 33.2711 51.8052 33.0982 51.7328C32.8138 51.6103 32.6088 51.4433 32.4861 51.2344C32.362 51.0256 32.2964 50.7569 32.2909 50.4297C32.2867 50.2153 32.3146 50.0107 32.3745 49.8186C32.4345 49.6264 32.5237 49.4747 32.6478 49.3633C32.7719 49.2519 32.9407 49.1949 33.1582 49.1907C33.4245 49.1865 33.6295 49.2826 33.7717 49.4789C33.914 49.6752 34.0032 49.9912 34.0367 50.4242L33.4301 50.5049C33.4106 50.317 33.3743 50.1805 33.3213 50.0956C33.2683 50.0107 33.1958 49.9689 33.1052 49.9703C33.0299 49.9703 32.9741 50.0037 32.9379 50.0692C32.9016 50.1346 32.8835 50.2112 32.8849 50.3031C32.8849 50.3699 32.903 50.4297 32.9351 50.4826C32.9658 50.5369 33.0397 50.5871 33.154 50.633C33.4371 50.75 33.6407 50.8697 33.7648 50.9922C33.8889 51.1147 33.9795 51.2679 34.0381 51.4516C34.0966 51.6354 34.1273 51.8414 34.1315 52.0698C34.1357 52.3385 34.1036 52.5863 34.0325 52.8146C33.9614 53.0429 33.8624 53.2155 33.7313 53.3353C33.6002 53.455 33.4343 53.5163 33.2321 53.519C32.8779 53.5246 32.6297 53.3924 32.4889 53.1195C32.348 52.8466 32.2644 52.5 32.2407 52.0781H32.2379Z" fill="#646161"/>
<path d="M35.7462 52.7157L35.0156 52.7283L34.9249 53.4202L34.2668 53.4313L34.9821 49.2325L35.6849 49.2213L36.5369 53.3937L35.862 53.4049L35.7462 52.7157ZM35.5984 51.8122L35.3433 50.3114L35.1397 51.8192L35.597 51.8122H35.5984Z" fill="#646161"/>
<path d="M36.6721 49.2046L37.3164 49.1935L37.368 52.3482L38.3734 52.3315L38.3901 53.3617L36.7405 53.3882L36.6721 49.2032V49.2046Z" fill="#646161"/>
<path d="M39.5196 51.9598L40.1317 51.8721C40.1485 52.0712 40.1778 52.2229 40.2196 52.3274C40.2893 52.4958 40.3855 52.5794 40.5082 52.5766C40.6003 52.5752 40.67 52.5306 40.7188 52.4429C40.7676 52.3552 40.7899 52.255 40.7885 52.1408C40.7871 52.0266 40.762 51.9362 40.7132 51.8512C40.6644 51.7663 40.5529 51.687 40.3799 51.6146C40.0955 51.492 39.8905 51.325 39.7678 51.1162C39.6437 50.9073 39.5781 50.6386 39.5726 50.3115C39.5684 50.0971 39.5963 49.8924 39.6562 49.7003C39.7162 49.5082 39.8054 49.3564 39.9295 49.245C40.0536 49.1337 40.2224 49.0766 40.4399 49.0724C40.7062 49.0682 40.9112 49.1643 41.0535 49.3606C41.1957 49.5569 41.2849 49.8729 41.3184 50.3059L40.7118 50.3866C40.6923 50.1987 40.656 50.0623 40.6031 49.9773C40.5501 49.8924 40.4776 49.8506 40.3869 49.852C40.3116 49.852 40.2558 49.8854 40.2196 49.9509C40.1833 50.0163 40.1652 50.0929 40.1666 50.1848C40.1666 50.2516 40.1847 50.3115 40.2168 50.3644C40.2475 50.4187 40.3214 50.4688 40.4357 50.5147C40.7188 50.6317 40.9224 50.7514 41.0465 50.8739C41.1706 50.9964 41.2612 51.1496 41.3198 51.3333C41.3784 51.5171 41.409 51.7232 41.4132 51.9515C41.4174 52.2202 41.3853 52.468 41.3142 52.6963C41.2431 52.9246 41.1441 53.0973 41.013 53.217C40.8819 53.3367 40.716 53.398 40.5138 53.4008C40.1596 53.4063 39.9114 53.2741 39.7706 53.0012C39.6297 52.7283 39.5461 52.3817 39.5224 51.9598H39.5196Z" fill="#646161"/>
<path d="M41.6865 49.1225L42.7575 49.1044C42.9903 49.1002 43.1674 49.2088 43.2873 49.4301C43.4073 49.6515 43.47 49.9675 43.477 50.3782C43.484 50.7889 43.4254 51.1314 43.3027 51.3723C43.18 51.6131 42.9889 51.7342 42.7296 51.7384L42.3768 51.744L42.4019 53.2977L41.7549 53.3088L41.6865 49.1239V49.1225ZM42.3628 50.8961L42.5204 50.8933C42.6445 50.892 42.731 50.846 42.7798 50.7597C42.8286 50.6734 42.8523 50.5606 42.8495 50.4256C42.8467 50.2905 42.8244 50.1833 42.7784 50.0928C42.7324 50.0023 42.6501 49.9578 42.5302 49.9592L42.3461 49.962L42.3614 50.8961H42.3628Z" fill="#646161"/>
<path d="M43.8688 53.274L43.8005 49.0891L44.8742 49.071C45.0736 49.0682 45.2256 49.0988 45.333 49.1656C45.4403 49.2325 45.5268 49.3578 45.5937 49.5429C45.6607 49.7281 45.6969 49.9536 45.7011 50.2195C45.7053 50.452 45.683 50.6525 45.637 50.8224C45.5909 50.9922 45.5254 51.1286 45.4403 51.2358C45.386 51.3027 45.312 51.3598 45.2172 51.4057C45.2953 51.4558 45.3511 51.5059 45.3873 51.5574C45.4111 51.5909 45.4473 51.6646 45.4933 51.776C45.5407 51.8874 45.5714 51.9737 45.5881 52.035L45.92 53.2434L45.1921 53.2559L44.8268 51.9821C44.7808 51.8178 44.7403 51.7106 44.7055 51.6619C44.6581 51.5978 44.6051 51.5658 44.5465 51.5672H44.4893L44.5172 53.2671L43.8702 53.2782L43.8688 53.274ZM44.4754 50.7736L44.7473 50.7695C44.7766 50.7695 44.8338 50.7486 44.9174 50.7096C44.9593 50.6915 44.9941 50.6469 45.0192 50.5759C45.0443 50.5049 45.0569 50.4242 45.0555 50.3323C45.0527 50.1973 45.0304 50.0942 44.9858 50.0218C44.9411 49.9495 44.8616 49.916 44.7431 49.9174L44.4601 49.9216L44.474 50.7722L44.4754 50.7736Z" fill="#646161"/>
<path d="M47.3967 52.5251L46.666 52.5376L46.5754 53.2295L45.9172 53.2407L46.6326 49.0418L47.3354 49.0306L48.1874 53.2031L47.5125 53.2142L47.3967 52.5251ZM47.2489 51.6215L46.9937 50.1207L46.7901 51.6285L47.2475 51.6215H47.2489Z" fill="#646161"/>
<path d="M47.8653 49.0223L48.5806 49.0111L49.024 50.4159L49.4214 48.9972L50.1326 48.9861L49.3615 51.4322L49.3908 53.185L48.7451 53.1961L48.7159 51.4433L47.8639 49.0237L47.8653 49.0223Z" fill="#646161"/>
<path d="M9.55743 48.8678H10.4052V49.6808L11.0481 49.1685L11.5961 49.8228L11.0634 50.4619H11.9098V51.5283H11.1415L11.7369 52.1548L11.0007 52.766L10.468 52.1395L10.4987 52.9999H9.55743V52.2021L9.03313 52.727L8.34288 52.0378L8.94667 51.435L8.17834 51.403V50.4619H8.86858L8.30384 49.8061L8.93831 49.1727L9.53373 49.7672L9.55743 48.8678Z" fill="#F9897A"/>
<path d="M36.5718 22.1444C36.5718 29.6651 38.8461 38.7158 37.4726 42.6307C36.6484 44.9793 30.0667 44.3723 28.9986 44.3723C28.0532 44.3723 21.6625 44.6995 20.8997 42.8256C19.3645 39.0513 21.3292 31.8494 21.3292 23.8067C21.3292 17.248 22.1561 8.32259 23.241 4.32697C24.1474 0.992641 27.7018 0 28.9986 0C30.2954 0 33.6755 0.522076 34.5763 3.75895C35.6877 7.75597 36.5718 15.4966 36.5718 22.1444Z" fill="#CCCBC7"/>
<path d="M20.3141 40.598V43.3546C32.0022 46.3854 37.9132 43.3546 37.9132 43.3546V40.598C34.0325 43.0608 20.3141 40.598 20.3141 40.598Z" fill="#D4D4D2"/>
</g>
<defs>
<clipPath id="clip0_280_458">
<rect width="58.2273" height="84" fill="white"/>
</clipPath>
</defs>
</svg>
