<svg width="25" height="35" viewBox="0 0 25 35" fill="none" xmlns="http://www.w3.org/2000/svg">
<g clip-path="url(#clip0_332_747)">
<path d="M9.74765 24.6327L9.82841 31.8315L9.90278 32.1378L10.1114 32.4018L10.4251 32.5688L11.0236 32.7284H12.1937H12.8973L13.6213 32.6663L14.0117 32.5201L14.283 32.2556L14.5131 31.8385V30.1V24.4128L9.74765 24.2678V24.6327Z" fill="#FCECE2"/>
<path d="M0.775652 18.2274L0.365457 19.0117V19.7896L0 34.5498L0.558353 34.7981L1.3189 34.9327L2.87311 35H3.83527L4.04385 34.9391L4.31344 34.5498L4.50169 31.2445L4.97638 27.5691L5.13848 27.1184L5.99489 26.0087L6.66654 25.4773L8.22889 24.7493L10.0114 24.5643L12.9752 24.5527L15.0238 24.7145L16.2393 25.0034L17.2811 25.5353L17.9295 26.0899L18.6587 26.9797L19.145 28.1933L19.4459 31.3019L19.5732 33.7754V34.2146L19.7469 34.5841L20.0362 34.9194L20.3947 35H23.0691L23.8215 34.8962L24.076 34.6653L24.18 34.3648L24.2614 33.7174L24.1568 33.1513L23.9836 27.0261L23.8674 24.0439L23.7751 20.9933L23.7634 19.0859L23.7402 18.7048L23.4834 18.2274H0.775652Z" fill="#FCECE2"/>
<path d="M12.1304 19.2536C18.4011 19.2536 23.4846 18.7941 23.4846 18.2274C23.4846 17.6607 18.4011 17.2012 12.1304 17.2012C5.85967 17.2012 0.776245 17.6607 0.776245 18.2274C0.776245 18.7941 5.85967 19.2536 12.1304 19.2536Z" fill="#FCECE2"/>
<path d="M15.2382 9.22683C15.2382 12.3604 16.1859 16.1316 15.6136 17.7628C15.2702 18.7414 12.5278 18.4885 12.0828 18.4885C11.6888 18.4885 9.02604 18.6248 8.70823 17.844C8.06853 16.2714 8.88718 13.2706 8.88718 9.91945C8.88718 7.18667 9.23172 3.46775 9.68375 1.8029C10.0614 0.413601 11.5424 0 12.0828 0C12.6231 0 14.0315 0.217532 14.4068 1.56623C14.8699 3.23165 15.2382 6.45692 15.2382 9.22683Z" fill="#FCECE2"/>
</g>
<defs>
<clipPath id="clip0_332_747">
<rect width="24.2614" height="35" fill="white"/>
</clipPath>
</defs>
</svg>
