<svg width="30" height="31" viewBox="0 0 30 31" fill="none" xmlns="http://www.w3.org/2000/svg">
<path d="M29.85 5.15L28.85 4.15L25.85 1.15L24.85 0.15C24.65 -0.05 24.34 -0.05 24.14 0.15C23.94 0.35 23.94 0.66 24.14 0.86L24.79 1.51L20.2 6.1L23.91 9.81L28.5 5.22L29.15 5.87C29.25 5.97 29.38 6.02 29.5 6.02C29.62 6.02 29.76 5.97 29.85 5.87C30.05 5.67 30.05 5.36 29.85 5.16V5.15Z" fill="#FCECE2"/>
<path d="M23.35 10.65L19.35 6.65L17.85 5.15C17.75 5.05 17.62 5 17.5 5C17.38 5 17.24 5.05 17.15 5.15C16.95 5.35 16.95 5.66 17.15 5.86L18.3 7.01L14.01 11.3L14.86 12.15C15.06 12.35 15.06 12.66 14.86 12.86C14.76 12.96 14.63 13.01 14.51 13.01C14.39 13.01 14.25 12.96 14.16 12.86L13.31 12.01L12.02 13.3L12.87 14.15C13.07 14.35 13.07 14.66 12.87 14.86C12.77 14.96 12.64 15.01 12.52 15.01C12.4 15.01 12.26 14.96 12.17 14.86L11.32 14.01L10.03 15.3L10.88 16.15C11.08 16.35 11.08 16.66 10.88 16.86C10.78 16.96 10.65 17.01 10.53 17.01C10.41 17.01 10.27 16.96 10.18 16.86L9.33 16.01L8.04 17.3L8.89 18.15C9.09 18.35 9.09 18.66 8.89 18.86C8.79 18.96 8.66 19.01 8.54 19.01C8.42 19.01 8.28 18.96 8.19 18.86L7.34 18.01L5.19 20.16C4.99 20.36 4.99 20.67 5.19 20.87L6.34 22.02L5.19 23.17C4.99 23.37 4.99 23.68 5.19 23.88L5.34 24.03L0.15 29.15C-0.05 29.35 -0.05 29.66 0.15 29.86C0.25 29.96 0.38 30.01 0.5 30.01C0.62 30.01 0.76 29.96 0.85 29.86L6 24.71L6.15 24.86C6.25 24.96 6.38 25.01 6.5 25.01C6.62 25.01 6.76 24.96 6.85 24.86L8 23.71L9.15 24.86C9.25 24.96 9.38 25.01 9.5 25.01C9.62 25.01 9.76 24.96 9.85 24.86L23 11.71L24.15 12.86C24.25 12.96 24.38 13.01 24.5 13.01C24.62 13.01 24.76 12.96 24.85 12.86C25.05 12.66 25.05 12.35 24.85 12.15L23.35 10.65Z" fill="#FCECE2"/>
</svg>
