<?xml version="1.0" encoding="UTF-8"?>
<svg id="Layer_2" data-name="Layer 2" xmlns="http://www.w3.org/2000/svg" viewBox="0 0 498.59 498.59">
  <defs>
    <style>
      .cls-1 {
        fill: #f5897b;
      }
    </style>
  </defs>
  <g id="Layer_1-2" data-name="Layer 1">
    <g>
      <path class="cls-1" d="m249.29,498.59c-66.59,0-129.19-25.93-176.28-73.02C25.93,378.49,0,315.88,0,249.29S25.93,120.1,73.02,73.02C120.1,25.93,182.71,0,249.29,0s129.19,25.93,176.28,73.02c47.09,47.09,73.02,109.69,73.02,176.28s-25.93,129.19-73.02,176.28c-47.08,47.09-109.69,73.02-176.28,73.02Zm0-474.38C125.18,24.21,24.21,125.18,24.21,249.29s100.97,225.09,225.09,225.09,225.09-100.97,225.09-225.09S373.41,24.21,249.29,24.21Z"/>
      <path class="cls-1" d="m281.34,372.26c0,13.02-10.55,23.57-23.57,23.57s-23.57-10.55-23.57-23.57,10.55-23.57,23.57-23.57,23.57,10.55,23.57,23.57Z"/>
      <path class="cls-1" d="m287.83,278.73c-1.21,12.49-12.47,22.71-25.02,22.71h-2.74c-12.55,0-23.81-10.22-25.02-22.71l-11.91-137.63c-1.21-12.49,6.46-19.48,19.01-19.48h38.56c12.55,0,21.83,10.22,20.62,22.71l-13.51,134.4Z"/>
      <path class="cls-1" d="m249.29,403.91c-22.12,0-40.12-18-40.12-40.12s18-40.11,40.12-40.11,40.12,18,40.12,40.11-18,40.12-40.12,40.12Zm0-64.09c-13.22,0-23.98,10.76-23.98,23.98s10.76,23.98,23.98,23.98,23.98-10.76,23.98-23.98-10.75-23.98-23.98-23.98Z"/>
      <path class="cls-1" d="m251.86,309.51h-5.13c-18.88,0-35.72-15.29-37.54-34.08l-14.04-145.11c-.91-9.42,1.98-18.34,8.13-25.12,6.16-6.78,14.76-10.52,24.23-10.52h43.59c9.47,0,18.07,3.74,24.23,10.52,6.15,6.78,9.04,15.7,8.13,25.12l-14.04,145.1c-1.82,18.8-18.66,34.09-37.54,34.09Zm-24.36-198.69c-4.86,0-9.22,1.86-12.28,5.23-3.06,3.37-4.49,7.89-4.02,12.72l14.04,145.1c1.03,10.57,10.86,19.5,21.48,19.5h5.13c10.62,0,20.46-8.93,21.48-19.5l14.04-145.1c.47-4.83-.96-9.35-4.02-12.72-3.06-3.37-7.42-5.23-12.28-5.23h-43.59Z"/>
    </g>
  </g>
</svg>