<?xml version="1.0" encoding="UTF-8"?>
<svg id="Layer_2" data-name="Layer 2" xmlns="http://www.w3.org/2000/svg" viewBox="0 0 786.89 697.97">
  <defs>
    <style>
      .cls-1 {
        fill: #fff;
      }

      .cls-2 {
        fill: #fcbda1;
      }

      .cls-3 {
        fill: #8c3e29;
      }

      .cls-4 {
        fill: #a1472f;
      }

      .cls-5 {
        fill: #d2e6fa;
      }

      .cls-6 {
        fill: #c95836;
      }

      .cls-7 {
        fill: #70362c;
      }

      .cls-8 {
        fill: #89b5e0;
      }

      .cls-9 {
        fill: #5581c9;
      }

      .cls-10 {
        fill: #609dd6;
      }

      .cls-11 {
        fill: #4b8dcf;
      }

      .cls-12 {
        fill: #6198cf;
      }

      .cls-13 {
        fill: #4a290a;
      }

      .cls-14 {
        stroke: #4b8dcf;
        stroke-width: 5.79px;
      }

      .cls-14, .cls-15, .cls-16, .cls-17, .cls-18 {
        stroke-linejoin: round;
      }

      .cls-14, .cls-15, .cls-16, .cls-17, .cls-18, .cls-19 {
        fill: none;
        stroke-linecap: round;
      }

      .cls-15 {
        stroke: #0d367f;
        stroke-width: 2.03px;
      }

      .cls-16 {
        stroke: #401e1e;
        stroke-width: 3.5px;
      }

      .cls-20 {
        fill: #d0e5f5;
        fill-rule: evenodd;
      }

      .cls-17 {
        stroke: #632c1d;
      }

      .cls-17, .cls-18 {
        stroke-width: 2.21px;
      }

      .cls-18 {
        stroke: #3b1a11;
      }

      .cls-19 {
        stroke: #4f261f;
        stroke-miterlimit: 10;
        stroke-width: 3.18px;
      }
    </style>
  </defs>
  <g id="image">
    <g>
      <ellipse class="cls-5" cx="404.82" cy="671.99" rx="323.42" ry="25.98"/>
      <path class="cls-20" d="M695.83,610.44s-103.69,109.51-209.86,49.83c-106.18-59.69-179.57-132.36-301.74-129.17C7.73,535.71-81,296.82,97.84,126.6,276.68-43.63,503.83-5.77,585.81,33.19c155.25,73.77,301.38,364.17,110.02,577.24Z"/>
      <path class="cls-12" d="M537.44,169.01c17.02-2.64,50.52-15.07,52.7-71.9,0,0-46.91,5.8-57.34,65.76-3.12,6.61-14.48,25.72-22.35,45.97,3.78-17.35,1.12-48.28-32.1-73.45,0,0-22.14,55.72,26.44,88.45-4.74,12.95-5.97,18.1-10.79,34.06,2.78,2.23-.35,15.59,2.29,16.67,4.88-16.35,10.06-36.63,14.88-49.87,15.27,6.89,53.5,18.64,91.46-27.15,0,0-43.83-16.47-86.12,13.92,8.81-22.7,18.45-37.32,20.92-42.46Z"/>
      <path class="cls-8" d="M624.92,433.95c16.85,3.56,52.58,3.8,74.75-48.57,0,0-45.92-11.19-76.91,41.18-5.26,5.08-22.66,18.93-37.18,35.07,9.68-14.88,18.15-44.76-4-80.06,0,0-40.44,44.27-6.61,92.08-9.02,10.43-11.99,14.81-22.15,28.03,1.81,3.07-5.85,14.46-3.76,16.4,10.36-13.56,22.38-30.69,31.58-41.36,11.84,11.85,43.42,36.38,95.15,7.01,0,0-35.15-30.93-85.47-17.49,16.27-18.11,30.48-28.37,34.6-32.3Z"/>
      <path class="cls-11" d="M401.82,229.33c-30.33,25.46-36.77,53.56-36.96,72.28-8.35-22.48-17.43-43.48-26.43-62.43,58.75-45.45,26.47-89.84,26.47-89.84-28.93,25.21-35.39,52.47-35.62,71.16-.04-.08-.08-.17-.13-.25-12.77-25.24-25.71-47.73-37.2-66.4,52.75-57.34,11.28-95.96,11.28-95.96-25.77,33.06-24.74,63.41-20.36,81.51-12.48-19.45-22.34-33.18-26.94-39.42-24.6-60.27-76.74-60.46-76.74-60.46,15.92,58.71,51.1,64.74,68.08,63.98,3.62,4.84,14.29,19.41,28.26,41.22-47.99-22.9-83.91,1.96-83.91,1.96,47.59,39.84,80.25,23.23,93.23,12.91,11.24,18.31,23.84,40.28,36.3,64.91,1.29,2.56,2.6,5.18,3.9,7.83-44.18-35.77-86.66-17.14-86.66-17.14,42.3,52.13,80.07,36.09,92.24,28.68,9.42,19.9,18.93,42.09,27.55,65.84-42.72-34.1-84.06-16.86-84.06-16.86,38.89,49.76,77.15,37.68,91.52,30.26,17.38,51.61,30.44,112.96,28.5,170.72-.08,2.5-1.02,2.71,1.48,2.8,.5,.02,.98-.05,1.44-.18,1.82-.54,3.17-2.19,3.24-4.19,2-59.5-10.9-119.13-28.82-171.98,62.55-44.88,30.34-90.96,30.34-90.96Z"/>
      <g>
        <path class="cls-14" d="M500.48,654.28s-9.16-247.31,118.25-400.89"/>
        <g>
          <path class="cls-1" d="M567.47,220.45c13.01,16.06,51.88,20.12,51.88,20.12,0,0,4.09-38.86-8.92-54.92-13.01-16.06-26.34-12.86-38.21-3.25-11.86,9.61-17.76,21.99-4.75,38.05Z"/>
          <path class="cls-1" d="M646.82,302.07c1.08-20.64-25.08-49.67-25.08-49.67,0,0-29.05,26.13-30.13,46.78-1.08,20.64,10.97,27.18,26.21,27.98,15.25,.8,27.91-4.45,28.99-25.09Z"/>
          <path class="cls-1" d="M577.83,288.37c19.88-5.67,38.86-39.82,38.86-39.82,0,0-34.14-19.01-54.02-13.34-19.88,5.67-22.16,19.19-17.97,33.87s13.25,24.96,33.13,19.3Z"/>
          <path class="cls-1" d="M640.31,187.26c-14.79,14.45-15.22,53.52-15.22,53.52,0,0,39.07,.47,53.86-13.97,14.79-14.45,10.36-27.42-.31-38.34s-23.54-15.65-38.32-1.2Z"/>
          <path class="cls-1" d="M681.4,240.8c-18.96-8.25-55.31,6.09-55.31,6.09,0,0,14.3,36.36,33.26,44.61,18.96,8.25,29.3-.75,35.39-14.75,6.09-14,5.61-27.7-13.34-35.95Z"/>
          <circle class="cls-2" cx="621.31" cy="247.49" r="16.57" transform="translate(-21.05 433.64) rotate(-37.88)"/>
        </g>
      </g>
      <path class="cls-13" d="M279.57,267.97s-2.39,22.92-9.11,35.02c-6.72,12.1-15.11,30.4-2.52,55.46,3.6,7.16,4.39,14.01,.14,17.83-28.81,25.96-37.2,70.33-15.1,73.43l59.6-3.37,171.86-1.49,16.72,24.38c45.36-6.33,40.89-33.42,43.12-56.18,1.06-10.8-8.91-40.24-23.6-45.91-29.39-11.34,6.3-36.69-5.04-56.97-11.34-20.28-9.87-42.21-9.87-42.21l-116.55-75.06-109.66,75.06Z"/>
      <path class="cls-6" d="M331.58,413.18h46.18s20.25,0,20.25,0h46.18c67.76,0,124.73,57.04,132.4,132.55H199.18c7.67-75.52,64.64-132.55,132.4-132.55Z"/>
      <path class="cls-9" d="M565.51,474.77c-55.38-64.88-101.27-60.4-101.27-60.4,.23,.17-18.9,52.88-72.64,55.58v210.27l236.42-.53c-15.82-84.66-29.29-166.02-62.51-204.92Z"/>
      <g>
        <path class="cls-10" d="M189.74,468.79s19.04-61.85-13.66-46.1c0,0-3.51-38.41-25.04-16.31,0,0,1.17-36.91-21.63-19.32l-4.07,11.47s3.37-29.08-14.17-30.76c0,0-12.54,4.25-13,15.61,0,0,.78-31.71-25.73-31.29,0,0-11.45,2.23-1.19,19.94,0,0-16.44-28.25-27.64-15.2,0,0,111.9,80.59,146.13,111.96Z"/>
        <path class="cls-10" d="M188.11,471.06s-55.6,33.12-48.02-2.38c0,0-38.16,5.66-21.77-20.47,0,0-35.59,9.85-23.88-16.45l10.18-6.67s-27.46,10.15-33.23-6.5c0,0,1.17-13.19,12.1-16.32,0,0-30.62,8.25-36.49-17.6,0,0-.54-11.66,19.1-5.87,0,0-31.33-9.3-21.3-23.27,0,0,104.75,89.68,143.32,115.54Z"/>
        <path class="cls-11" d="M58.82,367.45s93.11,61.58,130.92,101.34l-2.09,2.54s-54.06-39.68-128.83-103.88Z"/>
        <path class="cls-11" d="M166.53,455.35s67.81,55.26,66.77,104.77l5.83-16.52s-12.9-50.29-67.15-90.32l-5.44,2.08Z"/>
      </g>
      <g>
        <path class="cls-14" d="M308.66,536.47s-21.87-159.23-129.92-254.63"/>
        <g>
          <path class="cls-1" d="M124.64,330.71c-5.4-24.05,12.2-61.75,12.2-61.75,0,0,32.02,26.56,37.42,50.62,5.4,24.05-4.17,33.41-17.87,36.48-13.7,3.07-26.35-1.3-31.75-25.35Z"/>
          <path class="cls-1" d="M165.35,319.42c-18.34-16.47-25.84-57.4-25.84-57.4,0,0,41.49,3.09,59.83,19.57,18.34,16.47,15.96,29.64,6.58,40.09-9.39,10.45-22.23,14.21-40.56-2.26Z"/>
          <path class="cls-1" d="M200.5,284.09c-24.57,2.04-59.49-20.56-59.49-20.56,0,0,30.71-28.07,55.27-30.11,24.57-2.04,32.52,8.72,33.69,22.71,1.16,13.99-4.9,25.92-29.47,27.97Z"/>
          <path class="cls-2" d="M145.99,275.16c-3.84,5.28-10.75,7.36-16.85,5.02-8.99-3.46-18.91-10.77-10.79-25.55,0,0,12.25-24.99,31.32-4.14,4.63,5.06,5.03,12.69,1,18.24l-4.68,6.44Z"/>
        </g>
      </g>
      <circle class="cls-15" cx="644.33" cy="486.64" r="11.03" transform="translate(-79.11 845.26) rotate(-63.43)"/>
      <circle class="cls-15" cx="438.61" cy="49.89" r="11.03"/>
      <circle class="cls-15" cx="93.64" cy="559.43" r="11.03" transform="translate(-205.62 77.59) rotate(-22.34)"/>
      <path class="cls-6" d="M323.74,268.9c.25-11.47,.49-47.53,4.26-58.96,6.53-19.79,18.13-30.61,32.27-35.62l40.16-3.75c19.14,1.53,35.84,11.1,45.73,35.08,4.59,11.12,9.02,43.45,10.1,54.87,3.5,37.04,1.32,106.24-50.29,107.77-.71,.02,2.17-4.35,1.47-4.34l-.42-11.44-29.36,1.07,.42,11.44c-.7,.03,7.64,4.33,6.93,4.36-51.58,2.21-62.09-63.3-61.28-100.5Z"/>
      <path class="cls-6" d="M390,457.96l-43.44-22.21,.81-14.12,7.31-127.34,73,10.63,8.19,122.27c-.17,15.76-34.52,32.42-45.88,30.76Z"/>
      <path class="cls-7" d="M408.07,257.9c-1.74-.1-3.36-1.2-4.07-2.93-.95-2.34,.14-4.95,2.44-5.83,.7-.27,17.28-6.48,30.61,.91,2.21,1.23,3.07,3.99,1.92,6.18-1.15,2.18-3.87,2.96-6.09,1.73-9.58-5.32-22.86-.39-22.99-.33-.6,.23-1.22,.31-1.82,.28Z"/>
      <path class="cls-7" d="M341.81,259.15c-1.74-.1-3.36-1.2-4.07-2.93-.95-2.34,.14-4.95,2.44-5.83,.7-.27,17.28-6.48,30.61,.91,2.21,1.23,3.07,3.99,1.92,6.18-1.15,2.18-3.87,2.96-6.09,1.73-9.58-5.32-22.86-.39-22.99-.33-.6,.23-1.22,.31-1.82,.28Z"/>
      <path class="cls-19" d="M367.6,279.14s-8.2,10.77-21.69,3.96"/>
      <path class="cls-19" d="M411.46,277.29s8.62,10.28,21.64,2.74"/>
      <path class="cls-3" d="M431.13,360.72s-21.57,15.65-57.43,5.2c0,0,59.78,24.8,60.63,37.53l-3.2-42.73Z"/>
      <ellipse class="cls-6" cx="320.75" cy="291.58" rx="17.94" ry="28.78" transform="translate(-75.85 116.64) rotate(-18.47)"/>
      <path class="cls-17" d="M311.04,274.83c11.37,2.01,15.23,26.38,15.23,26.38,0,0-5.07-7.5-9.96-5.73"/>
      <ellipse class="cls-6" cx="459.59" cy="286.45" rx="29.4" ry="19.34" transform="translate(32.09 618.89) rotate(-69.8)"/>
      <path class="cls-17" d="M469.25,268.81c-12.37,3.1-15.15,27.78-15.15,27.78,0,0,5.12-7.97,10.6-6.68"/>
      <path class="cls-17" d="M400.5,305.4c1.31-.16,2.23-.41,3.04-1.24,1.91-1.96,2.2-4.99,1.09-7.48l-3.34-7.52-5.23-11.78s-4.74-15.43,2.07-21.28"/>
      <line class="cls-17" x1="388.13" y1="305.56" x2="383.57" y2="304.41"/>
      <path class="cls-13" d="M347.74,190.23s41.5,17.05,46.31,29.02c4.81,11.97,13.04,19.51,34.59,24.55,21.55,5.04,7.44,53.75,58.03,68.63l19.1-44.45s3.15-28.51-13.22-40.13c-8.31-5.9-18.53-24.63-30.62-42.48-11.74-17.34-47.8-45.35-75.23-30.23l-38.96,35.1Z"/>
      <path class="cls-13" d="M389.23,186.85s-26.8,1.66-30.94,16.98c-3.36,12.45-14.38,23.09-20.64,29.39-13.26,13.35,.71,22.13-6.12,31.07-2.4,3.15-6.32,4.76-10.28,4.67l-41.68-.98s-3.15-28.51,13.22-40.13c6.36-4.51,12.95-15.14,18.93-29.05,9.41-21.91,24.21-48.28,86.93-43.66l-9.42,31.72Z"/>
      <path class="cls-4" d="M379.27,324.31c-.02,6.1,6.74,18.5,14.98,18.53,8.24,.02,14.86-12.34,14.87-18.44,.02-6.1-5.57-2.79-13.82-2.81s-16.02-3.37-16.04,2.73Z"/>
      <path class="cls-18" d="M410.16,326.84s-14.81,10.96-34.3-1.85"/>
      <polyline class="cls-16" points="544.69 661.78 526.15 579.41 531.18 563.32"/>
      <path class="cls-9" d="M219.12,474.77c55.38-64.88,101.27-60.4,101.27-60.4-.23,.17,18.9,52.88,72.64,55.58v210.27l-236.42-.53c15.82-84.66,29.29-166.02,62.51-204.92Z"/>
      <polyline class="cls-16" points="239.94 661.78 258.48 579.41 253.46 563.32"/>
    </g>
  </g>
</svg>