<svg width="391" height="210" viewBox="0 0 391 210" fill="none" xmlns="http://www.w3.org/2000/svg">
<rect width="391" height="210" fill="url(#paint0_linear_360_392)"/>
<path fill-rule="evenodd" clip-rule="evenodd" d="M256.258 50.8799C255.747 50.6031 255.183 50.4379 254.585 50.4545C253.831 50.471 253.118 50.7601 252.512 51.1938C251.853 51.6646 251.313 52.3172 250.967 53.0482C250.55 53.9362 250.427 54.9274 250.707 55.8815C252.15 60.8666 253.139 66.0582 253.25 71.2581C253.345 75.7807 252.78 80.2784 251.288 84.549C251.029 85.2966 250.196 85.6972 249.45 85.437C248.704 85.1768 248.304 84.3508 248.564 83.6032C249.945 79.6548 250.456 75.4957 250.369 71.3325C250.258 66.3845 249.31 61.4366 247.938 56.6869C247.46 55.0596 247.641 53.3456 248.362 51.8174C248.91 50.6444 249.767 49.5995 250.827 48.8437C251.902 48.0713 253.18 47.6005 254.515 47.5633C255.372 47.5468 256.197 47.7038 256.963 48.0259C257.519 46.8612 258.368 45.8328 259.411 45.0852C260.495 44.3129 261.764 43.8421 263.1 43.8049C264.056 43.7884 264.975 43.9866 265.815 44.379C266.528 43.586 267.394 42.9458 268.375 42.5245C269.397 42.0826 270.509 41.9091 271.622 42.0454C274.33 42.3924 276.23 44.4285 277.429 46.7497C287.835 66.8843 291.556 88.3818 280.372 108.934L280.347 108.979C277.656 114.266 274.383 119.077 270.505 123.563C267.241 127.338 263.668 130.728 260.021 134.132C253.963 139.802 248.185 145.134 245.296 152.961L250.563 152.907C251.432 152.899 252.265 153.238 252.879 153.845C253.505 154.452 253.86 155.282 253.868 156.15L254.095 179.179C254.103 180.051 253.765 180.885 253.159 181.509C252.553 182.128 251.729 182.484 250.86 182.492L204.859 182.954C204.789 182.963 204.719 182.963 204.649 182.954C203.824 182.938 203.033 182.599 202.444 182.025C201.854 181.443 201.504 180.658 201.463 179.832V179.626L201.228 156.691C201.22 155.819 201.558 154.977 202.163 154.361C202.769 153.746 203.594 153.387 204.463 153.378L208.951 153.325C208.481 149.021 208.259 144.655 208.44 140.323C208.605 136.226 209.124 132.096 210.212 128.139C211.053 125.087 212.149 122.216 213.909 119.565C215.644 116.938 217.873 114.765 220.243 112.721C223.28 110.094 226.524 107.884 229.92 105.762C230.831 105.187 231.75 104.622 232.66 104.064C234.49 102.941 236.304 101.821 238.092 100.644C241.183 98.6081 244.113 96.3572 246.85 93.8708C249.512 91.4547 251.968 88.8279 254.202 86.007C255.982 83.756 258.298 81.8603 261.117 81.1003C263.025 80.5964 265.004 80.6584 266.862 81.344C268.597 81.98 270.118 83.1282 271.235 84.6151C272.599 86.4406 273.283 88.6668 273.213 90.9466C273.151 93.053 272.529 95.0933 271.597 96.9726C270.514 99.1657 269.001 101.189 267.344 102.982C265.964 104.469 264.534 105.923 263.058 107.323C261.818 108.512 260.549 109.66 259.283 110.809C258.01 111.965 256.732 113.122 255.508 114.332C253.53 116.281 251.795 118.313 250.241 120.618C248.168 123.687 246.499 127.053 245.045 130.443C244.723 131.183 243.874 131.513 243.145 131.199C242.415 130.885 242.077 130.035 242.399 129.295C243.936 125.723 245.687 122.183 247.868 118.953C249.508 116.517 251.338 114.377 253.423 112.316C254.701 111.065 256.028 109.863 257.346 108.665C258.595 107.533 259.836 106.406 261.051 105.245C262.481 103.87 263.878 102.462 265.234 101.012C266.702 99.4217 268.053 97.6293 269.018 95.6798C269.764 94.1847 270.295 92.5409 270.336 90.8516C270.39 89.2244 269.904 87.6508 268.931 86.3456C268.148 85.309 267.093 84.4953 265.869 84.041C264.575 83.5702 263.198 83.5289 261.867 83.884C259.671 84.4664 257.849 86.0317 256.469 87.7871C254.144 90.7277 251.573 93.4743 248.799 95.9978C245.951 98.5875 242.897 100.938 239.687 103.044C237.874 104.233 236.023 105.373 234.177 106.505C233.213 107.096 232.261 107.686 231.304 108.289C228.086 110.309 225.003 112.411 222.131 114.889C219.971 116.76 217.894 118.759 216.307 121.151C214.729 123.534 213.756 126.152 213.002 128.899C211.968 132.649 211.481 136.552 211.329 140.43C211.156 144.709 211.383 149.021 211.848 153.283L242.238 152.978C245.189 144.056 251.317 138.307 258.059 132.001C261.608 128.688 265.098 125.384 268.284 121.704C272.005 117.409 275.158 112.808 277.742 107.736H277.734L277.845 107.538C288.536 87.8903 284.806 67.2808 274.878 48.0672C274.149 46.6588 272.962 45.11 271.268 44.9035C270.67 44.825 270.069 44.9283 269.525 45.1637C268.927 45.4239 268.387 45.8245 267.954 46.3119C267.901 46.3738 267.851 46.4317 267.798 46.4936C267.781 46.7786 267.678 47.0677 267.485 47.3114C267.382 47.4436 267.25 47.5468 267.122 47.6335C266.767 48.4678 266.66 49.3971 266.924 50.3016C268.375 55.2868 269.356 60.4866 269.467 65.6865C269.57 70.2008 268.997 74.6986 267.513 78.9774C267.246 79.725 266.421 80.1256 265.675 79.8654C264.929 79.6052 264.53 78.7709 264.789 78.0233C266.17 74.0749 266.681 69.9282 266.594 65.7526C266.483 60.8047 265.535 55.8567 264.155 51.1153C263.747 49.6986 263.833 48.22 264.319 46.8695C263.965 46.7373 263.582 46.6795 263.182 46.6877C262.436 46.7043 261.715 46.9934 261.109 47.427C260.45 47.8979 259.91 48.5504 259.564 49.2815C259.147 50.1695 259.024 51.1607 259.304 52.1148C260.614 56.6538 261.888 61.4572 262.246 66.1863C262.568 70.4321 262.09 74.2814 260.693 78.3083C260.433 79.0559 259.601 79.4565 258.855 79.1963C258.109 78.9361 257.709 78.1101 257.969 77.3543C259.238 73.7197 259.662 70.2421 259.374 66.4052C259.217 64.307 258.863 62.2378 258.418 60.1975C257.886 57.7525 257.227 55.3281 256.534 52.9284C256.337 52.2511 256.258 51.5613 256.275 50.8757L256.258 50.8799ZM204.113 156.654L204.339 179.683C204.348 179.787 204.385 179.882 204.459 179.952C204.529 180.03 204.624 180.063 204.727 180.063L250.827 179.601C250.921 179.601 251.024 179.555 251.095 179.481C251.165 179.411 251.206 179.316 251.206 179.213L250.971 156.183C250.971 156.079 250.93 155.984 250.86 155.906C250.781 155.836 250.687 155.794 250.583 155.794L204.496 156.265C204.393 156.265 204.298 156.307 204.228 156.377C204.15 156.455 204.117 156.55 204.117 156.654H204.113Z" fill="#FCECE2"/>
<path fill-rule="evenodd" clip-rule="evenodd" d="M134.922 50.8799C135.433 50.6031 135.997 50.4379 136.595 50.4545C137.349 50.471 138.07 50.7601 138.676 51.1938C139.327 51.6646 139.876 52.3172 140.213 53.0482C140.63 53.9362 140.753 54.9274 140.481 55.8815C139.031 60.8666 138.05 66.0582 137.939 71.2581C137.836 75.7807 138.408 80.2784 139.892 84.549C140.16 85.2966 140.984 85.6972 141.73 85.437C142.476 85.1768 142.876 84.3508 142.616 83.6032C141.236 79.6548 140.725 75.4957 140.811 71.3325C140.922 66.3845 141.87 61.4366 143.243 56.6869C143.721 55.0596 143.539 53.3456 142.826 51.8174C142.27 50.6444 141.413 49.5995 140.354 48.8437C139.278 48.0713 138 47.6005 136.673 47.5633C135.816 47.5468 134.992 47.7038 134.217 48.0259C133.669 46.8612 132.812 45.8328 131.769 45.0852C130.693 44.3129 129.416 43.8421 128.081 43.8049C127.125 43.7884 126.206 43.9866 125.365 44.379C124.66 43.586 123.786 42.9458 122.806 42.5245C121.779 42.0826 120.671 41.9091 119.558 42.0454C116.85 42.3924 114.95 44.4285 113.751 46.7497C103.353 66.8801 99.6279 88.3818 110.817 108.929L110.842 108.975C113.533 114.261 116.805 119.073 120.683 123.558C123.955 127.333 127.528 130.724 131.167 134.128C137.234 139.798 143.004 145.13 145.892 152.957L140.634 152.903C139.764 152.895 138.924 153.234 138.309 153.841C137.691 154.448 137.337 155.278 137.329 156.146L137.094 179.175C137.085 180.047 137.423 180.881 138.029 181.505C138.635 182.124 139.459 182.479 140.329 182.488L186.33 182.95C186.4 182.959 186.478 182.959 186.548 182.95C187.372 182.934 188.151 182.595 188.745 182.021C189.334 181.439 189.693 180.654 189.726 179.828C189.734 179.758 189.734 179.687 189.726 179.621L189.961 156.687C189.969 155.815 189.631 154.973 189.025 154.357C188.419 153.738 187.595 153.382 186.725 153.374L182.25 153.32C182.711 149.017 182.934 144.651 182.761 140.319C182.596 136.222 182.064 132.091 180.98 128.135C180.14 125.082 179.043 122.212 177.292 119.56C175.549 116.934 173.327 114.761 170.949 112.717C167.912 110.09 164.673 107.88 161.273 105.757C160.362 105.183 159.451 104.618 158.532 104.06C156.711 102.937 154.889 101.817 153.1 100.64C150.01 98.604 147.079 96.353 144.343 93.8667C141.689 91.4505 139.224 88.8237 136.995 86.0028C135.214 83.7519 132.898 81.8561 130.079 81.0962C128.18 80.5923 126.193 80.6543 124.343 81.3399C122.599 81.9759 121.079 83.1241 119.97 84.611C118.598 86.4365 117.922 88.6627 117.984 90.9425C118.046 93.0489 118.668 95.0892 119.599 96.9684C120.683 99.1616 122.196 101.185 123.852 102.978C125.241 104.465 126.671 105.919 128.138 107.319C129.379 108.508 130.648 109.656 131.922 110.805C133.187 111.961 134.473 113.117 135.688 114.328C137.667 116.277 139.402 118.309 140.964 120.614C143.028 123.682 144.693 127.048 146.16 130.439C146.474 131.179 147.323 131.509 148.052 131.195C148.781 130.881 149.119 130.03 148.806 129.291C147.269 125.719 145.509 122.179 143.329 118.949C141.689 116.512 139.859 114.373 137.774 112.312C136.509 111.061 135.177 109.859 133.85 108.661C132.602 107.529 131.361 106.402 130.145 105.241C128.715 103.866 127.314 102.457 125.971 101.008C124.495 99.4176 123.139 97.6251 122.179 95.6757C121.441 94.1806 120.902 92.5368 120.86 90.8475C120.815 89.2202 121.293 87.6466 122.266 86.3415C123.049 85.3048 124.116 84.4912 125.328 84.0369C126.622 83.566 127.998 83.5247 129.338 83.8799C131.534 84.4623 133.348 86.0276 134.736 87.7829C137.061 90.7236 139.62 93.4702 142.398 95.9937C145.245 98.5833 148.299 100.933 151.51 103.04C153.323 104.229 155.173 105.369 157.02 106.501C157.984 107.091 158.944 107.682 159.9 108.285C163.111 110.305 166.194 112.407 169.074 114.885C171.226 116.756 173.307 118.755 174.889 121.146C176.468 123.53 177.44 126.148 178.203 128.895C179.225 132.645 179.723 136.548 179.876 140.426C180.041 144.705 179.814 149.017 179.348 153.279L148.959 152.974C146.016 144.052 139.88 138.303 133.137 131.996C129.589 128.684 126.098 125.38 122.913 121.7C119.191 117.405 116.038 112.804 113.454 107.732H113.463L113.36 107.533C102.657 87.9027 106.391 67.289 116.319 48.0796C117.048 46.6712 118.243 45.1224 119.929 44.9159C120.526 44.8374 121.124 44.9407 121.68 45.1761C122.27 45.4363 122.81 45.8369 123.242 46.3243C123.296 46.3862 123.345 46.4441 123.399 46.506C123.415 46.791 123.518 47.0801 123.712 47.3238C123.823 47.456 123.947 47.5592 124.087 47.6459C124.442 48.4802 124.541 49.4095 124.277 50.314C122.834 55.2991 121.845 60.499 121.734 65.6989C121.639 70.2132 122.204 74.7109 123.696 78.9898C123.955 79.7374 124.78 80.138 125.526 79.8778C126.28 79.6176 126.671 78.7833 126.412 78.0357C125.039 74.0873 124.52 69.9406 124.615 65.765C124.718 60.8171 125.674 55.8691 127.046 51.1277C127.454 49.711 127.368 48.2324 126.881 46.8819C127.236 46.7497 127.619 46.6919 128.019 46.7001C128.773 46.7167 129.486 47.0058 130.092 47.4394C130.751 47.9103 131.291 48.5628 131.637 49.2939C132.053 50.1819 132.177 51.1731 131.897 52.1272C130.586 56.6662 129.321 61.4696 128.963 66.1987C128.641 70.4445 129.111 74.2938 130.516 78.3207C130.776 79.0683 131.6 79.4689 132.346 79.2087C133.092 78.9485 133.492 78.1225 133.232 77.3666C131.963 73.7321 131.538 70.2545 131.827 66.4176C131.992 64.3194 132.338 62.2502 132.783 60.2099C133.31 57.7649 133.97 55.3404 134.666 52.9408C134.864 52.2635 134.951 51.5737 134.926 50.8881L134.922 50.8799ZM187.076 156.654L186.841 179.683C186.841 179.787 186.795 179.882 186.721 179.952C186.651 180.03 186.556 180.063 186.462 180.063L140.362 179.601C140.259 179.601 140.164 179.555 140.086 179.481C140.016 179.411 139.974 179.316 139.974 179.213L140.209 156.183C140.209 156.079 140.255 155.984 140.329 155.906C140.399 155.836 140.494 155.794 140.597 155.794L186.688 156.265C186.791 156.265 186.886 156.307 186.964 156.377C187.034 156.455 187.076 156.55 187.076 156.654Z" fill="#FCECE2"/>
<path fill-rule="evenodd" clip-rule="evenodd" d="M198.281 103.808C197.465 104.337 196.571 104.964 195.565 104.964C194.56 104.964 193.797 104.382 192.99 103.87C192.771 103.73 192.557 103.593 192.347 103.453C190.653 102.375 188.988 101.251 187.364 100.078C185.835 98.9922 184.343 97.8523 182.897 96.6587C180.049 94.321 177.284 91.9007 174.733 89.2492C172.025 86.4324 169.606 83.3967 167.591 80.0471C163.84 73.8106 161.821 66.4878 163.626 59.2683C164.553 55.5718 166.437 52.2057 169.128 49.5211C171.695 46.9645 174.906 45.1224 178.421 44.251C183.783 42.921 189.206 43.9742 193.814 46.9893L193.9 47.043C194.275 47.2866 194.646 47.5386 195.021 47.7657C195.186 47.8607 195.405 47.9929 195.594 48.0631C195.784 47.9929 196.002 47.8649 196.167 47.7657C196.55 47.5386 196.921 47.2866 197.296 47.043L197.383 46.9893C201.982 43.9701 207.406 42.921 212.767 44.251C216.283 45.1224 219.493 46.9645 222.061 49.5211C224.76 52.2098 226.643 55.5759 227.562 59.2683C229.376 66.4878 227.352 73.8106 223.598 80.0471C221.583 83.3967 219.163 86.4324 216.464 89.2492C213.905 91.9007 211.135 94.321 208.288 96.6587C206.845 97.8482 205.345 98.9881 203.816 100.078C202.192 101.251 200.536 102.375 198.842 103.453C198.693 103.548 198.549 103.635 198.401 103.73C198.376 103.746 198.347 103.763 198.314 103.783C198.306 103.791 198.298 103.791 198.298 103.8C198.29 103.8 198.29 103.808 198.281 103.808Z" fill="#FCECE2"/>
<path fill-rule="evenodd" clip-rule="evenodd" d="M204.269 179.679L204.034 156.649C204.034 156.587 204.043 156.53 204.067 156.476C204.084 156.414 204.121 156.364 204.162 156.319C204.208 156.273 204.257 156.24 204.311 156.216C204.372 156.199 204.43 156.183 204.492 156.183L250.579 155.72C250.641 155.72 250.703 155.728 250.761 155.753C250.814 155.77 250.864 155.807 250.909 155.848C250.95 155.894 250.987 155.943 251.012 155.997C251.029 156.059 251.045 156.117 251.045 156.179L251.28 179.208C251.28 179.27 251.263 179.332 251.247 179.382C251.222 179.435 251.185 179.485 251.144 179.53C251.103 179.572 251.049 179.609 250.996 179.634C250.942 179.659 250.884 179.667 250.822 179.667L204.723 180.138C204.661 180.138 204.603 180.129 204.55 180.105C204.496 180.08 204.447 180.051 204.401 180.01C204.36 179.968 204.323 179.915 204.298 179.853C204.273 179.799 204.265 179.741 204.265 179.679H204.269Z" fill="#FCECE2"/>
<path fill-rule="evenodd" clip-rule="evenodd" d="M140.597 155.72L186.688 156.183C186.758 156.183 186.808 156.199 186.87 156.216C186.923 156.24 186.973 156.278 187.018 156.319C187.059 156.36 187.096 156.414 187.113 156.476H187.121C187.138 156.53 187.146 156.587 187.146 156.649L186.919 179.679C186.919 179.741 186.903 179.799 186.874 179.853C186.857 179.915 186.82 179.964 186.779 180.01C186.738 180.055 186.684 180.08 186.622 180.105C186.569 180.129 186.511 180.138 186.458 180.138L140.358 179.667C140.288 179.667 140.238 179.659 140.176 179.634C140.123 179.609 140.073 179.572 140.028 179.53C139.987 179.485 139.95 179.435 139.933 179.382C139.909 179.328 139.9 179.27 139.9 179.208L140.127 156.179C140.127 156.117 140.143 156.059 140.172 155.997C140.189 155.943 140.226 155.894 140.267 155.848C140.312 155.807 140.362 155.77 140.424 155.753C140.477 155.728 140.535 155.72 140.597 155.72Z" fill="#FCECE2"/>
<defs>
<linearGradient id="paint0_linear_360_392" x1="195.5" y1="0" x2="195.5" y2="210" gradientUnits="userSpaceOnUse">
<stop stop-color="#5762B8"/>
<stop offset="0.723967" stop-color="#819DFF" stop-opacity="0.651048"/>
<stop offset="1" stop-color="#819DFF" stop-opacity="0"/>
</linearGradient>
</defs>
</svg>
