<svg width="112" height="241" viewBox="0 0 112 241" fill="none" xmlns="http://www.w3.org/2000/svg">
<g clip-path="url(#clip0_275_466)">
<g style="mix-blend-mode:multiply">
<path d="M41.2222 51.605C42.3344 51.202 42.9067 49.9298 42.521 48.7823L40.0479 41.4697C39.6624 40.31 38.4431 39.7142 37.3425 40.1174C36.2303 40.5204 35.6581 41.7926 36.0438 42.9401L38.5169 50.2527C38.9024 51.4124 40.1217 52.0082 41.2222 51.605ZM34.1546 30.705C35.2668 30.3019 35.839 29.0298 35.4534 27.8822L34.2169 24.2199C33.8314 23.0602 32.6121 22.4644 31.5115 22.8675C30.3993 23.2706 29.8154 24.5426 30.2128 25.6903L31.4492 29.3526C31.8348 30.5123 33.0541 31.1081 34.1546 30.705ZM27.1339 9.78103C28.2348 9.34138 28.7837 8.06897 28.3747 6.92123C27.9657 5.77348 26.7345 5.20192 25.6338 5.6294C24.533 6.05689 23.9723 7.34133 24.3929 8.4892C24.8136 9.63706 26.0331 10.2085 27.1339 9.78103ZM45.609 47.948C45.7958 49.1545 46.8963 49.9681 48.0532 49.7724C49.2101 49.5766 49.9911 48.4282 49.8044 47.2217L48.5829 39.5683C48.3961 38.3618 47.2956 37.5481 46.1387 37.7439C44.9818 37.9396 44.2008 39.0881 44.3876 40.2946L45.609 47.948ZM44.5766 27.8969C45.7335 27.7011 46.5146 26.5526 46.3278 25.3462L45.7229 21.5195C45.5362 20.313 44.4356 19.4994 43.2787 19.6951C42.1219 19.8909 41.3408 21.0393 41.5276 22.2458L42.1325 26.0725C42.3192 27.2789 43.4197 28.0926 44.5766 27.8969ZM41.1935 6.01005C42.351 5.75346 43.0739 4.58009 42.8404 3.38535C42.5952 2.1905 41.4709 1.42526 40.3251 1.68196C39.1676 1.93855 38.433 3.11181 38.6782 4.30667C38.9234 5.50151 40.0477 6.26675 41.1935 6.01005ZM55.0352 55.2909C53.857 55.2795 52.9025 56.2682 52.8908 57.4849L52.8095 65.9533L51.478 57.6052C51.2796 56.3986 50.1907 55.585 49.0338 55.7808C47.8769 55.9765 47.0959 57.125 47.2826 58.3315L48.614 66.6917L45.914 58.7077C45.5285 57.548 44.3092 56.9522 43.197 57.3553C42.0848 57.7583 41.5126 59.0305 41.8982 60.178L44.5982 68.162L40.609 60.7862C40.0359 59.7221 38.7329 59.3445 37.7121 59.9431C36.6914 60.5417 36.3283 61.9011 36.9014 62.9652L42.3807 73.1054C42.9538 74.1696 44.2569 74.5471 45.2776 73.9485C45.9112 73.5774 46.2909 72.9118 46.356 72.2066C46.9003 72.6256 47.634 72.7665 48.3132 72.5053C49.0039 72.2564 49.4879 71.6648 49.6578 70.985C50.1312 71.5006 50.817 71.7628 51.5415 71.6359C52.2661 71.509 52.8307 71.0277 53.1169 70.3855C53.4962 70.9732 54.1342 71.3566 54.8575 71.3635C55.5808 71.3705 56.2377 70.9995 56.6166 70.4191C56.8904 71.0667 57.4573 71.5588 58.1676 71.6995C58.8896 71.8403 59.5805 71.5792 60.0635 71.085C60.2203 71.7679 60.6929 72.3687 61.3787 72.6308C62.0645 72.8929 62.789 72.7782 63.3529 72.3699C63.3928 73.076 63.7596 73.7488 64.386 74.1321C65.395 74.7502 66.705 74.4099 67.2985 73.3448L72.9832 63.324C73.5766 62.2711 73.2514 60.9051 72.2307 60.2869C71.2216 59.6687 69.9117 60.009 69.3181 61.0742L65.188 68.372L68.0408 60.4413C68.4486 59.2892 67.9008 58.0185 66.7966 57.582C65.6925 57.1455 64.4735 57.73 64.0541 58.882L61.2013 66.8126L62.693 58.4795C62.9029 57.2769 62.144 56.1136 60.9911 55.8956C59.8382 55.6777 58.7223 56.4701 58.5124 57.6727L57.0206 66.0059L57.102 57.5375C57.1138 56.3086 56.1783 55.314 55.0001 55.3027L55.0352 55.2909ZM53.0665 39.1976L52.9919 46.9603C52.9801 48.1892 53.9155 49.1838 55.0938 49.1951C56.272 49.2064 57.2264 48.2299 57.2382 47.0011L57.3128 39.2384C57.3246 38.0095 56.3891 37.0149 55.2109 37.0036C54.0327 36.9922 53.0783 37.9687 53.0665 39.1976ZM53.2421 20.9103L53.2048 24.7916C53.193 26.0205 54.1285 27.0151 55.3067 27.0265C56.4849 27.0378 57.4393 26.0613 57.4511 24.8324L57.4884 20.9511C57.5002 19.7222 56.5648 18.7276 55.3865 18.7163C54.2083 18.7049 53.2539 19.6814 53.2421 20.9103ZM55.4572 0.427955C54.2901 0.477584 53.3701 1.51522 53.4167 2.7325C53.4634 3.94978 54.4575 4.90846 55.6246 4.85883C56.8035 4.80931 57.7118 3.77156 57.6651 2.55427C57.6185 1.33699 56.6244 0.378319 55.4572 0.427955ZM57.8083 73.8864C57.2609 73.7838 56.7232 73.9003 56.2887 74.1881C55.9189 73.8195 55.4077 73.5956 54.8595 73.5903C54.3112 73.5851 53.7958 73.7991 53.419 74.1606C52.9901 73.8644 52.4547 73.7376 51.9055 73.8297C51.3562 73.9217 50.8983 74.2337 50.5792 74.6565C50.1029 74.4451 49.5549 74.4033 49.0397 74.6052C48.5128 74.7949 48.1125 75.1804 47.8745 75.6649C47.374 75.5384 46.825 75.6061 46.344 75.8935C45.3232 76.4921 44.9601 77.8515 45.5333 78.9156L52.8119 92.4194C52.8119 92.4194 52.8118 92.4316 52.8233 92.4438C52.8233 92.4438 52.8232 92.456 52.8231 92.4682C52.823 92.4803 52.823 92.4803 52.8345 92.4926C52.8344 92.5048 52.846 92.5171 52.8574 92.5415C52.8574 92.5415 52.8688 92.566 52.8804 92.5782C52.8804 92.5782 52.8802 92.6026 52.9035 92.6028C52.9035 92.6028 52.9035 92.6028 52.9034 92.615C52.9034 92.615 52.9034 92.615 52.9033 92.6271C52.9033 92.6271 52.9031 92.6393 52.9147 92.6516C52.9147 92.6516 52.9146 92.6637 52.9261 92.676C52.9261 92.676 52.9492 92.7006 52.9491 92.7127C52.9491 92.7127 52.9605 92.7372 52.9722 92.7373C52.9722 92.7373 52.9836 92.7618 52.9953 92.7619C52.9953 92.7619 52.9952 92.774 53.0067 92.7863C53.0067 92.7863 53.0067 92.7863 53.0183 92.7986C53.0183 92.7986 53.0182 92.8108 53.0297 92.823C53.0297 92.823 53.0413 92.8353 53.0528 92.8476L53.0759 92.8722C53.0759 92.8722 53.0874 92.8844 53.099 92.8967L53.1221 92.9213C53.1221 92.9213 53.1336 92.9335 53.1452 92.9458C53.1452 92.9458 53.1569 92.9459 53.1684 92.9582C53.1684 92.9582 53.1684 92.9582 53.18 92.9705C53.18 92.9705 53.1916 92.9706 53.2032 92.9829C53.2032 92.9829 53.2264 92.9953 53.2263 93.0074C53.2263 93.0074 53.2378 93.0197 53.2494 93.032C53.2494 93.032 53.2725 93.0566 53.2841 93.0567C53.2841 93.0567 53.2958 93.0568 53.3073 93.0691C53.3073 93.0691 53.319 93.0692 53.3306 93.0815C53.3306 93.0815 53.3306 93.0815 53.3421 93.0937C53.3421 93.0937 53.3421 93.0937 53.3538 93.0939C53.3538 93.0939 53.3653 93.1061 53.3769 93.1184C53.3769 93.1184 53.4001 93.1308 53.4116 93.1431C53.4233 93.1432 53.4464 93.1678 53.4581 93.1679C53.4581 93.1679 53.4697 93.168 53.4813 93.1803C53.4813 93.1803 53.4929 93.1804 53.5046 93.1805C53.5046 93.1805 53.5163 93.1806 53.5278 93.1929C53.5278 93.1929 53.5395 93.193 53.5512 93.1931C53.5512 93.1931 53.5744 93.2055 53.5859 93.2178C53.5976 93.2179 53.6208 93.2303 53.6323 93.2425C53.6323 93.2425 53.644 93.2427 53.6557 93.2428C53.6557 93.2428 53.6557 93.2428 53.6673 93.2429C53.6673 93.2429 53.6907 93.2431 53.6906 93.2553C53.6906 93.2553 53.6906 93.2553 53.7022 93.2554L53.7139 93.2555C53.7256 93.2556 53.7488 93.268 53.7603 93.2803C53.772 93.2804 53.7952 93.2928 53.8067 93.3051C53.8067 93.3051 53.8184 93.3052 53.8301 93.3053C53.8301 93.3053 53.8417 93.3054 53.8534 93.3055C53.8534 93.3055 53.8651 93.3056 53.8767 93.3057C53.8767 93.3057 53.8884 93.3058 53.9001 93.306C53.9117 93.3061 53.9351 93.3063 53.9466 93.3186C53.9583 93.3187 53.9699 93.3188 53.9933 93.319L54.0166 93.3192C54.0166 93.3192 54.0166 93.3192 54.0399 93.3195C54.0399 93.3195 54.0516 93.3196 54.0633 93.3197C54.0633 93.3197 54.0749 93.3198 54.0866 93.3199C54.0866 93.3199 54.0983 93.32 54.1099 93.3201C54.1333 93.3204 54.1449 93.3205 54.1566 93.3206C54.1566 93.3206 54.1683 93.3207 54.1799 93.3208C54.1799 93.3208 54.1916 93.3209 54.2033 93.321C54.2033 93.321 54.2149 93.3212 54.2266 93.3213C54.2266 93.3213 54.2383 93.3214 54.2499 93.3215C54.2499 93.3215 54.2616 93.3216 54.2733 93.3217C54.2733 93.3217 54.2966 93.3219 54.3082 93.3221C54.3199 93.3222 54.3432 93.3224 54.3549 93.3225C54.3666 93.3226 54.3782 93.3227 54.3899 93.3228L54.4132 93.3231L54.4366 93.3233L54.4599 93.3235C54.4599 93.3235 54.4716 93.3236 54.4832 93.3237L54.5999 93.3249C54.5999 93.3249 54.6116 93.325 54.6232 93.3251C54.6232 93.3251 54.6349 93.3252 54.6466 93.3253L54.6699 93.3255L54.6932 93.3257C54.6932 93.3257 54.7165 93.326 54.7282 93.3261C54.7399 93.3262 54.7632 93.3264 54.7749 93.3265C54.7749 93.3265 54.7982 93.3268 54.8099 93.3269L54.8332 93.3271C54.8332 93.3271 54.8332 93.3271 54.8449 93.3272L54.8682 93.3274C54.8682 93.3274 54.8799 93.3275 54.8915 93.3277C54.8915 93.3277 54.9032 93.3278 54.9149 93.3279C54.9382 93.3281 54.9499 93.3282 54.9732 93.3284C54.9732 93.3284 54.9849 93.3285 54.9965 93.3287L55.0199 93.3289C55.0199 93.3289 55.0315 93.329 55.0432 93.3291C55.0432 93.3291 55.0432 93.3291 55.0549 93.3292L55.0534 93.4752C55.0534 93.4752 55.0768 93.4755 55.0885 93.4756C55.1001 93.4757 55.1118 93.4758 55.1234 93.4759C55.1351 93.476 55.1584 93.4762 55.1702 93.4642C55.1702 93.4642 55.1819 93.4643 55.1936 93.4644C55.1936 93.4644 55.2052 93.4645 55.2169 93.4646C55.2169 93.4646 55.2285 93.4647 55.2402 93.4649L55.2635 93.4651C55.2752 93.4652 55.2869 93.4653 55.3103 93.4534C55.322 93.4535 55.3454 93.4415 55.3572 93.4295C55.3572 93.4295 55.3689 93.4296 55.3806 93.4297C55.3806 93.4297 55.3806 93.4297 55.3922 93.4298C55.3922 93.4298 55.4156 93.43 55.4273 93.418C55.4273 93.418 55.4273 93.418 55.439 93.4181C55.439 93.4181 55.4507 93.4182 55.4623 93.4183C55.474 93.4184 55.4974 93.4065 55.5092 93.3944C55.5092 93.3944 55.5327 93.3825 55.5445 93.3704C55.5445 93.3704 55.5561 93.3705 55.5679 93.3585C55.5679 93.3585 55.5796 93.3586 55.5914 93.3465C55.5914 93.3465 55.603 93.3467 55.6147 93.3468C55.6147 93.3468 55.6147 93.3468 55.638 93.347C55.6497 93.3471 55.6616 93.3229 55.6849 93.3231C55.6849 93.3231 55.7084 93.3112 55.7201 93.2991C55.7201 93.2991 55.7318 93.2992 55.7436 93.2872C55.7436 93.2872 55.7436 93.2872 55.7553 93.2873C55.7553 93.2873 55.7553 93.2873 55.7787 93.2753C55.8022 93.2634 55.7904 93.2754 55.8022 93.2634C55.8022 93.2634 55.8138 93.2635 55.8256 93.2514C55.8256 93.2514 55.8492 93.2273 55.8608 93.2274C55.8608 93.2274 55.8726 93.2154 55.8844 93.2033C55.8844 93.2033 55.9078 93.1914 55.908 93.1792C55.908 93.1792 55.9196 93.1793 55.9314 93.1673C55.9314 93.1673 55.9314 93.1673 55.9432 93.1552C55.9432 93.1552 55.9549 93.1553 55.9666 93.1433C55.9666 93.1433 55.9784 93.1312 55.9902 93.1192L56.0138 93.0951C56.0138 93.0951 56.0256 93.083 56.0373 93.071C56.0373 93.071 56.0492 93.0467 56.0609 93.0468C56.0609 93.0468 56.0727 93.0348 56.0845 93.0227C56.0845 93.0227 56.0846 93.0106 56.0964 92.9985L56.0965 92.9863C56.0965 92.9863 56.1199 92.9744 56.1317 92.9623C56.1317 92.9623 56.1435 92.9503 56.1553 92.9382C56.1553 92.9382 56.1671 92.9262 56.1788 92.9141C56.1788 92.9141 56.2024 92.89 56.2025 92.8778C56.2025 92.8778 56.2026 92.8657 56.2144 92.8536C56.2144 92.8536 56.2145 92.8415 56.2263 92.8294C56.2263 92.8294 56.2263 92.8294 56.2381 92.8173C56.2381 92.8173 56.2381 92.8173 56.2382 92.8052C56.2382 92.8052 56.2501 92.781 56.2618 92.7811C56.2618 92.7811 56.2737 92.7568 56.2855 92.7448L56.3093 92.6964C56.3093 92.6964 56.3094 92.6842 56.3212 92.6721C56.3212 92.6721 56.3213 92.66 56.3214 92.6478C56.3214 92.6478 56.3215 92.6356 56.3333 92.6236L56.3334 92.6114L63.905 79.2625C64.4985 78.2095 64.1732 76.8436 63.1525 76.2253C62.677 75.9287 62.1293 75.8626 61.6267 75.9673C61.3979 75.4905 60.9933 75.0973 60.482 74.8855C59.959 74.6858 59.4104 74.7049 58.9418 74.9072C58.6309 74.4783 58.179 74.1576 57.6317 74.055L57.8083 73.8864ZM61.7651 39.6949L60.3968 47.3234C60.1869 48.5261 60.9457 49.6894 62.0986 49.9073C63.2514 50.1374 64.3675 49.3328 64.5774 48.1302L65.9457 40.5016C66.1672 39.2991 65.3967 38.1357 64.2438 37.9178C63.0909 37.6998 61.975 38.4922 61.7651 39.6949ZM64.9829 21.7045L64.2929 25.5187C64.0714 26.7213 64.8419 27.8847 65.9948 28.1026C67.1477 28.3205 68.2636 27.5281 68.4735 26.3255L69.1635 22.5113C69.3734 21.3086 68.6145 20.1453 67.4616 19.9274C66.3087 19.7095 65.1928 20.5019 64.9829 21.7045ZM68.176 3.85991C68.036 5.07539 68.8654 6.1785 70.0307 6.32355C71.1959 6.46859 72.2543 5.60264 72.3943 4.38715C72.5343 3.17167 71.7049 2.06856 70.5396 1.92351C69.3743 1.77846 68.316 2.64442 68.1643 3.8598L68.176 3.85991ZM70.2504 41.7477L67.6373 49.0114C67.2295 50.1634 67.7773 51.4342 68.8815 51.8707C69.9857 52.295 71.2046 51.7227 71.624 50.5707L74.2371 43.307C74.6448 42.1549 74.097 40.8841 72.9929 40.4476C71.8886 40.0233 70.6698 40.5957 70.2504 41.7477ZM76.4117 24.613L75.1051 28.2509C74.6973 29.403 75.2451 30.6738 76.3493 31.1103C77.4535 31.5346 78.6724 30.9622 79.0918 29.8103L80.3984 26.1723C80.8061 25.0203 80.2583 23.7495 79.1542 23.313C78.0499 22.8887 76.8311 23.461 76.4117 24.613ZM82.5247 7.64822C82.1983 8.82542 82.8516 10.0485 83.98 10.3879C85.1084 10.7273 86.2933 10.0451 86.6196 8.86789C86.9459 7.6907 86.2927 6.46759 85.1643 6.1282C84.0359 5.78881 82.851 6.47104 82.5247 7.64822ZM35.6219 51.6364L31.9652 44.8722C31.3921 43.8081 30.089 43.4305 29.0683 44.0291C28.0475 44.6277 27.6844 45.9871 28.2576 47.0512L31.9144 53.8033C32.4875 54.8674 33.7906 55.245 34.8113 54.6464C35.8321 54.0478 36.1951 52.6884 35.622 51.6243L35.6219 51.6364ZM25.1789 32.3345L23.3563 28.9585C22.7832 27.8944 21.4802 27.5168 20.4594 28.1154C19.4387 28.714 19.0756 30.0734 19.6487 31.1376L21.4713 34.5135C22.0444 35.5777 23.3475 35.9552 24.3682 35.3566C25.389 34.758 25.752 33.3986 25.1789 32.3345ZM11.8742 12.1655C10.8419 12.7518 10.4557 14.0988 11.017 15.175C11.5783 16.2512 12.8695 16.653 13.9018 16.0666C14.9341 15.4803 15.3204 14.1333 14.759 13.0571C14.1977 11.9809 12.9065 11.5791 11.8742 12.1655ZM78.2428 45.3167L74.457 51.9973C73.8635 53.0502 74.2004 54.4163 75.2095 55.0344C76.2185 55.6525 77.5285 55.3122 78.122 54.2471L81.9079 47.5666C82.5013 46.5136 82.1761 45.1476 81.1671 44.5295C80.158 43.9114 78.8481 44.2517 78.2545 45.3168L78.2428 45.3167ZM87.1676 29.5593L85.2688 32.8995C84.6753 33.9525 85.0006 35.3184 86.0096 35.9365C87.0187 36.5547 88.3286 36.2144 88.9222 35.1492L90.821 31.809C91.4144 30.7561 91.0892 29.3901 90.0685 28.7719C89.0594 28.1538 87.7493 28.5062 87.1559 29.5592L87.1676 29.5593ZM95.9853 14.0077C95.4963 15.1225 95.9619 16.4411 97.0305 16.9381C98.099 17.4473 99.3636 16.9605 99.8527 15.8458C100.342 14.731 99.8761 13.4123 98.8076 12.9032C97.7392 12.394 96.4745 12.8807 95.9853 14.0077Z" fill="#F9897A"/>
</g>
</g>
<g clip-path="url(#clip1_275_466)">
<path d="M44.2622 161.172L44.632 194.028L44.9725 195.426L45.9274 196.63L47.3639 197.393L50.1038 198.121H55.4613H58.6827L61.9972 197.838L63.7847 197.17L65.027 195.963L66.0804 194.06V186.125V160.169L44.2622 159.507V161.172Z" fill="#F9897A"/>
<path d="M3.55125 163.554L1.67321 167.134L1.67321 170.684L0 238.05L2.55636 239.183L6.03845 239.798L13.1542 240.105H17.5594L18.5144 239.827L19.7486 238.05L20.6105 222.965L22.7838 206.19L23.526 204.133L27.447 199.068L30.5221 196.643L37.6751 193.32L45.8363 192.476L59.4056 192.423L68.7851 193.161L74.35 194.48L79.1196 196.908L82.0883 199.439L85.4267 203.5L87.6532 209.039L89.0312 223.227L89.6137 234.516V236.52L90.4091 238.206L91.7339 239.737L93.3751 240.105H105.62L109.064 239.631L110.23 238.577L110.706 237.206L111.078 234.251L110.599 231.667L109.807 203.712L109.275 190.101L108.852 176.178L108.798 167.473L108.692 165.733L107.516 163.554H3.55125Z" fill="#CBC8C3"/>
<path d="M24.835 173.866H25.899L27.2876 178.346V173.866H28.3623V181.965H27.2876L25.907 177.517V181.965H24.835V173.866Z" fill="#F9897A"/>
<path d="M31.3334 180.628H30.0406L29.8597 181.965H28.6973L30.0832 173.866H31.3255L32.7114 181.965H31.5196L31.3361 180.628H31.3334ZM31.0967 178.878L30.6897 175.966L30.288 178.878H31.0967Z" fill="#F9897A"/>
<path d="M33.0864 181.965V173.866H34.983C35.3342 173.866 35.6028 173.933 35.789 174.065C35.9753 174.197 36.1242 174.444 36.2386 174.804C36.353 175.164 36.4088 175.601 36.4088 176.117C36.4088 176.567 36.3663 176.953 36.2785 177.279C36.1907 177.605 36.071 177.87 35.9194 178.071C35.821 178.2 35.688 178.306 35.5204 178.391C35.656 178.492 35.7545 178.59 35.8156 178.69C35.8582 178.756 35.9194 178.899 35.9965 179.116C36.0763 179.334 36.1295 179.5 36.1561 179.62L36.7068 181.965H35.4193L34.8101 179.49C34.733 179.169 34.6638 178.96 34.6053 178.865C34.5228 178.741 34.4297 178.677 34.326 178.677H34.2249V181.965H33.0811H33.0864ZM34.2302 177.149H34.709C34.7622 177.149 34.8607 177.112 35.0096 177.038C35.0841 177.004 35.148 176.919 35.1932 176.784C35.2384 176.649 35.265 176.49 35.265 176.315C35.265 176.053 35.2278 175.852 35.1506 175.714C35.0735 175.577 34.9325 175.505 34.725 175.505H34.2249V177.152L34.2302 177.149Z" fill="#F9897A"/>
<path d="M39.4364 178.65L40.434 179.312C40.3675 179.927 40.2611 180.44 40.1174 180.853C39.9738 181.266 39.7955 181.576 39.5801 181.788C39.3646 182 39.0933 182.103 38.7634 182.103C38.3617 182.103 38.0346 181.976 37.7818 181.719C37.5291 181.462 37.3083 181.012 37.1248 180.369C36.9412 179.725 36.8481 178.899 36.8481 177.896C36.8481 176.556 37.0104 175.526 37.3349 174.806C37.6595 174.086 38.117 173.726 38.7102 173.726C39.1757 173.726 39.5402 173.933 39.8062 174.346C40.0722 174.759 40.269 175.391 40.3994 176.247L39.3939 176.739C39.3593 176.493 39.322 176.313 39.2821 176.199C39.2183 176.008 39.1412 175.86 39.0481 175.757C38.9549 175.653 38.8539 175.603 38.7395 175.603C38.4815 175.603 38.2846 175.831 38.1463 176.286C38.0425 176.625 37.9893 177.157 37.9893 177.88C37.9893 178.778 38.0505 179.392 38.1755 179.725C38.3006 180.059 38.4735 180.226 38.6996 180.226C38.9257 180.226 39.0826 180.091 39.1944 179.823C39.3061 179.556 39.3859 179.164 39.4364 178.653V178.65Z" fill="#F9897A"/>
<path d="M43.2534 180.628H41.9605L41.7797 181.965H40.6172L42.0031 173.866H43.2454L44.6313 181.965H43.4396L43.256 180.628H43.2534ZM43.0166 178.878L42.6096 175.966L42.2079 178.878H43.0166Z" fill="#F9897A"/>
<path d="M44.9985 173.866H46.0626L47.4512 178.346V173.866H48.5258V181.965H47.4512L46.0706 177.517V181.965H44.9985V173.866Z" fill="#F9897A"/>
<path d="M55.5376 168.238C84.2474 168.238 107.521 166.141 107.521 163.554C107.521 160.968 84.2474 158.871 55.5376 158.871C26.8277 158.871 3.55371 160.968 3.55371 163.554C3.55371 166.141 26.8277 168.238 55.5376 168.238Z" fill="#E1E3E0"/>
<path d="M52.7393 174.216L53.8858 174.197L55.4552 178.576L55.3834 174.174L56.5406 174.155L56.6709 182.113L55.5138 182.132L53.9523 177.785L54.0241 182.156L52.8696 182.174L52.7393 174.216Z" fill="#646161"/>
<path d="M59.8575 180.747L58.4636 180.771L58.2907 182.087L57.0352 182.108L58.3998 174.123L59.7405 174.102L61.3658 182.037L60.0783 182.058L59.8575 180.747ZM59.5756 179.029L59.0888 176.175L58.7004 179.042L59.5729 179.029H59.5756Z" fill="#646161"/>
<path d="M61.499 179.4L62.6668 179.233C62.6987 179.611 62.7546 179.9 62.8344 180.099C62.9674 180.419 63.1509 180.578 63.385 180.573C63.5606 180.57 63.6936 180.485 63.7867 180.318C63.8798 180.152 63.9224 179.961 63.9197 179.744C63.9171 179.527 63.8692 179.355 63.7761 179.193C63.683 179.032 63.4702 178.881 63.1403 178.743C62.5976 178.51 62.2066 178.192 61.9725 177.795C61.7358 177.398 61.6107 176.887 61.6001 176.265C61.5921 175.857 61.6453 175.468 61.7597 175.103C61.8741 174.737 62.0443 174.449 62.2811 174.237C62.5178 174.025 62.8397 173.917 63.2547 173.909C63.7628 173.901 64.1538 174.083 64.4251 174.457C64.6965 174.83 64.8667 175.431 64.9306 176.254L63.7734 176.408C63.7362 176.051 63.667 175.791 63.5659 175.63C63.4648 175.468 63.3265 175.389 63.1536 175.391C63.01 175.391 62.9036 175.455 62.8344 175.579C62.7652 175.704 62.7307 175.849 62.7333 176.024C62.7333 176.151 62.7679 176.265 62.8291 176.366C62.8876 176.469 63.0286 176.564 63.2467 176.652C63.7867 176.874 64.1751 177.102 64.4118 177.335C64.6486 177.568 64.8215 177.859 64.9332 178.208C65.0449 178.558 65.1035 178.95 65.1115 179.384C65.1194 179.895 65.0582 180.366 64.9226 180.8C64.7869 181.234 64.598 181.563 64.348 181.79C64.0979 182.018 63.7814 182.135 63.3957 182.14C62.72 182.15 62.2465 181.899 61.9778 181.38C61.7092 180.861 61.5496 180.202 61.5043 179.4H61.499Z" fill="#646161"/>
<path d="M68.192 180.612L66.7981 180.636L66.6252 181.952L65.3696 181.973L66.7343 173.988L68.075 173.967L69.7003 181.902L68.4128 181.923L68.192 180.612ZM67.91 178.894L67.4232 176.04L67.0349 178.907L67.9074 178.894H67.91Z" fill="#646161"/>
<path d="M69.958 173.935L71.187 173.914L71.2854 179.913L73.2033 179.882L73.2353 181.841L70.0884 181.891L69.958 173.933V173.935Z" fill="#646161"/>
<path d="M75.3901 179.175L76.5579 179.008C76.5898 179.386 76.6457 179.675 76.7255 179.874C76.8585 180.194 77.0421 180.353 77.2762 180.347C77.4517 180.345 77.5847 180.26 77.6778 180.093C77.7709 179.926 77.8135 179.736 77.8108 179.519C77.8082 179.302 77.7603 179.13 77.6672 178.968C77.5741 178.807 77.3613 178.656 77.0314 178.518C76.4888 178.285 76.0977 177.967 75.8636 177.57C75.6269 177.173 75.5019 176.662 75.4912 176.04C75.4832 175.632 75.5364 175.243 75.6508 174.878C75.7652 174.512 75.9355 174.224 76.1722 174.012C76.409 173.8 76.7308 173.692 77.1458 173.684C77.6539 173.676 78.0449 173.858 78.3163 174.232C78.5876 174.605 78.7578 175.206 78.8217 176.029L77.6645 176.183C77.6273 175.825 77.5581 175.566 77.457 175.404C77.356 175.243 77.2176 175.164 77.0447 175.166C76.9011 175.166 76.7947 175.23 76.7255 175.354C76.6563 175.479 76.6218 175.624 76.6244 175.799C76.6244 175.926 76.659 176.04 76.7202 176.14C76.7787 176.244 76.9197 176.339 77.1378 176.426C77.6778 176.649 78.0662 176.877 78.303 177.109C78.5397 177.342 78.7126 177.634 78.8243 177.983C78.9361 178.333 78.9946 178.724 79.0026 179.159C79.0105 179.67 78.9494 180.141 78.8137 180.575C78.678 181.009 78.4892 181.338 78.2391 181.565C77.9891 181.793 77.6725 181.909 77.2868 181.915C76.6111 181.925 76.1376 181.674 75.869 181.155C75.6003 180.636 75.4407 179.977 75.3955 179.175H75.3901Z" fill="#646161"/>
<path d="M79.5239 173.779L81.5669 173.745C82.0111 173.737 82.349 173.943 82.5777 174.364C82.8065 174.785 82.9262 175.386 82.9395 176.167C82.9528 176.948 82.8411 177.599 82.607 178.057C82.3729 178.515 82.0085 178.746 81.5137 178.754L80.8407 178.764L80.8886 181.719L79.6543 181.74L79.5239 173.782V173.779ZM80.8141 177.152L81.1147 177.147C81.3514 177.144 81.5163 177.057 81.6095 176.893C81.7026 176.728 81.7478 176.514 81.7425 176.257C81.7371 176 81.6946 175.796 81.6068 175.624C81.519 175.452 81.3621 175.368 81.1333 175.37L80.7822 175.375L80.8114 177.152H80.8141Z" fill="#646161"/>
<path d="M83.687 181.674L83.5566 173.715L85.6049 173.681C85.9853 173.676 86.2753 173.734 86.4801 173.861C86.6849 173.988 86.8499 174.226 86.9775 174.579C87.1052 174.931 87.1744 175.36 87.1824 175.865C87.1904 176.307 87.1478 176.689 87.06 177.012C86.9722 177.335 86.8472 177.594 86.6849 177.798C86.5812 177.925 86.4402 178.034 86.2593 178.121C86.4083 178.216 86.5147 178.312 86.5838 178.409C86.6291 178.473 86.6982 178.613 86.786 178.825C86.8765 179.037 86.935 179.201 86.9669 179.318L87.6 181.616L86.2114 181.639L85.5145 179.217C85.4267 178.905 85.3496 178.701 85.2831 178.608C85.1926 178.486 85.0915 178.425 84.9798 178.428H84.8707L84.9239 181.661L83.6896 181.682L83.687 181.674ZM84.8441 176.919L85.3629 176.911C85.4187 176.911 85.5278 176.871 85.6874 176.797C85.7672 176.763 85.8337 176.678 85.8816 176.543C85.9295 176.408 85.9534 176.254 85.9507 176.08C85.9454 175.823 85.9029 175.627 85.8177 175.489C85.7326 175.352 85.581 175.288 85.3549 175.291L84.8149 175.299L84.8415 176.916L84.8441 176.919Z" fill="#646161"/>
<path d="M90.4171 180.25L89.0232 180.273L88.8503 181.589L87.5947 181.61L88.9594 173.625L90.3001 173.604L91.9254 181.539L90.6379 181.56L90.4171 180.25ZM90.1351 178.531L89.6483 175.677L89.2599 178.545L90.1325 178.531H90.1351Z" fill="#646161"/>
<path d="M91.3108 173.588L92.6754 173.567L93.5213 176.239L94.2795 173.541L95.6361 173.52L94.1651 178.171L94.2209 181.504L92.9893 181.526L92.9334 178.192L91.3081 173.591L91.3108 173.588Z" fill="#646161"/>
<path d="M18.2324 173.294H19.8498V174.841L21.0761 173.866L22.1215 175.111L21.1053 176.326H22.72V178.354H21.2543L22.3902 179.545L20.9856 180.707L19.9695 179.516L20.028 181.152H18.2324V179.635L17.2322 180.633L15.9155 179.323L17.0673 178.176L15.6016 178.116V176.326H16.9183L15.841 175.079L17.0513 173.874L18.1872 175.005L18.2324 173.294Z" fill="#F9897A"/>
<path d="M69.7666 122.475C69.7666 136.777 74.1052 153.989 71.485 161.434C69.9129 165.9 57.3572 164.746 55.3195 164.746C53.516 164.746 41.3247 165.368 39.8696 161.804C36.9408 154.627 40.6889 140.931 40.6889 125.636C40.6889 113.164 42.2664 96.1907 44.3359 88.5923C46.065 82.2515 52.8456 80.3638 55.3195 80.3638C57.7934 80.3638 64.2415 81.3566 65.96 87.5121C68.0801 95.1131 69.7666 109.833 69.7666 122.475Z" fill="#CCCBC7"/>
<path d="M38.7524 157.568V162.81C61.0495 168.574 72.3257 162.81 72.3257 162.81V157.568C64.9226 162.252 38.7524 157.568 38.7524 157.568Z" fill="#D4D4D2"/>
</g>
<defs>
<clipPath id="clip0_275_466">
<rect width="93.1199" height="89.293" fill="white" transform="translate(10 93.1155) rotate(-89.4497)"/>
</clipPath>
<clipPath id="clip1_275_466">
<rect width="111.078" height="159.741" fill="white" transform="translate(0 80.3638)"/>
</clipPath>
</defs>
</svg>
