<svg width="160" height="100" viewBox="0 0 160 100" fill="none" xmlns="http://www.w3.org/2000/svg">
<g clip-path="url(#clip0_249_571)">
<path d="M80 57.1428C57.9083 57.1428 40 76.3303 40 100H120C120 76.3303 102.092 57.1428 80 57.1428Z" fill="#F9897A"/>
<path d="M128 57.1429C139.046 57.1429 148 47.549 148 35.7143C148 23.8797 139.046 14.2858 128 14.2858C116.954 14.2858 108 23.8797 108 35.7143C108 47.549 116.954 57.1429 128 57.1429Z" fill="#5762B8"/>
<path d="M128 60.9553C122.642 60.9553 117.6 62.375 113.158 64.866C121.5 73.9018 126.667 86.3214 126.667 100H159.683C159.883 98.4464 160 96.8571 160 95.241C160 76.3035 145.675 60.9553 128 60.9553Z" fill="#5762B8"/>
<path d="M32 60.9553C14.325 60.9553 0 76.3035 0 95.241C0 96.8571 0.108333 98.4464 0.316667 100H33.3333C33.3333 86.3125 38.4917 73.9018 46.8417 64.866C42.4083 62.375 37.3583 60.9553 32 60.9553Z" fill="#5762B8"/>
<path d="M79.9998 50C92.8865 50 103.333 38.8071 103.333 25C103.333 11.1929 92.8865 0 79.9998 0C67.1132 0 56.6665 11.1929 56.6665 25C56.6665 38.8071 67.1132 50 79.9998 50Z" fill="#F9897A"/>
<path d="M32 57.1429C43.0457 57.1429 52 47.549 52 35.7143C52 23.8797 43.0457 14.2858 32 14.2858C20.9543 14.2858 12 23.8797 12 35.7143C12 47.549 20.9543 57.1429 32 57.1429Z" fill="#5762B8"/>
</g>
<defs>
<clipPath id="clip0_249_571">
<rect width="160" height="100" fill="white"/>
</clipPath>
</defs>
</svg>
