<svg width="249" height="46" viewBox="0 0 249 46" fill="none" xmlns="http://www.w3.org/2000/svg">
<g clip-path="url(#clip0_251_728)">
<path d="M105.285 26.5L70.1698 15.9C65.1563 14.38 59.8631 17.24 58.345 22.26C56.827 27.28 59.6833 32.58 64.6969 34.1L100.531 44.9C102.968 45.64 105.484 46 108.021 46H145.453C150.686 46 154.941 41.74 154.941 36.5C154.941 31.26 150.686 27 145.453 27H108.76C107.582 27 106.423 26.82 105.305 26.5H105.285Z" fill="#5762B8"/>
<path d="M22.9705 46C35.6567 46 45.941 35.7025 45.941 23C45.941 10.2975 35.6567 0 22.9705 0C10.2842 0 0 10.2975 0 23C0 35.7025 10.2842 46 22.9705 46Z" fill="#5762B8"/>
<path d="M139.94 14.16L237.195 18.6C241.17 18.78 244.825 20.5 247.502 23.44C247.961 23.94 248.361 24.46 248.74 25.02C247.642 19.52 242.928 15.28 237.075 15L137.643 10.46C138.502 11.6 139.281 12.84 139.92 14.16H139.94Z" fill="#5762B8"/>
<path d="M237.095 21L138.362 16.48C135.406 9.15998 128.235 3.97998 119.866 3.97998H69.9301C58.9043 3.97998 49.9558 12.94 49.9558 23.98V25.98C49.9558 37.02 58.9043 45.98 69.9301 45.98H95.8768L64.0177 36.38C57.7458 34.48 54.1704 27.84 56.068 21.56C57.566 16.58 62.24 13.08 67.4533 13.08C68.6118 13.08 69.7703 13.26 70.8889 13.58L106.004 24.18C106.903 24.46 107.841 24.58 108.76 24.58H145.453C152.005 24.58 157.338 29.92 157.338 36.48C157.338 38.6 156.779 40.58 155.8 42.3L235.977 45.96C242.868 46.28 248.7 40.94 249.02 34.04C249.34 27.14 244.006 21.3 237.115 20.98L237.095 21Z" fill="#5762B8"/>
</g>
<defs>
<clipPath id="clip0_251_728">
<rect width="249" height="46" fill="white"/>
</clipPath>
</defs>
</svg>
