<svg width="137" height="210" viewBox="0 0 137 210" fill="none" xmlns="http://www.w3.org/2000/svg">
<g clip-path="url(#clip0_501_391)">
<path d="M55.0435 147.093L55.4995 190.08L55.9195 191.909L57.0973 193.485L58.869 194.483L62.2483 195.435H68.856H72.8291L76.9171 195.065L79.1219 194.192L80.6541 192.612L81.9533 190.122V179.74V145.78L55.0435 144.914V147.093Z" fill="#F9897A"/>
<path d="M4.37998 108.844L2.06368 113.527V118.172L0 206.312L3.15293 207.795L7.44761 208.598L16.224 209H21.6571L22.835 208.636L24.3573 206.312L25.4203 186.574L28.1008 164.627L29.0162 161.935L33.8522 155.309L37.6449 152.136L46.4672 147.789L56.533 146.684L73.2688 146.615L84.8372 147.581L91.7008 149.306L97.5834 152.482L101.245 155.794L105.362 161.108L108.109 168.354L109.808 186.917L110.527 201.688V204.31L111.508 206.516L113.141 208.518L115.166 209H130.268L134.516 208.38L135.953 207.001L136.541 205.207L137 201.341L136.409 197.96L135.432 161.385L134.776 143.577L134.254 125.36L134.188 113.97L134.057 111.695L132.607 108.844H4.37998Z" fill="#CBC8C3"/>
<path d="M30.6304 122.336H31.9427L33.6553 128.197V122.336H34.9808V132.932H33.6553L31.9526 127.112V132.932H30.6304V122.336Z" fill="#F9897A"/>
<path d="M38.6454 131.183H37.0509L36.8278 132.932H35.394L37.1034 122.336H38.6356L40.3449 132.932H38.8751L38.6487 131.183H38.6454ZM38.3534 128.893L37.8514 125.083L37.356 128.893H38.3534Z" fill="#F9897A"/>
<path d="M40.8078 132.932V122.336H43.1471C43.5802 122.336 43.9115 122.422 44.1412 122.595C44.3709 122.769 44.5546 123.091 44.6957 123.562C44.8368 124.033 44.9057 124.605 44.9057 125.28C44.9057 125.869 44.8532 126.375 44.7449 126.801C44.6366 127.227 44.489 127.573 44.302 127.836C44.1806 128.006 44.0165 128.145 43.8098 128.256C43.9772 128.387 44.0986 128.515 44.174 128.647C44.2265 128.734 44.302 128.921 44.3971 129.205C44.4956 129.489 44.5612 129.707 44.594 129.863L45.2731 132.932H43.6852L42.9338 129.693C42.8387 129.274 42.7534 129 42.6812 128.876C42.5795 128.713 42.4647 128.63 42.3367 128.63H42.2121V132.932H40.8013H40.8078ZM42.2186 126.631H42.8092C42.8748 126.631 42.9962 126.582 43.1799 126.485C43.2718 126.44 43.3505 126.33 43.4063 126.153C43.4621 125.976 43.4949 125.768 43.4949 125.54C43.4949 125.197 43.4489 124.934 43.3538 124.754C43.2587 124.573 43.0848 124.48 42.8289 124.48H42.2121V126.634L42.2186 126.631Z" fill="#F9897A"/>
<path d="M48.6391 128.595L49.8694 129.461C49.7874 130.265 49.6562 130.937 49.479 131.477C49.3018 132.017 49.082 132.423 48.8162 132.7C48.5505 132.977 48.2158 133.112 47.809 133.112C47.3136 133.112 46.9101 132.946 46.5984 132.61C46.2867 132.274 46.0144 131.685 45.788 130.843C45.5616 130.001 45.4468 128.921 45.4468 127.608C45.4468 125.855 45.6469 124.508 46.0472 123.565C46.4474 122.623 47.0118 122.152 47.7434 122.152C48.3176 122.152 48.767 122.422 49.0951 122.963C49.4232 123.503 49.666 124.331 49.8268 125.45L48.5866 126.094C48.5439 125.772 48.498 125.536 48.4488 125.387C48.37 125.138 48.2749 124.944 48.1601 124.809C48.0452 124.674 47.9206 124.608 47.7795 124.608C47.4612 124.608 47.2185 124.906 47.0478 125.502C46.9199 125.945 46.8543 126.641 46.8543 127.587C46.8543 128.761 46.9297 129.565 47.0839 130.001C47.2381 130.438 47.4514 130.656 47.7303 130.656C48.0091 130.656 48.2027 130.479 48.3405 130.13C48.4783 129.78 48.5767 129.267 48.6391 128.598V128.595Z" fill="#F9897A"/>
<path d="M53.3471 131.183H51.7526L51.5294 132.932H50.0957L51.805 122.336H53.3372L55.0466 132.932H53.5767L53.3503 131.183H53.3471ZM53.0551 128.893L52.5531 125.083L52.0577 128.893H53.0551Z" fill="#F9897A"/>
<path d="M55.4995 122.336H56.8119L58.5245 128.197V122.336H59.85V132.932H58.5245L56.8217 127.112V132.932H55.4995V122.336Z" fill="#F9897A"/>
<path d="M68.4984 114.971C103.908 114.971 132.613 112.228 132.613 108.844C132.613 105.46 103.908 102.716 68.4984 102.716C33.0886 102.716 4.3833 105.46 4.3833 108.844C4.3833 112.228 33.0886 114.971 68.4984 114.971Z" fill="#E1E3E0"/>
<path d="M65.0469 122.793L66.4609 122.769L68.3967 128.498L68.3081 122.738L69.7353 122.713L69.896 133.126L68.4688 133.15L66.543 127.462L66.6315 133.181L65.2076 133.206L65.0469 122.793Z" fill="#646161"/>
<path d="M73.8267 131.339L72.1075 131.37L71.8943 133.091L70.3457 133.119L72.0288 122.672L73.6824 122.644L75.687 133.025L74.099 133.053L73.8267 131.339ZM73.479 129.09L72.8785 125.356L72.3995 129.108L73.4757 129.09H73.479Z" fill="#646161"/>
<path d="M75.8511 129.575L77.2914 129.357C77.3308 129.853 77.3997 130.23 77.4981 130.49C77.6621 130.909 77.8885 131.117 78.1772 131.11C78.3938 131.106 78.5578 130.996 78.6726 130.777C78.7875 130.559 78.84 130.31 78.8367 130.026C78.8334 129.742 78.7743 129.517 78.6595 129.305C78.5447 129.094 78.2822 128.896 77.8754 128.716C77.2061 128.412 76.7238 127.996 76.4351 127.476C76.1431 126.957 75.9889 126.288 75.9757 125.474C75.9659 124.941 76.0315 124.431 76.1726 123.953C76.3137 123.475 76.5237 123.098 76.8157 122.821C77.1077 122.544 77.5046 122.402 78.0165 122.391C78.6431 122.381 79.1254 122.62 79.46 123.108C79.7947 123.597 80.0047 124.383 80.0834 125.46L78.6562 125.661C78.6103 125.194 78.525 124.854 78.4003 124.643C78.2757 124.431 78.105 124.328 77.8918 124.331C77.7146 124.331 77.5834 124.414 77.4981 124.577C77.4128 124.74 77.3701 124.93 77.3734 125.159C77.3734 125.325 77.4161 125.474 77.4915 125.606C77.5637 125.741 77.7376 125.866 78.0066 125.98C78.6726 126.271 79.1516 126.569 79.4436 126.874C79.7356 127.178 79.9489 127.559 80.0867 128.017C80.2245 128.474 80.2967 128.987 80.3065 129.555C80.3164 130.223 80.2409 130.84 80.0736 131.408C79.9062 131.976 79.6733 132.405 79.3649 132.703C79.0565 133.001 78.6661 133.154 78.1903 133.161C77.357 133.174 76.773 132.845 76.4416 132.166C76.1103 131.487 75.9134 130.625 75.8576 129.575H75.8511Z" fill="#646161"/>
<path d="M84.1055 131.162L82.3863 131.193L82.1731 132.915L80.6245 132.942L82.3076 122.495L83.9612 122.468L85.9658 132.849L84.3778 132.877L84.1055 131.162ZM83.7578 128.914L83.1574 125.18L82.6783 128.931L83.7545 128.914H83.7578Z" fill="#646161"/>
<path d="M86.2842 122.426L87.7999 122.398L87.9213 130.247L90.2869 130.206L90.3262 132.769L86.4449 132.835L86.2842 122.422V122.426Z" fill="#646161"/>
<path d="M92.9834 129.281L94.4237 129.063C94.4631 129.558 94.532 129.936 94.6304 130.195C94.7944 130.615 95.0208 130.822 95.3095 130.815C95.5261 130.812 95.6901 130.701 95.805 130.483C95.9198 130.265 95.9723 130.015 95.969 129.731C95.9657 129.447 95.9067 129.222 95.7918 129.011C95.677 128.799 95.4145 128.602 95.0077 128.422C94.3384 128.117 93.8561 127.701 93.5674 127.182C93.2754 126.662 93.1212 125.994 93.1081 125.18C93.0982 124.646 93.1639 124.137 93.3049 123.659C93.446 123.181 93.656 122.803 93.948 122.526C94.24 122.249 94.637 122.107 95.1488 122.097C95.7754 122.086 96.2577 122.325 96.5924 122.814C96.927 123.302 97.137 124.089 97.2157 125.166L95.7886 125.367C95.7426 124.899 95.6573 124.56 95.5326 124.348C95.408 124.137 95.2374 124.033 95.0241 124.037C94.8469 124.037 94.7157 124.12 94.6304 124.283C94.5451 124.445 94.5024 124.636 94.5057 124.864C94.5057 125.031 94.5484 125.18 94.6238 125.311C94.696 125.446 94.8699 125.571 95.1389 125.685C95.805 125.976 96.284 126.274 96.576 126.579C96.868 126.884 97.0812 127.265 97.219 127.722C97.3568 128.179 97.429 128.692 97.4388 129.26C97.4487 129.929 97.3732 130.545 97.2059 131.113C97.0386 131.681 96.8056 132.111 96.4972 132.409C96.1888 132.707 95.7984 132.859 95.3227 132.866C94.4893 132.88 93.9053 132.551 93.574 131.872C93.2426 131.193 93.0457 130.331 92.99 129.281H92.9834Z" fill="#646161"/>
<path d="M98.082 122.222L100.602 122.177C101.15 122.166 101.566 122.436 101.848 122.987C102.131 123.538 102.278 124.324 102.295 125.346C102.311 126.368 102.173 127.22 101.885 127.819C101.596 128.419 101.146 128.72 100.536 128.73L99.7061 128.744L99.7651 132.61L98.2428 132.638L98.082 122.225V122.222ZM99.6733 126.635L100.044 126.628C100.336 126.624 100.539 126.51 100.654 126.295C100.769 126.08 100.825 125.8 100.818 125.464C100.812 125.128 100.759 124.861 100.651 124.636C100.543 124.411 100.349 124.3 100.067 124.303L99.6339 124.31L99.67 126.635H99.6733Z" fill="#646161"/>
<path d="M103.217 132.551L103.056 122.138L105.582 122.093C106.052 122.087 106.409 122.163 106.662 122.329C106.914 122.495 107.118 122.807 107.275 123.268C107.433 123.728 107.518 124.29 107.528 124.951C107.538 125.53 107.485 126.028 107.377 126.451C107.269 126.874 107.115 127.213 106.914 127.48C106.787 127.646 106.613 127.788 106.39 127.902C106.573 128.027 106.705 128.152 106.79 128.28C106.846 128.363 106.931 128.547 107.039 128.824C107.151 129.101 107.223 129.316 107.262 129.468L108.043 132.475L106.33 132.506L105.471 129.337C105.363 128.928 105.267 128.661 105.185 128.54C105.074 128.38 104.949 128.301 104.811 128.304H104.677L104.743 132.534L103.22 132.561L103.217 132.551ZM104.644 126.33L105.284 126.319C105.353 126.319 105.487 126.267 105.684 126.17C105.783 126.125 105.865 126.015 105.924 125.838C105.983 125.661 106.012 125.46 106.009 125.232C106.002 124.896 105.95 124.639 105.845 124.459C105.74 124.279 105.553 124.196 105.274 124.2L104.608 124.21L104.641 126.326L104.644 126.33Z" fill="#646161"/>
<path d="M111.517 130.687L109.798 130.719L109.585 132.44L108.036 132.468L109.719 122.021L111.373 121.993L113.377 132.374L111.789 132.402L111.517 130.687ZM111.169 128.439L110.569 124.705L110.09 128.457L111.166 128.439H111.169Z" fill="#646161"/>
<path d="M112.62 121.972L114.303 121.944L115.346 125.44L116.281 121.91L117.955 121.882L116.14 127.968L116.209 132.329L114.69 132.357L114.621 127.996L112.617 121.976L112.62 121.972Z" fill="#646161"/>
<path d="M22.487 121.588H24.4818V123.611L25.9943 122.336L27.2836 123.964L26.0303 125.554H28.0218V128.207H26.2141L27.615 129.766L25.8827 131.287L24.6294 129.728L24.7016 131.869H22.487V129.884L21.2534 131.19L19.6293 129.475L21.05 127.975L19.2422 127.895V125.554H20.8662L19.5375 123.922L21.0303 122.346L22.4312 123.825L22.487 121.588Z" fill="#F9897A"/>
<path d="M86.048 55.0974C86.048 73.8095 91.3991 96.3286 88.1675 106.069C86.2285 111.913 70.7427 110.403 68.2295 110.403C66.0051 110.403 50.9688 111.217 49.1741 106.554C45.5619 97.1634 50.1846 79.2445 50.1846 59.2333C50.1846 42.9147 52.1302 20.7074 54.6827 10.7659C56.8153 2.46979 65.1783 0 68.2295 0C71.2807 0 79.2336 1.29898 81.3531 9.35263C83.9679 19.2976 86.048 38.5571 86.048 55.0974Z" fill="#CCCBC7"/>
<path d="M47.7959 101.012V107.87C75.2963 115.411 89.204 107.87 89.204 107.87V101.012C80.0733 107.139 47.7959 101.012 47.7959 101.012Z" fill="#D4D4D2"/>
</g>
<path d="M68 208.5C81.5905 208.5 92.5 197.022 92.5 183C92.5 168.978 81.5905 157.5 68 157.5C54.4095 157.5 43.5 168.978 43.5 183C43.5 197.022 54.4095 208.5 68 208.5Z" stroke="#5762B8" stroke-width="3"/>
<defs>
<clipPath id="clip0_501_391">
<rect width="137" height="209" fill="white"/>
</clipPath>
</defs>
</svg>
