<svg width="175" height="207" viewBox="0 0 175 207" fill="none" xmlns="http://www.w3.org/2000/svg">
<g clip-path="url(#clip0_272_433)">
<path d="M117.62 150.388C113.76 142.632 108.936 131.971 107.393 124.989C107.104 123.691 106.925 122.392 106.823 121.122C116.923 119.887 125.192 111.936 129.362 102.591C134.56 90.9456 134.405 77.6056 132.929 65.083C132.796 61.4844 132.493 57.9 132.045 54.365C131.693 50.5577 130.999 46.729 130.056 42.9004C129.341 39.737 128.481 36.6161 127.488 33.5377C124.157 22.388 118.564 12.5864 108.492 6.33396C95.7114 -1.59573 75.3591 -0.73942 54.0524 1.73396C53.1649 1.8295 52.2774 1.93566 51.3935 2.06304C50.4778 2.19396 49.5622 2.34966 48.6535 2.51596C43.9379 2.57258 39.2117 3.3015 34.7074 4.54704C31.1962 5.51658 27.2694 6.89304 25.0577 10.0033C23.0961 12.7669 22.9693 17.9189 25.4557 18.8106C15.3482 28.2477 14.3304 41.7221 12.559 51.4635C11.7842 55.7167 12.647 59.8461 13.2281 61.5906C13.8057 63.335 13.5169 65.6633 12.5519 67.7935C11.587 69.9272 2.90229 83.4972 1.55345 84.856C0.345489 86.0696 -0.182776 87.5912 0.0602262 88.9783H0.0567044C0.0989656 89.2295 0.169401 89.4736 0.264489 89.7107C0.278576 89.7426 0.289141 89.7744 0.303228 89.8063C0.331402 89.87 0.359576 89.9301 0.38775 89.9938C0.422968 90.0681 0.461707 90.1389 0.503969 90.2096C0.532143 90.2592 0.560317 90.3052 0.592013 90.3547C0.641317 90.429 0.690622 90.5069 0.74697 90.5777C0.771623 90.6095 0.792753 90.6378 0.817406 90.6696C0.894884 90.7687 0.975885 90.8643 1.06745 90.9598C1.48302 91.395 1.94085 91.7878 2.41981 92.1381C2.57829 92.2549 2.74029 92.3681 2.90581 92.4778C4.87096 93.7764 7.08967 94.4487 8.3575 94.7424C8.48781 94.7707 8.60755 94.8026 8.72025 94.838C8.74842 94.845 8.77307 94.8557 8.79773 94.8627C8.89281 94.891 8.9879 94.9229 9.07242 94.9547C9.08299 94.9583 9.09708 94.9618 9.10764 94.9689C9.72747 95.213 10.0374 95.535 10.1888 95.9526C10.1888 95.9526 10.1888 95.949 10.1923 95.9455C10.291 96.2144 10.3226 96.5223 10.3262 96.8761C10.3755 100.676 9.20625 101.547 8.48077 103.776C7.61441 106.437 11.8722 108.702 11.8722 108.702C11.8722 108.702 10.8439 110.202 10.5199 112.58C10.2311 114.713 11.7278 115.955 12.6435 116.263C15.8272 117.328 15.9223 119.947 15.9223 119.947C15.9223 119.947 13.7986 125.375 14.7636 129.058C15.0031 129.971 15.3693 130.76 15.8236 131.436C15.8835 131.528 15.9469 131.62 16.0103 131.705C16.0596 131.772 16.1089 131.836 16.1617 131.9C16.2146 131.967 16.2674 132.031 16.3202 132.094C16.373 132.158 16.4259 132.218 16.4822 132.278C16.5421 132.346 16.6055 132.409 16.6689 132.473C16.7464 132.551 16.8274 132.629 16.9083 132.707C16.9823 132.777 17.0598 132.845 17.1373 132.912C17.1936 132.961 17.2535 133.007 17.3098 133.053C17.3767 133.106 17.4437 133.159 17.5141 133.209C17.574 133.251 17.6303 133.294 17.6902 133.336C17.7747 133.397 17.8627 133.453 17.9508 133.51C18.0142 133.549 18.0776 133.588 18.1374 133.627C18.2431 133.69 18.3488 133.75 18.4544 133.807C18.5072 133.835 18.5636 133.864 18.6199 133.892C18.708 133.938 18.796 133.98 18.8876 134.023C18.9404 134.048 18.9932 134.072 19.0461 134.097C19.1693 134.15 19.2891 134.2 19.4123 134.249C19.437 134.26 19.4616 134.267 19.4863 134.278C19.6236 134.327 19.761 134.377 19.8983 134.419C19.9441 134.433 19.9934 134.447 20.0392 134.462C20.1449 134.493 20.2505 134.522 20.3562 134.55C20.4019 134.561 20.4477 134.575 20.497 134.585C20.6414 134.621 20.7858 134.653 20.9302 134.681C20.9337 134.681 20.9373 134.681 20.9408 134.681C23.2088 135.123 27.0405 134.812 31.8794 134.239C34.4503 133.934 37.3064 133.556 40.3668 133.177C45.4487 132.547 47.9598 133.712 51.0448 138.754C51.154 138.931 51.2632 139.115 51.3759 139.302C51.4111 139.359 51.4428 139.419 51.478 139.476C51.559 139.614 51.64 139.752 51.721 139.89C51.7562 139.953 51.795 140.017 51.8337 140.084C51.9182 140.229 52.0027 140.378 52.0873 140.53C52.119 140.587 52.1507 140.643 52.1824 140.7C52.2915 140.898 52.4042 141.1 52.5169 141.305C52.5204 141.316 52.5275 141.323 52.531 141.333C52.7846 141.8 53.0417 142.285 53.2987 142.781C53.2987 142.784 53.3023 142.791 53.3058 142.795C54.6053 145.3 55.9471 148.163 57.1128 150.94C58.3067 153.778 59.321 156.531 59.9197 158.721C61.4622 164.344 62.4272 168.608 60.6909 170.741C58.9547 172.875 54.5173 172.681 52.781 173.455C51.0448 174.23 49.8862 176.364 49.6925 180.628C49.4988 184.892 47.7625 187.026 44.6739 191.679C41.5854 196.332 32.5168 206.997 32.5168 206.997C32.5168 206.997 134.789 180.437 132.859 176.169C130.929 171.906 121.473 158.137 117.613 150.385L117.62 150.388ZM132.588 78.2249C132.616 90.8713 130.003 104.317 120.491 113.344C117.162 116.504 112.964 118.846 108.492 120.049C111.235 118.903 113.827 117.36 116.148 115.573C121.913 111.129 125.787 104.558 128.288 97.7997C130.609 91.533 131.964 84.9303 132.588 78.2284V78.2249ZM28.1463 8.25535C31.175 5.88458 35.2638 4.94335 38.9722 4.27812C40.483 4.00566 41.9974 3.81812 43.5118 3.69427C39.9372 4.66735 36.4506 5.94473 33.112 7.56889C29.8684 9.14704 25.3923 12.0592 25.2303 15.9727C24.4379 13.2198 25.8466 10.06 28.1498 8.25535H28.1463Z" fill="#F9897A"/>
<path d="M174.877 128.549L174.299 126.224C173.736 123.959 171.433 122.565 169.175 123.131L152.204 127.381L151.017 122.615C150.313 119.791 146.625 119.112 144.974 121.504L141.473 126.574L135.93 134.603C134.768 136.287 135.345 138.612 137.159 139.55L145.812 144.012L151.274 146.829C153.852 148.159 156.789 145.817 156.085 142.993L154.827 137.943L171.792 133.694C174.046 133.128 175.433 130.813 174.87 128.545L174.877 128.549Z" fill="#F9897A"/>
</g>
<defs>
<clipPath id="clip0_272_433">
<rect width="175" height="207" fill="white"/>
</clipPath>
</defs>
</svg>
