<svg width="289" height="201" viewBox="0 0 289 201" fill="none" xmlns="http://www.w3.org/2000/svg">
<path d="M27.1721 91.1589C26.6776 91.1589 26.2273 91.1015 25.8211 90.9868C25.4238 90.872 25.075 90.7174 24.7748 90.5232C24.4834 90.3201 24.2406 90.0949 24.0463 89.8477C23.8521 89.6005 23.7152 89.34 23.6357 89.0663L24.894 88.6557C25.0264 89.0177 25.2781 89.3312 25.6489 89.5961C26.0198 89.861 26.4745 89.9978 27.0131 90.0066C27.6665 90.0066 28.1787 89.8786 28.5495 89.6226C28.9292 89.3577 29.119 89.0089 29.119 88.5762C29.119 88.1789 28.9557 87.8566 28.629 87.6094C28.3023 87.3533 27.8696 87.159 27.331 87.0266L26.2582 86.7485C25.8344 86.6337 25.4459 86.4703 25.0927 86.2584C24.7483 86.0465 24.4746 85.7772 24.2715 85.4505C24.0684 85.1238 23.9669 84.7309 23.9669 84.2717C23.9669 83.424 24.2406 82.7618 24.788 82.285C25.3443 81.8082 26.1434 81.5698 27.1853 81.5698C27.7857 81.5698 28.3067 81.6669 28.7482 81.8612C29.1897 82.0466 29.5517 82.2938 29.8343 82.6029C30.1256 82.9119 30.3331 83.2519 30.4568 83.6227L29.1985 84.0465C29.0484 83.6492 28.7923 83.3313 28.4303 83.0929C28.0683 82.8457 27.6224 82.7221 27.0926 82.7221C26.5363 82.7221 26.0948 82.8545 25.7681 83.1194C25.4503 83.3843 25.2913 83.7463 25.2913 84.2055C25.2913 84.594 25.4149 84.8942 25.6622 85.1061C25.9182 85.3092 26.2582 85.4637 26.682 85.5697L27.7548 85.8346C28.6202 86.0465 29.2868 86.3997 29.7548 86.8941C30.2316 87.3798 30.47 87.914 30.47 88.4968C30.47 89.0001 30.342 89.4548 30.0859 89.861C29.8387 90.2583 29.4678 90.5762 28.9734 90.8146C28.4877 91.0441 27.8873 91.1589 27.1721 91.1589ZM32.0502 93.6489V84.3777H33.2289L33.3084 85.5962V93.6489H32.0502ZM35.4805 91.1589C34.9242 91.1589 34.4386 91.0132 34.0236 90.7219C33.6174 90.4305 33.304 90.0243 33.0832 89.5034C32.8625 88.9824 32.7521 88.3776 32.7521 87.6888C32.7521 86.9913 32.8625 86.3864 33.0832 85.8743C33.304 85.3534 33.6174 84.9472 34.0236 84.6558C34.4386 84.3644 34.9242 84.2187 35.4805 84.2187C36.0721 84.2187 36.5931 84.3644 37.0434 84.6558C37.4937 84.9472 37.8425 85.3534 38.0897 85.8743C38.3458 86.3864 38.4738 86.9913 38.4738 87.6888C38.4738 88.3776 38.3458 88.9824 38.0897 89.5034C37.8425 90.0243 37.4937 90.4305 37.0434 90.7219C36.5931 91.0132 36.0721 91.1589 35.4805 91.1589ZM35.1759 90.0199C35.5732 90.0199 35.922 89.9228 36.2222 89.7285C36.5224 89.5254 36.7564 89.2517 36.9242 88.9073C37.1008 88.5541 37.1891 88.148 37.1891 87.6888C37.1891 87.2297 37.1052 86.8279 36.9374 86.4836C36.7697 86.1304 36.5357 85.8566 36.2355 85.6624C35.9353 85.4593 35.5865 85.3578 35.1891 85.3578C34.8271 85.3578 34.5004 85.4593 34.209 85.6624C33.9265 85.8566 33.7057 86.1304 33.5468 86.4836C33.3879 86.8368 33.3084 87.2385 33.3084 87.6888C33.3084 88.148 33.3879 88.5541 33.5468 88.9073C33.7057 89.2517 33.9265 89.5254 34.209 89.7285C34.4916 89.9228 34.8139 90.0199 35.1759 90.0199ZM40.6162 87.4372C40.6162 86.722 40.753 86.1392 41.0267 85.6889C41.3005 85.2386 41.6537 84.903 42.0863 84.6823C42.519 84.4615 42.9737 84.3512 43.4505 84.3512V85.5432C43.0532 85.5432 42.6735 85.605 42.3115 85.7286C41.9583 85.8434 41.6669 86.0377 41.4373 86.3114C41.2166 86.5763 41.1062 86.9383 41.1062 87.3974L40.6162 87.4372ZM39.848 91V84.3777H41.1062V91H39.848ZM48.5846 91L48.4919 87.5431C48.483 87.0575 48.4256 86.6557 48.3197 86.3379C48.2137 86.0112 48.0504 85.7639 47.8296 85.5962C47.6089 85.4284 47.3131 85.3445 46.9422 85.3445C46.5979 85.3445 46.2933 85.4152 46.0284 85.5564C45.7723 85.6977 45.5604 85.9185 45.3926 86.2187L44.2668 85.7948C44.4258 85.4946 44.6244 85.2253 44.8628 84.9869C45.1101 84.7485 45.4059 84.5631 45.7502 84.4306C46.1034 84.2894 46.5052 84.2187 46.9555 84.2187C47.5824 84.2187 48.1034 84.3379 48.5184 84.5763C48.9334 84.8147 49.2424 85.1723 49.4455 85.6491C49.6574 86.1171 49.7634 86.6999 49.7634 87.3974V91H48.5846ZM46.6376 91.1589C45.8518 91.1589 45.2381 90.9823 44.7966 90.6291C44.3639 90.2671 44.1476 89.7682 44.1476 89.1325C44.1476 88.4526 44.3728 87.9361 44.8231 87.5829C45.2734 87.2209 45.9092 87.0398 46.7303 87.0398H48.9422L48.9554 88.0332H47.0747C46.4654 88.0332 46.0328 88.1303 45.7767 88.3246C45.5295 88.51 45.4059 88.7705 45.4059 89.106C45.4059 89.4151 45.5251 89.6579 45.7635 89.8345C46.0019 90.0022 46.3286 90.0861 46.7436 90.0861C47.1056 90.0861 47.4146 90.0022 47.6707 89.8345C47.9356 89.6667 48.1387 89.446 48.28 89.1722C48.4301 88.8897 48.5051 88.5762 48.5051 88.2319H49.1144C49.1144 89.1325 48.9069 89.8477 48.4919 90.3775C48.0769 90.8985 47.4588 91.1589 46.6376 91.1589ZM52.1544 93.8079C51.9602 93.8079 51.7439 93.7726 51.5055 93.7019C51.2759 93.6313 51.0375 93.5386 50.7902 93.4238L51.2538 92.3907C51.4481 92.479 51.6158 92.5452 51.7571 92.5894C51.9072 92.6335 52.0264 92.6556 52.1147 92.6556C52.3355 92.6556 52.5209 92.5938 52.671 92.4702C52.8299 92.3465 52.958 92.1744 53.0551 91.9536L53.8233 90.1391L56.1808 84.3777H57.5318L54.3928 91.8212C54.225 92.2273 54.0484 92.5805 53.863 92.8807C53.6776 93.181 53.448 93.4105 53.1743 93.5695C52.9094 93.7284 52.5694 93.8079 52.1544 93.8079ZM53.4789 91L50.5783 84.3777H51.916L54.3133 90.1259L54.6974 91H53.4789ZM61.3111 91.1589C60.6665 91.1589 60.097 91.0132 59.6025 90.7219C59.108 90.4216 58.7195 90.0111 58.437 89.4901C58.1544 88.9691 58.0131 88.3687 58.0131 87.6888C58.0131 87.0089 58.1544 86.4085 58.437 85.8876C58.7195 85.3666 59.108 84.9604 59.6025 84.669C60.1058 84.3688 60.6797 84.2187 61.3243 84.2187C61.9247 84.2187 62.4545 84.3732 62.9137 84.6823C63.3817 84.9825 63.7437 85.4152 63.9997 85.9803C64.2646 86.5365 64.3971 87.1944 64.3971 87.9537H63.1388C63.1388 87.3886 63.0682 86.9118 62.9269 86.5233C62.7856 86.1348 62.5737 85.8434 62.2912 85.6491C62.0175 85.4461 61.6819 85.3445 61.2846 85.3445C60.8872 85.3445 60.5385 85.4416 60.2383 85.6359C59.9469 85.8213 59.7173 86.0906 59.5495 86.4438C59.3906 86.7882 59.3111 87.212 59.3111 87.7153C59.3111 88.1833 59.4038 88.5895 59.5893 88.9338C59.7747 89.2694 60.0219 89.5343 60.331 89.7285C60.6488 89.9139 61.0064 90.0066 61.4038 90.0066C61.8364 90.0066 62.194 89.9051 62.4766 89.702C62.768 89.4989 62.9976 89.2385 63.1653 88.9206L64.2911 89.4371C64.1057 89.7815 63.8717 90.0861 63.5892 90.351C63.3154 90.6071 62.9843 90.8057 62.5958 90.947C62.2161 91.0883 61.7879 91.1589 61.3111 91.1589ZM58.8343 87.9537L58.8476 86.9206H63.6951V87.9537H58.8343ZM70.5382 91L70.4852 89.7682V81.7287H71.7302V91H70.5382ZM68.3131 91.1589C67.7126 91.1589 67.1873 91.0132 66.7369 90.7219C66.2954 90.4305 65.9467 90.0243 65.6906 89.5034C65.4434 88.9824 65.3198 88.3776 65.3198 87.6888C65.3198 86.9913 65.4434 86.3864 65.6906 85.8743C65.9467 85.3534 66.2954 84.9472 66.7369 84.6558C67.1873 84.3644 67.7126 84.2187 68.3131 84.2187C68.8693 84.2187 69.3506 84.3644 69.7567 84.6558C70.1717 84.9472 70.4896 85.3534 70.7103 85.8743C70.9311 86.3864 71.0415 86.9913 71.0415 87.6888C71.0415 88.3776 70.9311 88.9824 70.7103 89.5034C70.4896 90.0243 70.1717 90.4305 69.7567 90.7219C69.3506 91.0132 68.8693 91.1589 68.3131 91.1589ZM68.6044 90.0199C68.9753 90.0199 69.302 89.9228 69.5845 89.7285C69.8671 89.5254 70.0878 89.2517 70.2468 88.9073C70.4057 88.5541 70.4852 88.148 70.4852 87.6888C70.4852 87.2297 70.4057 86.8279 70.2468 86.4836C70.0878 86.1304 69.8671 85.8566 69.5845 85.6624C69.302 85.4593 68.9709 85.3578 68.5912 85.3578C68.2027 85.3578 67.8583 85.4593 67.5581 85.6624C67.2579 85.8566 67.0239 86.1304 66.8561 86.4836C66.6884 86.8279 66.6045 87.2297 66.6045 87.6888C66.6045 88.148 66.6884 88.5541 66.8561 88.9073C67.0327 89.2517 67.2711 89.5254 67.5714 89.7285C67.8716 89.9228 68.2159 90.0199 68.6044 90.0199ZM28.7217 107L28.6687 105.768V97.7287H29.9137V107H28.7217ZM26.4966 107.159C25.8962 107.159 25.3708 107.013 24.9205 106.722C24.479 106.43 24.1302 106.024 23.8741 105.503C23.6269 104.982 23.5033 104.378 23.5033 103.689C23.5033 102.991 23.6269 102.386 23.8741 101.874C24.1302 101.353 24.479 100.947 24.9205 100.656C25.3708 100.364 25.8962 100.219 26.4966 100.219C27.0529 100.219 27.5341 100.364 27.9403 100.656C28.3553 100.947 28.6731 101.353 28.8939 101.874C29.1146 102.386 29.225 102.991 29.225 103.689C29.225 104.378 29.1146 104.982 28.8939 105.503C28.6731 106.024 28.3553 106.43 27.9403 106.722C27.5341 107.013 27.0529 107.159 26.4966 107.159ZM26.788 106.02C27.1588 106.02 27.4855 105.923 27.7681 105.729C28.0506 105.525 28.2714 105.252 28.4303 104.907C28.5893 104.554 28.6687 104.148 28.6687 103.689C28.6687 103.23 28.5893 102.828 28.4303 102.484C28.2714 102.13 28.0506 101.857 27.7681 101.662C27.4855 101.459 27.1544 101.358 26.7747 101.358C26.3862 101.358 26.0419 101.459 25.7416 101.662C25.4414 101.857 25.2074 102.13 25.0397 102.484C24.8719 102.828 24.788 103.23 24.788 103.689C24.788 104.148 24.8719 104.554 25.0397 104.907C25.2163 105.252 25.4547 105.525 25.7549 105.729C26.0551 105.923 26.3995 106.02 26.788 106.02ZM31.74 107L31.7665 100.378H33.0115L32.9983 107H31.74ZM32.3758 98.9737C32.1727 98.9737 31.9961 98.8987 31.846 98.7486C31.6959 98.5896 31.6208 98.4086 31.6208 98.2055C31.6208 97.9936 31.6959 97.817 31.846 97.6757C31.9961 97.5256 32.1727 97.4506 32.3758 97.4506C32.5877 97.4506 32.7643 97.5256 32.9056 97.6757C33.0557 97.817 33.1307 97.9936 33.1307 98.2055C33.1307 98.4086 33.0557 98.5896 32.9056 98.7486C32.7643 98.8987 32.5877 98.9737 32.3758 98.9737ZM35.6106 103.437C35.6106 102.722 35.7475 102.139 36.0212 101.689C36.2949 101.239 36.6481 100.903 37.0808 100.682C37.5134 100.462 37.9681 100.351 38.445 100.351V101.543C38.0476 101.543 37.6679 101.605 37.3059 101.729C36.9527 101.843 36.6613 102.038 36.4318 102.311C36.211 102.576 36.1006 102.938 36.1006 103.397L35.6106 103.437ZM34.8424 107V100.378H36.1006V107H34.8424ZM42.44 107.159C41.7954 107.159 41.2259 107.013 40.7314 106.722C40.237 106.422 39.8484 106.011 39.5659 105.49C39.2833 104.969 39.1421 104.369 39.1421 103.689C39.1421 103.009 39.2833 102.409 39.5659 101.888C39.8484 101.367 40.237 100.96 40.7314 100.669C41.2347 100.369 41.8087 100.219 42.4532 100.219C43.0537 100.219 43.5834 100.373 44.0426 100.682C44.5106 100.982 44.8726 101.415 45.1287 101.98C45.3935 102.537 45.526 103.194 45.526 103.954H44.2678C44.2678 103.389 44.1971 102.912 44.0558 102.523C43.9146 102.135 43.7026 101.843 43.4201 101.649C43.1464 101.446 42.8108 101.345 42.4135 101.345C42.0162 101.345 41.6674 101.442 41.3672 101.636C41.0758 101.821 40.8462 102.091 40.6784 102.444C40.5195 102.788 40.44 103.212 40.44 103.715C40.44 104.183 40.5328 104.589 40.7182 104.934C40.9036 105.269 41.1508 105.534 41.4599 105.729C41.7778 105.914 42.1354 106.007 42.5327 106.007C42.9654 106.007 43.323 105.905 43.6055 105.702C43.8969 105.499 44.1265 105.238 44.2942 104.921L45.42 105.437C45.2346 105.781 45.0006 106.086 44.7181 106.351C44.4443 106.607 44.1132 106.806 43.7247 106.947C43.345 107.088 42.9168 107.159 42.44 107.159ZM39.9632 103.954L39.9765 102.921H44.824V103.954H39.9632ZM49.8393 107.159C49.1771 107.159 48.5899 107.013 48.0778 106.722C47.5656 106.422 47.1639 106.011 46.8725 105.49C46.5899 104.969 46.4487 104.369 46.4487 103.689C46.4487 103.009 46.5899 102.409 46.8725 101.888C47.1639 101.367 47.5612 100.96 48.0645 100.669C48.5767 100.369 49.1594 100.219 49.8128 100.219C50.4574 100.219 51.0357 100.369 51.5479 100.669C52.0688 100.969 52.4573 101.397 52.7134 101.954L51.5744 102.431C51.4066 102.104 51.1638 101.848 50.8459 101.662C50.5369 101.477 50.1793 101.384 49.7731 101.384C49.3757 101.384 49.0226 101.481 48.7135 101.676C48.4045 101.87 48.1617 102.144 47.9851 102.497C47.8085 102.841 47.7202 103.239 47.7202 103.689C47.7202 104.139 47.8085 104.536 47.9851 104.881C48.1617 105.225 48.4089 105.499 48.7268 105.702C49.0446 105.896 49.4022 105.993 49.7996 105.993C50.2057 105.993 50.5678 105.892 50.8856 105.689C51.2035 105.477 51.4419 105.194 51.6009 104.841L52.7531 105.305C52.4971 105.887 52.1086 106.342 51.5876 106.669C51.0755 106.996 50.4927 107.159 49.8393 107.159ZM56.6867 107.159C56.0245 107.159 55.5123 106.991 55.1503 106.656C54.7883 106.311 54.6073 105.821 54.6073 105.185V98.3115H55.8655V105C55.8655 105.327 55.945 105.578 56.1039 105.755C56.2717 105.923 56.5101 106.007 56.8192 106.007C56.9075 106.007 57.0046 105.989 57.1105 105.954C57.2165 105.918 57.3445 105.848 57.4946 105.742L57.9714 106.722C57.7419 106.872 57.5211 106.982 57.3092 107.053C57.1061 107.124 56.8986 107.159 56.6867 107.159ZM53.4815 101.464V100.378H57.7463V101.464H53.4815ZM59.1717 107L59.1982 97.7287H60.4432L60.43 107H59.1717ZM63.0063 109.808C62.812 109.808 62.5957 109.773 62.3573 109.702C62.1277 109.631 61.8893 109.539 61.6421 109.424L62.1056 108.391C62.2999 108.479 62.4677 108.545 62.6089 108.589C62.7591 108.634 62.8783 108.656 62.9666 108.656C63.1873 108.656 63.3727 108.594 63.5228 108.47C63.6818 108.347 63.8098 108.174 63.9069 107.954L64.6751 106.139L67.0327 100.378H68.3836L65.2446 107.821C65.0769 108.227 64.9003 108.581 64.7148 108.881C64.5294 109.181 64.2998 109.411 64.0261 109.569C63.7612 109.728 63.4213 109.808 63.0063 109.808ZM64.3308 107L61.4302 100.378H62.7679L65.1652 106.126L65.5493 107H64.3308ZM72.664 107L72.6905 100.378H73.9355L73.9223 107H72.664ZM73.2998 98.9737C73.0967 98.9737 72.9201 98.8987 72.77 98.7486C72.6199 98.5896 72.5448 98.4086 72.5448 98.2055C72.5448 97.9936 72.6199 97.817 72.77 97.6757C72.9201 97.5256 73.0967 97.4506 73.2998 97.4506C73.5117 97.4506 73.6883 97.5256 73.8296 97.6757C73.9797 97.817 74.0547 97.9936 74.0547 98.2055C74.0547 98.4086 73.9797 98.5896 73.8296 98.7486C73.6883 98.8987 73.5117 98.9737 73.2998 98.9737ZM75.7664 107V100.378H76.9452L77.0246 101.596V107H75.7664ZM80.3491 107V103.609L81.6073 103.212V107H80.3491ZM80.3491 103.609C80.3491 103.009 80.2784 102.554 80.1371 102.245C80.0047 101.927 79.8149 101.707 79.5676 101.583C79.3292 101.459 79.0511 101.393 78.7332 101.384C78.1946 101.384 77.7752 101.574 77.475 101.954C77.1747 102.333 77.0246 102.868 77.0246 103.556H76.4816C76.4816 102.859 76.5832 102.263 76.7862 101.768C76.9893 101.265 77.2807 100.881 77.6604 100.616C78.0489 100.351 78.5125 100.219 79.0511 100.219C79.8458 100.219 80.4683 100.466 80.9186 100.96C81.3777 101.446 81.6073 102.197 81.6073 103.212L80.3491 103.609ZM85.8793 107.159C85.2171 107.159 84.705 106.991 84.3429 106.656C83.9809 106.311 83.7999 105.821 83.7999 105.185V98.3115H85.0582V105C85.0582 105.327 85.1376 105.578 85.2966 105.755C85.4643 105.923 85.7027 106.007 86.0118 106.007C86.1001 106.007 86.1972 105.989 86.3032 105.954C86.4091 105.918 86.5372 105.848 86.6873 105.742L87.1641 106.722C86.9345 106.872 86.7137 106.982 86.5018 107.053C86.2987 107.124 86.0912 107.159 85.8793 107.159ZM82.6741 101.464V100.378H86.9389V101.464H82.6741ZM91.4106 107.159C90.7572 107.159 90.1745 107.013 89.6623 106.722C89.159 106.422 88.7617 106.011 88.4703 105.49C88.1878 104.969 88.0465 104.369 88.0465 103.689C88.0465 103.009 88.1878 102.409 88.4703 101.888C88.7529 101.367 89.1458 100.96 89.6491 100.669C90.1612 100.369 90.7396 100.219 91.3842 100.219C92.0464 100.219 92.6292 100.369 93.1325 100.669C93.6358 100.96 94.0287 101.367 94.3112 101.888C94.6026 102.409 94.7483 103.009 94.7483 103.689C94.7483 104.369 94.6026 104.969 94.3112 105.49C94.0287 106.011 93.6358 106.422 93.1325 106.722C92.638 107.013 92.064 107.159 91.4106 107.159ZM91.4106 105.967C91.808 105.967 92.1568 105.87 92.457 105.676C92.7572 105.481 92.9912 105.216 93.1589 104.881C93.3355 104.536 93.4238 104.139 93.4238 103.689C93.4238 103.247 93.3355 102.854 93.1589 102.51C92.9912 102.166 92.7528 101.896 92.4437 101.702C92.1347 101.508 91.7815 101.411 91.3842 101.411C90.9956 101.411 90.6469 101.508 90.3378 101.702C90.0376 101.896 89.7992 102.166 89.6226 102.51C89.4548 102.846 89.371 103.239 89.371 103.689C89.371 104.13 89.4548 104.523 89.6226 104.868C89.7992 105.212 90.042 105.481 90.3511 105.676C90.6601 105.87 91.0133 105.967 91.4106 105.967ZM26.5628 123.159C25.9006 123.159 25.3885 122.991 25.0264 122.656C24.6644 122.311 24.4834 121.821 24.4834 121.185V114.311H25.7416V121C25.7416 121.327 25.8211 121.578 25.9801 121.755C26.1478 121.923 26.3862 122.007 26.6953 122.007C26.7836 122.007 26.8807 121.989 26.9866 121.954C27.0926 121.918 27.2206 121.848 27.3707 121.742L27.8476 122.722C27.618 122.872 27.3972 122.982 27.1853 123.053C26.9822 123.124 26.7747 123.159 26.5628 123.159ZM23.3576 117.464V116.378H27.6224V117.464H23.3576ZM29.0611 123L29.0479 113.583H30.3061V123H29.0611ZM33.6438 123V119.609L34.8888 119.212V123H33.6438ZM33.6438 119.609C33.6438 119.009 33.5731 118.554 33.4318 118.245C33.2906 117.927 33.0963 117.707 32.8491 117.583C32.6107 117.459 32.3369 117.393 32.0279 117.384C31.4805 117.384 31.0566 117.574 30.7564 117.954C30.4562 118.333 30.3061 118.868 30.3061 119.556H29.7763C29.7763 118.859 29.8779 118.263 30.0809 117.768C30.284 117.265 30.5754 116.881 30.9551 116.616C31.3436 116.351 31.8027 116.219 32.3325 116.219C33.136 116.219 33.763 116.466 34.2133 116.96C34.6724 117.446 34.8976 118.197 34.8888 119.212L33.6438 119.609ZM39.4522 123.159C38.8076 123.159 38.2381 123.013 37.7436 122.722C37.2491 122.422 36.8606 122.011 36.5781 121.49C36.2955 120.969 36.1542 120.369 36.1542 119.689C36.1542 119.009 36.2955 118.409 36.5781 117.888C36.8606 117.367 37.2491 116.96 37.7436 116.669C38.2469 116.369 38.8208 116.219 39.4654 116.219C40.0658 116.219 40.5956 116.373 41.0548 116.682C41.5228 116.982 41.8848 117.415 42.1408 117.98C42.4057 118.537 42.5382 119.194 42.5382 119.954H41.2799C41.2799 119.389 41.2093 118.912 41.068 118.523C40.9267 118.135 40.7148 117.843 40.4323 117.649C40.1586 117.446 39.823 117.345 39.4257 117.345C39.0283 117.345 38.6796 117.442 38.3794 117.636C38.088 117.821 37.8584 118.091 37.6906 118.444C37.5317 118.788 37.4522 119.212 37.4522 119.715C37.4522 120.183 37.5449 120.589 37.7304 120.934C37.9158 121.269 38.163 121.534 38.4721 121.729C38.7899 121.914 39.1475 122.007 39.5449 122.007C39.9775 122.007 40.3352 121.905 40.6177 121.702C40.9091 121.499 41.1387 121.238 41.3064 120.921L42.4322 121.437C42.2468 121.781 42.0128 122.086 41.7303 122.351C41.4565 122.607 41.1254 122.806 40.7369 122.947C40.3572 123.088 39.929 123.159 39.4522 123.159ZM36.9754 119.954L36.9887 118.921H41.8362V119.954H36.9754ZM47.0653 123V116.378H48.2441L48.3235 117.596V123H47.0653ZM51.6479 123V119.609L52.9062 119.212V123H51.6479ZM51.6479 119.609C51.6479 119.009 51.5773 118.554 51.436 118.245C51.3036 117.927 51.1137 117.707 50.8665 117.583C50.6281 117.459 50.35 117.393 50.0321 117.384C49.4935 117.384 49.0741 117.574 48.7738 117.954C48.4736 118.333 48.3235 118.868 48.3235 119.556H47.7805C47.7805 118.859 47.882 118.263 48.0851 117.768C48.2882 117.265 48.5796 116.881 48.9593 116.616C49.3478 116.351 49.8113 116.219 50.35 116.219C51.1446 116.219 51.7671 116.466 52.2175 116.96C52.6766 117.446 52.9062 118.197 52.9062 119.212L51.6479 119.609ZM57.5358 123.159C56.8824 123.159 56.2996 123.013 55.7875 122.722C55.2842 122.422 54.8869 122.011 54.5955 121.49C54.3129 120.969 54.1717 120.369 54.1717 119.689C54.1717 119.009 54.3129 118.409 54.5955 117.888C54.8781 117.367 55.271 116.96 55.7743 116.669C56.2864 116.369 56.8648 116.219 57.5093 116.219C58.1716 116.219 58.7543 116.369 59.2576 116.669C59.7609 116.96 60.1538 117.367 60.4364 117.888C60.7278 118.409 60.8735 119.009 60.8735 119.689C60.8735 120.369 60.7278 120.969 60.4364 121.49C60.1538 122.011 59.7609 122.422 59.2576 122.722C58.7632 123.013 58.1892 123.159 57.5358 123.159ZM57.5358 121.967C57.9332 121.967 58.2819 121.87 58.5821 121.676C58.8824 121.481 59.1163 121.216 59.2841 120.881C59.4607 120.536 59.549 120.139 59.549 119.689C59.549 119.247 59.4607 118.854 59.2841 118.51C59.1163 118.166 58.8779 117.896 58.5689 117.702C58.2599 117.508 57.9067 117.411 57.5093 117.411C57.1208 117.411 56.772 117.508 56.463 117.702C56.1628 117.896 55.9244 118.166 55.7478 118.51C55.58 118.846 55.4961 119.239 55.4961 119.689C55.4961 120.13 55.58 120.523 55.7478 120.868C55.9244 121.212 56.1672 121.481 56.4762 121.676C56.7853 121.87 57.1385 121.967 57.5358 121.967ZM64.6726 123.159C64.2047 123.159 63.7852 123.088 63.4144 122.947C63.0524 122.806 62.7433 122.616 62.4873 122.377C62.24 122.139 62.0546 121.87 61.931 121.57L63.017 121.093C63.1583 121.366 63.3702 121.592 63.6528 121.768C63.9353 121.936 64.2488 122.02 64.5932 122.02C64.9728 122.02 65.2863 121.954 65.5335 121.821C65.7808 121.68 65.9044 121.481 65.9044 121.225C65.9044 120.978 65.8117 120.784 65.6262 120.642C65.4408 120.501 65.1715 120.386 64.8183 120.298L64.1958 120.139C63.5777 119.971 63.0965 119.72 62.7522 119.384C62.4078 119.049 62.2356 118.669 62.2356 118.245C62.2356 117.601 62.4431 117.102 62.8581 116.749C63.2819 116.395 63.9 116.219 64.7124 116.219C65.1097 116.219 65.4717 116.276 65.7984 116.391C66.134 116.506 66.4165 116.669 66.6461 116.881C66.8845 117.093 67.0523 117.345 67.1494 117.636L66.0898 118.113C65.9839 117.848 65.8028 117.654 65.5468 117.53C65.2907 117.406 64.9905 117.345 64.6461 117.345C64.293 117.345 64.0148 117.42 63.8117 117.57C63.6086 117.72 63.5071 117.932 63.5071 118.205C63.5071 118.356 63.591 118.501 63.7587 118.642C63.9353 118.775 64.1914 118.885 64.5269 118.974L65.2422 119.146C65.6748 119.252 66.0324 119.415 66.315 119.636C66.5975 119.848 66.8094 120.091 66.9507 120.364C67.092 120.629 67.1626 120.907 67.1626 121.199C67.1626 121.596 67.0523 121.945 66.8315 122.245C66.6196 122.536 66.3238 122.762 65.9441 122.921C65.5733 123.079 65.1494 123.159 64.6726 123.159ZM71.4515 123.159C70.807 123.159 70.2374 123.013 69.743 122.722C69.2485 122.422 68.86 122.011 68.5774 121.49C68.2949 120.969 68.1536 120.369 68.1536 119.689C68.1536 119.009 68.2949 118.409 68.5774 117.888C68.86 117.367 69.2485 116.96 69.743 116.669C70.2463 116.369 70.8202 116.219 71.4648 116.219C72.0652 116.219 72.595 116.373 73.0541 116.682C73.5221 116.982 73.8841 117.415 74.1402 117.98C74.4051 118.537 74.5375 119.194 74.5375 119.954H73.2793C73.2793 119.389 73.2087 118.912 73.0674 118.523C72.9261 118.135 72.7142 117.843 72.4316 117.649C72.1579 117.446 71.8224 117.345 71.425 117.345C71.0277 117.345 70.6789 117.442 70.3787 117.636C70.0873 117.821 69.8578 118.091 69.69 118.444C69.531 118.788 69.4516 119.212 69.4516 119.715C69.4516 120.183 69.5443 120.589 69.7297 120.934C69.9151 121.269 70.1624 121.534 70.4714 121.729C70.7893 121.914 71.1469 122.007 71.5442 122.007C71.9769 122.007 72.3345 121.905 72.6171 121.702C72.9084 121.499 73.138 121.238 73.3058 120.921L74.4316 121.437C74.2462 121.781 74.0122 122.086 73.7296 122.351C73.4559 122.607 73.1248 122.806 72.7363 122.947C72.3566 123.088 71.9283 123.159 71.4515 123.159ZM68.9748 119.954L68.988 118.921H73.8356V119.954H68.9748ZM79.7269 123V115.649C79.7269 114.952 79.8946 114.426 80.2302 114.073C80.5657 113.711 81.0734 113.53 81.7533 113.53C81.9564 113.53 82.1771 113.565 82.4155 113.636C82.6539 113.698 82.8968 113.786 83.144 113.901L82.6804 114.868C82.495 114.779 82.3317 114.718 82.1904 114.682C82.0579 114.638 81.9431 114.616 81.846 114.616C81.5546 114.616 81.3383 114.713 81.197 114.907C81.0557 115.093 80.9851 115.384 80.9851 115.782V123H79.7269ZM78.5481 117.424V116.378H82.8129V117.424H78.5481ZM87.0906 123.159C86.4372 123.159 85.8544 123.013 85.3423 122.722C84.839 122.422 84.4417 122.011 84.1503 121.49C83.8677 120.969 83.7265 120.369 83.7265 119.689C83.7265 119.009 83.8677 118.409 84.1503 117.888C84.4328 117.367 84.8258 116.96 85.3291 116.669C85.8412 116.369 86.4195 116.219 87.0641 116.219C87.7263 116.219 88.3091 116.369 88.8124 116.669C89.3157 116.96 89.7086 117.367 89.9912 117.888C90.2826 118.409 90.4283 119.009 90.4283 119.689C90.4283 120.369 90.2826 120.969 89.9912 121.49C89.7086 122.011 89.3157 122.422 88.8124 122.722C88.3179 123.013 87.744 123.159 87.0906 123.159ZM87.0906 121.967C87.4879 121.967 87.8367 121.87 88.1369 121.676C88.4371 121.481 88.6711 121.216 88.8389 120.881C89.0155 120.536 89.1038 120.139 89.1038 119.689C89.1038 119.247 89.0155 118.854 88.8389 118.51C88.6711 118.166 88.4327 117.896 88.1237 117.702C87.8146 117.508 87.4615 117.411 87.0641 117.411C86.6756 117.411 86.3268 117.508 86.0178 117.702C85.7176 117.896 85.4792 118.166 85.3026 118.51C85.1348 118.846 85.0509 119.239 85.0509 119.689C85.0509 120.13 85.1348 120.523 85.3026 120.868C85.4792 121.212 85.722 121.481 86.031 121.676C86.3401 121.87 86.6933 121.967 87.0906 121.967ZM92.6248 119.437C92.6248 118.722 92.7617 118.139 93.0354 117.689C93.3091 117.239 93.6623 116.903 94.095 116.682C94.5276 116.462 94.9824 116.351 95.4592 116.351V117.543C95.0618 117.543 94.6821 117.605 94.3201 117.729C93.9669 117.843 93.6756 118.038 93.446 118.311C93.2252 118.576 93.1149 118.938 93.1149 119.397L92.6248 119.437ZM91.8566 123V116.378H93.1149V123H91.8566ZM27.9932 139L27.9005 135.543C27.8917 135.057 27.8343 134.656 27.7284 134.338C27.6224 134.011 27.459 133.764 27.2383 133.596C27.0176 133.428 26.7218 133.345 26.3509 133.345C26.0065 133.345 25.7019 133.415 25.437 133.556C25.181 133.698 24.969 133.918 24.8013 134.219L23.6755 133.795C23.8344 133.495 24.0331 133.225 24.2715 132.987C24.5187 132.749 24.8145 132.563 25.1589 132.431C25.5121 132.289 25.9138 132.219 26.3641 132.219C26.9911 132.219 27.512 132.338 27.927 132.576C28.342 132.815 28.6511 133.172 28.8541 133.649C29.0661 134.117 29.172 134.7 29.172 135.397V139H27.9932ZM26.0463 139.159C25.2604 139.159 24.6468 138.982 24.2053 138.629C23.7726 138.267 23.5563 137.768 23.5563 137.132C23.5563 136.453 23.7814 135.936 24.2318 135.583C24.6821 135.221 25.3178 135.04 26.139 135.04H28.3509L28.3641 136.033H26.4834C25.8741 136.033 25.4414 136.13 25.1854 136.325C24.9381 136.51 24.8145 136.77 24.8145 137.106C24.8145 137.415 24.9337 137.658 25.1721 137.834C25.4105 138.002 25.7372 138.086 26.1522 138.086C26.5143 138.086 26.8233 138.002 27.0794 137.834C27.3443 137.667 27.5473 137.446 27.6886 137.172C27.8387 136.89 27.9138 136.576 27.9138 136.232H28.523C28.523 137.132 28.3155 137.848 27.9005 138.377C27.4855 138.898 26.8674 139.159 26.0463 139.159ZM30.7552 139V129.729H32.0134V137.768L31.9472 139H30.7552ZM34.1855 139.159C33.6293 139.159 33.1436 139.013 32.7286 138.722C32.3225 138.43 32.009 138.024 31.7883 137.503C31.5675 136.982 31.4571 136.378 31.4571 135.689C31.4571 134.991 31.5675 134.386 31.7883 133.874C32.009 133.353 32.3225 132.947 32.7286 132.656C33.1436 132.364 33.6293 132.219 34.1855 132.219C34.7771 132.219 35.2981 132.364 35.7484 132.656C36.1987 132.947 36.5475 133.353 36.7947 133.874C37.0508 134.386 37.1788 134.991 37.1788 135.689C37.1788 136.378 37.0508 136.982 36.7947 137.503C36.5475 138.024 36.1987 138.43 35.7484 138.722C35.2981 139.013 34.7771 139.159 34.1855 139.159ZM33.8809 138.02C34.2783 138.02 34.627 137.923 34.9272 137.729C35.2275 137.525 35.4615 137.252 35.6292 136.907C35.8058 136.554 35.8941 136.148 35.8941 135.689C35.8941 135.23 35.8102 134.828 35.6425 134.484C35.4747 134.13 35.2407 133.857 34.9405 133.662C34.6403 133.459 34.2915 133.358 33.8942 133.358C33.5321 133.358 33.2054 133.459 32.9141 133.662C32.6315 133.857 32.4108 134.13 32.2518 134.484C32.0929 134.837 32.0134 135.239 32.0134 135.689C32.0134 136.148 32.0929 136.554 32.2518 136.907C32.4108 137.252 32.6315 137.525 32.9141 137.729C33.1966 137.923 33.5189 138.02 33.8809 138.02ZM40.9253 139.159C40.4574 139.159 40.0379 139.088 39.6671 138.947C39.3051 138.806 38.996 138.616 38.74 138.377C38.4927 138.139 38.3073 137.87 38.1837 137.57L39.2697 137.093C39.411 137.366 39.6229 137.592 39.9055 137.768C40.188 137.936 40.5015 138.02 40.8459 138.02C41.2255 138.02 41.539 137.954 41.7862 137.821C42.0335 137.68 42.1571 137.481 42.1571 137.225C42.1571 136.978 42.0644 136.784 41.8789 136.642C41.6935 136.501 41.4242 136.386 41.071 136.298L40.4485 136.139C39.8304 135.971 39.3492 135.72 39.0049 135.384C38.6605 135.049 38.4883 134.669 38.4883 134.245C38.4883 133.601 38.6958 133.102 39.1108 132.749C39.5346 132.395 40.1527 132.219 40.9651 132.219C41.3624 132.219 41.7244 132.276 42.0511 132.391C42.3867 132.506 42.6692 132.669 42.8988 132.881C43.1372 133.093 43.305 133.345 43.4021 133.636L42.3425 134.113C42.2366 133.848 42.0555 133.654 41.7995 133.53C41.5434 133.406 41.2432 133.345 40.8988 133.345C40.5456 133.345 40.2675 133.42 40.0644 133.57C39.8613 133.72 39.7598 133.932 39.7598 134.205C39.7598 134.356 39.8437 134.501 40.0114 134.642C40.188 134.775 40.4441 134.885 40.7796 134.974L41.4949 135.146C41.9275 135.252 42.2851 135.415 42.5677 135.636C42.8502 135.848 43.0621 136.091 43.2034 136.364C43.3447 136.629 43.4153 136.907 43.4153 137.199C43.4153 137.596 43.305 137.945 43.0842 138.245C42.8723 138.536 42.5765 138.762 42.1968 138.921C41.826 139.079 41.4021 139.159 40.9253 139.159ZM47.7705 139.159C47.117 139.159 46.5343 139.013 46.0222 138.722C45.5189 138.422 45.1215 138.011 44.8301 137.49C44.5476 136.969 44.4063 136.369 44.4063 135.689C44.4063 135.009 44.5476 134.409 44.8301 133.888C45.1127 133.367 45.5056 132.96 46.0089 132.669C46.521 132.369 47.0994 132.219 47.744 132.219C48.4062 132.219 48.989 132.369 49.4923 132.669C49.9956 132.96 50.3885 133.367 50.671 133.888C50.9624 134.409 51.1081 135.009 51.1081 135.689C51.1081 136.369 50.9624 136.969 50.671 137.49C50.3885 138.011 49.9956 138.422 49.4923 138.722C48.9978 139.013 48.4239 139.159 47.7705 139.159ZM47.7705 137.967C48.1678 137.967 48.5166 137.87 48.8168 137.676C49.117 137.481 49.351 137.216 49.5187 136.881C49.6953 136.536 49.7836 136.139 49.7836 135.689C49.7836 135.247 49.6953 134.854 49.5187 134.51C49.351 134.166 49.1126 133.896 48.8035 133.702C48.4945 133.508 48.1413 133.411 47.744 133.411C47.3555 133.411 47.0067 133.508 46.6976 133.702C46.3974 133.896 46.159 134.166 45.9824 134.51C45.8147 134.846 45.7308 135.239 45.7308 135.689C45.7308 136.13 45.8147 136.523 45.9824 136.868C46.159 137.212 46.4018 137.481 46.7109 137.676C47.0199 137.87 47.3731 137.967 47.7705 137.967ZM53.3047 135.437C53.3047 134.722 53.4415 134.139 53.7152 133.689C53.989 133.239 54.3422 132.903 54.7748 132.682C55.2075 132.462 55.6622 132.351 56.139 132.351V133.543C55.7417 133.543 55.362 133.605 55 133.729C54.6468 133.843 54.3554 134.038 54.1258 134.311C53.9051 134.576 53.7947 134.938 53.7947 135.397L53.3047 135.437ZM52.5365 139V132.378H53.7947V139H52.5365ZM57.2202 141.649V132.378H58.399L58.4785 133.596V141.649H57.2202ZM60.6506 139.159C60.0943 139.159 59.6087 139.013 59.1937 138.722C58.7875 138.43 58.4741 138.024 58.2533 137.503C58.0326 136.982 57.9222 136.378 57.9222 135.689C57.9222 134.991 58.0326 134.386 58.2533 133.874C58.4741 133.353 58.7875 132.947 59.1937 132.656C59.6087 132.364 60.0943 132.219 60.6506 132.219C61.2422 132.219 61.7631 132.364 62.2135 132.656C62.6638 132.947 63.0126 133.353 63.2598 133.874C63.5159 134.386 63.6439 134.991 63.6439 135.689C63.6439 136.378 63.5159 136.982 63.2598 137.503C63.0126 138.024 62.6638 138.43 62.2135 138.722C61.7631 139.013 61.2422 139.159 60.6506 139.159ZM60.346 138.02C60.7433 138.02 61.0921 137.923 61.3923 137.729C61.6925 137.525 61.9265 137.252 62.0943 136.907C62.2709 136.554 62.3592 136.148 62.3592 135.689C62.3592 135.23 62.2753 134.828 62.1075 134.484C61.9397 134.13 61.7058 133.857 61.4055 133.662C61.1053 133.459 60.7566 133.358 60.3592 133.358C59.9972 133.358 59.6705 133.459 59.3791 133.662C59.0966 133.857 58.8758 134.13 58.7169 134.484C58.5579 134.837 58.4785 135.239 58.4785 135.689C58.4785 136.148 58.5579 136.554 58.7169 136.907C58.8758 137.252 59.0966 137.525 59.3791 137.729C59.6617 137.923 59.9839 138.02 60.346 138.02ZM67.7067 139.159C67.0445 139.159 66.5323 138.991 66.1703 138.656C65.8083 138.311 65.6273 137.821 65.6273 137.185V130.311H66.8855V137C66.8855 137.327 66.965 137.578 67.1239 137.755C67.2917 137.923 67.5301 138.007 67.8391 138.007C67.9274 138.007 68.0246 137.989 68.1305 137.954C68.2365 137.918 68.3645 137.848 68.5146 137.742L68.9914 138.722C68.7619 138.872 68.5411 138.982 68.3292 139.053C68.1261 139.124 67.9186 139.159 67.7067 139.159ZM64.5015 133.464V132.378H68.7663V133.464H64.5015ZM70.2712 139L70.2977 132.378H71.5427L71.5294 139H70.2712ZM70.9069 130.974C70.7039 130.974 70.5273 130.899 70.3772 130.749C70.227 130.59 70.152 130.409 70.152 130.206C70.152 129.994 70.227 129.817 70.3772 129.676C70.5273 129.526 70.7039 129.451 70.9069 129.451C71.1189 129.451 71.2955 129.526 71.4367 129.676C71.5868 129.817 71.6619 129.994 71.6619 130.206C71.6619 130.409 71.5868 130.59 71.4367 130.749C71.2955 130.899 71.1189 130.974 70.9069 130.974ZM76.4198 139.159C75.7664 139.159 75.1837 139.013 74.6715 138.722C74.1682 138.422 73.7709 138.011 73.4795 137.49C73.197 136.969 73.0557 136.369 73.0557 135.689C73.0557 135.009 73.197 134.409 73.4795 133.888C73.7621 133.367 74.155 132.96 74.6583 132.669C75.1704 132.369 75.7488 132.219 76.3933 132.219C77.0556 132.219 77.6383 132.369 78.1416 132.669C78.6449 132.96 79.0379 133.367 79.3204 133.888C79.6118 134.409 79.7575 135.009 79.7575 135.689C79.7575 136.369 79.6118 136.969 79.3204 137.49C79.0379 138.011 78.6449 138.422 78.1416 138.722C77.6472 139.013 77.0732 139.159 76.4198 139.159ZM76.4198 137.967C76.8172 137.967 77.166 137.87 77.4662 137.676C77.7664 137.481 78.0004 137.216 78.1681 136.881C78.3447 136.536 78.433 136.139 78.433 135.689C78.433 135.247 78.3447 134.854 78.1681 134.51C78.0004 134.166 77.762 133.896 77.4529 133.702C77.1439 133.508 76.7907 133.411 76.3933 133.411C76.0048 133.411 75.6561 133.508 75.347 133.702C75.0468 133.896 74.8084 134.166 74.6318 134.51C74.464 134.846 74.3802 135.239 74.3802 135.689C74.3802 136.13 74.464 136.523 74.6318 136.868C74.8084 137.212 75.0512 137.481 75.3603 137.676C75.6693 137.87 76.0225 137.967 76.4198 137.967ZM81.1859 139V132.378H82.3646L82.4441 133.596V139H81.1859ZM85.7685 139V135.609L87.0268 135.212V139H85.7685ZM85.7685 135.609C85.7685 135.009 85.6979 134.554 85.5566 134.245C85.4241 133.927 85.2343 133.707 84.9871 133.583C84.7487 133.459 84.4705 133.393 84.1527 133.384C83.614 133.384 83.1946 133.574 82.8944 133.954C82.5942 134.333 82.4441 134.868 82.4441 135.556H81.9011C81.9011 134.859 82.0026 134.263 82.2057 133.768C82.4088 133.265 82.7002 132.881 83.0798 132.616C83.4684 132.351 83.9319 132.219 84.4705 132.219C85.2652 132.219 85.8877 132.466 86.338 132.96C86.7972 133.446 87.0268 134.197 87.0268 135.212L85.7685 135.609Z" fill="#5762B8"/>
<path d="M131.06 97.9788V89.4757H132.371V97.9788H131.06ZM128.16 89.8995V88.7075H135.272V89.8995H128.16ZM139.59 97.9788L139.498 94.5219C139.489 94.0363 139.432 93.6345 139.326 93.3166C139.22 92.9899 139.056 92.7427 138.836 92.5749C138.615 92.4072 138.319 92.3233 137.948 92.3233C137.604 92.3233 137.299 92.3939 137.034 92.5352C136.778 92.6765 136.566 92.8972 136.398 93.1974L135.273 92.7736C135.432 92.4734 135.63 92.2041 135.869 91.9657C136.116 91.7273 136.412 91.5418 136.756 91.4094C137.109 91.2681 137.511 91.1975 137.961 91.1975C138.588 91.1975 139.109 91.3167 139.524 91.5551C139.939 91.7935 140.248 92.1511 140.451 92.6279C140.663 93.0959 140.769 93.6787 140.769 94.3762V97.9788H139.59ZM137.643 98.1377C136.858 98.1377 136.244 97.9611 135.802 97.6079C135.37 97.2459 135.153 96.747 135.153 96.1113C135.153 95.4314 135.379 94.9148 135.829 94.5616C136.279 94.1996 136.915 94.0186 137.736 94.0186H139.948L139.961 95.012H138.081C137.471 95.012 137.039 95.1091 136.783 95.3033C136.535 95.4888 136.412 95.7492 136.412 96.0848C136.412 96.3938 136.531 96.6366 136.769 96.8132C137.008 96.981 137.334 97.0649 137.749 97.0649C138.111 97.0649 138.421 96.981 138.677 96.8132C138.941 96.6455 139.145 96.4247 139.286 96.151C139.436 95.8684 139.511 95.555 139.511 95.2106H140.12C140.12 96.1113 139.913 96.8265 139.498 97.3563C139.083 97.8772 138.465 98.1377 137.643 98.1377ZM143.571 95.9788L142.789 95.1179L146.273 91.3564H147.809L143.571 95.9788ZM142.352 97.9788V88.7075H143.611V97.9788H142.352ZM146.551 97.9788L144.114 94.3497L144.935 93.4756L148.061 97.9788H146.551ZM151.761 98.1377C151.116 98.1377 150.547 97.992 150.052 97.7006C149.558 97.4004 149.169 96.9898 148.887 96.4689C148.604 95.9479 148.463 95.3475 148.463 94.6676C148.463 93.9877 148.604 93.3873 148.887 92.8663C149.169 92.3454 149.558 91.9392 150.052 91.6478C150.555 91.3476 151.129 91.1975 151.774 91.1975C152.374 91.1975 152.904 91.352 153.363 91.661C153.831 91.9613 154.193 92.3939 154.449 92.959C154.714 93.5153 154.847 94.1731 154.847 94.9325H153.589C153.589 94.3674 153.518 93.8906 153.377 93.5021C153.235 93.1135 153.023 92.8222 152.741 92.6279C152.467 92.4248 152.132 92.3233 151.734 92.3233C151.337 92.3233 150.988 92.4204 150.688 92.6147C150.397 92.8001 150.167 93.0694 149.999 93.4226C149.84 93.767 149.761 94.1908 149.761 94.6941C149.761 95.1621 149.854 95.5682 150.039 95.9126C150.224 96.2481 150.472 96.513 150.781 96.7073C151.099 96.8927 151.456 96.9854 151.853 96.9854C152.286 96.9854 152.644 96.8839 152.926 96.6808C153.218 96.4777 153.447 96.2172 153.615 95.8993L154.741 96.4159C154.555 96.7602 154.321 97.0649 154.039 97.3298C153.765 97.5858 153.434 97.7845 153.045 97.9258C152.666 98.0671 152.238 98.1377 151.761 98.1377ZM149.284 94.9325L149.297 93.8994H154.145V94.9325H149.284ZM158.511 98.1377C158.043 98.1377 157.624 98.0671 157.253 97.9258C156.891 97.7845 156.582 97.5947 156.326 97.3563C156.078 97.1179 155.893 96.8485 155.769 96.5483L156.856 96.0715C156.997 96.3452 157.209 96.5704 157.491 96.747C157.774 96.9148 158.087 96.9987 158.432 96.9987C158.811 96.9987 159.125 96.9324 159.372 96.8C159.619 96.6587 159.743 96.46 159.743 96.204C159.743 95.9567 159.65 95.7625 159.465 95.6212C159.279 95.4799 159.01 95.3651 158.657 95.2768L158.034 95.1179C157.416 94.9501 156.935 94.6985 156.591 94.363C156.246 94.0274 156.074 93.6477 156.074 93.2239C156.074 92.5793 156.282 92.0805 156.697 91.7273C157.12 91.3741 157.738 91.1975 158.551 91.1975C158.948 91.1975 159.31 91.2549 159.637 91.3697C159.972 91.4845 160.255 91.6478 160.485 91.8597C160.723 92.0716 160.891 92.3233 160.988 92.6147L159.928 93.0915C159.822 92.8266 159.641 92.6323 159.385 92.5087C159.129 92.3851 158.829 92.3233 158.485 92.3233C158.131 92.3233 157.853 92.3983 157.65 92.5484C157.447 92.6985 157.346 92.9105 157.346 93.1842C157.346 93.3343 157.429 93.48 157.597 93.6213C157.774 93.7537 158.03 93.8641 158.365 93.9524L159.081 94.1246C159.513 94.2305 159.871 94.3939 160.153 94.6146C160.436 94.8265 160.648 95.0693 160.789 95.3431C160.93 95.608 161.001 95.8861 161.001 96.1775C161.001 96.5748 160.891 96.9236 160.67 97.2238C160.458 97.5152 160.162 97.7404 159.783 97.8993C159.412 98.0582 158.988 98.1377 158.511 98.1377ZM136.643 113.396L135.358 112.932C135.358 112.659 135.42 112.376 135.544 112.085C135.676 111.785 135.862 111.489 136.1 111.197C136.347 110.906 136.639 110.637 136.974 110.389L138.762 109.065C138.974 108.915 139.164 108.743 139.332 108.548C139.508 108.345 139.645 108.138 139.742 107.926C139.848 107.705 139.901 107.489 139.901 107.277C139.901 106.994 139.831 106.738 139.689 106.509C139.548 106.27 139.349 106.085 139.093 105.952C138.837 105.811 138.533 105.741 138.179 105.741C137.844 105.741 137.548 105.807 137.292 105.939C137.045 106.063 136.837 106.231 136.67 106.443C136.502 106.654 136.383 106.88 136.312 107.118L134.974 106.866C135.071 106.46 135.261 106.081 135.544 105.727C135.826 105.374 136.188 105.092 136.63 104.88C137.071 104.659 137.57 104.549 138.126 104.549C138.762 104.549 139.31 104.668 139.769 104.906C140.237 105.136 140.599 105.458 140.855 105.873C141.111 106.279 141.239 106.747 141.239 107.277C141.239 107.789 141.098 108.261 140.815 108.694C140.541 109.127 140.144 109.546 139.623 109.952L137.968 111.197C137.711 111.383 137.482 111.586 137.279 111.807C137.076 112.027 136.917 112.27 136.802 112.535C136.696 112.791 136.643 113.078 136.643 113.396ZM135.358 113.979V112.932L136.338 112.813H141.358V113.979H135.358ZM142.848 110.588V109.489H146.821V110.588H142.848ZM151.179 114.138C150.702 114.138 150.27 114.067 149.881 113.926C149.493 113.785 149.166 113.59 148.901 113.343C148.636 113.096 148.433 112.826 148.292 112.535L149.418 112.019C149.506 112.142 149.616 112.283 149.749 112.442C149.881 112.592 150.058 112.721 150.279 112.826C150.499 112.932 150.773 112.985 151.1 112.985C151.656 112.985 152.098 112.826 152.424 112.509C152.76 112.191 152.928 111.789 152.928 111.303C152.928 110.941 152.83 110.637 152.636 110.389C152.442 110.133 152.155 109.939 151.775 109.807C151.404 109.674 150.95 109.608 150.411 109.608H150.08V108.628H150.385C150.932 108.628 151.435 108.69 151.894 108.813C152.362 108.937 152.773 109.122 153.126 109.37C153.479 109.608 153.753 109.899 153.947 110.244C154.142 110.588 154.239 110.981 154.239 111.423C154.239 111.97 154.098 112.451 153.815 112.866C153.541 113.272 153.17 113.586 152.702 113.807C152.243 114.027 151.736 114.138 151.179 114.138ZM150.08 109.449V108.509H150.411C151.135 108.509 151.7 108.385 152.106 108.138C152.513 107.891 152.716 107.542 152.716 107.092C152.716 106.835 152.645 106.606 152.504 106.403C152.371 106.191 152.181 106.023 151.934 105.9C151.696 105.767 151.409 105.701 151.073 105.701C150.861 105.701 150.654 105.736 150.451 105.807C150.257 105.869 150.076 105.966 149.908 106.098C149.74 106.222 149.594 106.385 149.471 106.588L148.385 106.098C148.535 105.771 148.747 105.493 149.02 105.264C149.294 105.034 149.612 104.858 149.974 104.734C150.336 104.61 150.72 104.549 151.126 104.549C151.683 104.549 152.177 104.655 152.61 104.866C153.042 105.078 153.382 105.37 153.63 105.741C153.886 106.111 154.014 106.531 154.014 106.999C154.014 107.396 153.917 107.749 153.722 108.058C153.537 108.359 153.276 108.615 152.941 108.827C152.605 109.03 152.217 109.184 151.775 109.29C151.343 109.396 150.875 109.449 150.371 109.449H150.08ZM131.197 129.979V123.356H132.375L132.455 124.575V129.979H131.197ZM135.779 129.979V126.588L137.037 126.191V129.979H135.779ZM140.362 129.979V126.588L141.607 126.191V129.979H140.362ZM135.779 126.588C135.779 125.988 135.709 125.533 135.567 125.224C135.435 124.906 135.245 124.685 134.998 124.562C134.759 124.438 134.481 124.372 134.163 124.363C133.625 124.363 133.205 124.553 132.905 124.933C132.605 125.312 132.455 125.846 132.455 126.535H131.912C131.912 125.838 132.013 125.242 132.216 124.747C132.42 124.244 132.711 123.86 133.091 123.595C133.479 123.33 133.943 123.197 134.481 123.197C135.276 123.197 135.898 123.445 136.349 123.939C136.808 124.425 137.037 125.175 137.037 126.191L135.779 126.588ZM140.362 126.588C140.362 125.988 140.291 125.533 140.15 125.224C140.009 124.906 139.819 124.685 139.58 124.562C139.342 124.438 139.064 124.372 138.746 124.363C138.207 124.363 137.788 124.553 137.488 124.933C137.188 125.312 137.037 125.846 137.037 126.535H136.494C136.494 125.838 136.596 125.242 136.799 124.747C137.002 124.244 137.294 123.86 137.673 123.595C138.062 123.33 138.525 123.197 139.064 123.197C139.859 123.197 140.481 123.445 140.931 123.939C141.391 124.425 141.616 125.175 141.607 126.191L140.362 126.588ZM143.292 129.979L143.318 123.356H144.563L144.55 129.979H143.292ZM143.928 121.952C143.725 121.952 143.548 121.877 143.398 121.727C143.248 121.568 143.173 121.387 143.173 121.184C143.173 120.972 143.248 120.796 143.398 120.655C143.548 120.504 143.725 120.429 143.928 120.429C144.14 120.429 144.316 120.504 144.458 120.655C144.608 120.796 144.683 120.972 144.683 121.184C144.683 121.387 144.608 121.568 144.458 121.727C144.316 121.877 144.14 121.952 143.928 121.952ZM146.394 129.979V123.356H147.573L147.653 124.575V129.979H146.394ZM150.977 129.979V126.588L152.235 126.191V129.979H150.977ZM150.977 126.588C150.977 125.988 150.906 125.533 150.765 125.224C150.633 124.906 150.443 124.685 150.196 124.562C149.957 124.438 149.679 124.372 149.361 124.363C148.823 124.363 148.403 124.553 148.103 124.933C147.803 125.312 147.653 125.846 147.653 126.535H147.11C147.11 125.838 147.211 125.242 147.414 124.747C147.617 124.244 147.909 123.86 148.288 123.595C148.677 123.33 149.14 123.197 149.679 123.197C150.474 123.197 151.096 123.445 151.547 123.939C152.006 124.425 152.235 125.175 152.235 126.191L150.977 126.588ZM156.189 130.138C155.721 130.138 155.302 130.067 154.931 129.926C154.569 129.785 154.26 129.595 154.004 129.356C153.757 129.118 153.571 128.849 153.448 128.548L154.534 128.072C154.675 128.345 154.887 128.57 155.17 128.747C155.452 128.915 155.766 128.999 156.11 128.999C156.49 128.999 156.803 128.932 157.05 128.8C157.298 128.659 157.421 128.46 157.421 128.204C157.421 127.957 157.328 127.762 157.143 127.621C156.958 127.48 156.688 127.365 156.335 127.277L155.713 127.118C155.095 126.95 154.613 126.698 154.269 126.363C153.925 126.027 153.752 125.648 153.752 125.224C153.752 124.579 153.96 124.08 154.375 123.727C154.799 123.374 155.417 123.197 156.229 123.197C156.626 123.197 156.988 123.255 157.315 123.37C157.651 123.484 157.933 123.648 158.163 123.86C158.401 124.072 158.569 124.323 158.666 124.615L157.607 125.091C157.501 124.827 157.32 124.632 157.064 124.509C156.807 124.385 156.507 124.323 156.163 124.323C155.81 124.323 155.532 124.398 155.328 124.548C155.125 124.699 155.024 124.91 155.024 125.184C155.024 125.334 155.108 125.48 155.276 125.621C155.452 125.754 155.708 125.864 156.044 125.952L156.759 126.125C157.192 126.231 157.549 126.394 157.832 126.615C158.114 126.827 158.326 127.069 158.467 127.343C158.609 127.608 158.679 127.886 158.679 128.177C158.679 128.575 158.569 128.924 158.348 129.224C158.136 129.515 157.841 129.74 157.461 129.899C157.09 130.058 156.666 130.138 156.189 130.138Z" fill="#F9897A"/>
<path d="M217.589 87V77.7287H218.887V87H217.589ZM220.945 87V80.3777H222.123L222.203 81.5962V87H220.945ZM225.527 87V83.6094L226.785 83.212V87H225.527ZM225.527 83.6094C225.527 83.0089 225.457 82.5542 225.315 82.2452C225.183 81.9273 224.993 81.7065 224.746 81.5829C224.507 81.4593 224.229 81.3931 223.911 81.3843C223.373 81.3843 222.953 81.5741 222.653 81.9538C222.353 82.3335 222.203 82.8677 222.203 83.5564H221.66C221.66 82.8588 221.761 82.2628 221.964 81.7684C222.168 81.2651 222.459 80.881 222.839 80.6161C223.227 80.3512 223.691 80.2187 224.229 80.2187C225.024 80.2187 225.646 80.466 226.097 80.9604C226.556 81.4461 226.785 82.1966 226.785 83.212L225.527 83.6094ZM229.534 78.9737C229.322 78.9737 229.141 78.8987 228.991 78.7486C228.841 78.5896 228.766 78.4086 228.766 78.2055C228.766 77.9936 228.841 77.8126 228.991 77.6625C229.141 77.5124 229.322 77.4373 229.534 77.4373C229.746 77.4373 229.927 77.5124 230.077 77.6625C230.228 77.8126 230.303 77.9936 230.303 78.2055C230.303 78.4086 230.228 78.5896 230.077 78.7486C229.927 78.8987 229.746 78.9737 229.534 78.9737ZM228.064 89.8476C227.685 89.8476 227.247 89.7284 226.753 89.49L227.243 88.4437C227.428 88.5231 227.592 88.5849 227.733 88.6291C227.874 88.6732 227.989 88.6953 228.077 88.6953C228.634 88.6953 228.912 88.3377 228.912 87.6225V80.3777H230.157V87.6755C230.157 88.3819 229.98 88.9205 229.627 89.2913C229.274 89.6622 228.753 89.8476 228.064 89.8476ZM234.996 87.1589C234.352 87.1589 233.782 87.0132 233.288 86.7219C232.793 86.4216 232.405 86.0111 232.122 85.4901C231.84 84.9691 231.698 84.3687 231.698 83.6888C231.698 83.0089 231.84 82.4085 232.122 81.8876C232.405 81.3666 232.793 80.9604 233.288 80.669C233.791 80.3688 234.365 80.2187 235.01 80.2187C235.61 80.2187 236.14 80.3732 236.599 80.6823C237.067 80.9825 237.429 81.4152 237.685 81.9803C237.95 82.5365 238.082 83.1944 238.082 83.9537H236.824C236.824 83.3886 236.754 82.9118 236.612 82.5233C236.471 82.1348 236.259 81.8434 235.976 81.6491C235.703 81.4461 235.367 81.3445 234.97 81.3445C234.573 81.3445 234.224 81.4416 233.924 81.6359C233.632 81.8213 233.403 82.0906 233.235 82.4438C233.076 82.7882 232.996 83.212 232.996 83.7153C232.996 84.1833 233.089 84.5895 233.275 84.9338C233.46 85.2694 233.707 85.5343 234.016 85.7285C234.334 85.9139 234.692 86.0066 235.089 86.0066C235.522 86.0066 235.879 85.9051 236.162 85.702C236.453 85.4989 236.683 85.2385 236.851 84.9206L237.976 85.4371C237.791 85.7815 237.557 86.0861 237.274 86.351C237.001 86.6071 236.67 86.8057 236.281 86.947C235.901 87.0883 235.473 87.1589 234.996 87.1589ZM232.52 83.9537L232.533 82.9206H237.38V83.9537H232.52ZM242.396 87.1589C241.733 87.1589 241.146 87.0132 240.634 86.7219C240.122 86.4216 239.72 86.0111 239.429 85.4901C239.146 84.9691 239.005 84.3687 239.005 83.6888C239.005 83.0089 239.146 82.4085 239.429 81.8876C239.72 81.3666 240.118 80.9604 240.621 80.669C241.133 80.3688 241.716 80.2187 242.369 80.2187C243.014 80.2187 243.592 80.3688 244.104 80.669C244.625 80.9693 245.014 81.3975 245.27 81.9538L244.131 82.4306C243.963 82.1039 243.72 81.8478 243.402 81.6624C243.093 81.477 242.736 81.3843 242.329 81.3843C241.932 81.3843 241.579 81.4814 241.27 81.6756C240.961 81.8699 240.718 82.1436 240.541 82.4968C240.365 82.8412 240.277 83.2385 240.277 83.6888C240.277 84.1391 240.365 84.5365 240.541 84.8809C240.718 85.2252 240.965 85.4989 241.283 85.702C241.601 85.8963 241.959 85.9934 242.356 85.9934C242.762 85.9934 243.124 85.8919 243.442 85.6888C243.76 85.4769 243.998 85.1943 244.157 84.8411L245.31 85.3047C245.053 85.8874 244.665 86.3422 244.144 86.6689C243.632 86.9956 243.049 87.1589 242.396 87.1589ZM249.243 87.1589C248.581 87.1589 248.069 86.9912 247.707 86.6556C247.345 86.3113 247.164 85.8212 247.164 85.1855V78.3115H248.422V85.0001C248.422 85.3268 248.501 85.5784 248.66 85.755C248.828 85.9228 249.067 86.0066 249.376 86.0066C249.464 86.0066 249.561 85.989 249.667 85.9537C249.773 85.9184 249.901 85.8477 250.051 85.7418L250.528 86.7219C250.298 86.872 250.078 86.9823 249.866 87.053C249.663 87.1236 249.455 87.1589 249.243 87.1589ZM246.038 81.4637V80.3777H250.303V81.4637H246.038ZM254.708 87.1589C254.064 87.1589 253.494 87.0132 253 86.7219C252.505 86.4216 252.117 86.0111 251.834 85.4901C251.552 84.9691 251.41 84.3687 251.41 83.6888C251.41 83.0089 251.552 82.4085 251.834 81.8876C252.117 81.3666 252.505 80.9604 253 80.669C253.503 80.3688 254.077 80.2187 254.721 80.2187C255.322 80.2187 255.852 80.3732 256.311 80.6823C256.779 80.9825 257.141 81.4152 257.397 81.9803C257.662 82.5365 257.794 83.1944 257.794 83.9537H256.536C256.536 83.3886 256.465 82.9118 256.324 82.5233C256.183 82.1348 255.971 81.8434 255.688 81.6491C255.415 81.4461 255.079 81.3445 254.682 81.3445C254.284 81.3445 253.936 81.4416 253.635 81.6359C253.344 81.8213 253.114 82.0906 252.947 82.4438C252.788 82.7882 252.708 83.212 252.708 83.7153C252.708 84.1833 252.801 84.5895 252.986 84.9338C253.172 85.2694 253.419 85.5343 253.728 85.7285C254.046 85.9139 254.404 86.0066 254.801 86.0066C255.234 86.0066 255.591 85.9051 255.874 85.702C256.165 85.4989 256.395 85.2385 256.562 84.9206L257.688 85.4371C257.503 85.7815 257.269 86.0861 256.986 86.351C256.713 86.6071 256.381 86.8057 255.993 86.947C255.613 87.0883 255.185 87.1589 254.708 87.1589ZM252.231 83.9537L252.245 82.9206H257.092V83.9537H252.231ZM263.935 87L263.882 85.7682V77.7287H265.127V87H263.935ZM261.71 87.1589C261.11 87.1589 260.584 87.0132 260.134 86.7219C259.693 86.4305 259.344 86.0243 259.088 85.5034C258.84 84.9824 258.717 84.3776 258.717 83.6888C258.717 82.9913 258.84 82.3864 259.088 81.8743C259.344 81.3534 259.693 80.9472 260.134 80.6558C260.584 80.3644 261.11 80.2187 261.71 80.2187C262.266 80.2187 262.748 80.3644 263.154 80.6558C263.569 80.9472 263.887 81.3534 264.107 81.8743C264.328 82.3864 264.439 82.9913 264.439 83.6888C264.439 84.3776 264.328 84.9824 264.107 85.5034C263.887 86.0243 263.569 86.4305 263.154 86.7219C262.748 87.0132 262.266 87.1589 261.71 87.1589ZM262.002 86.0199C262.372 86.0199 262.699 85.9228 262.982 85.7285C263.264 85.5254 263.485 85.2517 263.644 84.9073C263.803 84.5541 263.882 84.148 263.882 83.6888C263.882 83.2297 263.803 82.8279 263.644 82.4836C263.485 82.1304 263.264 81.8566 262.982 81.6624C262.699 81.4593 262.368 81.3578 261.988 81.3578C261.6 81.3578 261.255 81.4593 260.955 81.6624C260.655 81.8566 260.421 82.1304 260.253 82.4836C260.085 82.8279 260.002 83.2297 260.002 83.6888C260.002 84.148 260.085 84.5541 260.253 84.9073C260.43 85.2517 260.668 85.5254 260.968 85.7285C261.269 85.9228 261.613 86.0199 262.002 86.0199ZM199.419 103L199.366 101.768V93.7287H200.611V103H199.419ZM197.194 103.159C196.594 103.159 196.068 103.013 195.618 102.722C195.176 102.43 194.828 102.024 194.572 101.503C194.324 100.982 194.201 100.378 194.201 99.6888C194.201 98.9913 194.324 98.3864 194.572 97.8743C194.828 97.3534 195.176 96.9472 195.618 96.6558C196.068 96.3644 196.594 96.2187 197.194 96.2187C197.75 96.2187 198.232 96.3644 198.638 96.6558C199.053 96.9472 199.371 97.3534 199.591 97.8743C199.812 98.3864 199.922 98.9913 199.922 99.6888C199.922 100.378 199.812 100.982 199.591 101.503C199.371 102.024 199.053 102.43 198.638 102.722C198.232 103.013 197.75 103.159 197.194 103.159ZM197.485 102.02C197.856 102.02 198.183 101.923 198.466 101.729C198.748 101.525 198.969 101.252 199.128 100.907C199.287 100.554 199.366 100.148 199.366 99.6888C199.366 99.2297 199.287 98.8279 199.128 98.4836C198.969 98.1304 198.748 97.8566 198.466 97.6624C198.183 97.4593 197.852 97.3578 197.472 97.3578C197.084 97.3578 196.739 97.4593 196.439 97.6624C196.139 97.8566 195.905 98.1304 195.737 98.4836C195.569 98.8279 195.486 99.2297 195.486 99.6888C195.486 100.148 195.569 100.554 195.737 100.907C195.914 101.252 196.152 101.525 196.452 101.729C196.753 101.923 197.097 102.02 197.485 102.02ZM202.438 103L202.464 96.3777H203.709L203.696 103H202.438ZM203.073 94.9737C202.87 94.9737 202.694 94.8987 202.543 94.7486C202.393 94.5896 202.318 94.4086 202.318 94.2055C202.318 93.9936 202.393 93.817 202.543 93.6757C202.694 93.5256 202.87 93.4506 203.073 93.4506C203.285 93.4506 203.462 93.5256 203.603 93.6757C203.753 93.817 203.828 93.9936 203.828 94.2055C203.828 94.4086 203.753 94.5896 203.603 94.7486C203.462 94.8987 203.285 94.9737 203.073 94.9737ZM206.308 99.4372C206.308 98.722 206.445 98.1392 206.719 97.6889C206.992 97.2386 207.346 96.903 207.778 96.6823C208.211 96.4615 208.666 96.3512 209.142 96.3512V97.5432C208.745 97.5432 208.365 97.605 208.003 97.7286C207.65 97.8434 207.359 98.0377 207.129 98.3114C206.909 98.5763 206.798 98.9383 206.798 99.3974L206.308 99.4372ZM205.54 103V96.3777H206.798V103H205.54ZM213.137 103.159C212.493 103.159 211.923 103.013 211.429 102.722C210.934 102.422 210.546 102.011 210.263 101.49C209.981 100.969 209.84 100.369 209.84 99.6888C209.84 99.0089 209.981 98.4085 210.263 97.8876C210.546 97.3666 210.934 96.9604 211.429 96.669C211.932 96.3688 212.506 96.2187 213.151 96.2187C213.751 96.2187 214.281 96.3732 214.74 96.6823C215.208 96.9825 215.57 97.4152 215.826 97.9803C216.091 98.5365 216.223 99.1944 216.223 99.9537H214.965C214.965 99.3886 214.895 98.9118 214.753 98.5233C214.612 98.1348 214.4 97.8434 214.118 97.6491C213.844 97.4461 213.508 97.3445 213.111 97.3445C212.714 97.3445 212.365 97.4416 212.065 97.6359C211.773 97.8213 211.544 98.0906 211.376 98.4438C211.217 98.7882 211.138 99.212 211.138 99.7153C211.138 100.183 211.23 100.589 211.416 100.934C211.601 101.269 211.848 101.534 212.157 101.729C212.475 101.914 212.833 102.007 213.23 102.007C213.663 102.007 214.02 101.905 214.303 101.702C214.594 101.499 214.824 101.238 214.992 100.921L216.118 101.437C215.932 101.781 215.698 102.086 215.416 102.351C215.142 102.607 214.811 102.806 214.422 102.947C214.043 103.088 213.614 103.159 213.137 103.159ZM210.661 99.9537L210.674 98.9206H215.522V99.9537H210.661ZM220.537 103.159C219.875 103.159 219.287 103.013 218.775 102.722C218.263 102.422 217.861 102.011 217.57 101.49C217.287 100.969 217.146 100.369 217.146 99.6888C217.146 99.0089 217.287 98.4085 217.57 97.8876C217.861 97.3666 218.259 96.9604 218.762 96.669C219.274 96.3688 219.857 96.2187 220.51 96.2187C221.155 96.2187 221.733 96.3688 222.245 96.669C222.766 96.9693 223.155 97.3975 223.411 97.9538L222.272 98.4306C222.104 98.1039 221.861 97.8478 221.543 97.6624C221.234 97.477 220.877 97.3843 220.471 97.3843C220.073 97.3843 219.72 97.4814 219.411 97.6756C219.102 97.8699 218.859 98.1436 218.683 98.4968C218.506 98.8412 218.418 99.2385 218.418 99.6888C218.418 100.139 218.506 100.536 218.683 100.881C218.859 101.225 219.106 101.499 219.424 101.702C219.742 101.896 220.1 101.993 220.497 101.993C220.903 101.993 221.265 101.892 221.583 101.689C221.901 101.477 222.139 101.194 222.298 100.841L223.451 101.305C223.195 101.887 222.806 102.342 222.285 102.669C221.773 102.996 221.19 103.159 220.537 103.159ZM227.384 103.159C226.722 103.159 226.21 102.991 225.848 102.656C225.486 102.311 225.305 101.821 225.305 101.185V94.3115H226.563V101C226.563 101.327 226.643 101.578 226.801 101.755C226.969 101.923 227.208 102.007 227.517 102.007C227.605 102.007 227.702 101.989 227.808 101.954C227.914 101.918 228.042 101.848 228.192 101.742L228.669 102.722C228.439 102.872 228.219 102.982 228.007 103.053C227.804 103.124 227.596 103.159 227.384 103.159ZM224.179 97.4637V96.3777H228.444V97.4637H224.179ZM229.869 103L229.896 93.7287H231.141L231.127 103H229.869ZM233.704 105.808C233.51 105.808 233.293 105.773 233.055 105.702C232.825 105.631 232.587 105.539 232.34 105.424L232.803 104.391C232.997 104.479 233.165 104.545 233.306 104.589C233.457 104.634 233.576 104.656 233.664 104.656C233.885 104.656 234.07 104.594 234.22 104.47C234.379 104.347 234.507 104.174 234.604 103.954L235.373 102.139L237.73 96.3777H239.081L235.942 103.821C235.774 104.227 235.598 104.581 235.412 104.881C235.227 105.181 234.997 105.411 234.724 105.569C234.459 105.728 234.119 105.808 233.704 105.808ZM235.028 103L232.128 96.3777H233.465L235.863 102.126L236.247 103H235.028ZM243.362 103L243.388 96.3777H244.633L244.62 103H243.362ZM243.997 94.9737C243.794 94.9737 243.618 94.8987 243.467 94.7486C243.317 94.5896 243.242 94.4086 243.242 94.2055C243.242 93.9936 243.317 93.817 243.467 93.6757C243.618 93.5256 243.794 93.4506 243.997 93.4506C244.209 93.4506 244.386 93.5256 244.527 93.6757C244.677 93.817 244.752 93.9936 244.752 94.2055C244.752 94.4086 244.677 94.5896 244.527 94.7486C244.386 94.8987 244.209 94.9737 243.997 94.9737ZM246.464 103V96.3777H247.643L247.722 97.5962V103H246.464ZM251.047 103V99.6094L252.305 99.212V103H251.047ZM251.047 99.6094C251.047 99.0089 250.976 98.5542 250.835 98.2452C250.702 97.9273 250.512 97.7065 250.265 97.5829C250.027 97.4593 249.749 97.3931 249.431 97.3843C248.892 97.3843 248.473 97.5741 248.172 97.9538C247.872 98.3335 247.722 98.8677 247.722 99.5564H247.179C247.179 98.8588 247.281 98.2628 247.484 97.7684C247.687 97.2651 247.978 96.881 248.358 96.6161C248.746 96.3512 249.21 96.2187 249.749 96.2187C250.543 96.2187 251.166 96.466 251.616 96.9604C252.075 97.4461 252.305 98.1966 252.305 99.212L251.047 99.6094ZM256.577 103.159C255.915 103.159 255.402 102.991 255.04 102.656C254.678 102.311 254.497 101.821 254.497 101.185V94.3115H255.756V101C255.756 101.327 255.835 101.578 255.994 101.755C256.162 101.923 256.4 102.007 256.709 102.007C256.798 102.007 256.895 101.989 257.001 101.954C257.107 101.918 257.235 101.848 257.385 101.742L257.862 102.722C257.632 102.872 257.411 102.982 257.199 103.053C256.996 103.124 256.789 103.159 256.577 103.159ZM253.372 97.4637V96.3777H257.636V97.4637H253.372ZM262.108 103.159C261.455 103.159 260.872 103.013 260.36 102.722C259.857 102.422 259.459 102.011 259.168 101.49C258.885 100.969 258.744 100.369 258.744 99.6888C258.744 99.0089 258.885 98.4085 259.168 97.8876C259.45 97.3666 259.843 96.9604 260.347 96.669C260.859 96.3688 261.437 96.2187 262.082 96.2187C262.744 96.2187 263.327 96.3688 263.83 96.669C264.333 96.9604 264.726 97.3666 265.009 97.8876C265.3 98.4085 265.446 99.0089 265.446 99.6888C265.446 100.369 265.3 100.969 265.009 101.49C264.726 102.011 264.333 102.422 263.83 102.722C263.335 103.013 262.762 103.159 262.108 103.159ZM262.108 101.967C262.505 101.967 262.854 101.87 263.154 101.676C263.455 101.481 263.689 101.216 263.856 100.881C264.033 100.536 264.121 100.139 264.121 99.6888C264.121 99.2473 264.033 98.8544 263.856 98.5101C263.689 98.1657 263.45 97.8964 263.141 97.7021C262.832 97.5079 262.479 97.4107 262.082 97.4107C261.693 97.4107 261.344 97.5079 261.035 97.7021C260.735 97.8964 260.497 98.1657 260.32 98.5101C260.152 98.8456 260.068 99.2385 260.068 99.6888C260.068 100.13 260.152 100.523 260.32 100.868C260.497 101.212 260.74 101.481 261.049 101.676C261.358 101.87 261.711 101.967 262.108 101.967ZM203.127 119L203.034 115.543C203.026 115.057 202.968 114.656 202.862 114.338C202.756 114.011 202.593 113.764 202.372 113.596C202.151 113.428 201.856 113.345 201.485 113.345C201.14 113.345 200.836 113.415 200.571 113.556C200.315 113.698 200.103 113.918 199.935 114.219L198.809 113.795C198.968 113.495 199.167 113.225 199.405 112.987C199.653 112.749 199.948 112.563 200.293 112.431C200.646 112.289 201.048 112.219 201.498 112.219C202.125 112.219 202.646 112.338 203.061 112.576C203.476 112.815 203.785 113.172 203.988 113.649C204.2 114.117 204.306 114.7 204.306 115.397V119H203.127ZM201.18 119.159C200.394 119.159 199.781 118.982 199.339 118.629C198.907 118.267 198.69 117.768 198.69 117.132C198.69 116.453 198.915 115.936 199.366 115.583C199.816 115.221 200.452 115.04 201.273 115.04H203.485L203.498 116.033H201.617C201.008 116.033 200.575 116.13 200.319 116.325C200.072 116.51 199.948 116.77 199.948 117.106C199.948 117.415 200.068 117.658 200.306 117.834C200.544 118.002 200.871 118.086 201.286 118.086C201.648 118.086 201.957 118.002 202.213 117.834C202.478 117.667 202.681 117.446 202.823 117.172C202.973 116.89 203.048 116.576 203.048 116.232H203.657C203.657 117.132 203.449 117.848 203.034 118.377C202.619 118.898 202.001 119.159 201.18 119.159ZM205.889 119V112.378H207.068L207.147 113.596V119H205.889ZM210.472 119V115.609L211.73 115.212V119H210.472ZM210.472 115.609C210.472 115.009 210.401 114.554 210.26 114.245C210.127 113.927 209.938 113.707 209.69 113.583C209.452 113.459 209.174 113.393 208.856 113.384C208.317 113.384 207.898 113.574 207.598 113.954C207.297 114.333 207.147 114.868 207.147 115.556H206.604C206.604 114.859 206.706 114.263 206.909 113.768C207.112 113.265 207.403 112.881 207.783 112.616C208.172 112.351 208.635 112.219 209.174 112.219C209.968 112.219 210.591 112.466 211.041 112.96C211.5 113.446 211.73 114.197 211.73 115.212L210.472 115.609ZM214.121 121.808C213.927 121.808 213.711 121.773 213.472 121.702C213.243 121.631 213.004 121.539 212.757 121.424L213.221 120.391C213.415 120.479 213.583 120.545 213.724 120.589C213.874 120.634 213.993 120.656 214.082 120.656C214.302 120.656 214.488 120.594 214.638 120.47C214.797 120.347 214.925 120.174 215.022 119.954L215.79 118.139L218.148 112.378H219.499L216.36 119.821C216.192 120.227 216.015 120.581 215.83 120.881C215.644 121.181 215.415 121.411 215.141 121.569C214.876 121.728 214.536 121.808 214.121 121.808ZM215.446 119L212.545 112.378H213.883L216.28 118.126L216.664 119H215.446ZM223.7 119V112.378H224.878L224.958 113.596V119H223.7ZM228.282 119V115.609L229.54 115.212V119H228.282ZM232.865 119V115.609L234.11 115.212V119H232.865ZM228.282 115.609C228.282 115.009 228.212 114.554 228.07 114.245C227.938 113.927 227.748 113.707 227.501 113.583C227.262 113.459 226.984 113.393 226.666 113.384C226.128 113.384 225.708 113.574 225.408 113.954C225.108 114.333 224.958 114.868 224.958 115.556H224.415C224.415 114.859 224.516 114.263 224.719 113.768C224.923 113.265 225.214 112.881 225.594 112.616C225.982 112.351 226.446 112.219 226.984 112.219C227.779 112.219 228.401 112.466 228.852 112.96C229.311 113.446 229.54 114.197 229.54 115.212L228.282 115.609ZM232.865 115.609C232.865 115.009 232.794 114.554 232.653 114.245C232.512 113.927 232.322 113.707 232.083 113.583C231.845 113.459 231.567 113.393 231.249 113.384C230.71 113.384 230.291 113.574 229.991 113.954C229.691 114.333 229.54 114.868 229.54 115.556H228.997C228.997 114.859 229.099 114.263 229.302 113.768C229.505 113.265 229.797 112.881 230.176 112.616C230.565 112.351 231.028 112.219 231.567 112.219C232.362 112.219 232.984 112.466 233.434 112.96C233.894 113.446 234.119 114.197 234.11 115.212L232.865 115.609ZM240.219 119L240.139 117.781V112.378H241.384V119H240.219ZM235.557 116.166V112.378H236.815V115.768L235.557 116.166ZM236.815 115.768C236.815 116.36 236.881 116.815 237.013 117.132C237.155 117.45 237.349 117.671 237.596 117.795C237.843 117.918 238.122 117.985 238.431 117.993C238.969 117.993 239.389 117.804 239.689 117.424C239.989 117.044 240.139 116.51 240.139 115.821H240.682C240.682 116.519 240.581 117.119 240.378 117.623C240.175 118.117 239.879 118.497 239.49 118.762C239.111 119.026 238.651 119.159 238.113 119.159C237.318 119.159 236.691 118.912 236.232 118.417C235.782 117.923 235.557 117.172 235.557 116.166L236.815 115.768ZM245.511 119.159C245.043 119.159 244.623 119.088 244.252 118.947C243.89 118.806 243.581 118.616 243.325 118.377C243.078 118.139 242.893 117.87 242.769 117.57L243.855 117.093C243.996 117.366 244.208 117.592 244.491 117.768C244.773 117.936 245.087 118.02 245.431 118.02C245.811 118.02 246.124 117.954 246.371 117.821C246.619 117.68 246.742 117.481 246.742 117.225C246.742 116.978 246.65 116.784 246.464 116.642C246.279 116.501 246.009 116.386 245.656 116.298L245.034 116.139C244.416 115.971 243.934 115.72 243.59 115.384C243.246 115.049 243.074 114.669 243.074 114.245C243.074 113.601 243.281 113.102 243.696 112.749C244.12 112.395 244.738 112.219 245.55 112.219C245.948 112.219 246.31 112.276 246.636 112.391C246.972 112.506 247.254 112.669 247.484 112.881C247.722 113.093 247.89 113.345 247.987 113.636L246.928 114.113C246.822 113.848 246.641 113.654 246.385 113.53C246.129 113.406 245.828 113.345 245.484 113.345C245.131 113.345 244.853 113.42 244.65 113.57C244.447 113.72 244.345 113.932 244.345 114.205C244.345 114.356 244.429 114.501 244.597 114.642C244.773 114.775 245.029 114.885 245.365 114.974L246.08 115.146C246.513 115.252 246.87 115.415 247.153 115.636C247.435 115.848 247.647 116.091 247.789 116.364C247.93 116.629 248.001 116.907 248.001 117.199C248.001 117.596 247.89 117.945 247.669 118.245C247.458 118.536 247.162 118.762 246.782 118.921C246.411 119.079 245.987 119.159 245.511 119.159ZM252.329 119.159C251.667 119.159 251.08 119.013 250.568 118.722C250.056 118.422 249.654 118.011 249.362 117.49C249.08 116.969 248.939 116.369 248.939 115.689C248.939 115.009 249.08 114.409 249.362 113.888C249.654 113.367 250.051 112.96 250.554 112.669C251.067 112.369 251.649 112.219 252.303 112.219C252.947 112.219 253.526 112.369 254.038 112.669C254.559 112.969 254.947 113.397 255.203 113.954L254.064 114.431C253.896 114.104 253.654 113.848 253.336 113.662C253.027 113.477 252.669 113.384 252.263 113.384C251.866 113.384 251.512 113.481 251.203 113.676C250.894 113.87 250.652 114.144 250.475 114.497C250.298 114.841 250.21 115.239 250.21 115.689C250.21 116.139 250.298 116.536 250.475 116.881C250.652 117.225 250.899 117.499 251.217 117.702C251.535 117.896 251.892 117.993 252.289 117.993C252.696 117.993 253.058 117.892 253.376 117.689C253.693 117.477 253.932 117.194 254.091 116.841L255.243 117.305C254.987 117.887 254.598 118.342 254.078 118.669C253.565 118.996 252.983 119.159 252.329 119.159ZM256.488 119L256.514 109.729H257.759L257.746 119H256.488ZM262.495 119.159C261.85 119.159 261.281 119.013 260.786 118.722C260.292 118.422 259.903 118.011 259.621 117.49C259.338 116.969 259.197 116.369 259.197 115.689C259.197 115.009 259.338 114.409 259.621 113.888C259.903 113.367 260.292 112.96 260.786 112.669C261.289 112.369 261.863 112.219 262.508 112.219C263.108 112.219 263.638 112.373 264.097 112.682C264.565 112.982 264.927 113.415 265.183 113.98C265.448 114.537 265.581 115.194 265.581 115.954H264.322C264.322 115.389 264.252 114.912 264.11 114.523C263.969 114.135 263.757 113.843 263.475 113.649C263.201 113.446 262.865 113.345 262.468 113.345C262.071 113.345 261.722 113.442 261.422 113.636C261.13 113.821 260.901 114.091 260.733 114.444C260.574 114.788 260.495 115.212 260.495 115.715C260.495 116.183 260.587 116.589 260.773 116.934C260.958 117.269 261.205 117.534 261.514 117.729C261.832 117.914 262.19 118.007 262.587 118.007C263.02 118.007 263.378 117.905 263.66 117.702C263.952 117.499 264.181 117.238 264.349 116.921L265.475 117.437C265.289 117.781 265.055 118.086 264.773 118.351C264.499 118.607 264.168 118.806 263.779 118.947C263.4 119.088 262.971 119.159 262.495 119.159ZM260.018 115.954L260.031 114.921H264.879V115.954H260.018ZM214.305 136.324C213.899 135.786 213.528 135.203 213.193 134.576C212.857 133.94 212.592 133.269 212.398 132.563C212.204 131.857 212.107 131.124 212.107 130.364C212.107 129.596 212.204 128.863 212.398 128.166C212.592 127.459 212.857 126.793 213.193 126.166C213.528 125.53 213.899 124.943 214.305 124.404H215.577C215.171 124.969 214.8 125.574 214.464 126.219C214.129 126.863 213.864 127.534 213.67 128.232C213.475 128.921 213.378 129.631 213.378 130.364C213.378 131.088 213.475 131.799 213.67 132.497C213.864 133.194 214.129 133.865 214.464 134.51C214.8 135.146 215.171 135.751 215.577 136.324H214.305ZM217.343 135V125.729H218.641V135H217.343ZM218.429 135V133.808H222.946V135H218.429ZM218.429 130.841V129.676H222.495V130.841H218.429ZM218.429 126.921V125.729H222.919V126.921H218.429ZM224.069 135L226.784 131.199L228.678 128.378H230.175L227.619 131.993L225.592 135H224.069ZM228.824 135L226.824 131.993L224.241 128.378H225.738L227.645 131.199L230.334 135H228.824ZM232.166 130.007C231.945 130.007 231.751 129.927 231.583 129.768C231.424 129.609 231.345 129.415 231.345 129.186C231.345 128.956 231.424 128.762 231.583 128.603C231.751 128.444 231.945 128.364 232.166 128.364C232.396 128.364 232.59 128.444 232.749 128.603C232.917 128.762 233.001 128.956 233.001 129.186C233.001 129.415 232.917 129.609 232.749 129.768C232.59 129.927 232.396 130.007 232.166 130.007ZM232.193 135.026C231.963 135.026 231.764 134.947 231.597 134.788C231.438 134.62 231.358 134.422 231.358 134.192C231.358 133.971 231.438 133.781 231.597 133.623C231.764 133.455 231.963 133.371 232.193 133.371C232.413 133.371 232.603 133.455 232.762 133.623C232.93 133.781 233.014 133.971 233.014 134.192C233.014 134.422 232.93 134.62 232.762 134.788C232.603 134.947 232.413 135.026 232.193 135.026ZM242.163 135L242.07 131.543C242.061 131.057 242.004 130.656 241.898 130.338C241.792 130.011 241.629 129.764 241.408 129.596C241.187 129.428 240.891 129.345 240.52 129.345C240.176 129.345 239.871 129.415 239.607 129.556C239.35 129.698 239.139 129.918 238.971 130.219L237.845 129.795C238.004 129.495 238.203 129.225 238.441 128.987C238.688 128.749 238.984 128.563 239.328 128.431C239.682 128.289 240.083 128.219 240.534 128.219C241.161 128.219 241.682 128.338 242.097 128.576C242.512 128.815 242.821 129.172 243.024 129.649C243.236 130.117 243.342 130.7 243.342 131.397V135H242.163ZM240.216 135.159C239.43 135.159 238.816 134.982 238.375 134.629C237.942 134.267 237.726 133.768 237.726 133.132C237.726 132.453 237.951 131.936 238.401 131.583C238.852 131.221 239.487 131.04 240.309 131.04H242.52L242.534 132.033H240.653C240.044 132.033 239.611 132.13 239.355 132.325C239.108 132.51 238.984 132.77 238.984 133.106C238.984 133.415 239.103 133.658 239.342 133.834C239.58 134.002 239.907 134.086 240.322 134.086C240.684 134.086 240.993 134.002 241.249 133.834C241.514 133.667 241.717 133.446 241.858 133.172C242.008 132.89 242.083 132.576 242.083 132.232H242.693C242.693 133.132 242.485 133.848 242.07 134.377C241.655 134.898 241.037 135.159 240.216 135.159ZM245.693 131.437C245.693 130.722 245.83 130.139 246.103 129.689C246.377 129.239 246.73 128.903 247.163 128.682C247.596 128.462 248.05 128.351 248.527 128.351V129.543C248.13 129.543 247.75 129.605 247.388 129.729C247.035 129.843 246.744 130.038 246.514 130.311C246.293 130.576 246.183 130.938 246.183 131.397L245.693 131.437ZM244.925 135V128.378H246.183V135H244.925ZM249.542 135V128.378H250.721L250.8 129.596V135H249.542ZM254.125 135V131.609L255.383 131.212V135H254.125ZM258.708 135V131.609L259.953 131.212V135H258.708ZM254.125 131.609C254.125 131.009 254.054 130.554 253.913 130.245C253.781 129.927 253.591 129.707 253.343 129.583C253.105 129.459 252.827 129.393 252.509 129.384C251.97 129.384 251.551 129.574 251.251 129.954C250.951 130.333 250.8 130.868 250.8 131.556H250.257C250.257 130.859 250.359 130.263 250.562 129.768C250.765 129.265 251.057 128.881 251.436 128.616C251.825 128.351 252.288 128.219 252.827 128.219C253.622 128.219 254.244 128.466 254.694 128.96C255.154 129.446 255.383 130.197 255.383 131.212L254.125 131.609ZM258.708 131.609C258.708 131.009 258.637 130.554 258.496 130.245C258.354 129.927 258.165 129.707 257.926 129.583C257.688 129.459 257.41 129.393 257.092 129.384C256.553 129.384 256.134 129.574 255.833 129.954C255.533 130.333 255.383 130.868 255.383 131.556H254.84C254.84 130.859 254.942 130.263 255.145 129.768C255.348 129.265 255.639 128.881 256.019 128.616C256.407 128.351 256.871 128.219 257.41 128.219C258.204 128.219 258.827 128.466 259.277 128.96C259.736 129.446 259.961 130.197 259.953 131.212L258.708 131.609ZM260.883 136.113L264.538 125.106H265.796L262.167 136.113H260.883ZM233.916 151.159C233.254 151.159 232.742 150.991 232.38 150.656C232.018 150.311 231.837 149.821 231.837 149.185V142.311H233.095V149C233.095 149.327 233.174 149.578 233.333 149.755C233.501 149.923 233.739 150.007 234.048 150.007C234.137 150.007 234.234 149.989 234.34 149.954C234.446 149.918 234.574 149.848 234.724 149.742L235.201 150.722C234.971 150.872 234.75 150.982 234.538 151.053C234.335 151.124 234.128 151.159 233.916 151.159ZM230.711 145.464V144.378H234.976V145.464H230.711ZM236.414 151L236.401 141.583H237.659V151H236.414ZM240.997 151V147.609L242.242 147.212V151H240.997ZM240.997 147.609C240.997 147.009 240.926 146.554 240.785 146.245C240.644 145.927 240.449 145.707 240.202 145.583C239.964 145.459 239.69 145.393 239.381 145.384C238.834 145.384 238.41 145.574 238.11 145.954C237.809 146.333 237.659 146.868 237.659 147.556H237.129C237.129 146.859 237.231 146.263 237.434 145.768C237.637 145.265 237.929 144.881 238.308 144.616C238.697 144.351 239.156 144.219 239.686 144.219C240.489 144.219 241.116 144.466 241.566 144.96C242.026 145.446 242.251 146.197 242.242 147.212L240.997 147.609ZM243.905 151L243.931 144.378H245.176L245.163 151H243.905ZM244.541 142.974C244.337 142.974 244.161 142.899 244.011 142.749C243.861 142.59 243.786 142.409 243.786 142.206C243.786 141.994 243.861 141.817 244.011 141.676C244.161 141.526 244.337 141.451 244.541 141.451C244.752 141.451 244.929 141.526 245.07 141.676C245.22 141.817 245.295 141.994 245.295 142.206C245.295 142.409 245.22 142.59 245.07 142.749C244.929 142.899 244.752 142.974 244.541 142.974ZM249.749 153.821C249.307 153.821 248.906 153.777 248.544 153.689C248.181 153.609 247.877 153.516 247.63 153.411C247.382 153.305 247.197 153.212 247.073 153.132L247.55 152.113C247.665 152.183 247.828 152.263 248.04 152.351C248.252 152.448 248.499 152.528 248.782 152.589C249.064 152.66 249.378 152.695 249.722 152.695C250.128 152.695 250.49 152.611 250.808 152.444C251.126 152.285 251.373 152.033 251.55 151.689C251.735 151.344 251.828 150.903 251.828 150.364V144.378H253.086V150.338C253.086 151.097 252.941 151.733 252.649 152.245C252.367 152.766 251.974 153.159 251.471 153.424C250.976 153.689 250.402 153.821 249.749 153.821ZM249.63 150.907C249.029 150.907 248.504 150.77 248.053 150.497C247.612 150.214 247.263 149.826 247.007 149.331C246.76 148.828 246.636 148.25 246.636 147.596C246.636 146.916 246.76 146.325 247.007 145.821C247.263 145.318 247.612 144.925 248.053 144.643C248.504 144.36 249.029 144.219 249.63 144.219C250.177 144.219 250.654 144.36 251.06 144.643C251.475 144.925 251.793 145.322 252.014 145.835C252.243 146.338 252.358 146.929 252.358 147.609C252.358 148.263 252.243 148.841 252.014 149.344C251.793 149.839 251.475 150.223 251.06 150.497C250.654 150.77 250.177 150.907 249.63 150.907ZM249.947 149.848C250.318 149.848 250.641 149.751 250.914 149.556C251.188 149.353 251.404 149.084 251.563 148.748C251.722 148.404 251.802 148.011 251.802 147.57C251.802 147.128 251.722 146.74 251.563 146.404C251.404 146.069 251.184 145.808 250.901 145.623C250.627 145.428 250.305 145.331 249.934 145.331C249.546 145.331 249.201 145.428 248.901 145.623C248.61 145.808 248.38 146.069 248.212 146.404C248.045 146.74 247.961 147.128 247.961 147.57C247.961 148.011 248.045 148.404 248.212 148.748C248.389 149.084 248.623 149.353 248.914 149.556C249.215 149.751 249.559 149.848 249.947 149.848ZM254.69 151L254.677 141.583H255.935V151H254.69ZM259.273 151V147.609L260.518 147.212V151H259.273ZM259.273 147.609C259.273 147.009 259.202 146.554 259.061 146.245C258.92 145.927 258.726 145.707 258.478 145.583C258.24 145.459 257.966 145.393 257.657 145.384C257.11 145.384 256.686 145.574 256.386 145.954C256.085 146.333 255.935 146.868 255.935 147.556H255.406C255.406 146.859 255.507 146.263 255.71 145.768C255.913 145.265 256.205 144.881 256.584 144.616C256.973 144.351 257.432 144.219 257.962 144.219C258.765 144.219 259.392 144.466 259.843 144.96C260.302 145.446 260.527 146.197 260.518 147.212L259.273 147.609ZM263.082 152.324H261.81C262.225 151.751 262.596 151.146 262.923 150.51C263.258 149.865 263.523 149.194 263.717 148.497C263.912 147.799 264.009 147.088 264.009 146.364C264.009 145.631 263.912 144.921 263.717 144.232C263.523 143.534 263.258 142.863 262.923 142.219C262.596 141.574 262.225 140.969 261.81 140.404H263.082C263.497 140.943 263.867 141.53 264.194 142.166C264.53 142.793 264.794 143.459 264.989 144.166C265.183 144.863 265.28 145.596 265.28 146.364C265.28 147.124 265.183 147.857 264.989 148.563C264.794 149.269 264.53 149.94 264.194 150.576C263.867 151.203 263.497 151.786 263.082 152.324Z" fill="#5762B8"/>
<path d="M25.5283 14.3115V5.19287C25.5283 5.00244 25.5942 4.83887 25.7261 4.70215C25.8579 4.56543 26.019 4.49707 26.2095 4.49707H28.3628C28.5337 4.49707 28.7144 4.56543 28.9048 4.70215C29.0952 4.83887 29.2515 5.00244 29.3735 5.19287L33.7974 11.9971V5.17822C33.7974 4.98779 33.8633 4.82666 33.9951 4.69482C34.1318 4.56299 34.2954 4.49707 34.4858 4.49707H35.7456C35.936 4.49707 36.0972 4.56299 36.229 4.69482C36.3657 4.82666 36.4341 4.99268 36.4341 5.19287V14.3115C36.4341 14.502 36.3657 14.6655 36.229 14.8022C36.0972 14.9341 35.936 15 35.7456 15H33.314C33.1235 15 32.9282 14.9341 32.728 14.8022C32.5278 14.6655 32.3691 14.502 32.252 14.3115L28.2017 8.02734V14.3115C28.2017 14.502 28.1333 14.6655 27.9966 14.8022C27.8647 14.9341 27.7036 15 27.5132 15H26.2241C26.0337 15 25.8701 14.9341 25.7334 14.8022C25.5967 14.6655 25.5283 14.502 25.5283 14.3115ZM38.9023 14.4727C38.2578 14.0234 37.9355 13.3887 37.9355 12.5684C37.9355 11.748 38.2578 11.1182 38.9023 10.6787C39.5518 10.2393 40.3867 10.0195 41.4072 10.0195H43.8315C43.8315 9.44824 43.7119 9.05029 43.4727 8.82568C43.2334 8.60107 42.8135 8.48877 42.2129 8.48877C41.6172 8.48877 41.1973 8.6377 40.9531 8.93555C40.7139 9.22852 40.4185 9.375 40.0669 9.375H38.9756C38.8438 9.375 38.7339 9.3335 38.646 9.25049C38.563 9.1626 38.5215 9.05518 38.5215 8.92822C38.5215 7.52686 39.8521 6.82617 42.5132 6.82617C43.6753 6.82617 44.6079 7.0874 45.311 7.60986C46.0142 8.12744 46.3657 8.93066 46.3657 10.0195V14.5532C46.3657 14.6851 46.3242 14.7925 46.2412 14.8755C46.1582 14.9585 46.0508 15 45.9189 15H44.5054C44.3735 15 44.2661 14.9585 44.1831 14.8755C44.1001 14.7876 44.0586 14.6802 44.0586 14.5532V14.3262C43.2871 14.8779 42.396 15.1514 41.3853 15.1465C40.3794 15.1465 39.5518 14.9219 38.9023 14.4727ZM41.583 11.6821C41.2412 11.6821 40.9702 11.7651 40.77 11.9312C40.5747 12.0972 40.4771 12.312 40.4771 12.5757C40.4771 12.8394 40.5796 13.0566 40.7847 13.2275C40.9897 13.3984 41.2803 13.4839 41.6562 13.4839C42.4082 13.4839 43.1333 13.2642 43.8315 12.8247V11.6821H41.583ZM47.7207 9.19189C47.7207 7.61475 48.9927 6.82617 51.5366 6.82617C54.2124 6.82617 55.5503 7.52686 55.5503 8.92822C55.5503 9.05518 55.5088 9.1626 55.4258 9.25049C55.3428 9.3335 55.2354 9.375 55.1035 9.375H54.0122C53.6606 9.375 53.3652 9.22852 53.126 8.93555C52.8867 8.6377 52.4155 8.48877 51.7124 8.48877C50.7456 8.48877 50.2622 8.72314 50.2622 9.19189C50.2622 9.41162 50.4502 9.59473 50.8262 9.74121C51.207 9.8877 51.6685 10.0171 52.2104 10.1294C52.7573 10.2368 53.3018 10.376 53.8438 10.5469C54.3857 10.7178 54.8447 10.9912 55.2207 11.3672C55.6016 11.7383 55.792 12.2095 55.792 12.7808C55.792 14.3579 54.4492 15.1465 51.7637 15.1465C49.0781 15.1465 47.7354 14.4482 47.7354 13.0518C47.7354 12.9199 47.7769 12.8125 47.8599 12.7295C47.9478 12.6416 48.0576 12.5977 48.1895 12.5977H49.2808C49.6323 12.5977 49.9277 12.7466 50.167 13.0444C50.4062 13.3374 50.8774 13.4839 51.5806 13.4839C52.6987 13.4839 53.2578 13.2495 53.2578 12.7808C53.2578 12.561 53.0674 12.3779 52.6865 12.2314C52.3105 12.085 51.8491 11.9556 51.3022 11.8433C50.7554 11.7261 50.2109 11.5845 49.6689 11.4185C49.1318 11.2476 48.6729 10.9741 48.292 10.5981C47.9111 10.2222 47.7207 9.75342 47.7207 9.19189ZM57.667 14.4727C57.0225 14.0234 56.7002 13.3887 56.7002 12.5684C56.7002 11.748 57.0225 11.1182 57.667 10.6787C58.3164 10.2393 59.1514 10.0195 60.1719 10.0195H62.5962C62.5962 9.44824 62.4766 9.05029 62.2373 8.82568C61.998 8.60107 61.5781 8.48877 60.9775 8.48877C60.3818 8.48877 59.9619 8.6377 59.7178 8.93555C59.4785 9.22852 59.1831 9.375 58.8315 9.375H57.7402C57.6084 9.375 57.4985 9.3335 57.4106 9.25049C57.3276 9.1626 57.2861 9.05518 57.2861 8.92822C57.2861 7.52686 58.6167 6.82617 61.2778 6.82617C62.4399 6.82617 63.3726 7.0874 64.0757 7.60986C64.7788 8.12744 65.1304 8.93066 65.1304 10.0195V14.5532C65.1304 14.6851 65.0889 14.7925 65.0059 14.8755C64.9229 14.9585 64.8154 15 64.6836 15H63.27C63.1382 15 63.0308 14.9585 62.9478 14.8755C62.8647 14.7876 62.8232 14.6802 62.8232 14.5532V14.3262C62.0518 14.8779 61.1606 15.1514 60.1499 15.1465C59.144 15.1465 58.3164 14.9219 57.667 14.4727ZM60.3477 11.6821C60.0059 11.6821 59.7349 11.7651 59.5347 11.9312C59.3394 12.0972 59.2417 12.312 59.2417 12.5757C59.2417 12.8394 59.3442 13.0566 59.5493 13.2275C59.7544 13.3984 60.0449 13.4839 60.4209 13.4839C61.1729 13.4839 61.8979 13.2642 62.5962 12.8247V11.6821H60.3477ZM66.9395 14.5532V4.95117C66.9395 4.81934 66.981 4.71191 67.064 4.62891C67.1519 4.54102 67.2593 4.49707 67.3862 4.49707H69.0269C69.1538 4.49707 69.2588 4.54102 69.3418 4.62891C69.4297 4.71191 69.4736 4.81934 69.4736 4.95117V14.5532C69.4736 14.6802 69.4297 14.7876 69.3418 14.8755C69.2588 14.9585 69.1538 15 69.0269 15H67.3862C67.2593 15 67.1519 14.9585 67.064 14.8755C66.981 14.7876 66.9395 14.6802 66.9395 14.5532ZM76.0801 12.312C76.0801 12.0239 76.1655 11.8188 76.3364 11.6968C76.5073 11.5698 76.6733 11.5063 76.8345 11.5063H77.7061C78.1455 11.5063 78.48 11.7456 78.7095 12.2241C78.939 12.7026 79.4541 12.9419 80.2549 12.9419L82.8184 12.9932C83.6777 12.9932 84.1074 12.7124 84.1074 12.1509C84.1074 11.7261 83.5825 11.3916 82.5327 11.1475C82.064 11.0352 81.5464 10.9253 80.98 10.8179C80.4136 10.7056 79.8496 10.5664 79.2881 10.4004C78.7314 10.2344 78.2188 10.0391 77.75 9.81445C77.2812 9.58984 76.9004 9.28223 76.6074 8.8916C76.3193 8.49609 76.1753 8.03223 76.1753 7.5C76.1753 6.51855 76.5244 5.76416 77.2227 5.23682C77.9209 4.70459 79.1221 4.43848 80.8262 4.43848L82.6865 4.48242C83.6875 4.48242 84.5884 4.74121 85.3892 5.25879C86.1948 5.77148 86.5977 6.41357 86.5977 7.18506C86.5977 7.47314 86.5122 7.68066 86.3413 7.80762C86.1704 7.93457 86.0068 7.99805 85.8506 7.99805H84.979C84.5396 7.99805 84.2051 7.75879 83.9756 7.28027C83.7461 6.79688 83.231 6.55518 82.4302 6.55518L80.2256 6.51123C79.3662 6.51123 78.9365 6.79199 78.9365 7.35352C78.9365 7.66113 79.2075 7.9126 79.7495 8.10791C80.2964 8.30322 80.9556 8.47656 81.7271 8.62793C82.5034 8.77441 83.2822 8.95264 84.0635 9.1626C84.8447 9.37256 85.5063 9.71924 86.0483 10.2026C86.5952 10.6812 86.8687 11.2793 86.8687 11.9971C86.8687 12.9785 86.5171 13.7354 85.814 14.2676C85.1157 14.7949 83.917 15.0586 82.2178 15.0586L79.9985 15.0146C78.9976 15.0146 78.0942 14.7583 77.2886 14.2456C76.4829 13.728 76.0801 13.0835 76.0801 12.312ZM88.2236 17.0215V7.42676C88.2236 7.29492 88.2651 7.1875 88.3481 7.10449C88.436 7.0166 88.5435 6.97266 88.6704 6.97266H90.084C90.2109 6.97266 90.3159 7.0166 90.3989 7.10449C90.4868 7.1875 90.5308 7.29492 90.5308 7.42676V7.64648C91.3022 7.09961 92.1982 6.82617 93.2188 6.82617C94.2393 6.82617 95.0913 7.1875 95.7749 7.91016C96.4585 8.62793 96.8003 9.6582 96.8003 11.001C96.8003 12.3389 96.4463 13.3643 95.7383 14.0771C95.0303 14.79 94.0757 15.1465 92.8745 15.1465C92.2544 15.1465 91.5488 15.022 90.7578 14.7729V17.0215C90.7578 17.1533 90.7139 17.2607 90.626 17.3438C90.543 17.4316 90.438 17.4756 90.311 17.4756H88.6704C88.5435 17.4756 88.436 17.4316 88.3481 17.3438C88.2651 17.2607 88.2236 17.1533 88.2236 17.0215ZM90.7578 13.0811C91.3877 13.2812 91.9175 13.3813 92.3472 13.3813C93.0161 13.3813 93.4897 13.1909 93.7681 12.8101C94.0513 12.4292 94.1929 11.8213 94.1929 10.9863C94.1929 10.1514 94.0586 9.5459 93.79 9.16992C93.5264 8.78906 93.1284 8.59863 92.5962 8.59863C92.0688 8.59863 91.4561 8.81836 90.7578 9.25781V13.0811ZM103.707 8.83301L102.579 8.78906C101.92 8.78906 101.29 9.15039 100.689 9.87305V14.5532C100.689 14.6851 100.646 14.7925 100.558 14.8755C100.475 14.9585 100.37 15 100.243 15H98.6021C98.4702 15 98.3628 14.9585 98.2798 14.8755C98.1968 14.7925 98.1553 14.6851 98.1553 14.5532V7.42676C98.1553 7.29492 98.1968 7.1875 98.2798 7.10449C98.3677 7.0166 98.4751 6.97266 98.6021 6.97266H100.243C100.375 6.97266 100.482 7.0166 100.565 7.10449C100.648 7.1875 100.689 7.29492 100.689 7.42676V7.88818C101.188 7.52686 101.666 7.26074 102.125 7.08984C102.589 6.91406 103.194 6.82617 103.941 6.82617C104.073 6.82617 104.181 6.87012 104.264 6.95801C104.352 7.04102 104.396 7.146 104.396 7.27295V8.38623C104.396 8.51807 104.352 8.62549 104.264 8.7085C104.181 8.7915 104.073 8.83301 103.941 8.83301H103.707ZM105.816 14.4727C105.172 14.0234 104.85 13.3887 104.85 12.5684C104.85 11.748 105.172 11.1182 105.816 10.6787C106.466 10.2393 107.301 10.0195 108.321 10.0195H110.746C110.746 9.44824 110.626 9.05029 110.387 8.82568C110.147 8.60107 109.728 8.48877 109.127 8.48877C108.531 8.48877 108.111 8.6377 107.867 8.93555C107.628 9.22852 107.333 9.375 106.981 9.375H105.89C105.758 9.375 105.648 9.3335 105.56 9.25049C105.477 9.1626 105.436 9.05518 105.436 8.92822C105.436 7.52686 106.766 6.82617 109.427 6.82617C110.589 6.82617 111.522 7.0874 112.225 7.60986C112.928 8.12744 113.28 8.93066 113.28 10.0195V14.5532C113.28 14.6851 113.238 14.7925 113.155 14.8755C113.072 14.9585 112.965 15 112.833 15H111.419C111.288 15 111.18 14.9585 111.097 14.8755C111.014 14.7876 110.973 14.6802 110.973 14.5532V14.3262C110.201 14.8779 109.31 15.1514 108.299 15.1465C107.293 15.1465 106.466 14.9219 105.816 14.4727ZM108.497 11.6821C108.155 11.6821 107.884 11.7651 107.684 11.9312C107.489 12.0972 107.391 12.312 107.391 12.5757C107.391 12.8394 107.494 13.0566 107.699 13.2275C107.904 13.3984 108.194 13.4839 108.57 13.4839C109.322 13.4839 110.047 13.2642 110.746 12.8247V11.6821H108.497ZM116.502 15.7617L117.462 15.8862C118.15 15.8862 118.631 15.3809 118.905 14.3701C118.075 14.3701 117.381 14.1211 116.825 13.623C116.268 13.1201 115.79 12.229 115.389 10.9497L114.298 7.41211C114.283 7.37305 114.276 7.3291 114.276 7.28027C114.276 7.22656 114.305 7.16309 114.364 7.08984C114.427 7.0166 114.52 6.97754 114.642 6.97266H116.173C116.314 6.97266 116.449 7.02148 116.576 7.11914C116.708 7.21191 116.793 7.3291 116.832 7.4707L117.792 10.5762C118.031 11.3379 118.272 11.8652 118.517 12.1582C118.766 12.4512 119.059 12.5977 119.396 12.5977L120.853 7.4707C120.892 7.3291 120.968 7.21191 121.08 7.11914C121.197 7.02148 121.327 6.97266 121.468 6.97266H123.014C123.136 6.97266 123.226 7.01172 123.285 7.08984C123.343 7.16797 123.373 7.23389 123.373 7.2876C123.373 7.33643 123.368 7.37793 123.358 7.41211L121.439 14.2529C121.097 15.4639 120.672 16.3281 120.165 16.8457C119.662 17.3633 119.012 17.6221 118.216 17.6221C117.42 17.6221 116.856 17.5928 116.524 17.5342C116.197 17.4756 115.992 17.4023 115.909 17.3145C115.826 17.2314 115.785 17.1338 115.785 17.0215V16.2158C115.785 16.084 115.826 15.9741 115.909 15.8862C115.992 15.8032 116.1 15.7617 116.231 15.7617H116.502Z" fill="#5762B8"/>
<path d="M172.287 14.3262V5.19287C172.287 5.00244 172.355 4.83887 172.492 4.70215C172.628 4.56543 172.792 4.49707 172.982 4.49707H174.345C174.545 4.49707 174.711 4.56543 174.843 4.70215C174.979 4.83887 175.048 5.00244 175.048 5.19287V14.3115C175.048 14.502 174.977 14.6655 174.835 14.8022C174.699 14.9341 174.535 15 174.345 15H172.982C172.792 15 172.628 14.9365 172.492 14.8096C172.355 14.6777 172.287 14.5166 172.287 14.3262ZM177.003 14.5532V7.42676C177.003 7.29492 177.045 7.1875 177.128 7.10449C177.216 7.0166 177.323 6.97266 177.45 6.97266H179.091C179.218 6.97266 179.323 7.0166 179.406 7.10449C179.494 7.1875 179.538 7.29492 179.538 7.42676V7.88818C180.377 7.18018 181.271 6.82617 182.218 6.82617C183.17 6.82617 183.944 7.1167 184.54 7.69775C185.136 8.27393 185.434 9.15771 185.434 10.3491V14.5532C185.434 14.6802 185.39 14.7876 185.302 14.8755C185.219 14.9585 185.111 15 184.979 15H183.346C183.219 15 183.112 14.9585 183.024 14.8755C182.941 14.7876 182.899 14.6802 182.899 14.5532V10.3491C182.899 9.18213 182.433 8.59863 181.5 8.59863C180.89 8.59863 180.236 8.94775 179.538 9.646V14.5532C179.538 14.6802 179.494 14.7876 179.406 14.8755C179.323 14.9585 179.218 15 179.091 15H177.45C177.323 15 177.216 14.9585 177.128 14.8755C177.045 14.7876 177.003 14.6802 177.003 14.5532ZM185.668 15.7764L186.415 15.8862C186.684 15.8862 186.913 15.7495 187.104 15.4761C187.294 15.2075 187.389 14.7729 187.389 14.1724V7.60254C187.389 7.4707 187.431 7.36328 187.514 7.28027C187.602 7.19727 187.711 7.15576 187.843 7.15576H189.477C189.608 7.15576 189.716 7.19971 189.799 7.2876C189.882 7.37061 189.923 7.47559 189.923 7.60254V14.1724C189.923 16.4722 188.979 17.6221 187.089 17.6221C186.42 17.6221 185.871 17.5732 185.441 17.4756C185.143 17.4072 184.994 17.2559 184.994 17.0215V16.2305C184.994 16.0986 185.036 15.9888 185.119 15.9009C185.202 15.8179 185.309 15.7764 185.441 15.7764H185.668ZM187.36 5.44189V5.19287C187.36 4.93408 187.436 4.729 187.587 4.57764C187.738 4.42627 187.943 4.35059 188.202 4.35059H189.118C189.376 4.35059 189.582 4.42627 189.733 4.57764C189.884 4.72412 189.96 4.9292 189.96 5.19287V5.44189C189.96 5.70068 189.884 5.90576 189.733 6.05713C189.582 6.2085 189.376 6.28418 189.118 6.28418H188.202C187.943 6.28418 187.738 6.2085 187.587 6.05713C187.436 5.90576 187.36 5.70068 187.36 5.44189ZM192.428 14.0771C191.676 13.3643 191.3 12.3389 191.3 11.001C191.3 9.6582 191.679 8.62793 192.436 7.91016C193.192 7.1875 194.242 6.82617 195.585 6.82617C196.928 6.82617 197.975 7.17773 198.727 7.88086C199.479 8.5791 199.855 9.58252 199.855 10.8911V11.3086C199.855 11.4404 199.811 11.5503 199.723 11.6382C199.64 11.7212 199.533 11.7627 199.401 11.7627H193.886C193.935 12.3633 194.105 12.8003 194.398 13.0737C194.696 13.3472 195.17 13.4839 195.819 13.4839C196.469 13.4839 196.913 13.3374 197.152 13.0444C197.392 12.7515 197.687 12.6025 198.039 12.5977H199.13C199.262 12.5977 199.369 12.6416 199.452 12.7295C199.54 12.8125 199.584 12.9199 199.584 13.0518C199.584 14.4531 198.249 15.1514 195.578 15.1465C194.23 15.1465 193.18 14.79 192.428 14.0771ZM193.871 10.2173H197.277C197.228 9.06494 196.662 8.48877 195.578 8.48877C194.499 8.48877 193.93 9.06494 193.871 10.2173ZM205.084 15.1465C203.717 15.1465 202.653 14.7949 201.891 14.0918C201.129 13.3887 200.749 12.356 200.749 10.9937C200.749 9.62646 201.127 8.59131 201.884 7.88818C202.641 7.18018 203.693 6.82617 205.041 6.82617C206.393 6.82617 207.431 7.04102 208.153 7.4707C208.881 7.90039 209.245 8.53516 209.245 9.375C209.245 9.50684 209.201 9.61426 209.113 9.69727C209.03 9.78027 208.922 9.82178 208.791 9.82178H207.699C207.367 9.82178 207.086 9.64355 206.857 9.28711C206.569 8.82812 206.059 8.59863 205.326 8.59863C204.599 8.59863 204.088 8.78662 203.795 9.1626C203.507 9.53369 203.363 10.1416 203.363 10.9863C203.363 11.8311 203.512 12.4414 203.81 12.8174C204.113 13.1934 204.635 13.3813 205.377 13.3813C206.125 13.3813 206.642 13.1519 206.93 12.6929C207.16 12.3315 207.44 12.1509 207.772 12.1509H208.864C208.996 12.1509 209.103 12.1948 209.186 12.2827C209.274 12.3657 209.318 12.4707 209.318 12.5977C209.318 13.4375 208.954 14.0723 208.227 14.502C207.504 14.9316 206.457 15.1465 205.084 15.1465ZM214.342 13.4106L215.346 13.3228H215.617C215.749 13.3228 215.856 13.3643 215.939 13.4473C216.027 13.5303 216.071 13.6377 216.071 13.7695V14.5532C216.071 14.6606 216.027 14.7583 215.939 14.8462C215.856 14.9292 215.749 14.9805 215.617 15C215.119 15.0977 214.469 15.1465 213.668 15.1465C211.569 15.1465 210.519 14.0479 210.519 11.8506V4.95117C210.519 4.81934 210.561 4.71191 210.644 4.62891C210.731 4.54102 210.839 4.49707 210.966 4.49707H212.606C212.733 4.49707 212.838 4.54102 212.921 4.62891C213.009 4.71191 213.053 4.81934 213.053 4.95117V7.39746H215.097C215.224 7.39746 215.329 7.43896 215.412 7.52197C215.5 7.60498 215.543 7.7124 215.543 7.84424V8.71582C215.543 8.84766 215.5 8.95508 215.412 9.03809C215.329 9.12109 215.224 9.1626 215.097 9.1626H213.053V11.8506C213.053 12.3486 213.17 12.7344 213.405 13.0078C213.639 13.2764 213.952 13.4106 214.342 13.4106ZM217.272 5.44189V5.19287C217.272 4.93408 217.345 4.729 217.492 4.57764C217.643 4.42627 217.851 4.35059 218.114 4.35059H219.022C219.281 4.35059 219.486 4.42627 219.638 4.57764C219.789 4.72412 219.865 4.9292 219.865 5.19287V5.44189C219.865 5.70068 219.789 5.90576 219.638 6.05713C219.491 6.2085 219.286 6.28418 219.022 6.28418H218.114C217.855 6.28418 217.65 6.2085 217.499 6.05713C217.348 5.90576 217.272 5.70068 217.272 5.44189ZM217.301 14.5532V7.60254C217.301 7.4707 217.343 7.36328 217.426 7.28027C217.514 7.19727 217.621 7.15576 217.748 7.15576H219.389C219.521 7.15576 219.628 7.19971 219.711 7.2876C219.794 7.37061 219.835 7.47559 219.835 7.60254V14.5532C219.835 14.6851 219.792 14.7925 219.704 14.8755C219.621 14.9585 219.516 15 219.389 15H217.748C217.616 15 217.509 14.9585 217.426 14.8755C217.343 14.7925 217.301 14.6851 217.301 14.5532ZM222.355 14.0918C221.593 13.3887 221.212 12.3535 221.212 10.9863C221.212 9.61426 221.593 8.5791 222.355 7.88086C223.117 7.17773 224.21 6.82617 225.636 6.82617C227.067 6.82617 228.163 7.17773 228.925 7.88086C229.687 8.5791 230.067 9.61426 230.067 10.9863C230.067 12.3535 229.687 13.3887 228.925 14.0918C228.163 14.7949 227.067 15.1465 225.636 15.1465C224.21 15.1465 223.117 14.7949 222.355 14.0918ZM224.208 9.08203C223.905 9.47754 223.754 10.1099 223.754 10.979C223.754 11.8481 223.905 12.4829 224.208 12.8833C224.511 13.2837 224.987 13.4839 225.636 13.4839C226.291 13.4839 226.769 13.2837 227.072 12.8833C227.379 12.4829 227.533 11.8481 227.533 10.979C227.533 10.1099 227.379 9.47754 227.072 9.08203C226.769 8.68652 226.291 8.48877 225.636 8.48877C224.987 8.48877 224.511 8.68652 224.208 9.08203ZM231.422 14.5532V7.42676C231.422 7.29492 231.464 7.1875 231.547 7.10449C231.635 7.0166 231.742 6.97266 231.869 6.97266H233.51C233.637 6.97266 233.742 7.0166 233.825 7.10449C233.913 7.1875 233.957 7.29492 233.957 7.42676V7.88818C234.796 7.18018 235.69 6.82617 236.637 6.82617C237.589 6.82617 238.363 7.1167 238.959 7.69775C239.555 8.27393 239.853 9.15771 239.853 10.3491V14.5532C239.853 14.6802 239.809 14.7876 239.721 14.8755C239.638 14.9585 239.53 15 239.398 15H237.765C237.638 15 237.531 14.9585 237.443 14.8755C237.36 14.7876 237.318 14.6802 237.318 14.5532V10.3491C237.318 9.18213 236.852 8.59863 235.919 8.59863C235.309 8.59863 234.655 8.94775 233.957 9.646V14.5532C233.957 14.6802 233.913 14.7876 233.825 14.8755C233.742 14.9585 233.637 15 233.51 15H231.869C231.742 15 231.635 14.9585 231.547 14.8755C231.464 14.7876 231.422 14.6802 231.422 14.5532Z" fill="#5762B8"/>
<circle cx="86" cy="115" r="84.5" stroke="#5762B8" stroke-width="3"/>
<circle cx="202.553" cy="115" r="84.5" stroke="#5762B8" stroke-width="3"/>
</svg>
