<svg width="185" height="145" viewBox="0 0 185 145" fill="none" xmlns="http://www.w3.org/2000/svg">
<g clip-path="url(#clip0_249_547)">
<path d="M33.0994 87.8454L35.1654 90.626L39.7571 87.592L37.9783 84.6219L33.0994 87.8454Z" fill="#F9897A"/>
<path d="M29.9998 83.6745L32.0658 86.455L37.0883 83.1366L35.309 80.166L29.9998 83.6745Z" fill="#F9897A"/>
<path d="M40.6465 89.0774L36.199 92.0163L38.265 94.7969L42.4258 92.0475L40.6465 89.0774Z" fill="#F9897A"/>
<path d="M80.5961 40.078L65.698 48.6422L67.8716 52.3787L82.7698 43.8145L80.5961 40.078Z" fill="#F9897A"/>
<path d="M65.7042 140.057L66.7905 140.682L67.8773 140.057L68.8168 139.517L82.7542 131.506L78.5673 128.927L66.79 135.697L46.1667 123.842V100.128L64.1129 89.8125L60.8279 116.732L89.6908 134.51L106.924 122.495L104.637 118.826L91.7558 125.785V100.132L110.453 89.4574L110.834 105.5L117.326 104.99L114.706 85.6608V58.3274L113.616 57.7054L91.7563 45.225V19.0327L90.6815 18.4071L89.9843 18.0022L68.5729 5.55027L67.8872 5.15156L66.7905 4.51404L65.6943 5.15156L43.9926 17.7722L31.1232 10.3384L28.9417 14.0701L41.8252 21.5121V45.8225L41.6873 46.0292L41.5871 46.1782L30.4275 62.8679L34.0431 65.257L44.6746 49.3574L64.619 60.8214V84.5353L44.7618 95.9494L43.3141 93.5322L39.297 96.1871L41.363 98.9677L41.8247 98.6625V119.286L26.6699 127.939L28.8321 131.681L41.8247 124.263V126.331L42.9089 126.954L43.6197 127.363L30.6234 134.783L32.7855 138.525L47.9638 129.86L65.7026 140.056L65.7042 140.057ZM46.1677 21.5075L66.791 9.51348L87.4148 21.5075V45.2291L66.791 57.084L46.1677 45.2291V21.5075ZM110.364 84.5311L92.0033 95.0133L92.8415 81.898H86.329L87.1662 94.9993L68.9615 84.5358V60.8214L89.5884 48.965L110.364 60.8255V84.5311H110.364ZM87.4148 123.842L87.0957 124.025L87.4148 124.222V125.491L67.6512 113.318L68.7897 89.4221L87.4148 100.128V123.842Z" fill="#F9897A"/>
<path d="M54.0751 24.8087H49.7336V41.9356H54.0751V24.8087Z" fill="#F9897A"/>
<path d="M67.8354 14.2457L65.6431 17.9707L80.5411 26.6351L82.7335 22.9101L67.8354 14.2457Z" fill="#F9897A"/>
<path d="M162.399 111.164L161.43 110.676L160.311 110.112L159.26 110.796L158.352 111.387L138.291 124.448L125.049 117.779L123.087 121.629L136.481 128.374L137.449 128.862L138.569 129.425L139.619 128.742L140.528 128.151H140.528L160.588 115.091L183.038 126.395L185 122.545L162.399 111.164Z" fill="#F9897A"/>
<path d="M161.922 119.747L159.96 123.597L179.449 133.408L181.411 129.558L161.922 119.747Z" fill="#F9897A"/>
<path d="M26.4912 65.6651C24.6597 65.6651 22.9294 66.272 21.7084 67.317C20.1819 68.5983 19.2664 70.5202 19.2664 72.4421C19.2664 76.4884 22.3189 79.4891 26.4233 79.4891C28.3228 79.4891 29.9511 78.9497 31.2401 77.8371C32.8006 76.5559 33.6821 74.634 33.6821 72.5771C33.6821 70.7902 33.0377 69.1039 31.8166 67.8564C30.4259 66.4064 28.6622 65.6646 26.4912 65.6646V65.6651ZM26.4912 76.2189C24.422 76.2189 22.7942 74.6002 22.7942 72.5438C22.7942 70.4875 24.456 68.9357 26.4912 68.9357C28.5264 68.9357 30.1543 70.5545 30.1543 72.5771C30.1543 74.5997 28.492 76.2184 26.4912 76.2184V76.2189Z" fill="#F9897A"/>
<path d="M20.9961 13.8245C22.8955 13.8245 24.5239 13.2851 25.8128 12.1726C27.3733 10.8913 28.2549 8.96941 28.2549 6.91252C28.2549 5.1256 27.6104 3.43939 26.3894 2.19186C24.9986 0.74187 23.235 0 21.064 0C19.2324 0 17.5022 0.60689 16.2812 1.65246C14.7546 2.93373 13.8391 4.85564 13.8391 6.77754C13.8391 10.8238 16.8917 13.8245 20.9961 13.8245ZM21.064 3.27066C23.0652 3.27066 24.7271 4.88938 24.7271 6.91252C24.7271 8.93566 23.0652 10.5539 21.064 10.5539C19.0627 10.5539 17.3669 8.93515 17.3669 6.87878C17.3669 4.82241 19.0287 3.27066 21.064 3.27066Z" fill="#F9897A"/>
<path d="M8.3101 5.39504H3.39204V0.404419H0V13.3526H3.39204V8.02507H8.3101V13.3526H11.6682V0.404419H8.3101V5.39504Z" fill="#F9897A"/>
<path d="M21.064 131.175C19.2324 131.175 17.5022 131.782 16.2812 132.828C14.7546 134.109 13.8391 136.031 13.8391 137.953C13.8391 141.999 16.8917 145 20.9961 145C22.8955 145 24.5239 144.461 25.8128 143.348C27.3733 142.067 28.2549 140.145 28.2549 138.088C28.2549 136.301 27.6104 134.615 26.3894 133.367C24.9986 131.917 23.235 131.175 21.064 131.175ZM21.064 141.729C18.9948 141.729 17.3669 140.111 17.3669 138.054C17.3669 135.998 19.0287 134.446 21.064 134.446C23.0992 134.446 24.7271 136.065 24.7271 138.088C24.7271 140.111 23.0652 141.729 21.064 141.729Z" fill="#F9897A"/>
<path d="M84.8197 67.3175C83.2932 68.5988 82.3777 70.5207 82.3777 72.4426C82.3777 76.4889 85.4303 79.4896 89.5347 79.4896C91.4341 79.4896 93.0625 78.9502 94.3514 77.8376C95.9119 76.5564 96.7935 74.6344 96.7935 72.5776C96.7935 70.7906 96.149 69.1044 94.928 67.8569C93.5372 66.4069 91.7735 65.665 89.6025 65.665C87.771 65.665 86.0408 66.2719 84.8197 67.317V67.3175ZM93.2656 72.5776C93.2656 74.6007 91.6033 76.2189 89.6025 76.2189C87.6018 76.2189 85.9055 74.6002 85.9055 72.5438C85.9055 70.4875 87.5673 68.9357 89.6025 68.9357C91.6378 68.9357 93.2656 70.5544 93.2656 72.577V72.5776Z" fill="#F9897A"/>
<path d="M101.136 73.6902H106.054V79.0177H109.413V66.0701H106.054V71.0602H101.136V66.0701H97.7444V79.0177H101.136V73.6902Z" fill="#F9897A"/>
<path d="M117.998 116.18L111.757 108.256H108.365V121.204H111.757V113.28L117.998 121.204H121.356V108.256H117.998V116.18Z" fill="#F9897A"/>
</g>
<defs>
<clipPath id="clip0_249_547">
<rect width="185" height="145" fill="white"/>
</clipPath>
</defs>
</svg>
