<svg width="304" height="224" viewBox="0 0 304 224" fill="none" xmlns="http://www.w3.org/2000/svg">
<path d="M20.5556 85L20.4916 83.512V73.8H21.7716V85H20.5556ZM17.7876 85.192C17.073 85.192 16.4436 85.016 15.8996 84.664C15.3556 84.312 14.929 83.8213 14.6196 83.192C14.321 82.552 14.1716 81.8213 14.1716 81C14.1716 80.168 14.321 79.4373 14.6196 78.808C14.929 78.1787 15.3556 77.688 15.8996 77.336C16.4436 76.984 17.073 76.808 17.7876 76.808C18.4596 76.808 19.0463 76.984 19.5476 77.336C20.0596 77.688 20.4543 78.1787 20.7316 78.808C21.009 79.4373 21.1476 80.168 21.1476 81C21.1476 81.8213 21.009 82.552 20.7316 83.192C20.4543 83.8213 20.0596 84.312 19.5476 84.664C19.0463 85.016 18.4596 85.192 17.7876 85.192ZM18.0756 84.024C18.545 84.024 18.961 83.896 19.3236 83.64C19.6863 83.384 19.969 83.0267 20.1716 82.568C20.385 82.1093 20.4916 81.5867 20.4916 81C20.4916 80.4133 20.385 79.8907 20.1716 79.432C19.969 78.9733 19.6863 78.616 19.3236 78.36C18.961 78.104 18.5396 77.976 18.0596 77.976C17.5583 77.976 17.1103 78.104 16.7156 78.36C16.3316 78.616 16.0276 78.9733 15.8036 79.432C15.5796 79.8907 15.4676 80.4133 15.4676 81C15.4676 81.5867 15.5796 82.1093 15.8036 82.568C16.0276 83.0267 16.337 83.384 16.7316 83.64C17.1263 83.896 17.5743 84.024 18.0756 84.024ZM24.0906 85L24.1226 77H25.4026L25.3706 85H24.0906ZM24.7466 75.144C24.5333 75.144 24.3466 75.064 24.1866 74.904C24.0266 74.744 23.9466 74.5573 23.9466 74.344C23.9466 74.12 24.0266 73.9333 24.1866 73.784C24.3466 73.624 24.5333 73.544 24.7466 73.544C24.9706 73.544 25.1573 73.624 25.3066 73.784C25.4666 73.9333 25.5466 74.12 25.5466 74.344C25.5466 74.5573 25.4666 74.744 25.3066 74.904C25.1573 75.064 24.9706 75.144 24.7466 75.144ZM28.5294 85V76.088C28.5294 75.256 28.7214 74.632 29.1054 74.216C29.5 73.7893 30.0974 73.576 30.8974 73.576C31.1107 73.576 31.3507 73.6133 31.6174 73.688C31.884 73.7627 32.1667 73.8693 32.4654 74.008L31.9854 75.016C31.74 74.92 31.532 74.8453 31.3614 74.792C31.1907 74.7387 31.0467 74.712 30.9294 74.712C30.556 74.712 30.2734 74.8347 30.0814 75.08C29.9 75.3147 29.8094 75.6827 29.8094 76.184V85H28.5294ZM27.0574 78.104V77H32.1294V78.104H27.0574ZM34.4356 85V76.088C34.4356 75.256 34.6276 74.632 35.0116 74.216C35.4063 73.7893 36.0036 73.576 36.8036 73.576C37.017 73.576 37.257 73.6133 37.5236 73.688C37.7903 73.7627 38.073 73.8693 38.3716 74.008L37.8916 75.016C37.6463 74.92 37.4383 74.8453 37.2676 74.792C37.097 74.7387 36.953 74.712 36.8356 74.712C36.4623 74.712 36.1796 74.8347 35.9876 75.08C35.8063 75.3147 35.7156 75.6827 35.7156 76.184V85H34.4356ZM32.9636 78.104V77H38.0356V78.104H32.9636ZM39.6219 85L39.6539 77H40.9339L40.9019 85H39.6219ZM40.2779 75.144C40.0645 75.144 39.8779 75.064 39.7179 74.904C39.5579 74.744 39.4779 74.5573 39.4779 74.344C39.4779 74.12 39.5579 73.9333 39.7179 73.784C39.8779 73.624 40.0645 73.544 40.2779 73.544C40.5019 73.544 40.6885 73.624 40.8379 73.784C40.9979 73.9333 41.0779 74.12 41.0779 74.344C41.0779 74.5573 40.9979 74.744 40.8379 74.904C40.6885 75.064 40.5019 75.144 40.2779 75.144ZM46.8286 85.192C46.0393 85.192 45.3406 85.016 44.7326 84.664C44.1246 84.3013 43.65 83.8053 43.3086 83.176C42.9673 82.5467 42.7966 81.8213 42.7966 81C42.7966 80.1787 42.962 79.4533 43.2926 78.824C43.634 78.1947 44.1086 77.704 44.7166 77.352C45.3246 76.9893 46.018 76.808 46.7966 76.808C47.5646 76.808 48.2526 76.984 48.8606 77.336C49.4686 77.688 49.9326 78.184 50.2526 78.824L49.0846 79.352C48.8713 78.9253 48.562 78.5947 48.1566 78.36C47.7513 78.1147 47.2873 77.992 46.7646 77.992C46.242 77.992 45.778 78.12 45.3726 78.376C44.978 78.632 44.6633 78.9893 44.4286 79.448C44.2046 79.896 44.0926 80.4133 44.0926 81C44.0926 81.5867 44.2046 82.1093 44.4286 82.568C44.6633 83.016 44.9833 83.368 45.3886 83.624C45.8046 83.88 46.274 84.008 46.7966 84.008C47.3193 84.008 47.7833 83.8747 48.1886 83.608C48.6046 83.3413 48.9193 82.968 49.1326 82.488L50.3006 83.016C49.9806 83.6987 49.5166 84.232 48.9086 84.616C48.3006 85 47.6073 85.192 46.8286 85.192ZM57.4049 85L57.3249 83.528V77H58.6049V85H57.4049ZM51.7089 81.576V77H52.9889V81.096L51.7089 81.576ZM52.9889 81.096C52.9889 81.8853 53.0795 82.488 53.2609 82.904C53.4422 83.32 53.6929 83.608 54.0129 83.768C54.3435 83.9173 54.7115 83.992 55.1169 83.992C55.8102 83.992 56.3489 83.7413 56.7329 83.24C57.1275 82.7387 57.3249 82.04 57.3249 81.144H57.9489C57.9489 81.9867 57.8262 82.712 57.5809 83.32C57.3355 83.928 56.9782 84.392 56.5089 84.712C56.0502 85.032 55.4902 85.192 54.8289 85.192C53.8582 85.192 53.0902 84.8933 52.5249 84.296C51.9702 83.6987 51.6982 82.792 51.7089 81.576L52.9889 81.096ZM60.8388 85L60.8708 73.8H62.1508L62.1188 85H60.8388ZM67.5536 85.192C66.775 85.192 66.1723 84.9893 65.7456 84.584C65.319 84.1787 65.1056 83.608 65.1056 82.872V74.504H66.3856V82.744C66.3856 83.1493 66.4923 83.464 66.7056 83.688C66.9296 83.9013 67.239 84.008 67.6336 84.008C67.7616 84.008 67.8843 83.992 68.0016 83.96C68.1296 83.9173 68.295 83.8213 68.4976 83.672L68.9936 84.712C68.7163 84.8933 68.4656 85.016 68.2416 85.08C68.0176 85.1547 67.7883 85.192 67.5536 85.192ZM63.7136 78.136V77H68.7856V78.136H63.7136ZM71.2619 88.392C71.0592 88.392 70.8245 88.3493 70.5579 88.264C70.2912 88.1893 70.0085 88.088 69.7099 87.96L70.1899 86.888C70.4352 86.9947 70.6485 87.0747 70.8299 87.128C71.0219 87.1813 71.1712 87.208 71.2779 87.208C71.5659 87.208 71.8005 87.128 71.9819 86.968C72.1739 86.8187 72.3339 86.6 72.4619 86.312L73.3739 84.136L76.3339 77H77.7099L73.8699 86.12C73.6672 86.5893 73.4539 86.9947 73.2299 87.336C73.0165 87.6773 72.7552 87.9387 72.4459 88.12C72.1365 88.3013 71.7419 88.392 71.2619 88.392ZM73.0219 85L69.5659 77H70.9259L73.9019 84.12L74.2859 85H73.0219ZM90.1809 85L92.8849 77H94.1809L91.4609 85H90.1809ZM84.7409 85L87.4449 77H88.6449L85.9729 85H84.7409ZM84.6769 85L81.9569 77H83.2529L85.9249 85H84.6769ZM90.1809 85L87.5089 77H88.7249L91.3969 85H90.1809ZM100.284 85L100.156 80.776C100.135 80.1467 100.055 79.6293 99.9163 79.224C99.7776 78.808 99.5643 78.4987 99.2763 78.296C98.9883 78.0827 98.6043 77.976 98.1243 77.976C97.6656 77.976 97.2656 78.0667 96.9243 78.248C96.5936 78.4293 96.3216 78.712 96.1083 79.096L94.9723 78.632C95.1749 78.2587 95.4256 77.9387 95.7243 77.672C96.0229 77.3947 96.3749 77.1813 96.7803 77.032C97.1856 76.8827 97.6389 76.808 98.1403 76.808C98.8763 76.808 99.4896 76.952 99.9803 77.24C100.471 77.528 100.834 77.96 101.068 78.536C101.314 79.1013 101.436 79.8107 101.436 80.664V85H100.284ZM97.8523 85.192C96.9029 85.192 96.1616 84.9787 95.6283 84.552C95.1056 84.1147 94.8443 83.512 94.8443 82.744C94.8443 81.9333 95.1109 81.3147 95.6443 80.888C96.1883 80.4507 96.9456 80.232 97.9163 80.232H100.732V81.304H98.2043C97.4576 81.304 96.9243 81.4267 96.6043 81.672C96.2949 81.9173 96.1403 82.2693 96.1403 82.728C96.1403 83.144 96.2949 83.4747 96.6043 83.72C96.9136 83.9547 97.3456 84.072 97.9003 84.072C98.3696 84.072 98.7749 83.9653 99.1163 83.752C99.4576 83.5387 99.7189 83.2507 99.9003 82.888C100.082 82.5147 100.172 82.0933 100.172 81.624H100.956C100.956 82.712 100.69 83.5813 100.156 84.232C99.6229 84.872 98.8549 85.192 97.8523 85.192ZM103.464 85L103.496 73.8H104.776L104.744 85H103.464ZM108.259 82.424L107.443 81.544L111.699 77H113.315L108.259 82.424ZM107.011 85V73.8H108.291V85H107.011ZM112.051 85L109.011 80.408L109.843 79.512L113.635 85H112.051ZM114.856 85L114.888 77H116.168L116.136 85H114.856ZM115.512 75.144C115.299 75.144 115.112 75.064 114.952 74.904C114.792 74.744 114.712 74.5573 114.712 74.344C114.712 74.12 114.792 73.9333 114.952 73.784C115.112 73.624 115.299 73.544 115.512 73.544C115.736 73.544 115.923 73.624 116.072 73.784C116.232 73.9333 116.312 74.12 116.312 74.344C116.312 74.5573 116.232 74.744 116.072 74.904C115.923 75.064 115.736 75.144 115.512 75.144ZM118.495 85V77H119.695L119.775 78.472V85H118.495ZM124.111 85V80.904L125.391 80.424V85H124.111ZM124.111 80.904C124.111 80.1147 124.02 79.512 123.839 79.096C123.658 78.68 123.407 78.3973 123.087 78.248C122.767 78.088 122.404 78.008 121.999 78.008C121.295 78.008 120.746 78.2587 120.351 78.76C119.967 79.2507 119.775 79.9493 119.775 80.856H119.151C119.151 80.0133 119.274 79.288 119.519 78.68C119.764 78.072 120.116 77.608 120.575 77.288C121.044 76.968 121.61 76.808 122.271 76.808C123.242 76.808 124.004 77.1067 124.559 77.704C125.124 78.3013 125.402 79.208 125.391 80.424L124.111 80.904ZM130.617 88.392C130.105 88.392 129.636 88.3387 129.209 88.232C128.793 88.136 128.436 88.024 128.137 87.896C127.849 87.7787 127.641 87.6773 127.513 87.592L127.993 86.552C128.132 86.6267 128.329 86.7173 128.585 86.824C128.841 86.9413 129.14 87.0373 129.481 87.112C129.833 87.1973 130.206 87.24 130.601 87.24C131.113 87.24 131.572 87.1333 131.977 86.92C132.393 86.7173 132.713 86.392 132.937 85.944C133.172 85.5067 133.289 84.9413 133.289 84.248V77H134.569V84.232C134.569 85.1493 134.398 85.9173 134.057 86.536C133.716 87.1547 133.246 87.6187 132.649 87.928C132.052 88.2373 131.374 88.392 130.617 88.392ZM130.569 84.936C129.854 84.936 129.225 84.7653 128.681 84.424C128.137 84.0827 127.71 83.608 127.401 83C127.102 82.3813 126.953 81.6773 126.953 80.888C126.953 80.0773 127.102 79.368 127.401 78.76C127.71 78.1413 128.137 77.6613 128.681 77.32C129.225 76.9787 129.854 76.808 130.569 76.808C131.241 76.808 131.828 76.9787 132.329 77.32C132.83 77.6613 133.22 78.1413 133.497 78.76C133.785 79.368 133.929 80.0773 133.929 80.888C133.929 81.688 133.785 82.392 133.497 83C133.22 83.608 132.83 84.0827 132.329 84.424C131.828 84.7653 131.241 84.936 130.569 84.936ZM130.873 83.832C131.342 83.832 131.758 83.704 132.121 83.448C132.484 83.192 132.766 82.8453 132.969 82.408C133.172 81.96 133.273 81.4427 133.273 80.856C133.273 80.2907 133.166 79.7893 132.953 79.352C132.75 78.904 132.468 78.5573 132.105 78.312C131.753 78.056 131.337 77.928 130.857 77.928C130.356 77.928 129.908 78.056 129.513 78.312C129.129 78.5573 128.825 78.904 128.601 79.352C128.388 79.7893 128.281 80.2907 128.281 80.856C128.281 81.4427 128.393 81.96 128.617 82.408C128.841 82.8453 129.145 83.192 129.529 83.448C129.924 83.704 130.372 83.832 130.873 83.832Z" fill="#5762B8"/>
<path d="M24.3759 197L24.3119 195.512V185.8H25.5919V197H24.3759ZM21.6079 197.192C20.8933 197.192 20.2639 197.016 19.7199 196.664C19.1759 196.312 18.7493 195.821 18.4399 195.192C18.1413 194.552 17.9919 193.821 17.9919 193C17.9919 192.168 18.1413 191.437 18.4399 190.808C18.7493 190.179 19.1759 189.688 19.7199 189.336C20.2639 188.984 20.8933 188.808 21.6079 188.808C22.2799 188.808 22.8666 188.984 23.3679 189.336C23.8799 189.688 24.2746 190.179 24.5519 190.808C24.8293 191.437 24.9679 192.168 24.9679 193C24.9679 193.821 24.8293 194.552 24.5519 195.192C24.2746 195.821 23.8799 196.312 23.3679 196.664C22.8666 197.016 22.2799 197.192 21.6079 197.192ZM21.8959 196.024C22.3653 196.024 22.7813 195.896 23.1439 195.64C23.5066 195.384 23.7893 195.027 23.9919 194.568C24.2053 194.109 24.3119 193.587 24.3119 193C24.3119 192.413 24.2053 191.891 23.9919 191.432C23.7893 190.973 23.5066 190.616 23.1439 190.36C22.7813 190.104 22.3599 189.976 21.8799 189.976C21.3786 189.976 20.9306 190.104 20.5359 190.36C20.1519 190.616 19.8479 190.973 19.6239 191.432C19.3999 191.891 19.2879 192.413 19.2879 193C19.2879 193.587 19.3999 194.109 19.6239 194.568C19.8479 195.027 20.1573 195.384 20.5519 195.64C20.9466 195.896 21.3946 196.024 21.8959 196.024ZM27.9109 197L27.9429 189H29.2229L29.1909 197H27.9109ZM28.5669 187.144C28.3536 187.144 28.1669 187.064 28.0069 186.904C27.8469 186.744 27.7669 186.557 27.7669 186.344C27.7669 186.12 27.8469 185.933 28.0069 185.784C28.1669 185.624 28.3536 185.544 28.5669 185.544C28.7909 185.544 28.9776 185.624 29.1269 185.784C29.2869 185.933 29.3669 186.12 29.3669 186.344C29.3669 186.557 29.2869 186.744 29.1269 186.904C28.9776 187.064 28.7909 187.144 28.5669 187.144ZM32.3497 197V188.088C32.3497 187.256 32.5417 186.632 32.9257 186.216C33.3204 185.789 33.9177 185.576 34.7177 185.576C34.931 185.576 35.171 185.613 35.4377 185.688C35.7044 185.763 35.987 185.869 36.2857 186.008L35.8057 187.016C35.5604 186.92 35.3524 186.845 35.1817 186.792C35.011 186.739 34.867 186.712 34.7497 186.712C34.3764 186.712 34.0937 186.835 33.9017 187.08C33.7204 187.315 33.6297 187.683 33.6297 188.184V197H32.3497ZM30.8777 190.104V189H35.9497V190.104H30.8777ZM38.2559 197V188.088C38.2559 187.256 38.4479 186.632 38.8319 186.216C39.2266 185.789 39.8239 185.576 40.6239 185.576C40.8373 185.576 41.0773 185.613 41.3439 185.688C41.6106 185.763 41.8933 185.869 42.1919 186.008L41.7119 187.016C41.4666 186.92 41.2586 186.845 41.0879 186.792C40.9173 186.739 40.7733 186.712 40.6559 186.712C40.2826 186.712 39.9999 186.835 39.8079 187.08C39.6266 187.315 39.5359 187.683 39.5359 188.184V197H38.2559ZM36.7839 190.104V189H41.8559V190.104H36.7839ZM43.4422 197L43.4742 189H44.7542L44.7222 197H43.4422ZM44.0982 187.144C43.8849 187.144 43.6982 187.064 43.5382 186.904C43.3782 186.744 43.2982 186.557 43.2982 186.344C43.2982 186.12 43.3782 185.933 43.5382 185.784C43.6982 185.624 43.8849 185.544 44.0982 185.544C44.3222 185.544 44.5089 185.624 44.6582 185.784C44.8182 185.933 44.8982 186.12 44.8982 186.344C44.8982 186.557 44.8182 186.744 44.6582 186.904C44.5089 187.064 44.3222 187.144 44.0982 187.144ZM50.6489 197.192C49.8596 197.192 49.1609 197.016 48.5529 196.664C47.9449 196.301 47.4703 195.805 47.1289 195.176C46.7876 194.547 46.6169 193.821 46.6169 193C46.6169 192.179 46.7823 191.453 47.1129 190.824C47.4543 190.195 47.9289 189.704 48.5369 189.352C49.1449 188.989 49.8383 188.808 50.6169 188.808C51.3849 188.808 52.0729 188.984 52.6809 189.336C53.2889 189.688 53.7529 190.184 54.0729 190.824L52.9049 191.352C52.6916 190.925 52.3823 190.595 51.9769 190.36C51.5716 190.115 51.1076 189.992 50.5849 189.992C50.0623 189.992 49.5983 190.12 49.1929 190.376C48.7983 190.632 48.4836 190.989 48.2489 191.448C48.0249 191.896 47.9129 192.413 47.9129 193C47.9129 193.587 48.0249 194.109 48.2489 194.568C48.4836 195.016 48.8036 195.368 49.2089 195.624C49.6249 195.88 50.0943 196.008 50.6169 196.008C51.1396 196.008 51.6036 195.875 52.0089 195.608C52.4249 195.341 52.7396 194.968 52.9529 194.488L54.1209 195.016C53.8009 195.699 53.3369 196.232 52.7289 196.616C52.1209 197 51.4276 197.192 50.6489 197.192ZM61.2252 197L61.1452 195.528V189H62.4252V197H61.2252ZM55.5292 193.576V189H56.8092V193.096L55.5292 193.576ZM56.8092 193.096C56.8092 193.885 56.8999 194.488 57.0812 194.904C57.2625 195.32 57.5132 195.608 57.8332 195.768C58.1639 195.917 58.5319 195.992 58.9372 195.992C59.6305 195.992 60.1692 195.741 60.5532 195.24C60.9479 194.739 61.1452 194.04 61.1452 193.144H61.7692C61.7692 193.987 61.6465 194.712 61.4012 195.32C61.1559 195.928 60.7985 196.392 60.3292 196.712C59.8705 197.032 59.3105 197.192 58.6492 197.192C57.6785 197.192 56.9105 196.893 56.3452 196.296C55.7905 195.699 55.5185 194.792 55.5292 193.576L56.8092 193.096ZM64.6591 197L64.6911 185.8H65.9711L65.9391 197H64.6591ZM71.3739 197.192C70.5953 197.192 69.9926 196.989 69.5659 196.584C69.1393 196.179 68.9259 195.608 68.9259 194.872V186.504H70.2059V194.744C70.2059 195.149 70.3126 195.464 70.5259 195.688C70.7499 195.901 71.0593 196.008 71.4539 196.008C71.5819 196.008 71.7046 195.992 71.8219 195.96C71.9499 195.917 72.1153 195.821 72.3179 195.672L72.8139 196.712C72.5366 196.893 72.2859 197.016 72.0619 197.08C71.8379 197.155 71.6086 197.192 71.3739 197.192ZM67.5339 190.136V189H72.6059V190.136H67.5339ZM75.0822 200.392C74.8795 200.392 74.6449 200.349 74.3782 200.264C74.1115 200.189 73.8289 200.088 73.5302 199.96L74.0102 198.888C74.2555 198.995 74.4689 199.075 74.6502 199.128C74.8422 199.181 74.9915 199.208 75.0982 199.208C75.3862 199.208 75.6209 199.128 75.8022 198.968C75.9942 198.819 76.1542 198.6 76.2822 198.312L77.1942 196.136L80.1542 189H81.5302L77.6902 198.12C77.4875 198.589 77.2742 198.995 77.0502 199.336C76.8369 199.677 76.5755 199.939 76.2662 200.12C75.9569 200.301 75.5622 200.392 75.0822 200.392ZM76.8422 197L73.3862 189H74.7462L77.7222 196.12L78.1062 197H76.8422ZM89.5372 197.192C88.9505 197.192 88.4385 197.107 88.0012 196.936C87.5639 196.755 87.1959 196.52 86.8972 196.232C86.6092 195.944 86.4012 195.629 86.2732 195.288L87.3932 194.824C87.5745 195.176 87.8465 195.464 88.2092 195.688C88.5719 195.912 88.9719 196.024 89.4092 196.024C89.9105 196.024 90.3265 195.928 90.6572 195.736C90.9985 195.533 91.1692 195.256 91.1692 194.904C91.1692 194.573 91.0412 194.307 90.7852 194.104C90.5399 193.901 90.1772 193.736 89.6972 193.608L88.9292 193.4C88.2039 193.208 87.6385 192.92 87.2332 192.536C86.8279 192.141 86.6252 191.699 86.6252 191.208C86.6252 190.451 86.8705 189.864 87.3612 189.448C87.8625 189.021 88.6039 188.808 89.5852 188.808C90.0545 188.808 90.4812 188.877 90.8652 189.016C91.2492 189.155 91.5799 189.352 91.8572 189.608C92.1345 189.853 92.3372 190.147 92.4652 190.488L91.3452 190.984C91.2065 190.621 90.9772 190.365 90.6572 190.216C90.3372 190.056 89.9479 189.976 89.4892 189.976C88.9985 189.976 88.6145 190.077 88.3372 190.28C88.0599 190.483 87.9212 190.771 87.9212 191.144C87.9212 191.357 88.0332 191.56 88.2572 191.752C88.4919 191.933 88.8332 192.083 89.2812 192.2L90.0812 192.408C90.6039 192.536 91.0412 192.728 91.3932 192.984C91.7452 193.229 92.0119 193.512 92.1932 193.832C92.3745 194.152 92.4652 194.493 92.4652 194.856C92.4652 195.336 92.3372 195.752 92.0812 196.104C91.8252 196.456 91.4785 196.728 91.0412 196.92C90.6039 197.101 90.1025 197.192 89.5372 197.192ZM97.3583 197.192C96.5796 197.192 95.977 196.989 95.5503 196.584C95.1236 196.179 94.9103 195.608 94.9103 194.872V186.504H96.1903V194.744C96.1903 195.149 96.297 195.464 96.5103 195.688C96.7343 195.901 97.0436 196.008 97.4383 196.008C97.5663 196.008 97.689 195.992 97.8063 195.96C97.9343 195.917 98.0996 195.821 98.3023 195.672L98.7983 196.712C98.521 196.893 98.2703 197.016 98.0463 197.08C97.8223 197.155 97.593 197.192 97.3583 197.192ZM93.5183 190.136V189H98.5903V190.136H93.5183ZM105.355 197L105.227 192.776C105.205 192.147 105.125 191.629 104.987 191.224C104.848 190.808 104.635 190.499 104.347 190.296C104.059 190.083 103.675 189.976 103.195 189.976C102.736 189.976 102.336 190.067 101.995 190.248C101.664 190.429 101.392 190.712 101.179 191.096L100.043 190.632C100.245 190.259 100.496 189.939 100.795 189.672C101.093 189.395 101.445 189.181 101.851 189.032C102.256 188.883 102.709 188.808 103.211 188.808C103.947 188.808 104.56 188.952 105.051 189.24C105.541 189.528 105.904 189.96 106.139 190.536C106.384 191.101 106.507 191.811 106.507 192.664V197H105.355ZM102.923 197.192C101.973 197.192 101.232 196.979 100.699 196.552C100.176 196.115 99.9146 195.512 99.9146 194.744C99.9146 193.933 100.181 193.315 100.715 192.888C101.259 192.451 102.016 192.232 102.987 192.232H105.803V193.304H103.275C102.528 193.304 101.995 193.427 101.675 193.672C101.365 193.917 101.211 194.269 101.211 194.728C101.211 195.144 101.365 195.475 101.675 195.72C101.984 195.955 102.416 196.072 102.971 196.072C103.44 196.072 103.845 195.965 104.187 195.752C104.528 195.539 104.789 195.251 104.971 194.888C105.152 194.515 105.243 194.093 105.243 193.624H106.027C106.027 194.712 105.76 195.581 105.227 196.232C104.693 196.872 103.925 197.192 102.923 197.192ZM109.254 200.392C109.051 200.392 108.817 200.349 108.55 200.264C108.283 200.189 108.001 200.088 107.702 199.96L108.182 198.888C108.427 198.995 108.641 199.075 108.822 199.128C109.014 199.181 109.163 199.208 109.27 199.208C109.558 199.208 109.793 199.128 109.974 198.968C110.166 198.819 110.326 198.6 110.454 198.312L111.366 196.136L114.326 189H115.702L111.862 198.12C111.659 198.589 111.446 198.995 111.222 199.336C111.009 199.677 110.747 199.939 110.438 200.12C110.129 200.301 109.734 200.392 109.254 200.392ZM111.014 197L107.558 189H108.918L111.894 196.12L112.278 197H111.014ZM117.036 197L117.068 189H118.348L118.316 197H117.036ZM117.692 187.144C117.479 187.144 117.292 187.064 117.132 186.904C116.972 186.744 116.892 186.557 116.892 186.344C116.892 186.12 116.972 185.933 117.132 185.784C117.292 185.624 117.479 185.544 117.692 185.544C117.916 185.544 118.103 185.624 118.252 185.784C118.412 185.933 118.492 186.12 118.492 186.344C118.492 186.557 118.412 186.744 118.252 186.904C118.103 187.064 117.916 187.144 117.692 187.144ZM120.675 197V189H121.875L121.955 190.472V197H120.675ZM126.291 197V192.904L127.571 192.424V197H126.291ZM126.291 192.904C126.291 192.115 126.2 191.512 126.019 191.096C125.837 190.68 125.587 190.397 125.267 190.248C124.947 190.088 124.584 190.008 124.179 190.008C123.475 190.008 122.925 190.259 122.531 190.76C122.147 191.251 121.955 191.949 121.955 192.856H121.331C121.331 192.013 121.453 191.288 121.699 190.68C121.944 190.072 122.296 189.608 122.755 189.288C123.224 188.968 123.789 188.808 124.451 188.808C125.421 188.808 126.184 189.107 126.739 189.704C127.304 190.301 127.581 191.208 127.571 192.424L126.291 192.904ZM132.797 200.392C132.285 200.392 131.815 200.339 131.389 200.232C130.973 200.136 130.615 200.024 130.317 199.896C130.029 199.779 129.821 199.677 129.693 199.592L130.173 198.552C130.311 198.627 130.509 198.717 130.765 198.824C131.021 198.941 131.319 199.037 131.661 199.112C132.013 199.197 132.386 199.24 132.781 199.24C133.293 199.24 133.751 199.133 134.157 198.92C134.573 198.717 134.893 198.392 135.117 197.944C135.351 197.507 135.469 196.941 135.469 196.248V189H136.749V196.232C136.749 197.149 136.578 197.917 136.237 198.536C135.895 199.155 135.426 199.619 134.829 199.928C134.231 200.237 133.554 200.392 132.797 200.392ZM132.749 196.936C132.034 196.936 131.405 196.765 130.861 196.424C130.317 196.083 129.89 195.608 129.581 195C129.282 194.381 129.133 193.677 129.133 192.888C129.133 192.077 129.282 191.368 129.581 190.76C129.89 190.141 130.317 189.661 130.861 189.32C131.405 188.979 132.034 188.808 132.749 188.808C133.421 188.808 134.007 188.979 134.509 189.32C135.01 189.661 135.399 190.141 135.677 190.76C135.965 191.368 136.109 192.077 136.109 192.888C136.109 193.688 135.965 194.392 135.677 195C135.399 195.608 135.01 196.083 134.509 196.424C134.007 196.765 133.421 196.936 132.749 196.936ZM133.053 195.832C133.522 195.832 133.938 195.704 134.301 195.448C134.663 195.192 134.946 194.845 135.149 194.408C135.351 193.96 135.453 193.443 135.453 192.856C135.453 192.291 135.346 191.789 135.133 191.352C134.93 190.904 134.647 190.557 134.285 190.312C133.933 190.056 133.517 189.928 133.037 189.928C132.535 189.928 132.087 190.056 131.693 190.312C131.309 190.557 131.005 190.904 130.781 191.352C130.567 191.789 130.461 192.291 130.461 192.856C130.461 193.443 130.573 193.96 130.797 194.408C131.021 194.845 131.325 195.192 131.709 195.448C132.103 195.704 132.551 195.832 133.053 195.832ZM61.0577 219L60.9297 214.776C60.9084 214.147 60.8284 213.629 60.6897 213.224C60.551 212.808 60.3377 212.499 60.0497 212.296C59.7617 212.083 59.3777 211.976 58.8977 211.976C58.439 211.976 58.039 212.067 57.6977 212.248C57.367 212.429 57.095 212.712 56.8817 213.096L55.7457 212.632C55.9484 212.259 56.199 211.939 56.4977 211.672C56.7964 211.395 57.1484 211.181 57.5537 211.032C57.959 210.883 58.4124 210.808 58.9137 210.808C59.6497 210.808 60.263 210.952 60.7537 211.24C61.2444 211.528 61.607 211.96 61.8417 212.536C62.087 213.101 62.2097 213.811 62.2097 214.664V219H61.0577ZM58.6257 219.192C57.6764 219.192 56.935 218.979 56.4017 218.552C55.879 218.115 55.6177 217.512 55.6177 216.744C55.6177 215.933 55.8844 215.315 56.4177 214.888C56.9617 214.451 57.719 214.232 58.6897 214.232H61.5057V215.304H58.9777C58.231 215.304 57.6977 215.427 57.3777 215.672C57.0684 215.917 56.9137 216.269 56.9137 216.728C56.9137 217.144 57.0684 217.475 57.3777 217.72C57.687 217.955 58.119 218.072 58.6737 218.072C59.143 218.072 59.5484 217.965 59.8897 217.752C60.231 217.539 60.4924 217.251 60.6737 216.888C60.855 216.515 60.9457 216.093 60.9457 215.624H61.7297C61.7297 216.712 61.463 217.581 60.9297 218.232C60.3964 218.872 59.6284 219.192 58.6257 219.192ZM71.5012 219L74.2052 211H75.5012L72.7812 219H71.5012ZM66.0612 219L68.7652 211H69.9652L67.2932 219H66.0612ZM65.9972 219L63.2772 211H64.5732L67.2452 219H65.9972ZM71.5012 219L68.8292 211H70.0452L72.7172 219H71.5012ZM81.6046 219L81.4766 214.776C81.4552 214.147 81.3752 213.629 81.2366 213.224C81.0979 212.808 80.8846 212.499 80.5966 212.296C80.3086 212.083 79.9246 211.976 79.4446 211.976C78.9859 211.976 78.5859 212.067 78.2446 212.248C77.9139 212.429 77.6419 212.712 77.4286 213.096L76.2926 212.632C76.4952 212.259 76.7459 211.939 77.0446 211.672C77.3432 211.395 77.6952 211.181 78.1006 211.032C78.5059 210.883 78.9592 210.808 79.4606 210.808C80.1966 210.808 80.8099 210.952 81.3006 211.24C81.7912 211.528 82.1539 211.96 82.3886 212.536C82.6339 213.101 82.7566 213.811 82.7566 214.664V219H81.6046ZM79.1726 219.192C78.2232 219.192 77.4819 218.979 76.9486 218.552C76.4259 218.115 76.1646 217.512 76.1646 216.744C76.1646 215.933 76.4312 215.315 76.9646 214.888C77.5086 214.451 78.2659 214.232 79.2366 214.232H82.0526V215.304H79.5246C78.7779 215.304 78.2446 215.427 77.9246 215.672C77.6152 215.917 77.4606 216.269 77.4606 216.728C77.4606 217.144 77.6152 217.475 77.9246 217.72C78.2339 217.955 78.6659 218.072 79.2206 218.072C79.6899 218.072 80.0952 217.965 80.4366 217.752C80.7779 217.539 81.0392 217.251 81.2206 216.888C81.4019 216.515 81.4926 216.093 81.4926 215.624H82.2766C82.2766 216.712 82.0099 217.581 81.4766 218.232C80.9432 218.872 80.1752 219.192 79.1726 219.192ZM86.0321 216.424L85.2161 215.544L89.4721 211H91.0881L86.0321 216.424ZM84.7841 219V207.8H86.0641V219H84.7841ZM89.8241 219L86.7841 214.408L87.6161 213.512L91.4081 219H89.8241ZM95.9138 219.192C95.1351 219.192 94.4471 219.016 93.8498 218.664C93.2631 218.301 92.7991 217.805 92.4578 217.176C92.1165 216.547 91.9458 215.821 91.9458 215C91.9458 214.179 92.1111 213.453 92.4418 212.824C92.7831 212.195 93.2525 211.704 93.8498 211.352C94.4471 210.989 95.1245 210.808 95.8818 210.808C96.6285 210.808 97.2738 210.995 97.8178 211.368C98.3618 211.731 98.7831 212.243 99.0818 212.904C99.3805 213.565 99.5298 214.344 99.5298 215.24H98.2498C98.2498 214.557 98.1591 213.976 97.9778 213.496C97.7965 213.005 97.5298 212.627 97.1778 212.36C96.8258 212.093 96.3885 211.96 95.8658 211.96C95.3431 211.96 94.8845 212.088 94.4898 212.344C94.1058 212.589 93.8071 212.941 93.5938 213.4C93.3805 213.859 93.2738 214.397 93.2738 215.016C93.2738 215.624 93.3911 216.152 93.6258 216.6C93.8605 217.037 94.1805 217.384 94.5858 217.64C94.9911 217.885 95.4551 218.008 95.9778 218.008C96.5431 218.008 97.0178 217.875 97.4018 217.608C97.7858 217.341 98.0845 216.995 98.2978 216.568L99.4338 217.128C99.2205 217.544 98.9431 217.907 98.6018 218.216C98.2711 218.525 97.8818 218.765 97.4338 218.936C96.9858 219.107 96.4791 219.192 95.9138 219.192ZM92.8098 215.24V214.136H98.7458V215.24H92.8098Z" fill="#5762B8"/>
<path d="M182.308 197V185.8H183.588V195.512L183.524 197H182.308ZM186.292 197.192C185.62 197.192 185.028 197.016 184.516 196.664C184.014 196.312 183.625 195.821 183.348 195.192C183.07 194.552 182.932 193.821 182.932 193C182.932 192.168 183.07 191.437 183.348 190.808C183.625 190.179 184.014 189.688 184.516 189.336C185.028 188.984 185.62 188.808 186.292 188.808C187.006 188.808 187.636 188.984 188.18 189.336C188.724 189.688 189.145 190.179 189.444 190.808C189.753 191.437 189.908 192.168 189.908 193C189.908 193.821 189.753 194.552 189.444 195.192C189.145 195.821 188.724 196.312 188.18 196.664C187.636 197.016 187.006 197.192 186.292 197.192ZM186.004 196.024C186.505 196.024 186.948 195.896 187.332 195.64C187.726 195.384 188.036 195.027 188.26 194.568C188.494 194.109 188.612 193.587 188.612 193C188.612 192.413 188.5 191.891 188.276 191.432C188.062 190.973 187.758 190.616 187.364 190.36C186.969 190.104 186.521 189.976 186.02 189.976C185.55 189.976 185.129 190.104 184.756 190.36C184.393 190.616 184.105 190.973 183.892 191.432C183.689 191.891 183.588 192.413 183.588 193C183.588 193.587 183.689 194.109 183.892 194.568C184.105 195.027 184.393 195.384 184.756 195.64C185.118 195.896 185.534 196.024 186.004 196.024ZM191.683 197L191.715 185.8H192.995L192.963 197H191.683ZM200.717 197L200.637 195.528V189H201.917V197H200.717ZM195.021 193.576V189H196.301V193.096L195.021 193.576ZM196.301 193.096C196.301 193.885 196.392 194.488 196.573 194.904C196.755 195.32 197.005 195.608 197.325 195.768C197.656 195.917 198.024 195.992 198.429 195.992C199.123 195.992 199.661 195.741 200.045 195.24C200.44 194.739 200.637 194.04 200.637 193.144H201.261C201.261 193.987 201.139 194.712 200.893 195.32C200.648 195.928 200.291 196.392 199.821 196.712C199.363 197.032 198.803 197.192 198.141 197.192C197.171 197.192 196.403 196.893 195.837 196.296C195.283 195.699 195.011 194.792 195.021 193.576L196.301 193.096ZM207.687 197.192C206.909 197.192 206.221 197.016 205.623 196.664C205.037 196.301 204.573 195.805 204.231 195.176C203.89 194.547 203.719 193.821 203.719 193C203.719 192.179 203.885 191.453 204.215 190.824C204.557 190.195 205.026 189.704 205.623 189.352C206.221 188.989 206.898 188.808 207.655 188.808C208.402 188.808 209.047 188.995 209.591 189.368C210.135 189.731 210.557 190.243 210.855 190.904C211.154 191.565 211.303 192.344 211.303 193.24H210.023C210.023 192.557 209.933 191.976 209.751 191.496C209.57 191.005 209.303 190.627 208.951 190.36C208.599 190.093 208.162 189.96 207.639 189.96C207.117 189.96 206.658 190.088 206.263 190.344C205.879 190.589 205.581 190.941 205.367 191.4C205.154 191.859 205.047 192.397 205.047 193.016C205.047 193.624 205.165 194.152 205.399 194.6C205.634 195.037 205.954 195.384 206.359 195.64C206.765 195.885 207.229 196.008 207.751 196.008C208.317 196.008 208.791 195.875 209.175 195.608C209.559 195.341 209.858 194.995 210.071 194.568L211.207 195.128C210.994 195.544 210.717 195.907 210.375 196.216C210.045 196.525 209.655 196.765 209.207 196.936C208.759 197.107 208.253 197.192 207.687 197.192ZM204.583 193.24V192.136H210.519V193.24H204.583ZM212.084 198.344L216.5 185.048H217.828L213.444 198.344H212.084ZM222.383 200.392C221.871 200.392 221.401 200.339 220.975 200.232C220.559 200.136 220.201 200.024 219.903 199.896C219.615 199.779 219.407 199.677 219.279 199.592L219.759 198.552C219.897 198.627 220.095 198.717 220.351 198.824C220.607 198.941 220.905 199.037 221.247 199.112C221.599 199.197 221.972 199.24 222.367 199.24C222.879 199.24 223.337 199.133 223.743 198.92C224.159 198.717 224.479 198.392 224.703 197.944C224.937 197.507 225.055 196.941 225.055 196.248V189H226.335V196.232C226.335 197.149 226.164 197.917 225.823 198.536C225.481 199.155 225.012 199.619 224.415 199.928C223.817 200.237 223.14 200.392 222.383 200.392ZM222.335 196.936C221.62 196.936 220.991 196.765 220.447 196.424C219.903 196.083 219.476 195.608 219.167 195C218.868 194.381 218.719 193.677 218.719 192.888C218.719 192.077 218.868 191.368 219.167 190.76C219.476 190.141 219.903 189.661 220.447 189.32C220.991 188.979 221.62 188.808 222.335 188.808C223.007 188.808 223.593 188.979 224.095 189.32C224.596 189.661 224.985 190.141 225.263 190.76C225.551 191.368 225.695 192.077 225.695 192.888C225.695 193.688 225.551 194.392 225.263 195C224.985 195.608 224.596 196.083 224.095 196.424C223.593 196.765 223.007 196.936 222.335 196.936ZM222.639 195.832C223.108 195.832 223.524 195.704 223.887 195.448C224.249 195.192 224.532 194.845 224.735 194.408C224.937 193.96 225.039 193.443 225.039 192.856C225.039 192.291 224.932 191.789 224.719 191.352C224.516 190.904 224.233 190.557 223.871 190.312C223.519 190.056 223.103 189.928 222.623 189.928C222.121 189.928 221.673 190.056 221.279 190.312C220.895 190.557 220.591 190.904 220.367 191.352C220.153 191.789 220.047 192.291 220.047 192.856C220.047 193.443 220.159 193.96 220.383 194.408C220.607 194.845 220.911 195.192 221.295 195.448C221.689 195.704 222.137 195.832 222.639 195.832ZM229.074 192.664C229.074 191.8 229.239 191.101 229.57 190.568C229.901 190.024 230.322 189.624 230.834 189.368C231.357 189.101 231.906 188.968 232.482 188.968V190.168C232.013 190.168 231.559 190.248 231.122 190.408C230.695 190.557 230.343 190.808 230.066 191.16C229.789 191.512 229.65 191.992 229.65 192.6L229.074 192.664ZM228.37 197V189H229.65V197H228.37ZM237.312 197.192C236.534 197.192 235.846 197.016 235.248 196.664C234.662 196.301 234.198 195.805 233.856 195.176C233.515 194.547 233.344 193.821 233.344 193C233.344 192.179 233.51 191.453 233.84 190.824C234.182 190.195 234.651 189.704 235.248 189.352C235.846 188.989 236.523 188.808 237.28 188.808C238.027 188.808 238.672 188.995 239.216 189.368C239.76 189.731 240.182 190.243 240.48 190.904C240.779 191.565 240.928 192.344 240.928 193.24H239.648C239.648 192.557 239.558 191.976 239.376 191.496C239.195 191.005 238.928 190.627 238.576 190.36C238.224 190.093 237.787 189.96 237.264 189.96C236.742 189.96 236.283 190.088 235.888 190.344C235.504 190.589 235.206 190.941 234.992 191.4C234.779 191.859 234.672 192.397 234.672 193.016C234.672 193.624 234.79 194.152 235.024 194.6C235.259 195.037 235.579 195.384 235.984 195.64C236.39 195.885 236.854 196.008 237.376 196.008C237.942 196.008 238.416 195.875 238.8 195.608C239.184 195.341 239.483 194.995 239.696 194.568L240.832 195.128C240.619 195.544 240.342 195.907 240 196.216C239.67 196.525 239.28 196.765 238.832 196.936C238.384 197.107 237.878 197.192 237.312 197.192ZM234.208 193.24V192.136H240.144V193.24H234.208ZM243.106 200.392C242.903 200.392 242.668 200.349 242.402 200.264C242.135 200.189 241.852 200.088 241.554 199.96L242.034 198.888C242.279 198.995 242.492 199.075 242.674 199.128C242.866 199.181 243.015 199.208 243.122 199.208C243.41 199.208 243.644 199.128 243.826 198.968C244.018 198.819 244.178 198.6 244.306 198.312L245.218 196.136L248.178 189H249.554L245.714 198.12C245.511 198.589 245.298 198.995 245.074 199.336C244.86 199.677 244.599 199.939 244.29 200.12C243.98 200.301 243.586 200.392 243.106 200.392ZM244.866 197L241.41 189H242.77L245.746 196.12L246.13 197H244.866ZM254.761 197L254.793 185.8H256.073L256.041 197H254.761ZM258.388 197L258.42 189H259.7L259.668 197H258.388ZM259.044 187.144C258.83 187.144 258.644 187.064 258.484 186.904C258.323 186.744 258.243 186.557 258.243 186.344C258.243 186.12 258.323 185.933 258.484 185.784C258.644 185.624 258.83 185.544 259.044 185.544C259.268 185.544 259.454 185.624 259.604 185.784C259.764 185.933 259.844 186.12 259.844 186.344C259.844 186.557 259.764 186.744 259.604 186.904C259.454 187.064 259.268 187.144 259.044 187.144ZM262.106 200.2V189H263.306L263.386 190.472V200.2H262.106ZM266.09 197.192C265.418 197.192 264.826 197.016 264.314 196.664C263.813 196.312 263.424 195.821 263.146 195.192C262.869 194.552 262.73 193.821 262.73 193C262.73 192.168 262.869 191.437 263.146 190.808C263.424 190.179 263.813 189.688 264.314 189.336C264.826 188.984 265.418 188.808 266.09 188.808C266.805 188.808 267.434 188.984 267.978 189.336C268.522 189.688 268.944 190.179 269.242 190.808C269.552 191.437 269.706 192.168 269.706 193C269.706 193.821 269.552 194.552 269.242 195.192C268.944 195.821 268.522 196.312 267.978 196.664C267.434 197.016 266.805 197.192 266.09 197.192ZM265.802 196.024C266.304 196.024 266.746 195.896 267.13 195.64C267.525 195.384 267.834 195.027 268.058 194.568C268.293 194.109 268.41 193.587 268.41 193C268.41 192.413 268.298 191.891 268.074 191.432C267.861 190.973 267.557 190.616 267.162 190.36C266.768 190.104 266.32 189.976 265.818 189.976C265.349 189.976 264.928 190.104 264.554 190.36C264.192 190.616 263.904 190.973 263.69 191.432C263.488 191.891 263.386 192.413 263.386 193C263.386 193.587 263.488 194.109 263.69 194.568C263.904 195.027 264.192 195.384 264.554 195.64C264.917 195.896 265.333 196.024 265.802 196.024ZM274.279 197.192C273.693 197.192 273.181 197.107 272.743 196.936C272.306 196.755 271.938 196.52 271.639 196.232C271.351 195.944 271.143 195.629 271.015 195.288L272.135 194.824C272.317 195.176 272.589 195.464 272.951 195.688C273.314 195.912 273.714 196.024 274.151 196.024C274.653 196.024 275.069 195.928 275.399 195.736C275.741 195.533 275.911 195.256 275.911 194.904C275.911 194.573 275.783 194.307 275.527 194.104C275.282 193.901 274.919 193.736 274.439 193.608L273.671 193.4C272.946 193.208 272.381 192.92 271.975 192.536C271.57 192.141 271.367 191.699 271.367 191.208C271.367 190.451 271.613 189.864 272.103 189.448C272.605 189.021 273.346 188.808 274.327 188.808C274.797 188.808 275.223 188.877 275.607 189.016C275.991 189.155 276.322 189.352 276.599 189.608C276.877 189.853 277.079 190.147 277.207 190.488L276.087 190.984C275.949 190.621 275.719 190.365 275.399 190.216C275.079 190.056 274.69 189.976 274.231 189.976C273.741 189.976 273.357 190.077 273.079 190.28C272.802 190.483 272.663 190.771 272.663 191.144C272.663 191.357 272.775 191.56 272.999 191.752C273.234 191.933 273.575 192.083 274.023 192.2L274.823 192.408C275.346 192.536 275.783 192.728 276.135 192.984C276.487 193.229 276.754 193.512 276.935 193.832C277.117 194.152 277.207 194.493 277.207 194.856C277.207 195.336 277.079 195.752 276.823 196.104C276.567 196.456 276.221 196.728 275.783 196.92C275.346 197.101 274.845 197.192 274.279 197.192Z" fill="#5762B8"/>
<path d="M178.657 85L178.593 83.512V73.8H179.873V85H178.657ZM175.889 85.192C175.175 85.192 174.545 85.016 174.001 84.664C173.457 84.312 173.031 83.8213 172.721 83.192C172.423 82.552 172.273 81.8213 172.273 81C172.273 80.168 172.423 79.4373 172.721 78.808C173.031 78.1787 173.457 77.688 174.001 77.336C174.545 76.984 175.175 76.808 175.889 76.808C176.561 76.808 177.148 76.984 177.649 77.336C178.161 77.688 178.556 78.1787 178.833 78.808C179.111 79.4373 179.249 80.168 179.249 81C179.249 81.8213 179.111 82.552 178.833 83.192C178.556 83.8213 178.161 84.312 177.649 84.664C177.148 85.016 176.561 85.192 175.889 85.192ZM176.177 84.024C176.647 84.024 177.063 83.896 177.425 83.64C177.788 83.384 178.071 83.0267 178.273 82.568C178.487 82.1093 178.593 81.5867 178.593 81C178.593 80.4133 178.487 79.8907 178.273 79.432C178.071 78.9733 177.788 78.616 177.425 78.36C177.063 78.104 176.641 77.976 176.161 77.976C175.66 77.976 175.212 78.104 174.817 78.36C174.433 78.616 174.129 78.9733 173.905 79.432C173.681 79.8907 173.569 80.4133 173.569 81C173.569 81.5867 173.681 82.1093 173.905 82.568C174.129 83.0267 174.439 83.384 174.833 83.64C175.228 83.896 175.676 84.024 176.177 84.024ZM182.192 85L182.224 77H183.504L183.472 85H182.192ZM182.848 75.144C182.635 75.144 182.448 75.064 182.288 74.904C182.128 74.744 182.048 74.5573 182.048 74.344C182.048 74.12 182.128 73.9333 182.288 73.784C182.448 73.624 182.635 73.544 182.848 73.544C183.072 73.544 183.259 73.624 183.408 73.784C183.568 73.9333 183.648 74.12 183.648 74.344C183.648 74.5573 183.568 74.744 183.408 74.904C183.259 75.064 183.072 75.144 182.848 75.144ZM186.631 85V76.088C186.631 75.256 186.823 74.632 187.207 74.216C187.602 73.7893 188.199 73.576 188.999 73.576C189.212 73.576 189.452 73.6133 189.719 73.688C189.986 73.7627 190.268 73.8693 190.567 74.008L190.087 75.016C189.842 74.92 189.634 74.8453 189.463 74.792C189.292 74.7387 189.148 74.712 189.031 74.712C188.658 74.712 188.375 74.8347 188.183 75.08C188.002 75.3147 187.911 75.6827 187.911 76.184V85H186.631ZM185.159 78.104V77H190.231V78.104H185.159ZM192.537 85V76.088C192.537 75.256 192.729 74.632 193.113 74.216C193.508 73.7893 194.105 73.576 194.905 73.576C195.119 73.576 195.359 73.6133 195.625 73.688C195.892 73.7627 196.175 73.8693 196.473 74.008L195.993 75.016C195.748 74.92 195.54 74.8453 195.369 74.792C195.199 74.7387 195.055 74.712 194.937 74.712C194.564 74.712 194.281 74.8347 194.089 75.08C193.908 75.3147 193.817 75.6827 193.817 76.184V85H192.537ZM191.065 78.104V77H196.137V78.104H191.065ZM197.723 85L197.755 77H199.035L199.003 85H197.723ZM198.379 75.144C198.166 75.144 197.979 75.064 197.819 74.904C197.659 74.744 197.579 74.5573 197.579 74.344C197.579 74.12 197.659 73.9333 197.819 73.784C197.979 73.624 198.166 73.544 198.379 73.544C198.603 73.544 198.79 73.624 198.939 73.784C199.099 73.9333 199.179 74.12 199.179 74.344C199.179 74.5573 199.099 74.744 198.939 74.904C198.79 75.064 198.603 75.144 198.379 75.144ZM204.93 85.192C204.141 85.192 203.442 85.016 202.834 84.664C202.226 84.3013 201.752 83.8053 201.41 83.176C201.069 82.5467 200.898 81.8213 200.898 81C200.898 80.1787 201.064 79.4533 201.394 78.824C201.736 78.1947 202.21 77.704 202.818 77.352C203.426 76.9893 204.12 76.808 204.898 76.808C205.666 76.808 206.354 76.984 206.962 77.336C207.57 77.688 208.034 78.184 208.354 78.824L207.186 79.352C206.973 78.9253 206.664 78.5947 206.258 78.36C205.853 78.1147 205.389 77.992 204.866 77.992C204.344 77.992 203.88 78.12 203.474 78.376C203.08 78.632 202.765 78.9893 202.53 79.448C202.306 79.896 202.194 80.4133 202.194 81C202.194 81.5867 202.306 82.1093 202.53 82.568C202.765 83.016 203.085 83.368 203.49 83.624C203.906 83.88 204.376 84.008 204.898 84.008C205.421 84.008 205.885 83.8747 206.29 83.608C206.706 83.3413 207.021 82.968 207.234 82.488L208.402 83.016C208.082 83.6987 207.618 84.232 207.01 84.616C206.402 85 205.709 85.192 204.93 85.192ZM215.506 85L215.426 83.528V77H216.706V85H215.506ZM209.81 81.576V77H211.09V81.096L209.81 81.576ZM211.09 81.096C211.09 81.8853 211.181 82.488 211.362 82.904C211.544 83.32 211.794 83.608 212.114 83.768C212.445 83.9173 212.813 83.992 213.218 83.992C213.912 83.992 214.45 83.7413 214.834 83.24C215.229 82.7387 215.426 82.04 215.426 81.144H216.05C216.05 81.9867 215.928 82.712 215.682 83.32C215.437 83.928 215.08 84.392 214.61 84.712C214.152 85.032 213.592 85.192 212.93 85.192C211.96 85.192 211.192 84.8933 210.626 84.296C210.072 83.6987 209.8 82.792 209.81 81.576L211.09 81.096ZM218.94 85L218.972 73.8H220.252L220.22 85H218.94ZM225.655 85.192C224.877 85.192 224.274 84.9893 223.847 84.584C223.421 84.1787 223.207 83.608 223.207 82.872V74.504H224.487V82.744C224.487 83.1493 224.594 83.464 224.807 83.688C225.031 83.9013 225.341 84.008 225.735 84.008C225.863 84.008 225.986 83.992 226.103 83.96C226.231 83.9173 226.397 83.8213 226.599 83.672L227.095 84.712C226.818 84.8933 226.567 85.016 226.343 85.08C226.119 85.1547 225.89 85.192 225.655 85.192ZM221.815 78.136V77H226.887V78.136H221.815ZM229.363 88.392C229.161 88.392 228.926 88.3493 228.659 88.264C228.393 88.1893 228.11 88.088 227.811 87.96L228.291 86.888C228.537 86.9947 228.75 87.0747 228.931 87.128C229.123 87.1813 229.273 87.208 229.379 87.208C229.667 87.208 229.902 87.128 230.083 86.968C230.275 86.8187 230.435 86.6 230.563 86.312L231.475 84.136L234.435 77H235.811L231.971 86.12C231.769 86.5893 231.555 86.9947 231.331 87.336C231.118 87.6773 230.857 87.9387 230.547 88.12C230.238 88.3013 229.843 88.392 229.363 88.392ZM231.123 85L227.667 77H229.027L232.003 84.12L232.387 85H231.123ZM244.186 85.192C243.408 85.192 242.805 84.9893 242.378 84.584C241.952 84.1787 241.738 83.608 241.738 82.872V74.504H243.018V82.744C243.018 83.1493 243.125 83.464 243.338 83.688C243.562 83.9013 243.872 84.008 244.266 84.008C244.394 84.008 244.517 83.992 244.634 83.96C244.762 83.9173 244.928 83.8213 245.13 83.672L245.626 84.712C245.349 84.8933 245.098 85.016 244.874 85.08C244.65 85.1547 244.421 85.192 244.186 85.192ZM240.346 78.136V77H245.418V78.136H240.346ZM252.183 85L252.055 80.776C252.033 80.1467 251.953 79.6293 251.815 79.224C251.676 78.808 251.463 78.4987 251.175 78.296C250.887 78.0827 250.503 77.976 250.023 77.976C249.564 77.976 249.164 78.0667 248.823 78.248C248.492 78.4293 248.22 78.712 248.007 79.096L246.871 78.632C247.073 78.2587 247.324 77.9387 247.623 77.672C247.921 77.3947 248.273 77.1813 248.679 77.032C249.084 76.8827 249.537 76.808 250.039 76.808C250.775 76.808 251.388 76.952 251.879 77.24C252.369 77.528 252.732 77.96 252.967 78.536C253.212 79.1013 253.335 79.8107 253.335 80.664V85H252.183ZM249.751 85.192C248.801 85.192 248.06 84.9787 247.527 84.552C247.004 84.1147 246.743 83.512 246.743 82.744C246.743 81.9333 247.009 81.3147 247.543 80.888C248.087 80.4507 248.844 80.232 249.815 80.232H252.631V81.304H250.103C249.356 81.304 248.823 81.4267 248.503 81.672C248.193 81.9173 248.039 82.2693 248.039 82.728C248.039 83.144 248.193 83.4747 248.503 83.72C248.812 83.9547 249.244 84.072 249.799 84.072C250.268 84.072 250.673 83.9653 251.015 83.752C251.356 83.5387 251.617 83.2507 251.799 82.888C251.98 82.5147 252.071 82.0933 252.071 81.624H252.855C252.855 82.712 252.588 83.5813 252.055 84.232C251.521 84.872 250.753 85.192 249.751 85.192ZM255.362 85L255.394 73.8H256.674L256.642 85H255.362ZM260.157 82.424L259.341 81.544L263.597 77H265.213L260.157 82.424ZM258.909 85V73.8H260.189V85H258.909ZM263.949 85L260.909 80.408L261.741 79.512L265.533 85H263.949ZM266.755 85L266.787 77H268.067L268.035 85H266.755ZM267.411 75.144C267.197 75.144 267.011 75.064 266.851 74.904C266.691 74.744 266.611 74.5573 266.611 74.344C266.611 74.12 266.691 73.9333 266.851 73.784C267.011 73.624 267.197 73.544 267.411 73.544C267.635 73.544 267.821 73.624 267.971 73.784C268.131 73.9333 268.211 74.12 268.211 74.344C268.211 74.5573 268.131 74.744 267.971 74.904C267.821 75.064 267.635 75.144 267.411 75.144ZM270.393 85V77H271.593L271.673 78.472V85H270.393ZM276.009 85V80.904L277.289 80.424V85H276.009ZM276.009 80.904C276.009 80.1147 275.919 79.512 275.737 79.096C275.556 78.68 275.305 78.3973 274.985 78.248C274.665 78.088 274.303 78.008 273.897 78.008C273.193 78.008 272.644 78.2587 272.249 78.76C271.865 79.2507 271.673 79.9493 271.673 80.856H271.049C271.049 80.0133 271.172 79.288 271.417 78.68C271.663 78.072 272.015 77.608 272.473 77.288C272.943 76.968 273.508 76.808 274.169 76.808C275.14 76.808 275.903 77.1067 276.457 77.704C277.023 78.3013 277.3 79.208 277.289 80.424L276.009 80.904ZM282.515 88.392C282.003 88.392 281.534 88.3387 281.107 88.232C280.691 88.136 280.334 88.024 280.035 87.896C279.747 87.7787 279.539 87.6773 279.411 87.592L279.891 86.552C280.03 86.6267 280.227 86.7173 280.483 86.824C280.739 86.9413 281.038 87.0373 281.379 87.112C281.731 87.1973 282.105 87.24 282.499 87.24C283.011 87.24 283.47 87.1333 283.875 86.92C284.291 86.7173 284.611 86.392 284.835 85.944C285.07 85.5067 285.187 84.9413 285.187 84.248V77H286.467V84.232C286.467 85.1493 286.297 85.9173 285.955 86.536C285.614 87.1547 285.145 87.6187 284.547 87.928C283.95 88.2373 283.273 88.392 282.515 88.392ZM282.467 84.936C281.753 84.936 281.123 84.7653 280.579 84.424C280.035 84.0827 279.609 83.608 279.299 83C279.001 82.3813 278.851 81.6773 278.851 80.888C278.851 80.0773 279.001 79.368 279.299 78.76C279.609 78.1413 280.035 77.6613 280.579 77.32C281.123 76.9787 281.753 76.808 282.467 76.808C283.139 76.808 283.726 76.9787 284.227 77.32C284.729 77.6613 285.118 78.1413 285.395 78.76C285.683 79.368 285.827 80.0773 285.827 80.888C285.827 81.688 285.683 82.392 285.395 83C285.118 83.608 284.729 84.0827 284.227 84.424C283.726 84.7653 283.139 84.936 282.467 84.936ZM282.771 83.832C283.241 83.832 283.657 83.704 284.019 83.448C284.382 83.192 284.665 82.8453 284.867 82.408C285.07 81.96 285.171 81.4427 285.171 80.856C285.171 80.2907 285.065 79.7893 284.851 79.352C284.649 78.904 284.366 78.5573 284.003 78.312C283.651 78.056 283.235 77.928 282.755 77.928C282.254 77.928 281.806 78.056 281.411 78.312C281.027 78.5573 280.723 78.904 280.499 79.352C280.286 79.7893 280.179 80.2907 280.179 80.856C280.179 81.4427 280.291 81.96 280.515 82.408C280.739 82.8453 281.043 83.192 281.427 83.448C281.822 83.704 282.27 83.832 282.771 83.832Z" fill="#5762B8"/>
<g clip-path="url(#clip0_249_358)">
<path d="M222.695 12H209.813C202.197 12 196 18.539 196 26.5758C196 32.646 199.482 37.9715 204.766 40.1476L202.922 44.1387C202.753 44.5028 202.827 44.938 203.105 45.2176C203.275 45.3886 203.493 45.478 203.715 45.478C203.86 45.478 204.004 45.4405 204.135 45.3627L211.498 41.1526H222.695C230.312 41.1526 236.508 34.6136 236.508 26.5768C236.508 18.54 230.312 12 222.695 12ZM207.846 28.7376C207.06 28.7376 206.422 28.0641 206.422 27.2349C206.422 26.4058 207.06 25.7323 207.846 25.7323C208.632 25.7323 209.273 26.4058 209.273 27.2349C209.273 28.0641 208.635 28.7376 207.846 28.7376ZM216.252 28.7376C215.466 28.7376 214.828 28.0641 214.828 27.2349C214.828 26.4058 215.466 25.7323 216.252 25.7323C217.038 25.7323 217.68 26.4058 217.68 27.2349C217.68 28.0641 217.041 28.7376 216.252 28.7376ZM224.658 28.7376C223.873 28.7376 223.234 28.0641 223.234 27.2349C223.234 26.4058 223.873 25.7323 224.658 25.7323C225.444 25.7323 226.086 26.4058 226.086 27.2349C226.086 28.0641 225.448 28.7376 224.658 28.7376Z" fill="#F9897A"/>
<path d="M255 35.0978C255 27.06 248.803 20.522 241.187 20.522H237.177C237.882 22.3965 238.269 24.4381 238.269 26.5729C238.269 35.6368 231.284 43.0088 222.694 43.0088H216.71C219.174 47.0181 223.449 49.6736 228.305 49.6736H239.503L246.866 53.8876C246.996 53.9616 247.141 53.999 247.286 53.999C247.508 53.999 247.726 53.9097 247.896 53.7387C248.174 53.46 248.244 53.0248 248.079 52.6597L246.235 48.6687C251.518 46.4925 255.001 41.167 255.001 35.0969L255 35.0978Z" fill="#5762B8"/>
</g>
<g clip-path="url(#clip1_249_358)">
<path d="M71.211 136.062C70.0362 134.221 67.9718 133 65.621 133C61.9642 133 59 135.955 59 139.599C59 141.356 59.6889 142.953 60.8119 144.135C63.2584 140.406 66.9078 137.533 71.211 136.062Z" fill="#F9897A"/>
<path d="M94.7674 144.135C95.8905 142.953 96.5794 141.356 96.5794 139.599C96.5792 135.955 93.6149 133 89.9582 133C87.6073 133 85.543 134.221 84.3682 136.062C88.6714 137.533 92.3208 140.406 94.7674 144.135Z" fill="#F9897A"/>
<path d="M90.5692 142.441C88.91 140.787 86.9774 139.488 84.8249 138.581C82.5956 137.641 80.2285 137.165 77.7894 137.165C75.3503 137.165 72.9832 137.641 70.7539 138.581C68.6015 139.488 66.6688 140.787 65.0097 142.441C63.3505 144.094 62.0475 146.021 61.1372 148.166C60.1944 150.388 59.7163 152.748 59.7163 155.179C59.7163 157.61 60.1944 159.969 61.1372 162.191C62.0477 164.337 63.3505 166.263 65.0097 167.917C66.6688 169.57 68.6015 170.869 70.7539 171.776C72.9832 172.716 75.3503 173.193 77.7894 173.193C80.2285 173.193 82.5956 172.716 84.8249 171.776C86.9774 170.869 88.9098 169.57 90.5692 167.917C92.2283 166.263 93.5314 164.337 94.4416 162.191C95.3845 159.969 95.8625 157.61 95.8625 155.179C95.8625 152.748 95.3845 150.388 94.4416 148.166C93.5312 146.021 92.2283 144.095 90.5692 142.441ZM77.7894 169.622C69.799 169.622 63.2984 163.143 63.2984 155.179C63.2984 147.214 69.7992 140.735 77.7896 140.735C85.78 140.735 92.2807 147.214 92.2807 155.178C92.2807 163.143 85.78 169.622 77.7896 169.622L77.7894 169.622Z" fill="#F9897A"/>
<path d="M87.0703 159.269L80.4212 154.511C80.2844 153.974 79.9857 153.5 79.5803 153.145V144.913C79.5803 143.928 78.7784 143.128 77.7893 143.128C76.8001 143.128 75.9982 143.928 75.9982 144.913V153.145C75.4319 153.641 75.0742 154.368 75.0742 155.178C75.0742 156.673 76.2898 157.884 77.7893 157.884C78.1273 157.884 78.4506 157.822 78.749 157.71L84.9812 162.169C85.2976 162.396 85.6626 162.504 86.0242 162.504C86.5815 162.504 87.1308 162.246 87.4806 161.76C88.0575 160.959 87.8736 159.844 87.0701 159.269L87.0703 159.269Z" fill="#5762B8"/>
<path d="M65.7505 175C67.015 175 68.0401 173.978 68.0401 172.718C68.0401 171.458 67.015 170.436 65.7505 170.436C64.486 170.436 63.4609 171.458 63.4609 172.718C63.4609 173.978 64.486 175 65.7505 175Z" fill="#F9897A"/>
<path d="M89.8281 175C91.0926 175 92.1177 173.978 92.1177 172.718C92.1177 171.458 91.0926 170.436 89.8281 170.436C88.5637 170.436 87.5386 171.458 87.5386 172.718C87.5386 173.978 88.5637 175 89.8281 175Z" fill="#F9897A"/>
</g>
<path d="M257.75 151.985C257.732 151.965 257.713 151.945 257.693 151.926C257.693 151.926 257.69 151.923 257.688 151.921C257.683 151.916 257.679 151.912 257.674 151.907C255.215 149.536 250.639 145.389 247.476 144.099C245.329 143.224 243.118 142.868 240.902 143.043C239.087 143.187 237.264 143.686 235.485 144.526C233.082 145.661 231.307 147.153 230.352 148.067C229.389 147.182 227.561 145.705 225.06 144.584C223.249 143.771 221.392 143.284 219.539 143.136C217.286 142.955 215.032 143.275 212.838 144.087C207.946 145.898 205.056 148.607 202.222 152.116C202.221 152.117 202.22 152.118 202.219 152.12C201.938 152.471 201.926 152.967 202.189 153.332C202.347 153.55 202.521 153.786 202.709 154.032C202.998 154.413 203.474 155.027 204.099 155.787C206.332 158.497 209.943 162.428 214.464 165.764C220.072 169.902 225.558 172 230.767 172C235.977 172 241.344 169.88 246.626 165.699C250.866 162.341 254.136 158.396 256.133 155.676C256.54 155.122 256.919 154.583 257.263 154.074C257.642 153.512 257.844 153.185 257.852 153.171C258.082 152.797 258.041 152.316 257.75 151.985ZM230.767 170.497C220.061 170.497 208.53 158.726 204.368 153.806C207.91 155.179 213.006 157.546 216.226 158.342C225.766 160.701 234.558 160.709 243.896 158.366C247.217 157.533 252.221 155.267 255.798 153.806C252.136 158.682 241.576 170.497 230.767 170.497ZM243.408 156.923C234.401 159.183 225.917 159.175 216.707 156.898C212.904 155.958 208.394 153.932 204.08 152.147C206.491 149.332 209.529 146.948 213.534 145.466C217.064 144.159 220.667 144.309 224.24 145.911C226.864 147.088 228.86 148.822 229.624 149.66C229.814 149.868 230.083 150.488 230.365 150.488H230.37C230.653 150.487 230.923 149.864 231.112 149.653C231.325 149.414 233.28 147.283 236.341 145.837C239.821 144.193 243.313 144.064 246.719 145.454C248.618 146.228 252.256 148.839 255.798 152.147C251.635 153.947 247.185 155.976 243.408 156.923Z" fill="#F9897A" stroke="#F9897A" stroke-width="2" stroke-miterlimit="10"/>
<path fill-rule="evenodd" clip-rule="evenodd" d="M77.7968 19.6076L85.9563 26.0385C87.119 26.9618 87.3487 28.6867 86.4506 29.882C85.563 31.0773 83.8851 31.3027 82.7225 30.3902L76.9509 25.8452L77.8003 19.6076H77.7968ZM74.7683 0C77.6019 0 79.8994 2.36193 79.8994 5.27497C79.8994 8.18802 77.6019 10.5499 74.7683 10.5499C71.9348 10.5499 69.6373 8.18802 69.6373 5.27497C69.6373 2.36193 71.9243 0 74.7683 0ZM74.8971 30.6156C74.7405 31.793 74.9563 32.3191 75.8335 33.0992L79.9376 36.753C80.8566 37.5761 81.4971 38.8537 81.5842 40.0991L82.4823 52.4563C82.6111 54.2599 81.2778 55.856 79.5234 55.9849C77.7655 56.1173 76.2164 54.7574 76.0911 52.943L75.2417 41.298L68.5408 35.3824C66.4974 33.5752 65.9753 31.7608 66.3616 28.9193L67.5452 20.3054L65.8186 21.2395L63.2148 29.975C62.7797 31.4172 61.2793 32.226 59.88 31.7894C58.4771 31.3421 57.6904 29.7997 58.1151 28.361L60.799 19.3929C61.154 18.194 62.0417 17.0882 63.1173 16.512L68.3284 13.692C69.5712 13.0121 70.8731 12.1818 72.2864 12.0673C74.9493 11.8526 77.1215 14.4113 76.7455 17.1204L74.9006 30.612L74.8971 30.6156ZM63.2044 55.8453C64.8927 56.3928 66.7063 55.4409 67.2389 53.716L71.5623 39.9202L67.6461 36.4596C67.1344 36.0123 66.6993 35.547 66.3442 35.0818L61.1436 51.6976C60.6005 53.4225 61.53 55.287 63.2044 55.8453Z" fill="#F9897A"/>
<defs>
<clipPath id="clip0_249_358">
<rect width="59" height="42" fill="white" transform="translate(196 12)"/>
</clipPath>
<clipPath id="clip1_249_358">
<rect width="37.5789" height="42" fill="white" transform="translate(59 133)"/>
</clipPath>
</defs>
</svg>
