<svg width="220" height="220" viewBox="0 0 220 220" fill="none" xmlns="http://www.w3.org/2000/svg">
<circle cx="110" cy="110" r="110" fill="#F9897A"/>
<g clip-path="url(#clip0_497_389)">
<path d="M171.249 61.5516H48.7232C32.5714 61.5516 19.4778 74.5897 19.4778 90.673V129.318C19.4778 145.401 32.5714 158.439 48.7232 158.439H171.249C187.401 158.439 200.495 145.401 200.495 129.318V90.673C200.495 74.5897 187.401 61.5516 171.249 61.5516Z" fill="#4D4D4D"/>
<path opacity="0.3" d="M171.249 61.5673H48.7412C32.5891 61.5673 19.5698 74.6324 19.5698 90.7155V129.35C19.5698 132.771 20.1258 136.062 21.214 139.116C21.2242 139.144 21.2151 139.172 21.2252 139.199C21.2572 139.288 21.2805 139.372 21.313 139.46C25.4496 150.54 36.1556 158.432 48.7234 158.432H171.249C187.383 158.432 200.596 145.429 200.596 129.37V90.715C200.596 74.6314 187.401 61.5663 171.249 61.5663V61.5673ZM196.403 129.396C196.403 143.184 185.111 154.369 171.241 154.369H48.7741C34.9035 154.369 23.6507 143.184 23.6507 129.396V90.7008C23.6507 76.9128 34.9035 65.6864 48.7741 65.6864H171.241C185.111 65.6864 196.403 76.9123 196.403 90.7008V129.396Z" fill="black"/>
<path d="M171.249 61.5673H48.7412C32.5891 61.5673 19.5698 74.6324 19.5698 90.7154V129.35C19.5698 134.363 20.8051 139.077 23.0455 143.196C27.9979 152.274 37.6197 158.433 48.7234 158.433H171.249C187.146 158.433 200.132 145.806 200.536 130.074C200.542 129.832 200.596 129.593 200.596 129.351V90.7159C200.596 74.6324 187.401 61.5673 171.249 61.5673ZM197.354 129.337C197.354 143.65 185.653 155.315 171.279 155.315H48.7919C34.4175 155.315 22.8121 143.649 22.8121 129.337V90.7043C22.8121 76.3914 34.4175 64.6847 48.7919 64.6847H171.279C185.654 64.6847 197.354 76.3914 197.354 90.7043V129.337H197.354Z" fill="#F2F2F2"/>
<path d="M171.249 61.5673H48.7412C32.5891 61.5673 19.5698 74.6324 19.5698 90.7154V129.35C19.5698 134.363 20.8051 139.077 23.0455 143.196C27.9979 152.274 37.6197 158.433 48.7234 158.433H171.249C187.146 158.433 200.132 145.806 200.536 130.074C200.542 129.832 200.596 129.593 200.596 129.351V90.7159C200.596 74.6324 187.401 61.5673 171.249 61.5673Z" stroke="#E6E6E6" stroke-width="3" stroke-miterlimit="10"/>
<path d="M186.675 90.7397C186.675 82.2802 179.734 75.3735 171.229 75.3735H48.7856C40.2809 75.3735 33.4905 82.2802 33.4905 90.7397V129.413C33.4905 137.873 40.2814 144.738 48.7856 144.738H171.229C179.734 144.738 186.675 137.873 186.675 129.413V90.7397Z" fill="#5E5C5C"/>
<path d="M215 104.751H197.26V115.239H215V104.751Z" fill="#ABA8A8"/>
<path d="M61.253 91.8016H158.913C160.457 91.8016 161.711 93.0504 161.711 94.5881V114.699C161.711 116.237 160.457 117.486 158.913 117.486H61.253C59.7087 117.486 58.4546 116.237 58.4546 114.699V94.5881C58.4546 93.0504 59.7087 91.8016 61.253 91.8016Z" fill="#5762B8"/>
<path d="M75.1453 113.842H73.2135L68.5629 101.382L68.5055 101.388V113.842H66.3018V95.688H68.262L72.9268 108.145L72.9842 108.156V95.688H75.1448V113.842H75.1453Z" fill="white"/>
<path d="M87.8238 113.842H85.4511L84.7839 110.251H80.9248L80.249 113.842H77.9067L81.842 95.688H83.8596L87.8233 113.842H87.8238ZM84.4562 108.413L82.8541 99.7995H82.7958L81.2804 108.413H84.4567H84.4562Z" fill="white"/>
<path d="M97.2539 113.842H90.6572V95.688H93.1187V111.804H97.2544V113.842H97.2539Z" fill="white"/>
<path d="M98.8137 104.715C98.8137 100.775 99.2023 98.2269 99.98 97.0686C100.757 95.9107 102.038 95.3313 103.822 95.3313C105.864 95.3313 107.221 95.9794 107.894 97.2752C108.566 98.5709 108.903 100.904 108.903 104.273C108.903 107.292 108.753 109.385 108.452 110.553C108.151 111.72 107.631 112.579 106.892 113.13C106.152 113.681 105.148 113.956 103.879 113.956C102.61 113.956 101.57 113.702 100.874 113.194C100.178 112.686 99.6604 111.862 99.3221 110.724C98.9832 109.585 98.8142 107.582 98.8142 104.715L98.8137 104.715ZM106.327 104.857C106.327 101.413 106.123 99.2842 105.717 98.4729C105.31 97.6616 104.7 97.2555 103.887 97.2555C102.93 97.2555 102.275 97.742 101.921 98.7149C101.567 99.6879 101.39 101.327 101.39 103.633V104.63C101.39 107.202 101.533 109.078 101.82 110.26C102.107 111.442 102.796 112.032 103.887 112.032C104.557 112.032 105.13 111.7 105.609 111.036C106.088 110.372 106.327 108.535 106.327 105.527V104.858L106.327 104.857Z" fill="white"/>
<path d="M119.863 113.842H117.552L115.132 107.596L112.71 113.842H110.333L113.944 104.491L110.605 95.688H112.963L115.136 101.403L117.343 95.688H119.749L116.322 104.526L119.864 113.842H119.863Z" fill="white"/>
<path d="M121.481 104.715C121.481 100.775 121.869 98.2269 122.647 97.0686C123.424 95.9107 124.705 95.3313 126.489 95.3313C128.531 95.3313 129.888 95.9794 130.561 97.2752C131.233 98.5709 131.57 100.904 131.57 104.273C131.57 107.292 131.42 109.385 131.119 110.553C130.818 111.72 130.298 112.579 129.559 113.13C128.819 113.681 127.815 113.956 126.546 113.956C125.277 113.956 124.237 113.702 123.541 113.194C122.845 112.686 122.327 111.862 121.989 110.724C121.65 109.585 121.481 107.582 121.481 104.715L121.481 104.715ZM128.994 104.857C128.994 101.413 128.79 99.2842 128.384 98.4729C127.977 97.6616 127.367 97.2555 126.554 97.2555C125.597 97.2555 124.942 97.742 124.588 98.7149C124.234 99.6879 124.057 101.327 124.057 103.633V104.63C124.057 107.202 124.2 109.078 124.487 110.26C124.774 111.442 125.463 112.032 126.554 112.032C127.224 112.032 127.797 111.7 128.276 111.036C128.755 110.372 128.994 108.535 128.994 105.527V104.858L128.994 104.857Z" fill="white"/>
<path d="M143.661 113.842H141.729L137.079 101.382L137.021 101.388V113.842H134.818V95.688H136.778L141.443 108.145L141.5 108.156V95.688H143.661V113.842H143.661Z" fill="white"/>
<path d="M153.864 113.842H147.267V95.688H153.75V97.7541H149.7V103.511H153.449V105.577H149.7V111.833H153.864V113.842Z" fill="white"/>
<path d="M61.7177 128.31C60.7548 128.31 59.9705 127.997 59.3642 127.373C58.758 126.75 58.4546 125.936 58.4546 124.934C58.4546 123.876 58.7625 123.02 59.3784 122.366C59.9943 121.713 60.8101 121.386 61.8257 121.386C62.7851 121.386 63.5613 121.698 64.1533 122.324C64.7453 122.95 65.0416 123.775 65.0416 124.799C65.0416 125.823 64.7347 126.699 64.1203 127.343C63.506 127.987 62.7054 128.31 61.7177 128.31ZM61.7831 122.684C61.2519 122.684 60.8299 122.883 60.5173 123.279C60.2048 123.676 60.0486 124.201 60.0486 124.855C60.0486 125.508 60.2048 126.042 60.5173 126.428C60.8299 126.814 61.2393 127.007 61.7456 127.007C62.2519 127.007 62.6816 126.819 62.988 126.444C63.2944 126.069 63.4476 125.548 63.4476 124.883C63.4476 124.217 63.299 123.648 63.0022 123.262C62.7054 122.876 62.299 122.684 61.7831 122.684V122.684Z" fill="#F2F2F2"/>
<path d="M67.6721 125.887V128.193H66.1577V121.498H68.5299C70.2239 121.498 71.0711 122.21 71.0711 123.632C71.0711 124.304 70.8281 124.848 70.3421 125.263C69.8561 125.679 69.2067 125.887 68.394 125.887H67.6721ZM67.6721 122.656V124.743H68.2677C69.0743 124.743 69.4771 124.392 69.4771 123.688C69.4771 122.984 69.0738 122.656 68.2677 122.656H67.6721Z" fill="#F2F2F2"/>
<path d="M73.5703 128.193H72.0559V121.498H73.5703V128.193Z" fill="#F2F2F2"/>
<path d="M77.9396 128.31C76.9767 128.31 76.1924 127.997 75.5861 127.373C74.9799 126.75 74.6765 125.936 74.6765 124.934C74.6765 123.876 74.9845 123.02 75.6003 122.366C76.2162 121.713 77.032 121.386 78.0476 121.386C79.007 121.386 79.7832 121.698 80.3752 122.324C80.9673 122.95 81.2635 123.775 81.2635 124.799C81.2635 125.823 80.9566 126.699 80.3423 127.343C79.7279 127.987 78.9273 128.31 77.9396 128.31ZM78.005 122.684C77.4739 122.684 77.0518 122.883 76.7393 123.279C76.4268 123.676 76.2705 124.201 76.2705 124.855C76.2705 125.508 76.4268 126.042 76.7393 126.428C77.0518 126.814 77.4612 127.007 77.9675 127.007C78.4738 127.007 78.9035 126.819 79.2099 126.444C79.5163 126.069 79.6695 125.548 79.6695 124.883C79.6695 124.217 79.5209 123.648 79.2241 123.262C78.9273 122.876 78.521 122.684 78.005 122.684V122.684Z" fill="#F2F2F2"/>
<path d="M83.8935 128.193H82.3792V121.498H83.8935V128.193Z" fill="#F2F2F2"/>
<path d="M85.4221 128.193V121.498H87.804C90.1919 121.498 91.3857 122.586 91.3857 124.762C91.3857 125.804 91.06 126.637 90.4081 127.259C89.7562 127.882 88.8881 128.193 87.8035 128.193H85.4216H85.4221ZM86.9365 122.726V126.969H87.6868C88.3433 126.969 88.8582 126.773 89.2316 126.381C89.605 125.989 89.7917 125.455 89.7917 124.78C89.7917 124.142 89.6065 123.64 89.2362 123.275C88.8658 122.909 88.3463 122.726 87.6772 122.726H86.9365Z" fill="#F2F2F2"/>
<path d="M97.9913 128.31C97.0285 128.31 96.2441 127.997 95.6379 127.373C95.0317 126.75 94.7283 125.936 94.7283 124.934C94.7283 123.876 95.0362 123.02 95.6521 122.366C96.268 121.713 97.0838 121.386 98.0994 121.386C99.0587 121.386 99.8349 121.698 100.427 122.324C101.019 122.95 101.315 123.775 101.315 124.799C101.315 125.823 101.008 126.699 100.394 127.343C99.7796 127.987 98.9791 128.31 97.9913 128.31ZM98.0568 122.684C97.5256 122.684 97.1035 122.883 96.791 123.279C96.4785 123.676 96.3223 124.201 96.3223 124.855C96.3223 125.508 96.4785 126.042 96.791 126.428C97.1035 126.814 97.5129 127.007 98.0192 127.007C98.5256 127.007 98.9552 126.819 99.2617 126.444C99.5681 126.069 99.7213 125.548 99.7213 124.883C99.7213 124.217 99.5727 123.648 99.2759 123.262C98.9791 122.876 98.5727 122.684 98.0568 122.684V122.684Z" fill="#F2F2F2"/>
<path d="M108.029 121.498L105.713 128.193H103.997L101.709 121.498H103.341L104.743 126.158C104.818 126.41 104.863 126.632 104.879 126.825H104.907C104.928 126.617 104.977 126.388 105.052 126.139L106.444 121.499H108.029V121.498Z" fill="#F2F2F2"/>
<path d="M112.868 128.193H108.835V121.498H112.713V122.726H110.35V124.216H112.549V125.439H110.35V126.97H112.868V128.193Z" fill="#F2F2F2"/>
<path d="M119.586 128.193H117.846L116.801 126.47C116.723 126.339 116.648 126.223 116.576 126.12C116.503 126.018 116.431 125.93 116.357 125.856C116.284 125.783 116.207 125.727 116.128 125.688C116.048 125.649 115.961 125.63 115.867 125.63H115.459V128.193H113.945V121.498H116.346C117.977 121.498 118.793 122.105 118.793 123.319C118.793 123.552 118.757 123.768 118.685 123.966C118.613 124.163 118.511 124.341 118.38 124.5C118.249 124.659 118.09 124.796 117.904 124.911C117.718 125.026 117.511 125.116 117.283 125.182V125.2C117.383 125.232 117.48 125.282 117.574 125.352C117.668 125.422 117.758 125.503 117.846 125.597C117.933 125.69 118.017 125.791 118.096 125.898C118.176 126.006 118.249 126.11 118.315 126.213L119.585 128.192L119.586 128.193ZM115.46 122.628V124.491H116.117C116.442 124.491 116.703 124.397 116.9 124.211C117.1 124.021 117.2 123.786 117.2 123.506C117.2 122.921 116.848 122.628 116.145 122.628H115.46V122.628Z" fill="#F2F2F2"/>
<path d="M120.215 128.193V121.498H122.596C124.984 121.498 126.178 122.586 126.178 124.762C126.178 125.804 125.852 126.637 125.201 127.259C124.549 127.882 123.681 128.193 122.596 128.193H120.214H120.215ZM121.729 122.726V126.969H122.479C123.136 126.969 123.651 126.773 124.024 126.381C124.397 125.989 124.584 125.455 124.584 124.78C124.584 124.142 124.399 123.64 124.029 123.275C123.658 122.909 123.139 122.726 122.47 122.726H121.729Z" fill="#F2F2F2"/>
<path d="M130.135 128.31C129.172 128.31 128.388 127.997 127.782 127.373C127.175 126.75 126.872 125.936 126.872 124.934C126.872 123.876 127.18 123.02 127.796 122.366C128.412 121.713 129.228 121.386 130.243 121.386C131.203 121.386 131.979 121.698 132.571 122.324C133.163 122.95 133.459 123.775 133.459 124.799C133.459 125.823 133.152 126.699 132.538 127.343C131.923 127.987 131.123 128.31 130.135 128.31ZM130.201 122.684C129.669 122.684 129.247 122.883 128.935 123.279C128.622 123.676 128.466 124.201 128.466 124.855C128.466 125.508 128.622 126.042 128.935 126.428C129.247 126.814 129.657 127.007 130.163 127.007C130.669 127.007 131.099 126.819 131.405 126.444C131.712 126.069 131.865 125.548 131.865 124.883C131.865 124.217 131.716 123.648 131.42 123.262C131.123 122.876 130.717 122.684 130.201 122.684V122.684Z" fill="#F2F2F2"/>
<path d="M134.265 127.936V126.442C134.537 126.67 134.832 126.84 135.151 126.954C135.47 127.067 135.792 127.124 136.117 127.124C136.308 127.124 136.475 127.107 136.617 127.072C136.759 127.038 136.877 126.991 136.973 126.93C137.068 126.869 137.139 126.798 137.186 126.715C137.233 126.633 137.256 126.543 137.256 126.447C137.256 126.316 137.219 126.199 137.144 126.097C137.069 125.994 136.966 125.899 136.837 125.812C136.707 125.725 136.553 125.641 136.375 125.56C136.197 125.479 136.005 125.397 135.798 125.312C135.273 125.095 134.882 124.828 134.624 124.514C134.366 124.2 134.237 123.82 134.237 123.375C134.237 123.026 134.308 122.727 134.448 122.476C134.589 122.226 134.781 122.02 135.023 121.858C135.265 121.696 135.545 121.577 135.864 121.501C136.183 121.425 136.521 121.387 136.877 121.387C137.233 121.387 137.537 121.408 137.807 121.45C138.078 121.492 138.327 121.556 138.555 121.644V123.04C138.442 122.962 138.32 122.893 138.187 122.834C138.054 122.775 137.918 122.726 137.777 122.687C137.636 122.648 137.496 122.619 137.357 122.601C137.218 122.582 137.086 122.573 136.961 122.573C136.789 122.573 136.633 122.589 136.492 122.622C136.352 122.655 136.233 122.701 136.136 122.76C136.039 122.819 135.964 122.89 135.911 122.972C135.858 123.054 135.831 123.147 135.831 123.25C135.831 123.362 135.861 123.462 135.921 123.551C135.98 123.64 136.064 123.724 136.174 123.803C136.283 123.882 136.416 123.96 136.572 124.036C136.729 124.113 136.905 124.191 137.102 124.272C137.371 124.384 137.612 124.503 137.827 124.629C138.041 124.756 138.224 124.898 138.378 125.057C138.531 125.215 138.648 125.397 138.729 125.601C138.81 125.805 138.851 126.042 138.851 126.313C138.851 126.686 138.78 127 138.638 127.253C138.496 127.507 138.302 127.712 138.059 127.87C137.815 128.027 137.531 128.14 137.208 128.208C136.884 128.276 136.543 128.311 136.184 128.311C135.825 128.311 135.464 128.279 135.131 128.217C134.798 128.155 134.51 128.062 134.266 127.937L134.265 127.936Z" fill="#F2F2F2"/>
<path d="M143.989 128.193H139.957V121.498H143.834V122.726H141.471V124.216H143.67V125.439H141.471V126.97H143.989V128.193Z" fill="#F2F2F2"/>
<path d="M153.305 128.193H151.392L149.432 125.285C149.395 125.229 149.335 125.106 149.254 124.916H149.231V128.193H147.716V121.499H149.231V124.664H149.254C149.292 124.577 149.354 124.453 149.442 124.291L151.298 121.499H153.104L150.759 124.693L153.305 128.194V128.193Z" fill="#F2F2F2"/>
<path d="M155.462 128.193H153.947V121.498H155.462V128.193Z" fill="#F2F2F2"/>
<path d="M161.711 122.726H159.793V128.193H158.274V122.726H156.366V121.498H161.711V122.726Z" fill="#F2F2F2"/>
</g>
<defs>
<clipPath id="clip0_497_389">
<rect width="196" height="98" fill="white" transform="translate(19 61)"/>
</clipPath>
</defs>
</svg>
