<svg width="220" height="220" viewBox="0 0 220 220" fill="none" xmlns="http://www.w3.org/2000/svg">
<circle cx="110" cy="110" r="110" fill="#F9897A"/>
<g clip-path="url(#clip0_326_550)">
<path d="M188.312 145.889L128.038 41.6088C124.271 35.0939 117.53 31.2057 110 31.2057C102.47 31.2057 95.7289 35.0939 91.9623 41.606L31.6881 145.889C27.9243 152.401 27.9243 160.18 31.6881 166.692C35.4519 173.204 42.1954 177.095 49.7258 177.095H170.274C177.805 177.095 184.545 173.207 188.312 166.695C192.076 160.183 192.076 152.403 188.312 145.891V145.889ZM170.274 165.567H49.7258C42.5763 165.567 38.1067 157.836 41.6829 151.651L101.957 47.3712C105.53 41.1864 114.47 41.1864 118.043 47.3712L178.317 151.651C181.89 157.836 177.424 165.567 170.274 165.567Z" fill="#FCECE2"/>
<path d="M104.382 126.073L100.445 88.4352C99.8596 82.8351 104.256 77.9594 109.894 77.9594H110.106C115.741 77.9594 120.135 82.8267 119.555 88.424L115.657 126.064C115.36 128.923 112.949 131.097 110.07 131.097H109.966C107.09 131.097 104.679 128.926 104.38 126.07L104.382 126.073ZM101.296 145.097V144.921C101.296 140.14 105.178 136.263 109.964 136.263H110.14C114.926 136.263 118.808 140.14 118.808 144.921V145.097C118.808 149.877 114.926 153.755 110.14 153.755H109.964C105.178 153.755 101.296 149.877 101.296 145.097Z" fill="#FCECE2"/>
</g>
<path d="M165.147 131.934L127.466 81.0055C119.617 70.3979 121.85 55.4379 132.483 47.5859C143.1 39.7453 158.086 41.9903 165.934 52.5979L203.615 103.527C211.463 114.134 209.215 129.106 198.598 136.946C193.29 140.867 186.882 142.271 180.833 141.365C174.773 140.444 169.071 137.238 165.147 131.934Z" fill="#5762B8"/>
<path d="M165.147 131.934L146.301 106.462L184.769 78.0551L203.615 103.527C211.463 114.134 209.215 129.106 198.598 136.946C193.29 140.867 186.882 142.271 180.833 141.365C174.773 140.444 169.07 137.238 165.146 131.934H165.147Z" fill="#E3E1DD"/>
<g style="mix-blend-mode:multiply" opacity="0.3">
<path d="M165.147 131.934L127.466 81.0054C119.617 70.3979 121.85 55.4379 132.483 47.5859C132.914 47.2679 133.355 46.9651 133.809 46.6775C126.974 52.747 127.368 65.3402 134.898 75.5164L172.58 126.446C176.504 131.75 181.637 135.375 186.743 137.002C191.421 138.468 196.11 138.214 199.857 135.946C199.45 136.295 199.03 136.629 198.599 136.946C193.291 140.867 186.882 142.271 180.834 141.365C174.774 140.444 169.071 137.238 165.147 131.934Z" fill="#5762B8"/>
</g>
<g opacity="0.7">
<path d="M159.779 57.1428L174.946 77.6421C175.575 78.4911 176.773 78.6706 177.622 78.0437C178.472 77.4161 178.652 76.2186 178.024 75.3704L162.857 54.8711C162.228 54.0228 161.03 53.8425 160.181 54.4702C159.331 55.0978 159.151 56.2953 159.779 57.1436V57.1428Z" fill="white"/>
<path d="M156.261 52.2807C157.141 51.6309 157.326 50.3916 156.676 49.5137C156.026 48.6342 154.785 48.4494 153.906 49.0983C153.026 49.7473 152.841 50.9866 153.491 51.8653C154.141 52.744 155.381 52.9296 156.261 52.2807Z" fill="white"/>
</g>
<g opacity="0.7">
<path d="M197.172 107.683L182.005 87.1837C181.377 86.3347 181.557 85.1372 182.406 84.5096C183.256 83.8819 184.455 84.0615 185.082 84.9105L200.25 105.41C200.878 106.259 200.698 107.455 199.848 108.083C198.998 108.711 197.8 108.53 197.172 107.682V107.683Z" fill="white"/>
<path d="M200.793 112.469C201.673 111.819 202.913 112.005 203.564 112.884C204.213 113.762 204.027 115.002 203.148 115.651C202.268 116.3 201.028 116.115 200.377 115.236C199.727 114.357 199.914 113.118 200.793 112.469Z" fill="white"/>
</g>
<g style="mix-blend-mode:screen" opacity="0.2">
<path d="M191.336 127.134L139.742 57.4007C137.426 54.2709 139.16 49.8142 142.975 49.023C149.712 47.6254 156.965 50.1231 161.317 56.0054L199.003 106.941C203.346 112.811 203.614 120.475 200.304 126.502C198.429 129.916 193.653 130.266 191.336 127.135V127.134Z" fill="white"/>
</g>
<path d="M102.505 137.137L44.4572 162.589C32.3673 167.89 18.2563 162.407 12.9425 150.312C7.63619 138.234 13.142 124.129 25.2319 118.828L83.2802 93.375C95.3693 88.0738 109.488 93.5743 114.795 105.652C117.447 111.691 117.402 118.246 115.179 123.938C112.94 129.638 108.55 134.485 102.505 137.137Z" fill="#E3E1DD"/>
<path d="M102.505 137.137L73.4724 149.867L54.2471 106.106L83.28 93.3759C95.3691 88.0748 109.488 93.5753 114.795 105.653C117.447 111.692 117.401 118.247 115.179 123.939C112.94 129.639 108.55 134.486 102.505 137.138V137.137Z" fill="#819DFF"/>
<g style="mix-blend-mode:multiply" opacity="0.3">
<path d="M102.505 137.137L44.4571 162.589C32.3672 167.89 18.2562 162.407 12.9423 150.312C12.7276 149.821 12.5296 149.324 12.3491 148.818C16.7629 156.82 29.1437 159.22 40.7424 154.134L98.7907 128.681C104.836 126.031 109.51 121.831 112.226 117.216C114.692 112.983 115.481 108.358 114.096 104.205C114.345 104.679 114.579 105.162 114.795 105.652C117.447 111.691 117.401 118.246 115.179 123.938C112.94 129.638 108.55 134.485 102.505 137.137Z" fill="#9E3C1C"/>
</g>
<g opacity="0.7">
<path d="M28.3076 125.83L51.6725 115.585C52.6397 115.161 53.0798 114.033 52.6557 113.066C52.2307 112.099 51.1021 111.66 50.1343 112.084L26.7693 122.329C25.8014 122.753 25.3613 123.882 25.7862 124.848C26.2111 125.815 27.3397 126.254 28.3076 125.83Z" fill="white"/>
<path d="M22.7843 128.182C22.3442 127.181 21.176 126.726 20.1746 127.165C19.1732 127.605 18.7171 128.771 19.1572 129.772C19.5966 130.773 20.7648 131.228 21.767 130.789C22.7691 130.35 23.2245 129.183 22.7851 128.182H22.7843Z" fill="white"/>
</g>
<g opacity="0.7">
<path d="M85.9128 100.572L62.5478 110.817C61.5799 111.241 60.4514 110.801 60.0264 109.835C59.6015 108.868 60.0417 107.74 61.0096 107.316L84.3745 97.0709C85.3424 96.6471 86.471 97.0869 86.8959 98.0531C87.3208 99.02 86.8807 100.147 85.9128 100.572Z" fill="white"/>
<path d="M91.3857 98.1025C90.9463 97.1021 91.4017 95.9343 92.4031 95.4961C93.4044 95.0563 94.5726 95.512 95.0128 96.5125C95.4529 97.5129 94.9968 98.6799 93.9946 99.1189C92.9932 99.5586 91.8251 99.1029 91.3857 98.1025Z" fill="white"/>
</g>
<g style="mix-blend-mode:screen" opacity="0.4">
<path d="M103.558 110.439L24.0764 145.289C20.5087 146.853 16.5419 144.178 16.6128 140.286C16.7376 133.414 20.7798 126.9 27.4842 123.96L85.5401 98.5042C92.2308 95.5706 99.7706 97.0047 104.922 101.562C107.84 104.143 107.127 108.874 103.558 110.439Z" fill="white"/>
</g>
<defs>
<clipPath id="clip0_326_550">
<rect width="162.27" height="145.887" fill="white" transform="translate(28.8652 31.2057)"/>
</clipPath>
</defs>
</svg>
