<svg width="191" height="112" viewBox="0 0 191 112" fill="none" xmlns="http://www.w3.org/2000/svg">
<g clip-path="url(#clip0_249_392)">
<path d="M95.5 63.6667C69.1281 63.6667 47.75 85.0447 47.75 111.417H143.25C143.25 85.0447 121.872 63.6667 95.5 63.6667Z" fill="#5762B8"/>
<path d="M152.8 63.6667C165.986 63.6667 176.675 52.9775 176.675 39.7917C176.675 26.6059 165.986 15.9167 152.8 15.9167C139.614 15.9167 128.925 26.6059 128.925 39.7917C128.925 52.9775 139.614 63.6667 152.8 63.6667Z" fill="#F9897A"/>
<path d="M152.8 67.9144C146.404 67.9144 140.385 69.4962 135.083 72.2716C145.041 82.3389 151.208 96.1765 151.208 111.417H190.622C190.861 109.686 191 107.915 191 106.114C191 85.0149 173.9 67.9144 152.8 67.9144Z" fill="#F9897A"/>
<path d="M38.2 67.9144C17.1005 67.9144 0 85.0149 0 106.114C0 107.915 0.129323 109.686 0.378021 111.417H39.7917C39.7917 96.1665 45.9494 82.3389 55.9172 72.2716C50.6249 69.4962 44.5965 67.9144 38.2 67.9144Z" fill="#F9897A"/>
<path d="M95.4999 55.7083C110.883 55.7083 123.354 43.2376 123.354 27.8542C123.354 12.4707 110.883 0 95.4999 0C80.1165 0 67.6458 12.4707 67.6458 27.8542C67.6458 43.2376 80.1165 55.7083 95.4999 55.7083Z" fill="#5762B8"/>
<path d="M38.2 63.6667C51.3858 63.6667 62.075 52.9775 62.075 39.7917C62.075 26.6059 51.3858 15.9167 38.2 15.9167C25.0142 15.9167 14.325 26.6059 14.325 39.7917C14.325 52.9775 25.0142 63.6667 38.2 63.6667Z" fill="#F9897A"/>
</g>
<defs>
<clipPath id="clip0_249_392">
<rect width="191" height="111.417" fill="white"/>
</clipPath>
</defs>
</svg>
