<svg width="220" height="257" viewBox="0 0 220 257" fill="none" xmlns="http://www.w3.org/2000/svg">
<ellipse cx="110" cy="145.254" rx="110" ry="103.746" fill="#5762B8"/>
<g clip-path="url(#clip0_454_389)">
<path d="M91.5164 180.875L92.1089 233.735L92.6545 235.984L94.1848 237.922L96.4867 239.148L100.877 240.32H109.463H114.625L119.936 239.864L122.801 238.791L124.791 236.848L126.479 233.786V221.02V179.26L91.5164 178.195V180.875Z" fill="#F9897A"/>
<path d="M25.6908 133.841L22.6813 139.6V145.312L20 253.695L24.0965 255.518L29.6765 256.506L41.0793 257H48.1385L49.6688 256.553L51.6467 253.695L53.0279 229.424L56.5105 202.436L57.6998 199.126L63.9831 190.978L68.9109 187.076L80.3734 181.731L93.4516 180.372L115.196 180.287L130.226 181.475L139.144 183.596L146.787 187.502L151.544 191.574L156.894 198.108L160.462 207.019L162.67 229.846L163.604 248.008V251.233L164.878 253.946L167.001 256.408L169.631 257H189.253L194.773 256.237L196.64 254.542L197.403 252.336L198 247.582L197.233 243.425L195.962 198.449L195.11 176.551L194.432 154.151L194.347 140.145L194.176 137.347L192.292 133.841H25.6908Z" fill="#CBC8C3"/>
<path d="M59.7971 150.432H61.5022L63.7274 157.639V150.432H65.4495V163.462H63.7274L61.515 156.306V163.462H59.7971V150.432Z" fill="#F9897A"/>
<path d="M70.211 161.311H68.1393L67.8494 163.462H65.9866L68.2075 150.432H70.1982L72.4191 163.462H70.5094L70.2152 161.311H70.211ZM69.8316 158.495L69.1794 153.81L68.5357 158.495H69.8316Z" fill="#F9897A"/>
<path d="M73.0202 163.462V150.432H76.0596C76.6223 150.432 77.0528 150.539 77.3512 150.752C77.6496 150.965 77.8883 151.361 78.0716 151.94C78.2549 152.519 78.3444 153.222 78.3444 154.053C78.3444 154.777 78.2762 155.399 78.1356 155.923C77.9949 156.447 77.8031 156.872 77.5601 157.196C77.4024 157.405 77.1892 157.575 76.9207 157.712C77.1381 157.873 77.2958 158.031 77.3938 158.193C77.462 158.299 77.5601 158.529 77.6837 158.879C77.8116 159.228 77.8968 159.496 77.9395 159.688L78.8219 163.462H76.7587L75.7825 159.479C75.6589 158.964 75.5481 158.627 75.4543 158.474C75.3221 158.274 75.1729 158.172 75.0067 158.172H74.8447V163.462H73.0117H73.0202ZM74.8532 155.714H75.6205C75.7058 155.714 75.8635 155.654 76.1022 155.535C76.2216 155.48 76.3239 155.343 76.3963 155.126C76.4688 154.909 76.5114 154.653 76.5114 154.372C76.5114 153.95 76.4518 153.627 76.3281 153.405C76.2045 153.184 75.9786 153.069 75.6461 153.069H74.8447V155.718L74.8532 155.714Z" fill="#F9897A"/>
<path d="M83.1955 158.129L84.794 159.194C84.6875 160.182 84.517 161.008 84.2868 161.673C84.0566 162.337 83.771 162.836 83.4257 163.176C83.0804 163.517 82.6456 163.683 82.117 163.683C81.4734 163.683 80.949 163.479 80.5441 163.066C80.1391 162.652 79.7853 161.928 79.4912 160.893C79.197 159.858 79.0479 158.529 79.0479 156.915C79.0479 154.76 79.3079 153.103 79.8279 151.944C80.348 150.786 81.0812 150.206 82.0318 150.206C82.7778 150.206 83.3618 150.539 83.788 151.203C84.2143 151.867 84.5298 152.886 84.7386 154.261L83.1273 155.054C83.0719 154.657 83.0122 154.368 82.9483 154.185C82.846 153.878 82.7223 153.639 82.5731 153.473C82.424 153.307 82.262 153.226 82.0787 153.226C81.6652 153.226 81.3497 153.593 81.1281 154.325C80.9618 154.87 80.8766 155.727 80.8766 156.889C80.8766 158.333 80.9746 159.322 81.175 159.858C81.3753 160.395 81.6524 160.663 82.0147 160.663C82.3771 160.663 82.6286 160.446 82.8076 160.016C82.9866 159.586 83.1145 158.955 83.1955 158.133V158.129Z" fill="#F9897A"/>
<path d="M89.3125 161.311H87.2408L86.951 163.462H85.0881L87.309 150.432H89.2997L91.5206 163.462H89.6109L89.3168 161.311H89.3125ZM88.9331 158.495L88.2809 153.81L87.6373 158.495H88.9331Z" fill="#F9897A"/>
<path d="M92.1089 150.432H93.814L96.0392 157.639V150.432H97.7613V163.462H96.0392L93.8268 156.306V163.462H92.1089V150.432Z" fill="#F9897A"/>
<path d="M108.998 141.376C155.005 141.376 192.301 138.003 192.301 133.841C192.301 129.68 155.005 126.306 108.998 126.306C62.991 126.306 25.6951 129.68 25.6951 133.841C25.6951 138.003 62.991 141.376 108.998 141.376Z" fill="#E1E3E0"/>
<path d="M104.513 150.994L106.351 150.964L108.866 158.01L108.751 150.926L110.605 150.896L110.814 163.7L108.959 163.73L106.457 156.736L106.572 163.768L104.722 163.798L104.513 150.994Z" fill="#646161"/>
<path d="M115.92 161.502L113.687 161.541L113.41 163.658L111.398 163.692L113.584 150.845L115.733 150.811L118.337 163.577L116.274 163.611L115.92 161.502ZM115.469 158.738L114.689 154.146L114.066 158.759L115.464 158.738H115.469Z" fill="#646161"/>
<path d="M118.551 159.334L120.422 159.066C120.473 159.675 120.563 160.139 120.691 160.459C120.904 160.974 121.198 161.23 121.573 161.221C121.854 161.217 122.068 161.081 122.217 160.812C122.366 160.544 122.434 160.237 122.43 159.888C122.426 159.539 122.349 159.262 122.2 159.002C122.051 158.742 121.709 158.499 121.181 158.278C120.311 157.903 119.685 157.392 119.31 156.753C118.93 156.114 118.73 155.292 118.713 154.291C118.7 153.635 118.785 153.009 118.969 152.421C119.152 151.833 119.425 151.369 119.804 151.028C120.183 150.688 120.699 150.513 121.364 150.5C122.178 150.487 122.805 150.781 123.24 151.382C123.675 151.982 123.947 152.949 124.05 154.274L122.195 154.521C122.136 153.946 122.025 153.529 121.863 153.269C121.701 153.009 121.479 152.881 121.202 152.885C120.972 152.885 120.802 152.988 120.691 153.188C120.58 153.388 120.524 153.622 120.529 153.903C120.529 154.108 120.584 154.291 120.682 154.453C120.776 154.619 121.002 154.772 121.351 154.913C122.217 155.271 122.839 155.637 123.219 156.012C123.598 156.387 123.875 156.855 124.054 157.418C124.233 157.98 124.327 158.61 124.34 159.309C124.352 160.131 124.254 160.889 124.037 161.588C123.82 162.286 123.517 162.814 123.116 163.181C122.715 163.547 122.208 163.734 121.59 163.743C120.507 163.76 119.749 163.355 119.318 162.52C118.888 161.686 118.632 160.625 118.559 159.334H118.551Z" fill="#646161"/>
<path d="M129.276 161.285L127.042 161.324L126.765 163.441L124.753 163.475L126.94 150.628L129.088 150.594L131.693 163.36L129.63 163.394L129.276 161.285ZM128.824 158.521L128.044 153.929L127.421 158.542L128.82 158.521H128.824Z" fill="#646161"/>
<path d="M132.106 150.543L134.076 150.509L134.233 160.161L137.307 160.11L137.358 163.262L132.315 163.343L132.106 150.539V150.543Z" fill="#646161"/>
<path d="M140.811 158.972L142.682 158.704C142.733 159.313 142.823 159.777 142.951 160.097C143.164 160.612 143.458 160.868 143.833 160.859C144.114 160.855 144.328 160.719 144.477 160.45C144.626 160.182 144.694 159.875 144.69 159.526C144.686 159.177 144.609 158.9 144.46 158.64C144.311 158.38 143.969 158.137 143.441 157.916C142.571 157.541 141.945 157.03 141.57 156.391C141.19 155.752 140.99 154.93 140.973 153.929C140.96 153.273 141.045 152.647 141.229 152.059C141.412 151.471 141.685 151.007 142.064 150.666C142.443 150.326 142.959 150.151 143.624 150.138C144.438 150.125 145.065 150.419 145.5 151.02C145.935 151.62 146.207 152.587 146.31 153.912L144.455 154.159C144.396 153.584 144.285 153.167 144.123 152.907C143.961 152.647 143.739 152.519 143.462 152.523C143.232 152.523 143.062 152.626 142.951 152.826C142.84 153.026 142.784 153.26 142.789 153.541C142.789 153.746 142.844 153.929 142.942 154.091C143.036 154.257 143.262 154.41 143.611 154.551C144.477 154.909 145.099 155.275 145.479 155.65C145.858 156.025 146.135 156.493 146.314 157.055C146.493 157.618 146.587 158.248 146.6 158.947C146.612 159.769 146.514 160.527 146.297 161.226C146.08 161.924 145.777 162.452 145.376 162.819C144.976 163.185 144.468 163.372 143.85 163.381C142.767 163.398 142.009 162.993 141.578 162.158C141.148 161.323 140.892 160.263 140.819 158.972H140.811Z" fill="#646161"/>
<path d="M147.435 150.292L150.709 150.236C151.421 150.223 151.962 150.556 152.329 151.233C152.695 151.91 152.887 152.877 152.908 154.134C152.93 155.39 152.751 156.438 152.376 157.175C152 157.912 151.416 158.282 150.624 158.295L149.545 158.312L149.622 163.066L147.644 163.1L147.435 150.296V150.292ZM149.502 155.718L149.984 155.71C150.364 155.705 150.628 155.565 150.777 155.301C150.926 155.037 150.999 154.692 150.99 154.278C150.982 153.865 150.913 153.537 150.773 153.26C150.632 152.984 150.381 152.847 150.014 152.852L149.451 152.86L149.498 155.718H149.502Z" fill="#646161"/>
<path d="M154.106 162.993L153.897 150.189L157.18 150.134C157.789 150.125 158.254 150.219 158.582 150.423C158.91 150.628 159.175 151.011 159.379 151.578C159.584 152.144 159.695 152.834 159.708 153.648C159.72 154.359 159.652 154.973 159.512 155.492C159.371 156.012 159.17 156.429 158.91 156.757C158.744 156.962 158.518 157.136 158.228 157.277C158.467 157.43 158.638 157.584 158.748 157.741C158.821 157.843 158.932 158.069 159.072 158.41C159.217 158.751 159.311 159.015 159.362 159.202L160.377 162.899L158.152 162.938L157.035 159.04C156.894 158.538 156.771 158.21 156.664 158.061C156.519 157.865 156.357 157.767 156.178 157.771H156.003L156.089 162.972L154.111 163.006L154.106 162.993ZM155.961 155.343L156.792 155.33C156.881 155.33 157.056 155.267 157.312 155.147C157.44 155.092 157.546 154.956 157.623 154.738C157.7 154.521 157.738 154.274 157.734 153.993C157.725 153.58 157.657 153.265 157.521 153.043C157.384 152.822 157.141 152.719 156.779 152.724L155.914 152.736L155.956 155.339L155.961 155.343Z" fill="#646161"/>
<path d="M164.891 160.702L162.658 160.74L162.38 162.857L160.368 162.891L162.555 150.044L164.704 150.01L167.308 162.776L165.245 162.81L164.891 160.702ZM164.439 157.937L163.659 153.345L163.037 157.958L164.435 157.937H164.439Z" fill="#646161"/>
<path d="M166.323 149.985L168.51 149.951L169.866 154.249L171.081 149.908L173.255 149.874L170.897 157.358L170.987 162.721L169.013 162.755L168.924 157.392L166.319 149.989L166.323 149.985Z" fill="#646161"/>
<path d="M49.2168 149.512H51.8086V151.999L53.7737 150.432L55.449 152.434L53.8206 154.389H56.4081V157.652H54.0593L55.8795 159.569L53.6288 161.439L52.0004 159.522L52.0942 162.154H49.2168V159.713L47.614 161.319L45.504 159.211L47.3498 157.366L45.001 157.268V154.389H47.111L45.3846 152.383L47.3242 150.445L49.1444 152.264L49.2168 149.512Z" fill="#F9897A"/>
<path d="M131.799 67.7513C131.799 90.761 138.752 118.452 134.553 130.43C132.034 137.615 111.914 135.758 108.648 135.758C105.758 135.758 86.222 136.759 83.8902 131.026C79.1969 119.478 85.2032 97.4441 85.2032 72.8371C85.2032 52.7707 87.731 25.4632 91.0474 13.2385C93.8182 3.03701 104.684 0 108.648 0C112.613 0 122.946 1.59731 125.699 11.5006C129.097 23.7296 131.799 47.4123 131.799 67.7513Z" fill="#CCCBC7"/>
<path d="M82.0999 124.211V132.644C117.83 141.917 135.9 132.644 135.9 132.644V124.211C124.037 131.746 82.0999 124.211 82.0999 124.211Z" fill="#D4D4D2"/>
</g>
<defs>
<clipPath id="clip0_454_389">
<rect width="178" height="257" fill="white" transform="translate(20)"/>
</clipPath>
</defs>
</svg>
