<svg width="145" height="138" viewBox="0 0 145 138" fill="none" xmlns="http://www.w3.org/2000/svg">
<path d="M96.8091 0H48.1914C41.0022 0 35.1748 5.82377 35.1748 13.0068V124.479C35.1748 131.662 41.003 137.485 48.1914 137.485H96.8091C103.998 137.485 109.826 131.662 109.826 124.479V13.0068C109.826 5.82299 103.998 0 96.8091 0ZM103.723 115.295C103.723 116.507 102.739 117.489 101.527 117.489H43.4747C42.2614 117.489 41.2787 116.506 41.2787 115.295V22.1908C41.2787 20.9784 42.2621 19.9964 43.4747 19.9964H101.527C102.74 19.9964 103.723 20.9792 103.723 22.1908V115.295Z" fill="#F9897A"/>
<path d="M78.8873 11.7028H66.1124C65.1044 11.7028 64.2876 10.8866 64.2876 9.87941C64.2876 8.87221 65.1044 8.05603 66.1124 8.05603H78.8873C79.8952 8.05603 80.712 8.87221 80.712 9.87941C80.712 10.8866 79.8952 11.7028 78.8873 11.7028Z" fill="#FCECE2"/>
<path d="M130.577 98.0175C129.851 98.0175 129.125 97.7405 128.57 97.1871C127.46 96.0797 127.459 94.2824 128.568 93.1741C131.941 89.8013 134.589 85.8751 136.437 81.5052C138.35 76.9823 139.32 72.176 139.32 67.2197C139.32 62.2634 138.349 57.4524 136.434 52.9271C134.583 48.5549 131.933 44.6271 128.557 41.2543C127.448 40.146 127.448 38.3495 128.557 37.2412C129.666 36.133 131.464 36.133 132.573 37.2412C136.469 41.1343 139.528 45.6675 141.665 50.7161C143.878 55.9447 145 61.497 145 67.2197C145 72.9425 143.879 78.4884 141.668 83.7146C139.534 88.7609 136.477 93.2933 132.586 97.1856C132.032 97.7405 131.304 98.0175 130.577 98.0175Z" fill="#5762B8"/>
<path d="M121.399 85.9358C120.752 85.9358 120.101 85.7156 119.568 85.2657C118.37 84.2545 118.219 82.4635 119.232 81.2669C122.546 77.3478 124.37 72.3591 124.37 67.2197C124.37 62.0803 122.544 57.0869 119.227 53.1663C118.214 51.9696 118.364 50.1786 119.562 49.1674C120.759 48.1555 122.552 48.3055 123.564 49.5021C127.746 54.445 130.049 60.7376 130.049 67.2197C130.049 73.7018 127.748 79.9873 123.57 84.9294C123.008 85.5941 122.207 85.9358 121.399 85.9358Z" fill="#5762B8"/>
<path d="M14.4227 98.0175C13.6952 98.0175 12.9684 97.7404 12.4139 97.1855C8.52187 93.2933 5.46639 88.7609 3.33118 83.7146C1.12093 78.4884 0 72.9385 0 67.2197C0 61.5009 1.12251 55.9447 3.33513 50.7161C5.47192 45.6675 8.53135 41.1335 12.4265 37.2412C13.5356 36.133 15.3335 36.133 16.4426 37.2412C17.5517 38.3495 17.5517 40.146 16.4426 41.2542C13.0672 44.6271 10.4169 48.5549 8.56611 52.927C6.65051 57.4524 5.67967 62.261 5.67967 67.2197C5.67967 72.1783 6.64972 76.9815 8.56295 81.5052C10.4114 85.8758 13.0593 89.8012 16.4315 93.1741C17.5398 94.2831 17.539 96.0797 16.43 97.1871C15.8754 97.7404 15.1495 98.0175 14.4227 98.0175Z" fill="#5762B8"/>
<path d="M23.6 85.9358C22.7927 85.9358 21.9909 85.5941 21.4293 84.9294C17.2513 79.9873 14.9502 73.6979 14.9502 67.2197C14.9502 60.7416 17.2537 54.4458 21.4356 49.5021C22.4483 48.3055 24.2399 48.1555 25.4374 49.1674C26.635 50.1794 26.7851 51.9696 25.7724 53.1663C22.4554 57.0861 20.6291 62.0772 20.6291 67.2197C20.6291 72.3623 22.4538 77.3478 25.7676 81.2669C26.7796 82.4643 26.6287 84.2545 25.4311 85.2657C24.8979 85.7156 24.247 85.9358 23.6 85.9358Z" fill="#5762B8"/>
</svg>
