<svg width="82" height="79" viewBox="0 0 82 79" fill="none" xmlns="http://www.w3.org/2000/svg">
<g clip-path="url(#clip0_249_319)">
<path d="M75.1185 19.1868C74.1601 16.872 73.6808 15.696 72.7346 13.3812L73.6931 9.06111C73.6931 9.06111 70.3998 6.0036 68.7532 4.3325L65.3616 5.95409C63.0637 5.00094 61.8963 4.51818 59.5984 3.55265L58.345 0H50.4313L49.1779 3.55265C46.88 4.51818 45.7249 5.00094 43.4147 5.95409L40.0354 4.3325C38.1757 6.21404 36.312 8.09145 34.4442 9.96474L36.054 13.3812C35.0955 15.696 34.6162 16.872 33.67 19.1868L30.131 20.4494V28.4212L33.67 29.6838C34.6162 31.9986 35.0955 33.1746 36.054 35.4893L34.4442 38.8934L40.0354 44.5257L43.4147 42.9041C45.7249 43.8696 46.88 44.3524 49.1779 45.3179L50.4313 48.8706H58.345L59.5984 45.3179C61.8963 44.3524 63.0637 43.8696 65.3616 42.9041L68.7532 44.5257C70.6128 42.6524 72.4766 40.775 74.3444 38.8934L72.7346 35.4893C73.6808 33.1746 74.1601 31.9986 75.1185 29.6838L78.6453 28.4212V20.4494L75.1185 19.1868ZM63.6044 33.583C62.1175 29.9314 58.5539 27.3566 54.3881 27.3566C50.2224 27.3566 46.6711 29.919 45.1719 33.5707C42.874 31.2187 41.4485 27.9879 41.4485 24.4353C41.4485 17.231 47.2486 11.4007 54.3881 11.4007C61.5277 11.4007 67.3277 17.231 67.3277 24.4353C67.3277 27.9879 65.9023 31.2311 63.6044 33.583Z" fill="#F9897A"/>
<path d="M58.4187 20.6598C58.4187 22.9004 56.6123 24.72 54.3881 24.72C52.1639 24.72 50.3575 22.9004 50.3575 20.6598C50.3575 18.4193 52.1639 16.5997 54.3881 16.5997C56.6123 16.5997 58.4187 18.4193 58.4187 20.6598Z" fill="#F9897A"/>
<path d="M77.0723 52.8812L47.0151 61.4843C44.8401 63.6258 43.0828 65.2474 39.9985 64.5666C40.576 64.7027 31.4704 62.6603 27.3169 61.7319C26.6533 61.5338 26.2478 60.8406 26.3953 60.1598C26.555 59.4418 27.2678 58.9838 27.9928 59.1324L40.5637 61.9299C42.6404 62.3879 45.3193 61.0139 45.6757 59.8627C46.2532 57.5108 44.9015 55.1093 42.6036 54.4038L26.211 49.3657C24.38 48.8087 22.4507 48.7344 20.6075 49.1552L16.835 49.997C16.835 50.3436 16.8472 55.4931 16.8841 72.6869L35.2675 78.3439C39.126 79.5322 43.2794 79.1361 46.8185 77.2298L80.0461 59.5532C81.7419 58.662 82.5038 56.5205 81.619 54.7256C80.7957 53.0297 78.8296 52.2375 77.0723 52.8936V52.8812Z" fill="#F9897A"/>
<path d="M9.69549 45.8873H0L0.0614416 77.5022H9.74464C12.2146 77.4774 14.2176 75.4597 14.2176 72.9592L14.1807 50.3807C14.1807 47.8927 12.1654 45.8749 9.69549 45.8873ZM9.53574 70.075C9.09336 71.5481 7.53274 72.3898 6.07043 71.9318C4.60812 71.4862 3.77252 69.9141 4.22718 68.4411C4.66956 66.968 6.23018 66.1263 7.69249 66.5843C9.1548 67.0299 9.99041 68.602 9.53574 70.075Z" fill="#F9897A"/>
</g>
<defs>
<clipPath id="clip0_249_319">
<rect width="82" height="79" fill="white"/>
</clipPath>
</defs>
</svg>
