<svg width="156" height="168" viewBox="0 0 156 168" fill="none" xmlns="http://www.w3.org/2000/svg">
<g clip-path="url(#clip0_249_296)">
<path d="M150.149 18.3635C150.149 18.3635 150.112 18.2897 150.112 18.2529C150.038 18.1791 149.965 18.1054 149.928 18.0316C149.192 16.8885 148.419 15.7454 147.536 14.676C146.616 13.5329 145.659 12.4267 144.628 11.3573C137.673 4.38806 128.51 0.442493 118.72 0.0737489C118.205 0.0368744 117.727 0 117.248 0H117.175C116.623 0 116.071 0.0368744 115.519 0.0737489C114.783 0.110623 114.047 0.110623 113.311 0.184372C113.016 0.221247 112.722 0.294996 112.391 0.33187C111.434 0.442493 110.477 0.553117 109.557 0.737489C109.41 0.774363 109.263 0.811238 109.115 0.848112C106.797 1.32748 104.515 2.02809 102.307 2.94996C102.27 2.94996 102.234 2.98683 102.197 2.98683C101.093 3.4662 99.9887 3.98244 98.8847 4.57243C98.6638 4.68305 98.443 4.83055 98.2222 4.97805C97.3758 5.45742 96.4926 5.97366 95.6461 6.52678C94.9101 7.04302 94.1741 7.59614 93.4381 8.18613C93.1437 8.3705 92.8493 8.59175 92.5917 8.81299C91.782 9.47673 91.0092 10.2142 90.2364 10.9517C90.0524 11.0992 89.8684 11.2467 89.7212 11.3942L77.9816 23.1203L66.2788 11.3942C65.322 10.4723 64.3652 9.58736 63.3347 8.77612C63.1875 8.62862 63.0403 8.55487 62.8931 8.40737C62.0099 7.70676 61.1267 7.04302 60.1699 6.41615C53.8769 2.24934 46.4798 0 38.7884 0H38.7516C32.4954 0 26.4968 1.47498 21.1238 4.27744C20.9766 4.35118 20.8294 4.38806 20.719 4.46181C20.0566 4.79368 19.431 5.1993 18.8054 5.60492C18.2902 5.89991 17.8117 6.15803 17.3333 6.4899C17.2229 6.56365 17.1125 6.6374 17.0021 6.71115C15.0149 8.0755 13.1012 9.62423 11.3715 11.3573C9.31069 13.4223 7.58103 15.6716 6.07219 18.0316C5.99858 18.1054 5.96178 18.1791 5.88818 18.2529C5.88818 18.2897 5.88818 18.3266 5.88818 18.3635C2.09766 24.4478 0 31.4908 0 38.8657C0 49.1905 4.04812 58.9622 11.4084 66.374L18.695 73.6751L44.1614 48.1212L55.8641 59.8841C57.9618 61.9491 58.3298 65.1572 56.9682 67.6277H57.0418C59.949 70.2458 63.7396 71.9789 68.3765 72.8639C71.0998 73.3802 73.7495 74.3758 76.2519 75.8507L77.172 76.367C80.5577 73.5645 84.6058 71.7577 89.0219 71.0939C92.7021 70.504 96.3086 68.8446 99.1423 66.4109C97.6334 63.9034 97.9646 60.5847 100.136 58.4091L111.802 46.6831L138.041 72.9745L144.592 66.374C146.432 64.5303 148.051 62.5391 149.486 60.4003C153.718 54.0579 156 46.6093 156 38.8657C155.963 31.4539 153.902 24.4478 150.149 18.3635Z" fill="#F9897A"/>
<path d="M36.5804 121.428C35.4027 120.248 33.8571 119.658 32.3482 119.658C30.8394 119.658 29.3305 120.248 28.1897 121.391L25.0248 124.562C22.6695 126.922 22.3751 130.72 24.3624 133.006C26.5336 135.514 30.729 135.661 33.0474 133.338L33.4155 132.969L36.5804 129.798C38.862 127.512 38.8988 123.751 36.5804 121.428Z" fill="#819DFF"/>
<path d="M47.5103 140.787C49.792 138.464 49.792 134.702 47.5103 132.416C46.3695 131.273 44.8606 130.683 43.3518 130.683C41.8429 130.683 40.3341 131.273 39.1564 132.416L35.9915 135.587C33.6363 137.947 33.3419 141.745 35.3291 144.032C37.5004 146.539 41.6221 146.687 43.9774 144.327L44.2718 144.032L47.4735 140.787H47.5103Z" fill="#819DFF"/>
<path d="M53.2512 62.4653L44.1613 53.3573L7.1394 90.4899L16.1925 99.6347C16.7445 100.188 17.4805 100.483 18.2533 100.483C19.0262 100.483 19.7622 100.188 20.2774 99.6347L53.2512 66.5583C54.3553 65.4521 54.3553 63.6084 53.2512 62.4653Z" fill="#819DFF"/>
<path d="M60.2434 147.572C60.2434 145.986 59.6178 144.511 58.5138 143.368C57.4097 142.225 55.9009 141.635 54.3553 141.635C52.7728 141.635 51.3008 142.262 50.1599 143.368L46.9582 146.613C44.6398 148.936 44.3453 152.586 46.2958 154.91C48.4671 157.491 52.6624 157.675 55.0177 155.278L55.3489 154.946L58.5506 151.738C59.6546 150.632 60.2802 149.12 60.2802 147.535" fill="#819DFF"/>
<path d="M65.2852 152.66C63.7028 152.66 62.2307 153.287 61.0899 154.393L57.8882 157.601C55.5329 159.961 55.2385 163.612 57.2258 165.935C59.397 168.516 63.5188 168.737 65.9477 166.304L69.4806 162.764C70.5846 161.658 71.2102 160.146 71.2102 158.56C71.2102 156.974 70.5846 155.5 69.4806 154.356C68.3029 153.213 66.8309 152.586 65.2852 152.586" fill="#819DFF"/>
<path d="M102.749 61.0272C101.608 62.1703 101.608 63.9771 102.749 65.1202C102.749 65.1202 102.786 65.194 102.822 65.2309C102.859 65.2677 102.933 65.3046 102.97 65.3415L124.461 86.913L135.686 98.1966C135.686 98.1966 135.686 98.1966 135.723 98.1966C136.275 98.7497 137.011 99.0447 137.783 99.0447C138.556 99.0447 139.292 98.7497 139.808 98.1966L148.861 89.0518L111.802 51.9192L102.712 61.0272H102.749Z" fill="#819DFF"/>
<path d="M89.5371 74.7446C85.1578 75.3714 81.2201 77.3627 78.092 80.497L63.3347 95.3205C61.8627 96.7955 61.4579 99.008 62.2675 100.962C63.0035 102.806 64.586 103.875 66.4996 103.912C70.4741 103.912 74.1175 102.4 76.8407 99.6717L85.305 91.2274C86.3354 90.2318 87.6603 89.7156 88.9851 89.7156C90.31 89.7156 91.6716 90.2318 92.6652 91.2274L92.7756 91.3381L121.297 119.879C123.321 117.482 124.903 114.532 125.676 111.693L126.117 109.96C127.148 106.051 129.135 102.511 131.932 99.6348L101.571 69.1396C98.1854 72.0527 93.9901 74.0071 89.5003 74.7077" fill="#819DFF"/>
<path d="M90.0892 93.8455C89.5004 93.2555 88.5067 93.2555 87.9179 93.8455L79.4537 102.29C76.0312 105.719 71.4678 107.6 66.6101 107.6C63.0772 107.6 60.1699 105.572 58.8818 102.363C57.5202 99.0079 58.2562 95.2098 60.7587 92.7023L74.4119 79.0219C72.3142 77.7682 70.0326 76.9201 67.7141 76.4776C62.4147 75.482 58.0354 73.4539 54.6129 70.4302L24.2151 100.925L24.5832 101.331C27.38 104.244 29.4041 107.858 30.4345 111.766L30.8762 113.389C31.097 114.274 31.4282 115.159 31.833 116.044C34.4827 115.896 37.1692 116.781 39.1564 118.809C41.4013 121.096 42.2845 124.23 41.8061 127.143C44.7502 126.664 47.8415 127.549 50.1231 129.798C52.368 132.047 53.2512 135.182 52.7728 138.095C53.288 138.021 53.7665 137.947 54.2817 137.947C56.8578 137.947 59.2498 138.943 61.0531 140.75L59.765 142.077L61.0531 140.787C62.8563 142.593 63.85 145.027 63.85 147.572C63.85 148.125 63.7764 148.641 63.7028 149.157C66.6469 148.715 69.8118 149.563 72.0198 151.738L70.7318 153.066L72.0198 151.775C73.8231 153.582 74.8167 156.016 74.8167 158.56C74.8167 159.408 74.6695 160.219 74.4487 160.994L79.7113 166.267C82.1033 168.664 86.2251 168.479 88.4699 165.861C90.3836 163.575 90.126 159.961 87.8443 157.601L65.0276 134.702C64.2916 133.965 64.2916 132.822 65.0276 132.084C65.2116 131.9 65.3956 131.752 65.6532 131.679C66.3157 131.421 67.1253 131.531 67.6405 132.084L90.4204 154.91C90.4204 154.91 90.4204 154.91 90.4572 154.946L90.7148 155.205C93.0333 157.528 96.787 157.528 99.0687 155.205C100.173 154.098 100.798 152.586 100.798 151.001C100.798 149.415 100.173 147.94 99.0687 146.797L75.9944 123.64C75.2583 122.903 75.2583 121.759 75.9944 121.022C76.6936 120.284 77.8712 120.284 78.6072 121.022L101.682 144.142C104 146.465 107.754 146.465 110.072 144.142C111.176 143.036 111.802 141.524 111.802 139.939C111.802 138.353 111.176 136.878 110.072 135.735L86.9979 112.615C86.6299 112.246 86.4459 111.766 86.4459 111.324C86.4459 110.881 86.6299 110.365 86.9979 110.033C87.7339 109.296 88.8747 109.296 89.6108 110.033L112.685 133.154C115.261 135.735 119.972 135.182 121.922 132.047C123.357 129.761 122.842 126.516 120.671 124.377L90.0156 93.698L90.0892 93.8455Z" fill="#819DFF"/>
</g>
<defs>
<clipPath id="clip0_249_296">
<rect width="156" height="168" fill="white"/>
</clipPath>
</defs>
</svg>
