<svg width="220" height="220" viewBox="0 0 220 220" fill="none" xmlns="http://www.w3.org/2000/svg">
<ellipse cx="107.37" cy="117.624" rx="107.37" ry="102.376" fill="#F9897A"/>
<path opacity="0.5" d="M89.9838 91.5728C86.1259 91.1184 83.2282 87.9937 83.2282 84.2885V67.9571H38.67V84.2885C38.67 87.9937 35.7723 91.1184 31.9144 91.5728C26.7426 92.1825 22.8594 96.3701 22.8594 101.337V184.61C22.8594 191.499 28.7176 197.084 35.9459 197.084H85.9537C93.1806 197.084 99.0402 191.5 99.0402 184.61V101.337C99.0402 96.3701 95.157 92.1825 89.9851 91.5728H89.9838Z" fill="white" stroke="white" stroke-width="2" stroke-miterlimit="10"/>
<path opacity="0.3" d="M89.9942 91.5729C86.1364 91.1185 83.2694 87.9937 83.2694 84.2886V67.952H38.7312V84.2886C38.7312 87.9937 35.7961 91.1185 31.9369 91.5729C26.7651 92.1825 22.8445 96.3701 22.8445 101.337V184.61C22.8445 191.499 28.7187 197.094 35.9457 197.094H85.9534C93.1804 197.094 99.0173 191.499 99.0173 184.61V101.337C99.0173 96.3701 95.1647 92.1825 89.9942 91.5729ZM90.0517 184.61C90.0517 186.76 88.2236 188.501 85.9695 188.501H35.947C33.6876 188.501 31.8394 186.74 31.8394 184.586V101.337C31.8394 100.694 32.3442 100.15 33.0132 100.071C41.3579 99.0875 47.6501 92.3035 47.6501 84.2886C47.6501 79.9877 51.3076 76.5015 55.8198 76.5015H66.0713C70.5835 76.5015 74.241 79.9877 74.241 84.2886C74.241 92.3022 80.5386 99.1066 88.8832 100.049C89.5522 100.134 90.053 100.694 90.053 101.337V184.61H90.0517Z" fill="white"/>
<path d="M89.9838 91.5728C86.1259 91.1184 83.2282 87.9937 83.2282 84.2885V67.9571H38.67V84.2885C38.67 87.9937 35.7723 91.1184 31.9144 91.5728C26.7426 92.1825 22.8594 96.3701 22.8594 101.337V184.61C22.8594 191.499 28.7176 197.084 35.9459 197.084H85.9537C93.1806 197.084 99.0402 191.5 99.0402 184.61V101.337C99.0402 96.3701 95.157 92.1825 89.9851 91.5728H89.9838Z" fill="#F2F2F2"/>
<path opacity="0.3" d="M89.9942 91.5729C86.1364 91.1185 83.2694 87.9937 83.2694 84.2886V67.952H38.7312V84.2886C38.7312 87.9937 35.7961 91.1185 31.9369 91.5729C26.7651 92.1825 22.8445 96.3701 22.8445 101.337V184.61C22.8445 191.499 28.7187 197.094 35.9457 197.094H85.9534C93.1804 197.094 99.0173 191.499 99.0173 184.61V101.337C99.0173 96.3701 95.1647 92.1825 89.9942 91.5729ZM90.0517 184.61C90.0517 186.76 88.2236 188.501 85.9695 188.501H35.947C33.6876 188.501 31.8394 186.74 31.8394 184.586V101.337C31.8394 100.694 32.3442 100.15 33.0132 100.071C41.3579 99.0875 47.6501 92.3035 47.6501 84.2886C47.6501 79.9877 51.3076 76.5015 55.8198 76.5015H66.0713C70.5835 76.5015 74.241 79.9877 74.241 84.2886C74.241 92.3022 80.5386 99.1066 88.8832 100.049C89.5522 100.134 90.053 100.694 90.053 101.337V184.61H90.0517Z" fill="#CCCCCC"/>
<path d="M32.2935 37.7558H89.6043C91.4004 37.7558 92.8586 39.1457 92.8586 40.8577V49.1297C92.8586 49.6999 92.3725 50.1632 91.7743 50.1632H30.1248C29.5266 50.1632 29.0405 49.6999 29.0405 49.1297V40.8577C29.0405 39.1457 30.4987 37.7558 32.2948 37.7558H32.2935Z" fill="#F8A217"/>
<path d="M99.0388 179.698H35.0298C30.5497 179.698 26.9175 176.236 26.9175 171.966V115.709C26.9175 111.439 30.5497 107.977 35.0298 107.977H99.0388V179.698Z" fill="#FCFCFC"/>
<path d="M65.1287 152.594H31.9931C31.3574 152.594 30.842 153.085 30.842 153.691V155.844C30.842 156.449 31.3574 156.941 31.9931 156.941H65.1287C65.7644 156.941 66.2797 156.449 66.2797 155.844V153.691C66.2797 153.085 65.7644 152.594 65.1287 152.594Z" fill="black"/>
<path d="M72.7656 160.348H31.9931C31.3574 160.348 30.842 160.839 30.842 161.445V163.597C30.842 164.203 31.3574 164.695 31.9931 164.695H72.7656C73.4013 164.695 73.9166 164.203 73.9166 163.597V161.445C73.9166 160.839 73.4013 160.348 72.7656 160.348Z" fill="black"/>
<path d="M85.4702 168.102H31.9931C31.3574 168.102 30.842 168.593 30.842 169.199V171.351C30.842 171.957 31.3574 172.449 31.9931 172.449H85.4702C86.1059 172.449 86.6212 171.957 86.6212 171.351V169.199C86.6212 168.593 86.1059 168.102 85.4702 168.102Z" fill="black"/>
<path d="M53.6994 144.841H31.9931C31.3574 144.841 30.842 145.333 30.842 145.938V148.091C30.842 148.697 31.3574 149.188 31.9931 149.188H53.6994C54.3351 149.188 54.8504 148.697 54.8504 148.091V145.938C54.8504 145.333 54.3351 144.841 53.6994 144.841Z" fill="black"/>
<path d="M63.5529 144.841H58.1394C57.5036 144.841 56.9883 145.333 56.9883 145.938V148.091C56.9883 148.697 57.5036 149.188 58.1394 149.188H63.5529C64.1886 149.188 64.704 148.697 64.704 148.091V145.938C64.704 145.333 64.1886 144.841 63.5529 144.841Z" fill="black"/>
<path d="M80.651 144.841H68.5981C67.9624 144.841 67.447 145.333 67.447 145.938V148.091C67.447 148.697 67.9624 149.188 68.5981 149.188H80.651C81.2868 149.188 81.8021 148.697 81.8021 148.091V145.938C81.8021 145.333 81.2868 144.841 80.651 144.841Z" fill="black"/>
<path d="M29.1849 39.9387H92.7145C92.3046 38.6544 91.0667 37.7978 89.6045 37.7978H32.2936C30.8314 37.7978 29.5949 38.6544 29.1836 39.9387H29.1849Z" fill="#F9B545"/>
<path d="M99.0388 179.698H35.0298C30.5497 179.698 26.9175 176.236 26.9175 171.966V115.709C26.9175 111.439 30.5497 107.977 35.0298 107.977H99.0388V179.698Z" stroke="#B3B3B3" stroke-width="2" stroke-linecap="round" stroke-linejoin="round"/>
<path d="M38.0585 133.83H36.6804L33.3633 125.324L33.3219 125.328V133.83H31.7502V121.436H33.1484L36.4761 129.94L36.5175 129.948V121.436H38.0585V133.83Z" fill="#5762B8"/>
<path d="M47.1013 133.83H45.4094L44.9341 131.379H42.1819L41.6998 133.83H40.0293L42.8362 121.436H44.2757L47.1027 133.83H47.1013ZM44.699 130.124L43.556 124.243H43.5146L42.4343 130.124H44.7004H44.699Z" fill="#5762B8"/>
<path d="M53.8291 133.83H49.1233V121.436H50.8793V132.439H53.8291V133.83Z" fill="#5762B8"/>
<path d="M54.9414 127.598C54.9414 124.909 55.2192 123.169 55.7733 122.379C56.3275 121.588 57.2409 121.192 58.5135 121.192C59.969 121.192 60.9372 121.635 61.4179 122.52C61.8973 123.405 62.1376 124.997 62.1376 127.298C62.1376 129.359 62.0308 130.788 61.8158 131.585C61.6008 132.382 61.2309 132.968 60.7035 133.344C60.176 133.719 59.4603 133.908 58.5549 133.908C57.6495 133.908 56.9084 133.735 56.4116 133.388C55.9149 133.042 55.5463 132.48 55.3046 131.702C55.0629 130.924 54.9427 129.557 54.9427 127.6L54.9414 127.598ZM60.3002 127.695C60.3002 125.343 60.1546 123.889 59.8649 123.336C59.5751 122.782 59.1398 122.505 58.5602 122.505C57.8779 122.505 57.4105 122.837 57.1581 123.501C56.9057 124.166 56.7789 125.284 56.7789 126.859V127.54C56.7789 129.295 56.8817 130.577 57.086 131.384C57.2903 132.191 57.7817 132.594 58.5602 132.594C59.0383 132.594 59.4469 132.368 59.7888 131.915C60.1306 131.461 60.3002 130.206 60.3002 128.153V127.696V127.695Z" fill="#5762B8"/>
<path d="M69.9548 133.83H68.3056L66.579 129.566L64.8511 133.83H63.1565L65.7311 127.446L63.3501 121.436H65.0313L66.5804 125.338L68.1547 121.436H69.8707L67.427 127.47L69.9535 133.83H69.9548Z" fill="#5762B8"/>
<path d="M71.1084 127.598C71.1084 124.909 71.3862 123.169 71.9403 122.379C72.4945 121.588 73.4079 121.192 74.6805 121.192C76.136 121.192 77.1042 121.635 77.5849 122.52C78.0643 123.405 78.3046 124.997 78.3046 127.298C78.3046 129.359 78.1978 130.788 77.9828 131.585C77.7678 132.382 77.3979 132.968 76.8705 133.344C76.343 133.719 75.6272 133.908 74.7219 133.908C73.8165 133.908 73.0754 133.735 72.5786 133.388C72.0819 133.042 71.7133 132.48 71.4716 131.702C71.2299 130.924 71.1097 129.557 71.1097 127.6L71.1084 127.598ZM76.4672 127.695C76.4672 125.343 76.3216 123.889 76.0319 123.336C75.7421 122.782 75.3068 122.505 74.7272 122.505C74.0448 122.505 73.5775 122.837 73.3251 123.501C73.0727 124.166 72.9459 125.284 72.9459 126.859V127.54C72.9459 129.295 73.0487 130.577 73.253 131.384C73.4573 132.191 73.9487 132.594 74.7272 132.594C75.2053 132.594 75.6139 132.368 75.9557 131.915C76.2976 131.461 76.4672 130.206 76.4672 128.153V127.696V127.695Z" fill="#5762B8"/>
<path d="M86.9286 133.83H85.5505L82.2335 125.324L82.1921 125.328V133.83H80.6204V121.436H82.0185L85.3462 129.94L85.3876 129.948V121.436H86.9286V133.83Z" fill="#5762B8"/>
<path d="M94.2063 133.83H89.5005V121.436H94.1235V122.846H91.2351V126.776H93.9098V128.187H91.2351V132.457H94.2049V133.829L94.2063 133.83Z" fill="#5762B8"/>
<path d="M65.1287 152.594H31.9931C31.3574 152.594 30.842 153.085 30.842 153.691V155.844C30.842 156.449 31.3574 156.941 31.9931 156.941H65.1287C65.7644 156.941 66.2797 156.449 66.2797 155.844V153.691C66.2797 153.085 65.7644 152.594 65.1287 152.594Z" fill="#8B8989"/>
<path d="M72.7656 160.348H31.9931C31.3574 160.348 30.842 160.839 30.842 161.445V163.597C30.842 164.203 31.3574 164.695 31.9931 164.695H72.7656C73.4013 164.695 73.9166 164.203 73.9166 163.597V161.445C73.9166 160.839 73.4013 160.348 72.7656 160.348Z" fill="#8B8989"/>
<path d="M85.4702 168.102H31.9931C31.3574 168.102 30.842 168.593 30.842 169.199V171.351C30.842 171.957 31.3574 172.449 31.9931 172.449H85.4702C86.1059 172.449 86.6212 171.957 86.6212 171.351V169.199C86.6212 168.593 86.1059 168.102 85.4702 168.102Z" fill="#8B8989"/>
<path d="M53.6994 144.841H31.9931C31.3574 144.841 30.842 145.333 30.842 145.938V148.091C30.842 148.697 31.3574 149.188 31.9931 149.188H53.6994C54.3351 149.188 54.8504 148.697 54.8504 148.091V145.938C54.8504 145.333 54.3351 144.841 53.6994 144.841Z" fill="#8B8989"/>
<path d="M63.5529 144.841H58.1394C57.5036 144.841 56.9883 145.333 56.9883 145.938V148.091C56.9883 148.697 57.5036 149.188 58.1394 149.188H63.5529C64.1886 149.188 64.704 148.697 64.704 148.091V145.938C64.704 145.333 64.1886 144.841 63.5529 144.841Z" fill="#8B8989"/>
<path d="M80.651 144.841H68.5981C67.9624 144.841 67.447 145.333 67.447 145.938V148.091C67.447 148.697 67.9624 149.188 68.5981 149.188H80.651C81.2868 149.188 81.8021 148.697 81.8021 148.091V145.938C81.8021 145.333 81.2868 144.841 80.651 144.841Z" fill="#8B8989"/>
<path d="M89.9838 91.5728C86.1259 91.1184 83.2282 87.9937 83.2282 84.2885V67.9571H38.67V84.2885C38.67 87.9937 35.7723 91.1184 31.9144 91.5728C26.7426 92.1825 22.8594 96.3701 22.8594 101.337V184.61C22.8594 191.499 28.7176 197.084 35.9459 197.084H85.9537C93.1806 197.084 99.0402 191.5 99.0402 184.61V101.337C99.0402 96.3701 95.157 92.1825 89.9851 91.5728H89.9838Z" stroke="#B3B3B3" stroke-width="2" stroke-linecap="round" stroke-linejoin="round"/>
<path d="M31.2999 49.0432H90.5991V64.1209C90.5991 67.1171 88.0472 69.5494 84.9038 69.5494H36.9939C33.8504 69.5494 31.2986 67.1171 31.2986 64.1209V49.0432H31.2999Z" fill="#CCCCCC"/>
<path d="M31.2999 49.0432H90.5991V64.1209C90.5991 67.1171 88.0472 69.5494 84.9038 69.5494H36.9939C33.8504 69.5494 31.2986 67.1171 31.2986 64.1209V49.0432H31.2999Z" stroke="#B3B3B3" stroke-width="2" stroke-linecap="round" stroke-linejoin="round"/>
<path d="M32.2935 37.7558H89.6043C91.4004 37.7558 92.8586 39.1457 92.8586 40.8577V49.1297C92.8586 49.6999 92.3725 50.1632 91.7743 50.1632H30.1248C29.5266 50.1632 29.0405 49.6999 29.0405 49.1297V40.8577C29.0405 39.1457 30.4987 37.7558 32.2948 37.7558H32.2935Z" fill="#5F6AC4"/>
<path d="M32.2935 37.7558H89.6043C91.4004 37.7558 92.8586 39.1457 92.8586 40.8577V49.1297C92.8586 49.6999 92.3725 50.1632 91.7743 50.1632H30.1248C29.5266 50.1632 29.0405 49.6999 29.0405 49.1297V40.8577C29.0405 39.1457 30.4987 37.7558 32.2948 37.7558H32.2935Z" stroke="#5762B8" stroke-width="2" stroke-linecap="round" stroke-linejoin="round"/>
<path d="M197.424 206.452L196.638 205.206L214.718 194.833L215.504 196.079L197.424 206.452Z" fill="#E6E6E6"/>
<path d="M193.849 190.271L181.746 171.092L190.083 166.31L202.186 185.489L208.139 198.608L203.218 201.431L193.849 190.271Z" fill="#E6E6E6"/>
<path d="M120.66 64.5828L84.6858 7.57595L85.6591 10.7207L119.918 65.0087L120.66 64.5828Z" fill="#F2F2F2"/>
<path d="M120.66 64.5828L84.6858 7.57595L85.6591 10.7207L119.918 65.0087L120.66 64.5828Z" stroke="#B3B3B3" stroke-linecap="round" stroke-linejoin="round"/>
<path d="M139.412 84.6317L129.794 90.1501L134.846 98.1557L144.464 92.6373L139.412 84.6317Z" fill="#5F6AC4" stroke="#5762B8"/>
<path d="M134.703 82.7523L130.257 85.3031L131.846 87.8209L136.292 85.27L134.703 82.7523Z" fill="#5F6AC4" stroke="#5762B8"/>
<path d="M135.536 80.966L128.213 85.1673L128.286 85.2822L135.609 81.0809L135.536 80.966Z" fill="#5F6AC4" stroke="#5762B8"/>
<path d="M126.18 78.4766L128.718 83.7258L133.963 80.7166L130.288 76.1197L126.18 78.4766Z" fill="#5F6AC4" stroke="#5762B8"/>
<path d="M120.858 67.0689L126.452 77.1684L128.867 75.7827L122.129 66.3396L120.858 67.0689Z" fill="#5F6AC4" stroke="#5762B8"/>
<path d="M122.272 65.6817L120.733 64.541L119.844 65.051L120.181 66.8811L122.272 65.6817Z" fill="#FBB03B"/>
<path d="M134.679 98.8273L129.093 89.9761L139.579 83.9601L145.165 92.8113L134.679 98.8273Z" stroke="#5762B8" stroke-linecap="round" stroke-linejoin="round"/>
<path d="M131.679 88.4925L129.556 85.1291L134.87 82.0806L136.992 85.4441L131.679 88.4925Z" stroke="#5762B8" stroke-linecap="round" stroke-linejoin="round"/>
<path d="M128.119 85.9539L127.513 84.9933L135.703 80.2943L136.309 81.2549L128.119 85.9539Z" stroke="#5762B8" stroke-linecap="round" stroke-linejoin="round"/>
<path d="M134.715 80.8611L130.408 75.4745L125.525 78.2761L128.5 84.427L134.715 80.8611Z" stroke="#5762B8" stroke-linecap="round" stroke-linejoin="round"/>
<path d="M129.593 75.9422L122.272 65.6817L120.182 66.8811L126.26 77.8546L129.593 75.9422Z" stroke="#5762B8" stroke-linecap="round" stroke-linejoin="round"/>
<path d="M122.272 65.6817L120.733 64.541L119.844 65.051L120.181 66.8811L122.272 65.6817Z" fill="#5F6AC4" stroke="#5762B8" stroke-linecap="round" stroke-linejoin="round"/>
<path d="M178.832 170.266L133.997 99.2185L145.847 92.4195L190.683 163.467L178.832 170.266Z" fill="#F2F2F2"/>
<path d="M172.377 176.466L171.22 174.633L198.293 159.101L199.45 160.934L172.377 176.466Z" fill="#E6E6E6"/>
<path d="M172.377 176.466L171.22 174.633L198.293 159.101L199.45 160.934L172.377 176.466Z" stroke="#B3B3B3" stroke-linecap="round" stroke-linejoin="round"/>
<path d="M197.424 206.452L196.638 205.206L214.718 194.833L215.504 196.079L197.424 206.452Z" stroke="#B3B3B3" stroke-linecap="round" stroke-linejoin="round"/>
<path d="M193.849 190.271L181.746 171.092L190.083 166.31L202.186 185.489L208.139 198.608L203.218 201.431L193.849 190.271Z" stroke="#B3B3B3" stroke-linecap="round" stroke-linejoin="round"/>
<path d="M205.148 200.323L185.385 169.005L186.445 168.397L206.209 199.715L205.148 200.323Z" fill="#B3B3B3"/>
<path d="M205.148 200.323L185.385 169.005L186.445 168.397L206.209 199.715L205.148 200.323Z" stroke="#B3B3B3" stroke-linecap="round" stroke-linejoin="round"/>
<path d="M146.485 119.008L145.553 117.53L157.403 110.731L158.336 112.209L146.485 119.008Z" fill="#666666"/>
<path d="M146.432 117.026L145.562 115.647L155.653 109.858L156.523 111.236L146.432 117.026Z" fill="#666666"/>
<path d="M180.589 169.258L148.242 118L156.578 113.217L188.925 164.475L180.589 169.258Z" fill="#E6E6E6"/>
<path d="M143.932 113.843L144.148 112.857C144.328 112.037 144.857 111.326 145.609 110.894L151.228 107.671C151.98 107.24 152.887 107.127 153.73 107.359L154.745 107.639C155.295 107.79 155.765 108.135 156.06 108.603L156.533 109.353L144.683 116.152L144.209 115.402C143.914 114.934 143.815 114.377 143.932 113.843Z" fill="#666666"/>
<path d="M184.227 167.171L151.88 115.913L152.941 115.304L185.288 166.562L184.227 167.171Z" fill="#B3B3B3"/>
<path d="M184.227 167.171L151.88 115.913L152.941 115.304L185.288 166.562L184.227 167.171Z" stroke="#B3B3B3" stroke-linecap="round" stroke-linejoin="round"/>
<path d="M146.432 117.026L145.562 115.647L155.653 109.858L156.523 111.236L146.432 117.026Z" stroke="#4D4D4D" stroke-linecap="round" stroke-linejoin="round"/>
<path d="M143.932 113.843L144.148 112.857C144.328 112.037 144.857 111.326 145.609 110.894L151.228 107.671C151.98 107.24 152.887 107.127 153.73 107.359L154.745 107.639C155.295 107.79 155.765 108.135 156.06 108.603L156.533 109.353L144.683 116.152L144.209 115.402C143.914 114.934 143.815 114.377 143.932 113.843Z" stroke="#4D4D4D" stroke-linecap="round" stroke-linejoin="round"/>
<path d="M180.589 169.258L148.242 118L156.578 113.217L188.925 164.475L180.589 169.258Z" stroke="#B3B3B3" stroke-linecap="round" stroke-linejoin="round"/>
<path d="M139.339 98.2845L139.079 97.8731L145.633 94.1131L145.892 94.5244L139.339 98.2845Z" fill="#333333"/>
<path d="M144.875 107.057L144.615 106.646L151.169 102.886L151.428 103.297L144.875 107.057Z" fill="#333333"/>
<path d="M145.824 104.123L145.564 103.712L148.496 102.03L148.756 102.441L145.824 104.123Z" fill="#333333"/>
<path d="M144.717 102.369L144.457 101.957L147.389 100.275L147.649 100.686L144.717 102.369Z" fill="#333333"/>
<path d="M143.609 100.614L143.35 100.202L146.282 98.5202L146.541 98.9316L143.609 100.614Z" fill="#333333"/>
<path d="M142.502 98.8588L142.242 98.4475L145.174 96.7654L145.434 97.1767L142.502 98.8588Z" fill="#333333"/>
<path d="M151.36 112.896L151.101 112.485L154.033 110.803L154.292 111.214L151.36 112.896Z" fill="#333333"/>
<path d="M150.252 111.141L149.993 110.73L152.925 109.048L153.184 109.459L150.252 111.141Z" fill="#333333"/>
<path d="M149.146 109.387L148.886 108.976L151.818 107.294L152.078 107.705L149.146 109.387Z" fill="#333333"/>
<path d="M148.038 107.632L147.779 107.221L150.711 105.539L150.97 105.95L148.038 107.632Z" fill="#333333"/>
<path d="M156.897 121.67L156.637 121.258L159.569 119.576L159.829 119.987L156.897 121.67Z" fill="#333333"/>
<path d="M155.789 119.915L155.53 119.503L158.462 117.821L158.721 118.233L155.789 119.915Z" fill="#333333"/>
<path d="M154.682 118.16L154.422 117.749L157.354 116.066L157.614 116.478L154.682 118.16Z" fill="#333333"/>
<path d="M153.575 116.406L153.315 115.995L156.247 114.312L156.507 114.724L153.575 116.406Z" fill="#333333"/>
<path d="M162.433 130.443L162.174 130.032L165.106 128.35L165.365 128.761L162.433 130.443Z" fill="#333333"/>
<path d="M161.326 128.688L161.066 128.277L163.998 126.595L164.258 127.006L161.326 128.688Z" fill="#333333"/>
<path d="M160.219 126.933L159.959 126.522L162.891 124.84L163.151 125.251L160.219 126.933Z" fill="#333333"/>
<path d="M159.111 125.179L158.852 124.767L161.784 123.085L162.043 123.496L159.111 125.179Z" fill="#333333"/>
<path d="M167.97 139.216L167.71 138.804L170.642 137.122L170.902 137.534L167.97 139.216Z" fill="#333333"/>
<path d="M166.863 137.462L166.603 137.05L169.535 135.368L169.795 135.78L166.863 137.462Z" fill="#333333"/>
<path d="M165.755 135.707L165.496 135.296L168.428 133.613L168.687 134.025L165.755 135.707Z" fill="#333333"/>
<path d="M164.648 133.952L164.388 133.541L167.32 131.858L167.579 132.27L164.648 133.952Z" fill="#333333"/>
<path d="M173.506 147.989L173.246 147.578L176.178 145.896L176.438 146.307L173.506 147.989Z" fill="#333333"/>
<path d="M172.398 146.234L172.139 145.823L175.071 144.141L175.33 144.552L172.398 146.234Z" fill="#333333"/>
<path d="M171.292 144.48L171.032 144.069L173.964 142.387L174.224 142.798L171.292 144.48Z" fill="#333333"/>
<path d="M170.184 142.726L169.925 142.314L172.857 140.632L173.116 141.043L170.184 142.726Z" fill="#333333"/>
<path d="M150.411 115.831L150.152 115.419L156.705 111.659L156.965 112.071L150.411 115.831Z" fill="#333333"/>
<path d="M155.948 124.604L155.688 124.193L162.242 120.433L162.502 120.844L155.948 124.604Z" fill="#333333"/>
<path d="M161.484 133.377L161.224 132.966L167.778 129.206L168.038 129.617L161.484 133.377Z" fill="#333333"/>
<path d="M167.021 142.15L166.761 141.739L173.315 137.979L173.574 138.39L167.021 142.15Z" fill="#333333"/>
<path d="M172.557 150.924L172.298 150.513L178.851 146.753L179.111 147.164L172.557 150.924Z" fill="#333333"/>
<path d="M146.485 119.008L145.553 117.53L157.403 110.731L158.336 112.209L146.485 119.008Z" stroke="#4D4D4D" stroke-linecap="round" stroke-linejoin="round"/>
<path d="M178.832 170.266L133.997 99.2185L145.847 92.4195L190.683 163.467L178.832 170.266Z" stroke="#B3B3B3" stroke-linecap="round" stroke-linejoin="round"/>
</svg>
