<svg width="76" height="199" viewBox="0 0 76 199" fill="none" xmlns="http://www.w3.org/2000/svg">
<g clip-path="url(#clip0_251_287)">
<path d="M75.192 103.281C75.1981 102.428 75.3907 101.499 75.4686 100.643C75.5358 99.8907 75.2302 99.0873 75.1889 98.3372C74.9933 94.8877 74.8726 91.1938 74.7672 87.6234C74.6572 83.8279 74.8573 79.7722 74.0933 76.0904C73.7342 74.359 72.7011 72.6035 72.2855 70.8818C71.0385 65.7311 69.2216 52.7669 69.214 47.4275C69.2109 43.8994 68.511 39.9103 66.0339 36.9254C64.2995 34.8335 61.9126 33.5982 58.8884 33.067C56.477 32.5177 54.8969 31.8438 52.5176 31.2098C50.4776 30.6653 45.9222 29.9019 45.1077 28.4681C44.2779 27.0017 44.501 25.2546 44.5499 23.4167C46.0124 22.0302 47.4335 20.3883 47.8981 19.0925C49.2184 19.0163 48.9525 17.1869 49.1435 16.7223C49.333 16.2564 50.395 13.5559 50.0543 13.1796C49.712 12.8021 49.3162 13.1675 49.3162 13.1675C49.3162 13.1675 50.0451 8.22138 48.6438 5.34178C47.5466 3.09013 44.1587 0 38.0615 0H37.9408C31.8435 0 28.4557 3.09013 27.3585 5.34057C25.9572 8.22017 26.6861 13.1663 26.6861 13.1663C26.6861 13.1663 26.2903 12.8009 25.948 13.1784C25.6057 13.5559 26.6693 16.2552 26.8588 16.721C27.0498 17.1857 26.7839 19.0138 28.1042 19.0913C28.5688 20.3883 29.9899 22.0289 31.4523 23.4155C31.4997 25.2534 31.7228 27.0017 30.8946 28.4669C30.0816 29.9007 25.5247 30.6641 23.4847 31.2086C21.1054 31.8438 19.5253 32.5177 17.1139 33.0658C14.0897 33.5982 11.7028 34.8335 9.96837 36.9242C7.49128 39.9091 6.79139 43.8982 6.78833 47.4263C6.78069 52.7657 4.96375 65.7299 3.7168 70.8805C3.30114 72.6022 2.26813 74.3578 1.90902 76.0892C1.14495 79.771 1.34514 83.8266 1.23511 87.6222C1.12967 91.1926 1.00895 94.8865 0.813349 98.336C0.772089 99.0861 0.466463 99.8895 0.533701 100.642C0.610108 101.497 0.802652 102.427 0.810293 103.28C0.82863 105.73 -0.341917 108.608 0.10124 110.978C0.431316 112.746 2.05113 115.848 3.64497 116.92C5.05391 117.87 7.97722 119.37 9.43047 119.436C9.5405 119.441 9.89655 118.583 9.54814 118.008C8.99801 117.102 7.12758 116.417 6.63552 115.735C6.13735 115.046 6.08998 114.147 6.00288 113.376C5.92494 112.675 5.69725 111.94 6.00288 111.23C6.13888 110.915 6.53925 110.041 7.06646 110.041C7.18412 110.041 7.86719 110.551 7.9329 110.946C8.04599 111.632 7.98028 112.392 8.05057 113.065C8.1392 113.903 8.80852 115.609 9.8614 115.735C10.6881 115.835 10.7279 115.633 10.925 115.329C11.1221 115.024 10.6881 113.741 10.8455 113.303C11.0029 112.865 10.8302 112.03 10.7279 111.652C10.4497 110.642 10.8241 109.349 10.6484 108.267C10.4665 107.141 9.87516 105.702 9.03469 104.77C8.33175 103.991 7.30484 103.162 6.98852 102.257C6.61718 101.194 6.43534 99.7213 6.83418 98.6118C8.38982 94.2985 10.3687 89.7903 11.3085 85.2689C12.2468 80.7547 13.0689 76.1219 13.7627 71.6367C14.0179 69.9719 16.492 57.6477 16.5485 57.3113C17.5005 60.2454 18.5228 65.6597 18.9706 71.8206C19.1616 74.4353 18.1393 79.8593 17.1643 84.7897C16.1848 89.7443 13.7719 93.3777 13.2095 101.448C12.7633 107.876 13.3073 114.514 14.0393 120.964C14.5894 125.808 15.1961 130.672 16.4736 135.38C16.955 137.156 16.7456 139.132 16.6478 140.96C16.5577 142.641 16.8664 144.356 16.7365 146.003C16.4813 149.232 14.9868 152.492 15.0479 155.772C15.1808 162.965 17.0069 170.523 18.3135 177.738C18.6741 179.731 19.5467 182.39 18.914 184.065C18.3517 185.554 16.2245 187.128 15.1686 188.742C14.4595 189.825 12.5219 190.544 11.2994 191.198C10.5231 191.613 9.83237 192.171 9.10804 192.627C8.79477 192.824 7.71285 193.331 7.38583 193.716C6.93351 194.248 7.25442 194.494 7.34152 194.501C6.88919 194.827 6.90295 195.408 7.29109 195.445C7.04812 195.967 7.41945 196.274 7.82135 196.212C7.55087 196.643 8.1285 197.097 8.66946 196.961C8.9705 197.855 10.5475 197.659 11.3238 197.346C11.44 198.329 13.1545 198.542 14.105 198.407C15.2404 198.247 16.3132 197.976 17.2545 197.399C17.6549 197.152 18.1821 196.429 18.4159 196.273C19.1524 195.781 20.2359 195.539 20.9755 195.013C21.6463 194.534 21.8618 193.722 22.3111 193.193C22.7619 192.663 23.7445 192.059 24.5956 191.952C25.7708 191.807 27.3279 191.478 27.8842 190.495C28.4267 189.541 28.2417 188.223 27.9422 187.224C27.7207 186.492 27.3203 185.709 27.334 184.98C27.3386 184.732 27.5862 184.085 27.4532 183.387C27.3096 182.616 26.7151 182.032 26.5776 181.446C26.3545 180.509 26.3438 179.527 26.3301 178.57C26.2903 175.901 27.0269 173.121 27.6427 170.506C28.448 167.097 29.3649 163.627 29.5575 160.178C29.6782 158.013 29.588 155.841 29.2839 153.674C29.1174 152.505 28.7705 151.265 28.9447 150.112C29.4337 146.866 31.6143 143.708 32.1858 140.416C32.739 137.228 32.0254 133.941 32.3753 130.738C32.7742 127.064 33.6742 123.347 34.4001 119.679C34.8234 117.543 35.2604 115.401 35.8656 113.292C36.0704 112.575 36.677 110.383 37.1507 109.191C37.3188 109.237 37.7467 109.271 37.9545 109.275C37.9545 109.275 37.9637 109.275 37.9683 109.275C37.9729 109.275 37.9759 109.275 37.9805 109.275C37.9851 109.275 37.9882 109.275 37.9927 109.275C37.9973 109.275 38.0019 109.275 38.0065 109.275C38.2204 109.271 38.6773 109.237 38.847 109.191C39.3207 110.383 39.9274 112.575 40.1321 113.292C40.7373 115.402 41.1743 117.543 41.5976 119.679C42.3235 123.346 43.2235 127.064 43.6224 130.738C43.9723 133.941 43.2571 137.228 43.8119 140.416C44.3834 143.708 46.564 146.866 47.053 150.112C47.2272 151.266 46.8788 152.505 46.7138 153.674C46.4082 155.841 46.3195 158.013 46.4402 160.178C46.6343 163.628 47.5512 167.098 48.355 170.506C48.9708 173.121 49.7074 175.901 49.6676 178.57C49.6524 179.527 49.6432 180.509 49.4201 181.446C49.2826 182.032 48.6866 182.615 48.5445 183.387C48.4131 184.085 48.6591 184.732 48.6637 184.98C48.679 185.709 48.2771 186.492 48.0555 187.224C47.7544 188.223 47.5711 189.541 48.1135 190.495C48.6698 191.478 50.2285 191.807 51.4021 191.952C52.2532 192.057 53.2374 192.663 53.6866 193.193C54.1344 193.721 54.3514 194.534 55.0222 195.013C55.7618 195.538 56.8453 195.78 57.5818 196.273C57.8156 196.429 58.3428 197.152 58.7432 197.399C59.6845 197.976 60.7573 198.247 61.8927 198.407C62.8432 198.542 64.5577 198.328 64.6739 197.346C65.4502 197.659 67.0272 197.854 67.3282 196.961C67.8692 197.097 68.4468 196.643 68.1764 196.212C68.5783 196.274 68.9496 195.967 68.7066 195.445C69.0948 195.408 69.107 194.826 68.6562 194.501C68.7433 194.494 69.0642 194.247 68.6119 193.716C68.2849 193.331 67.2045 192.826 66.8897 192.627C66.1653 192.171 65.4746 191.613 64.6983 191.198C63.4758 190.544 61.5397 189.826 60.8291 188.742C59.7732 187.128 57.646 185.554 57.0837 184.065C56.451 182.391 57.3236 179.731 57.6842 177.738C58.9908 170.523 60.8169 162.964 60.9498 155.772C61.011 152.492 59.5164 149.232 59.2612 146.003C59.1314 144.356 59.44 142.641 59.3499 140.96C59.2521 139.133 59.0427 137.157 59.5241 135.38C60.8016 130.672 61.4083 125.808 61.9584 120.964C62.6904 114.514 63.2359 107.875 62.7882 101.448C62.2258 93.3777 59.8129 89.7431 58.8334 84.7897C57.86 79.8605 56.8376 74.4365 57.0271 71.8206C57.4764 65.6597 58.4987 60.2454 59.4492 57.3113C59.5042 57.6477 61.9798 69.9719 62.235 71.6367C62.9288 76.1219 63.7509 80.7547 64.6892 85.2689C65.629 89.7915 67.6079 94.2997 69.1635 98.6118C69.5624 99.7213 69.3805 101.194 69.0092 102.257C68.6929 103.162 67.666 103.991 66.963 104.77C66.1241 105.702 65.5327 107.141 65.3493 108.267C65.1736 109.349 65.548 110.642 65.2699 111.652C65.1659 112.03 64.9933 112.865 65.1522 113.303C65.3096 113.741 64.8756 115.024 65.0727 115.329C65.2699 115.634 65.3096 115.835 66.1363 115.735C67.1892 115.609 67.8585 113.903 67.9471 113.065C68.0174 112.392 67.9517 111.631 68.0648 110.946C68.1305 110.551 68.8121 110.041 68.9313 110.041C69.4585 110.041 69.8588 110.915 69.9948 111.23C70.302 111.941 70.0743 112.676 69.9948 113.376C69.9077 114.147 69.8604 115.046 69.3622 115.735C68.8717 116.417 66.9997 117.102 66.4496 118.008C66.1012 118.583 66.4572 119.442 66.5672 119.436C68.0205 119.37 70.9438 117.87 72.3527 116.92C73.9466 115.848 75.5664 112.746 75.8965 110.978C76.3381 108.608 75.1691 105.73 75.1874 103.28L75.192 103.281Z" fill="#5762B8"/>
</g>
<defs>
<clipPath id="clip0_251_287">
<rect width="76" height="198.444" fill="white"/>
</clipPath>
</defs>
</svg>
