<svg width="159" height="159" viewBox="0 0 159 159" fill="none" xmlns="http://www.w3.org/2000/svg">
<path d="M149.417 127.627L88.1068 21.435C87.2345 19.9243 85.9799 18.6698 84.4691 17.7976C82.9583 16.9254 81.2445 16.4663 79.5 16.4663C77.7556 16.4663 76.0418 16.9254 74.531 17.7976C73.0202 18.6698 71.7656 19.9243 70.8933 21.435L9.58333 127.627C8.7111 129.138 8.25192 130.852 8.25195 132.596C8.25198 134.341 8.71121 136.055 9.58349 137.565C10.4558 139.076 11.7103 140.33 13.2211 141.203C14.7319 142.075 16.4456 142.534 18.1901 142.534H140.81C142.554 142.534 144.268 142.075 145.779 141.203C147.29 140.33 148.544 139.076 149.417 137.565C150.289 136.055 150.748 134.341 150.748 132.596C150.748 130.852 150.289 129.138 149.417 127.627ZM145.114 135.081C144.682 135.839 144.055 136.469 143.299 136.906C142.542 137.343 141.683 137.57 140.81 137.565H18.1901C17.3178 137.565 16.4608 137.336 15.7053 136.9C14.9498 136.464 14.3225 135.836 13.8863 135.081C13.4502 134.326 13.2207 133.469 13.2209 132.596C13.221 131.724 13.4509 130.867 13.8873 130.112L75.1973 23.9194C75.6333 23.1641 76.2605 22.5368 77.0158 22.1007C77.7711 21.6646 78.6279 21.435 79.5 21.435C80.3722 21.435 81.229 21.6646 81.9843 22.1007C82.7396 22.5368 83.3668 23.1641 83.8028 23.9194L145.113 130.112C145.554 130.865 145.787 131.723 145.787 132.596C145.787 133.469 145.555 134.327 145.114 135.081Z" fill="#5762B8"/>
<path d="M79.4999 47.4143C76.8075 47.4175 74.2263 48.4886 72.3226 50.3925C70.4189 52.2965 69.3481 54.8778 69.3452 57.5702V103.046C69.3452 104.379 69.6079 105.7 70.1182 106.932C70.6285 108.164 71.3765 109.283 72.3194 110.226C73.2624 111.169 74.3818 111.917 75.6138 112.427C76.8459 112.938 78.1663 113.2 79.4999 113.2C80.8334 113.2 82.1538 112.938 83.3859 112.427C84.6179 111.917 85.7373 111.169 86.6803 110.226C87.6232 109.283 88.3712 108.164 88.8815 106.932C89.3918 105.7 89.6545 104.379 89.6545 103.046V57.5701C89.6515 54.8777 88.5808 52.2964 86.6771 50.3925C84.7734 48.4886 82.1922 47.4175 79.4999 47.4143ZM84.6857 103.046C84.6857 104.421 84.1394 105.74 83.1668 106.713C82.1943 107.685 80.8752 108.232 79.4999 108.232C78.1245 108.232 76.8054 107.685 75.8329 106.713C74.8603 105.74 74.314 104.421 74.314 103.046V57.5701C74.314 56.1947 74.8603 54.8756 75.8329 53.9031C76.8054 52.9305 78.1245 52.3842 79.4999 52.3842C80.8752 52.3842 82.1943 52.9305 83.1668 53.9031C84.1394 54.8756 84.6857 56.1947 84.6857 57.5701V103.046Z" fill="#F9897A"/>
<path d="M79.5 116.766C77.8946 116.766 76.3253 117.242 74.9905 118.134C73.6557 119.026 72.6153 120.293 72.001 121.776C71.3867 123.26 71.2261 124.892 71.5394 126.466C71.8526 128.041 72.6258 129.487 73.7611 130.622C74.8963 131.757 76.3427 132.53 77.9172 132.843C79.4918 133.156 81.1238 132.995 82.6069 132.381C84.09 131.766 85.3576 130.726 86.2493 129.391C87.1411 128.056 87.6169 126.486 87.6167 124.881C87.6138 122.729 86.7576 120.667 85.2361 119.145C83.7145 117.624 81.6517 116.768 79.5 116.766ZM79.5 128.03C78.8774 128.03 78.2689 127.846 77.7512 127.5C77.2336 127.154 76.8301 126.662 76.5918 126.087C76.3535 125.512 76.2911 124.879 76.4125 124.269C76.5338 123.658 76.8335 123.097 77.2736 122.657C77.7138 122.217 78.2745 121.917 78.8851 121.795C79.4957 121.673 80.1286 121.736 80.7038 121.974C81.279 122.212 81.7708 122.615 82.1168 123.133C82.4628 123.65 82.6477 124.259 82.6479 124.881C82.6473 125.716 82.3154 126.516 81.7253 127.107C81.1351 127.697 80.3348 128.029 79.5 128.03Z" fill="#F9897A"/>
</svg>
