<svg width="170" height="170" viewBox="0 0 170 170" fill="none" xmlns="http://www.w3.org/2000/svg">
<g clip-path="url(#clip0_251_669)">
<path d="M170 0H165.958V170H170V0Z" fill="#F9897A"/>
<path d="M170 0H0V4.04165H170V0Z" fill="#F9897A"/>
<path d="M147.469 159.888C74.9467 150.559 18.4074 93.3668 9.89441 20.7625L10.7398 19.9174L9.31287 20.0827L6.93123 20.3586L6.43461 20.4161L6.49208 20.9127C8.59463 39.0815 13.7115 56.6211 21.6992 73.043C29.4784 89.0363 39.7841 103.584 52.3299 116.281C64.8693 128.972 79.2852 139.45 95.1772 147.422C111.48 155.6 128.928 160.929 147.035 163.258L147.531 163.322L147.595 162.826L147.901 160.448L147.965 159.952L147.469 159.888Z" fill="#5762B8" stroke="#5762B8"/>
<path d="M163.027 163.269L133.421 167.14L141.504 160.625L135.239 152.347L163.027 163.269Z" fill="#5762B8"/>
<path d="M6.73092 6.97321L2.86035 36.5787L9.37497 28.4954L17.6531 34.7611L6.73092 6.97321Z" fill="#5762B8"/>
<path d="M55.8969 141.259C70.8946 141.259 83.0526 129.101 83.0526 114.103C83.0526 99.1055 70.8946 86.9475 55.8969 86.9475C40.8992 86.9475 28.7412 99.1055 28.7412 114.103C28.7412 129.101 40.8992 141.259 55.8969 141.259Z" fill="#FCECE2"/>
<path d="M55.897 142.458C48.3231 142.458 41.2027 139.508 35.847 134.153C30.4914 128.798 27.5425 121.677 27.5425 114.104C27.5425 106.53 30.492 99.4095 35.847 94.0545C41.2027 88.6988 48.3231 85.7499 55.897 85.7499C63.4709 85.7499 70.5914 88.6995 75.9464 94.0545C81.302 99.4101 84.2509 106.531 84.2509 114.104C84.2509 121.678 81.3014 128.798 75.9464 134.153C70.5908 139.509 63.4703 142.458 55.897 142.458ZM55.897 88.1464C41.5841 88.1464 29.9396 99.7909 29.9396 114.103C29.9396 128.416 41.5841 140.06 55.897 140.06C70.21 140.06 81.8539 128.416 81.8539 114.103C81.8539 99.7902 70.2094 88.1464 55.897 88.1464Z" fill="#5762B8"/>
<path d="M71.6407 111.646C69.0642 111.646 66.9688 109.55 66.9688 106.974C66.9688 104.399 69.0648 102.302 71.6407 102.302C74.2166 102.302 76.3126 104.399 76.3126 106.974C76.3126 109.551 74.2166 111.646 71.6407 111.646ZM71.6407 104.678C70.3743 104.678 69.344 105.708 69.344 106.974C69.344 108.241 70.3743 109.271 71.6407 109.271C72.9071 109.271 73.9374 108.241 73.9374 106.974C73.9374 105.708 72.9071 104.678 71.6407 104.678Z" fill="#5762B8"/>
<path d="M38.4307 121.622C38.6307 122.725 39.0796 124.571 41.5861 124.571C45.2019 124.571 45.3679 118.685 45.4791 114.268C44.6964 115.932 43.2982 116.799 41.2008 116.799C37.5753 116.799 35.4824 114.112 35.4824 109.391C35.4824 104.048 37.9612 101.295 41.8735 101.295C45.9776 101.295 48.2428 103.799 48.2428 111.846C48.2428 122.575 46.7037 126.902 41.469 126.902C36.316 126.902 35.858 122.745 35.723 121.623H38.432L38.4307 121.622ZM38.2577 109.204C38.2577 112.22 39.2115 114.457 41.7796 114.457C44.3478 114.457 45.3814 112.472 45.3814 109.571C45.3814 106.67 44.8816 103.638 41.8375 103.638C39.5729 103.638 38.2583 105.503 38.2583 109.204L38.2577 109.204Z" fill="#5762B8"/>
<path d="M64.8655 113.803C64.8655 122.917 63.0994 126.912 58.2988 126.912C53.3297 126.912 51.7456 122.521 51.7456 113.778C51.7456 104.307 54.1877 101.293 58.412 101.293C62.936 101.293 64.8649 104.829 64.8649 113.803H64.8655ZM54.5595 113.712C54.5595 120.844 55.2856 124.528 58.3123 124.528C61.3011 124.528 62.0517 121.03 62.0517 113.787C62.0517 106.402 61.166 103.691 58.3612 103.691C55.6586 103.691 54.5595 106.232 54.5595 113.712Z" fill="#5762B8"/>
</g>
<defs>
<clipPath id="clip0_251_669">
<rect width="170" height="170" fill="white"/>
</clipPath>
</defs>
</svg>
