<svg width="150" height="150" viewBox="0 0 150 150" fill="none" xmlns="http://www.w3.org/2000/svg">
<g clip-path="url(#clip0_251_760)">
<path d="M125.138 19.2088C121.484 15.9185 117.487 12.9802 113.257 10.4744C109.105 8.01482 104.687 5.94775 100.127 4.33097C95.6112 2.72957 90.9159 1.55517 86.1713 0.840848C81.4267 0.126059 76.5936 -0.134711 71.8066 0.0650571C66.9721 0.266688 62.1418 0.940965 57.4489 2.06786C52.6689 3.21618 47.9829 4.84693 43.5219 6.91446C38.9468 9.03508 34.5523 11.6418 30.4606 14.6621C26.3688 17.6824 22.5835 21.1138 19.2088 24.8615C15.9185 28.5155 12.9802 32.5128 10.4744 36.7424C8.01482 40.8946 5.94775 45.3124 4.33097 49.8726C2.72957 54.3886 1.55517 59.0838 0.840848 63.8284C0.126059 68.5731 -0.134711 73.4061 0.0650571 78.1931C0.267154 83.0276 0.940965 87.8584 2.06786 92.5504C3.21618 97.3304 4.84693 102.016 6.91446 106.477C9.03508 111.052 11.6418 115.447 14.6621 119.539C17.6824 123.63 21.1138 127.416 24.8615 130.79C28.5155 134.081 32.5128 137.019 36.7424 139.525C40.8946 141.984 45.3124 144.052 49.8726 145.668C54.3886 147.27 59.0838 148.444 63.8284 149.158C68.5731 149.873 73.4057 150.134 78.1931 149.934C83.0276 149.732 87.8584 149.058 92.5504 147.931C97.3304 146.783 102.016 145.152 106.477 143.085C111.052 140.964 115.447 138.357 119.539 135.337C123.63 132.317 127.416 128.885 130.79 125.138C134.081 121.484 137.019 117.487 139.525 113.257C141.984 109.105 144.052 104.687 145.668 100.127C147.27 95.6107 148.444 90.9155 149.158 86.1708C149.873 81.4262 150.134 76.5936 149.934 71.8061C149.732 66.9716 149.058 62.1413 147.931 57.4484C146.783 52.6684 145.152 47.9825 143.085 43.5214C140.964 38.9463 138.357 34.5519 135.337 30.4601C132.317 26.3684 128.886 22.5835 125.138 19.2088ZM114.561 128.594C86.142 149.572 46.4048 144.554 24 117.855L35.2546 109.547C37.1167 108.173 37.5121 105.549 36.1375 103.687C34.7628 101.824 32.1388 101.429 30.2767 102.804L19.0221 111.112C0.108362 81.836 7.01923 42.3838 35.4385 21.4058C63.8582 0.427807 103.595 5.44576 126 32.1444L114.745 40.4523C112.883 41.8269 112.488 44.4509 113.862 46.3131C115.237 48.1753 117.861 48.5706 119.723 47.196L130.978 38.8881C149.891 68.1642 142.981 107.616 114.561 128.594Z" fill="#F9897A"/>
<path d="M123.319 87.0273L118.527 85.4706C115.019 84.3307 112.729 80.9644 112.947 77.282C112.992 76.5271 113.015 75.7662 113.015 75.0002C113.015 74.2342 112.992 73.4733 112.947 72.7185C112.729 69.036 115.019 65.6698 118.527 64.5299L123.319 62.9731C125.153 62.3771 126.157 60.4069 125.561 58.5727C124.965 56.7384 122.995 55.7344 121.16 56.3305L116.371 57.8863C112.868 59.0243 109.035 57.6572 107.051 54.5535C106.229 53.2665 105.33 52.032 104.363 50.8571C102.017 48.0068 101.889 43.9327 104.059 40.946L107.021 36.8696C108.154 35.3092 107.808 33.1252 106.248 31.9913C104.688 30.8575 102.504 31.2034 101.37 32.7639L98.4138 36.8324C96.241 39.8228 92.3229 40.9516 88.8817 39.6012C87.4731 39.0484 86.0235 38.5772 84.5385 38.1935C80.9734 37.2724 78.4919 34.0426 78.4919 30.3601V25.3301C78.4919 23.4013 76.9282 21.8376 74.9994 21.8376C73.0707 21.8376 71.507 23.4013 71.507 25.3301V30.3601C71.507 34.0421 69.0255 37.2719 65.4604 38.193C63.9754 38.5767 62.5258 39.048 61.1172 39.6007C57.6759 40.9511 53.7579 39.8224 51.5851 36.8319L48.6291 32.7634C47.4952 31.203 45.3112 30.857 43.7508 31.9909C42.1904 33.1248 41.8444 35.3087 42.9783 36.8691L45.9399 40.9455C48.1099 43.9323 47.9818 48.0063 45.6358 50.8567C44.6686 52.032 43.7704 53.266 42.9476 54.5531C40.9638 57.6562 37.131 59.0239 33.6278 57.8858L28.8394 56.33C27.0052 55.734 25.0345 56.7379 24.4385 58.5722C23.8424 60.4064 24.8464 62.3771 26.6806 62.9731L31.4723 64.5299C34.9806 65.6698 37.2707 69.036 37.0523 72.7185C37.0076 73.4733 36.9848 74.2342 36.9848 75.0002C36.9848 75.7662 37.0076 76.5271 37.0523 77.282C37.2707 80.9644 34.9806 84.3307 31.4723 85.4706L26.6806 87.0273C24.8464 87.6234 23.8424 89.5936 24.4385 91.4283C25.0345 93.2625 27.0047 94.2665 28.8394 93.6704L33.6283 92.1147C37.1315 90.9766 40.9643 92.3438 42.948 95.4474C43.7708 96.7345 44.6691 97.9689 45.6363 99.1438C47.9827 101.994 48.1103 106.068 45.9404 109.055L42.9788 113.131C41.8449 114.692 42.1909 116.876 43.7513 118.01C45.3117 119.143 47.4957 118.797 48.6295 117.237L51.5856 113.169C53.7583 110.178 57.6764 109.049 61.1176 110.4C62.5263 110.952 63.9759 111.424 65.4608 111.807C69.0259 112.729 71.5075 115.958 71.5075 119.641V124.671C71.5075 126.6 73.0711 128.163 74.9999 128.163C76.9287 128.163 78.4924 126.6 78.4924 124.671V119.641C78.4924 115.959 80.9739 112.729 84.539 111.808C86.024 111.424 87.4736 110.953 88.8822 110.4C92.3234 109.05 96.2415 110.179 98.4143 113.169L101.37 117.238C102.504 118.798 104.688 119.144 106.249 118.01C107.809 116.876 108.155 114.692 107.021 113.132L104.059 109.055C101.889 106.069 102.018 101.995 104.364 99.1443C105.331 97.9689 106.229 96.7349 107.052 95.4479C109.035 92.3447 112.868 90.977 116.372 92.1151L121.16 93.6709C122.995 94.2669 124.965 93.263 125.561 91.4287C126.157 89.5945 125.153 87.6238 123.319 87.0282V87.0273ZM43.8998 88.984C42.1159 88.984 40.67 87.5381 40.67 85.7542C40.67 83.9702 42.1164 82.5244 43.8998 82.5244C45.6833 82.5244 47.1297 83.9702 47.1297 85.7542C47.1297 87.5381 45.6838 88.984 43.8998 88.984ZM80.8216 42.3011C83.7748 42.3011 86.1683 44.695 86.1683 47.6478C86.1683 50.6005 83.7743 52.9945 80.8216 52.9945C77.8688 52.9945 75.4749 50.6005 75.4749 47.6478C75.4749 44.695 77.8688 42.3011 80.8216 42.3011ZM86.3248 81.4063C86.3248 83.8073 84.3783 85.7542 81.9769 85.7542C79.5755 85.7542 77.629 83.8077 77.629 81.4063C77.629 79.0049 79.5755 77.0584 81.9769 77.0584C84.3783 77.0584 86.3248 79.0049 86.3248 81.4063ZM58.1504 47.6483C60.2045 47.6483 61.8692 49.3135 61.8692 51.367C61.8692 53.4206 60.204 55.0858 58.1504 55.0858C56.0969 55.0858 54.4317 53.4206 54.4317 51.367C54.4317 49.3135 56.0969 47.6483 58.1504 47.6483ZM48.3539 67.1371C48.3539 65.3531 49.7997 63.9073 51.5837 63.9073C53.3676 63.9073 54.8135 65.3531 54.8135 67.1371C54.8135 68.921 53.3672 70.3669 51.5837 70.3669C49.8002 70.3669 48.3539 68.9206 48.3539 67.1371ZM56.9309 95.0488C53.9777 95.0488 51.5842 92.6548 51.5842 89.7021C51.5842 86.7493 53.9781 84.3554 56.9309 84.3554C59.8836 84.3554 62.2776 86.7493 62.2776 89.7021C62.2776 92.6548 59.8836 95.0488 56.9309 95.0488ZM71.88 71.1432C68.1295 71.1432 65.0893 68.1029 65.0893 64.3524C65.0893 60.602 68.1295 57.5617 71.88 57.5617C75.6304 57.5617 78.6707 60.602 78.6707 64.3524C78.6707 68.1029 75.6304 71.1432 71.88 71.1432ZM80.8216 102.152C77.3836 102.152 74.5962 99.3655 74.5962 95.927C74.5962 92.4886 77.3832 89.7016 80.8216 89.7016C84.26 89.7016 87.047 92.4886 87.047 95.927C87.047 99.3655 84.26 102.152 80.8216 102.152ZM96.9903 94.1179C95.2063 94.1179 93.7604 92.6721 93.7604 90.8881C93.7604 89.1042 95.2063 87.6583 96.9903 87.6583C98.7742 87.6583 100.22 89.1042 100.22 90.8881C100.22 92.6721 98.7742 94.1179 96.9903 94.1179ZM97.5868 77.0589C94.8468 77.0589 92.6256 74.8377 92.6256 72.0978C92.6256 69.3578 94.8468 67.1366 97.5868 67.1366C100.327 67.1366 102.548 69.3578 102.548 72.0978C102.548 74.8377 100.327 77.0589 97.5868 77.0589Z" fill="#5762B8"/>
</g>
<defs>
<clipPath id="clip0_251_760">
<rect width="150" height="150" fill="white"/>
</clipPath>
</defs>
</svg>
