<svg width="305" height="149" viewBox="0 0 305 149" fill="none" xmlns="http://www.w3.org/2000/svg">
<g clip-path="url(#clip0_473_389)">
<rect x="129.332" y="67.2483" width="40.6857" height="15.188" transform="rotate(-44.2694 129.332 67.2483)" fill="#5762B8"/>
<path fill-rule="evenodd" clip-rule="evenodd" d="M120.63 84.35L101.42 103.56C100.86 104.12 100.86 105.02 101.42 105.58C101.98 106.14 102.88 106.14 103.44 105.58L122.65 86.37C123.77 87.49 125.58 87.49 126.69 86.37L136.8 76.26L130.73 70.19L120.62 80.3C119.5 81.42 119.5 83.23 120.62 84.34L120.63 84.35ZM206.58 16.6L190.4 0.42C189.84 -0.14 188.94 -0.14 188.38 0.42C187.82 0.98 187.82 1.88 188.38 2.44L193.44 7.5L179.28 21.66L170.18 12.56C169.62 12 168.72 12 168.16 12.56C167.6 13.12 167.6 14.02 168.16 14.58L173.22 19.64L128.72 64.12C127.6 65.24 127.6 67.05 128.72 68.16L130.74 70.18L138.83 78.27C139.95 79.39 141.76 79.39 142.87 78.27L187.36 33.78L192.42 38.84C192.98 39.4 193.88 39.4 194.44 38.84C195 38.28 195 37.38 194.44 36.82L185.34 27.72L199.5 13.56L204.56 18.62C205.12 19.18 206.02 19.18 206.58 18.62C207.14 18.06 207.14 17.16 206.58 16.6ZM175.23 41.88L170.17 36.82C169.61 36.26 168.71 36.26 168.15 36.82C167.59 37.38 167.59 38.28 168.15 38.84L173.21 43.9L163.1 54.01L158.04 48.95C157.48 48.39 156.58 48.39 156.02 48.95C155.46 49.51 155.46 50.41 156.02 50.97L161.08 56.03L150.97 66.14L145.91 61.08C145.35 60.52 144.45 60.52 143.89 61.08C143.33 61.64 143.33 62.54 143.89 63.1L148.95 68.16L140.86 76.25L130.75 66.14L175.23 21.65L185.34 31.76L175.23 41.87V41.88Z" fill="#F9897A"/>
</g>
<path d="M13.5613 144.24C12.7186 144.24 11.972 144.064 11.3213 143.712C10.6813 143.349 10.18 142.853 9.81731 142.224C9.45465 141.584 9.27331 140.848 9.27331 140.016H10.6333C10.6333 140.603 10.756 141.125 11.0013 141.584C11.2573 142.032 11.6093 142.384 12.0573 142.64C12.5053 142.885 13.0173 143.008 13.5933 143.008C14.18 143.008 14.6973 142.885 15.1453 142.64C15.604 142.384 15.956 142.032 16.2013 141.584C16.4573 141.125 16.5853 140.603 16.5853 140.016H17.9293C17.9293 140.848 17.748 141.584 17.3853 142.224C17.0226 142.853 16.5106 143.349 15.8493 143.712C15.188 144.064 14.4253 144.24 13.5613 144.24ZM9.27331 140.016V132.8H10.6333V140.016H9.27331ZM16.5853 140.016V132.8H17.9293V140.016H16.5853ZM23.1778 144.192C22.5911 144.192 22.0791 144.107 21.6418 143.936C21.2045 143.755 20.8365 143.52 20.5378 143.232C20.2498 142.944 20.0418 142.629 19.9138 142.288L21.0338 141.824C21.2151 142.176 21.4871 142.464 21.8498 142.688C22.2125 142.912 22.6125 143.024 23.0498 143.024C23.5511 143.024 23.9671 142.928 24.2978 142.736C24.6391 142.533 24.8098 142.256 24.8098 141.904C24.8098 141.573 24.6818 141.307 24.4258 141.104C24.1805 140.901 23.8178 140.736 23.3378 140.608L22.5698 140.4C21.8445 140.208 21.2791 139.92 20.8738 139.536C20.4685 139.141 20.2658 138.699 20.2658 138.208C20.2658 137.451 20.5111 136.864 21.0018 136.448C21.5031 136.021 22.2445 135.808 23.2258 135.808C23.6951 135.808 24.1218 135.877 24.5058 136.016C24.8898 136.155 25.2205 136.352 25.4978 136.608C25.7751 136.853 25.9778 137.147 26.1058 137.488L24.9858 137.984C24.8471 137.621 24.6178 137.365 24.2978 137.216C23.9778 137.056 23.5885 136.976 23.1298 136.976C22.6391 136.976 22.2551 137.077 21.9778 137.28C21.7005 137.483 21.5618 137.771 21.5618 138.144C21.5618 138.357 21.6738 138.56 21.8978 138.752C22.1325 138.933 22.4738 139.083 22.9218 139.2L23.7218 139.408C24.2445 139.536 24.6818 139.728 25.0338 139.984C25.3858 140.229 25.6525 140.512 25.8338 140.832C26.0151 141.152 26.1058 141.493 26.1058 141.856C26.1058 142.336 25.9778 142.752 25.7218 143.104C25.4658 143.456 25.1191 143.728 24.6818 143.92C24.2445 144.101 23.7431 144.192 23.1778 144.192ZM31.3669 144.192C30.5883 144.192 29.9003 144.016 29.3029 143.664C28.7163 143.301 28.2523 142.805 27.9109 142.176C27.5696 141.547 27.3989 140.821 27.3989 140C27.3989 139.179 27.5643 138.453 27.8949 137.824C28.2363 137.195 28.7056 136.704 29.3029 136.352C29.9003 135.989 30.5776 135.808 31.3349 135.808C32.0816 135.808 32.7269 135.995 33.2709 136.368C33.8149 136.731 34.2363 137.243 34.5349 137.904C34.8336 138.565 34.9829 139.344 34.9829 140.24H33.7029C33.7029 139.557 33.6123 138.976 33.4309 138.496C33.2496 138.005 32.9829 137.627 32.6309 137.36C32.2789 137.093 31.8416 136.96 31.3189 136.96C30.7963 136.96 30.3376 137.088 29.9429 137.344C29.5589 137.589 29.2603 137.941 29.0469 138.4C28.8336 138.859 28.7269 139.397 28.7269 140.016C28.7269 140.624 28.8443 141.152 29.0789 141.6C29.3136 142.037 29.6336 142.384 30.0389 142.64C30.4443 142.885 30.9083 143.008 31.4309 143.008C31.9963 143.008 32.4709 142.875 32.8549 142.608C33.2389 142.341 33.5376 141.995 33.7509 141.568L34.8869 142.128C34.6736 142.544 34.3963 142.907 34.0549 143.216C33.7243 143.525 33.3349 143.765 32.8869 143.936C32.4389 144.107 31.9323 144.192 31.3669 144.192ZM28.2629 140.24V139.136H34.1989V140.24H28.2629ZM44.1646 144.192C43.3752 144.192 42.6766 144.016 42.0686 143.664C41.4606 143.301 40.9859 142.805 40.6446 142.176C40.3032 141.547 40.1326 140.821 40.1326 140C40.1326 139.179 40.2979 138.453 40.6286 137.824C40.9699 137.195 41.4446 136.704 42.0526 136.352C42.6606 135.989 43.3539 135.808 44.1326 135.808C44.9006 135.808 45.5886 135.984 46.1966 136.336C46.8046 136.688 47.2686 137.184 47.5886 137.824L46.4206 138.352C46.2072 137.925 45.8979 137.595 45.4926 137.36C45.0872 137.115 44.6232 136.992 44.1006 136.992C43.5779 136.992 43.1139 137.12 42.7086 137.376C42.3139 137.632 41.9992 137.989 41.7646 138.448C41.5406 138.896 41.4286 139.413 41.4286 140C41.4286 140.587 41.5406 141.109 41.7646 141.568C41.9992 142.016 42.3192 142.368 42.7246 142.624C43.1406 142.88 43.6099 143.008 44.1326 143.008C44.6552 143.008 45.1192 142.875 45.5246 142.608C45.9406 142.341 46.2552 141.968 46.4686 141.488L47.6366 142.016C47.3166 142.699 46.8526 143.232 46.2446 143.616C45.6366 144 44.9432 144.192 44.1646 144.192ZM54.2608 144L54.1328 139.776C54.1115 139.147 54.0315 138.629 53.8928 138.224C53.7541 137.808 53.5408 137.499 53.2528 137.296C52.9648 137.083 52.5808 136.976 52.1008 136.976C51.6421 136.976 51.2421 137.067 50.9008 137.248C50.5701 137.429 50.2981 137.712 50.0848 138.096L48.9488 137.632C49.1515 137.259 49.4021 136.939 49.7008 136.672C49.9995 136.395 50.3515 136.181 50.7568 136.032C51.1621 135.883 51.6155 135.808 52.1168 135.808C52.8528 135.808 53.4661 135.952 53.9568 136.24C54.4475 136.528 54.8101 136.96 55.0448 137.536C55.2901 138.101 55.4128 138.811 55.4128 139.664V144H54.2608ZM51.8288 144.192C50.8795 144.192 50.1381 143.979 49.6048 143.552C49.0821 143.115 48.8208 142.512 48.8208 141.744C48.8208 140.933 49.0875 140.315 49.6208 139.888C50.1648 139.451 50.9221 139.232 51.8928 139.232H54.7088V140.304H52.1808C51.4341 140.304 50.9008 140.427 50.5808 140.672C50.2715 140.917 50.1168 141.269 50.1168 141.728C50.1168 142.144 50.2715 142.475 50.5808 142.72C50.8901 142.955 51.3221 143.072 51.8768 143.072C52.3461 143.072 52.7515 142.965 53.0928 142.752C53.4341 142.539 53.6955 142.251 53.8768 141.888C54.0581 141.515 54.1488 141.093 54.1488 140.624H54.9328C54.9328 141.712 54.6661 142.581 54.1328 143.232C53.5995 143.872 52.8315 144.192 51.8288 144.192ZM62.9283 144L62.8483 142.528V136H64.1283V144H62.9283ZM57.2323 140.576V136H58.5123V140.096L57.2323 140.576ZM58.5123 140.096C58.5123 140.885 58.603 141.488 58.7843 141.904C58.9656 142.32 59.2163 142.608 59.5363 142.768C59.867 142.917 60.235 142.992 60.6403 142.992C61.3336 142.992 61.8723 142.741 62.2563 142.24C62.651 141.739 62.8483 141.04 62.8483 140.144H63.4723C63.4723 140.987 63.3496 141.712 63.1043 142.32C62.859 142.928 62.5016 143.392 62.0323 143.712C61.5736 144.032 61.0136 144.192 60.3523 144.192C59.3816 144.192 58.6136 143.893 58.0483 143.296C57.4936 142.699 57.2216 141.792 57.2323 140.576L58.5123 140.096ZM69.5302 144.192C68.7515 144.192 68.1489 143.989 67.7222 143.584C67.2955 143.179 67.0822 142.608 67.0822 141.872V133.504H68.3622V141.744C68.3622 142.149 68.4689 142.464 68.6822 142.688C68.9062 142.901 69.2155 143.008 69.6102 143.008C69.7382 143.008 69.8609 142.992 69.9782 142.96C70.1062 142.917 70.2715 142.821 70.4742 142.672L70.9702 143.712C70.6929 143.893 70.4422 144.016 70.2182 144.08C69.9942 144.155 69.7649 144.192 69.5302 144.192ZM65.6902 137.136V136H70.7622V137.136H65.6902ZM72.5984 144L72.6304 136H73.9104L73.8784 144H72.5984ZM73.2544 134.144C73.0411 134.144 72.8544 134.064 72.6944 133.904C72.5344 133.744 72.4544 133.557 72.4544 133.344C72.4544 133.12 72.5344 132.933 72.6944 132.784C72.8544 132.624 73.0411 132.544 73.2544 132.544C73.4784 132.544 73.6651 132.624 73.8144 132.784C73.9744 132.933 74.0544 133.12 74.0544 133.344C74.0544 133.557 73.9744 133.744 73.8144 133.904C73.6651 134.064 73.4784 134.144 73.2544 134.144ZM79.8212 144.192C79.0425 144.192 78.3492 144.016 77.7412 143.664C77.1332 143.301 76.6585 142.805 76.3172 142.176C75.9759 141.547 75.8052 140.821 75.8052 140C75.8052 139.179 75.9705 138.453 76.3012 137.824C76.6425 137.195 77.1172 136.704 77.7252 136.352C78.3332 135.989 79.0212 135.808 79.7892 135.808C80.5785 135.808 81.2719 135.989 81.8692 136.352C82.4772 136.704 82.9465 137.195 83.2772 137.824C83.6185 138.453 83.7892 139.179 83.7892 140C83.7892 140.821 83.6185 141.547 83.2772 142.176C82.9465 142.805 82.4825 143.301 81.8852 143.664C81.2879 144.016 80.5999 144.192 79.8212 144.192ZM79.8212 142.976C80.3439 142.976 80.8025 142.853 81.1972 142.608C81.5919 142.352 81.9012 142 82.1252 141.552C82.3492 141.104 82.4612 140.587 82.4612 140C82.4612 139.413 82.3439 138.896 82.1092 138.448C81.8852 138 81.5705 137.653 81.1652 137.408C80.7705 137.152 80.3119 137.024 79.7892 137.024C79.2665 137.024 78.8079 137.152 78.4132 137.408C78.0185 137.653 77.7039 138 77.4692 138.448C77.2452 138.896 77.1332 139.413 77.1332 140C77.1332 140.587 77.2452 141.104 77.4692 141.552C77.7039 142 78.0239 142.352 78.4292 142.608C78.8345 142.853 79.2985 142.976 79.8212 142.976ZM85.5966 144V136H86.7966L86.8766 137.472V144H85.5966ZM91.2126 144V139.904L92.4926 139.424V144H91.2126ZM91.2126 139.904C91.2126 139.115 91.1219 138.512 90.9406 138.096C90.7592 137.68 90.5086 137.397 90.1886 137.248C89.8686 137.088 89.5059 137.008 89.1006 137.008C88.3966 137.008 87.8472 137.259 87.4526 137.76C87.0686 138.251 86.8766 138.949 86.8766 139.856H86.2526C86.2526 139.013 86.3752 138.288 86.6206 137.68C86.8659 137.072 87.2179 136.608 87.6766 136.288C88.1459 135.968 88.7112 135.808 89.3726 135.808C90.3432 135.808 91.1059 136.107 91.6606 136.704C92.2259 137.301 92.5032 138.208 92.4926 139.424L91.2126 139.904ZM105.736 144L108.44 136H109.736L107.016 144H105.736ZM100.296 144L103 136H104.2L101.528 144H100.296ZM100.232 144L97.5116 136H98.8076L101.48 144H100.232ZM105.736 144L103.064 136H104.28L106.952 144H105.736ZM111.018 144V132.592H112.298V144H111.018ZM116.65 144V139.904L117.93 139.424V144H116.65ZM116.65 139.904C116.65 139.115 116.554 138.512 116.362 138.096C116.181 137.68 115.93 137.397 115.61 137.248C115.29 137.088 114.928 137.008 114.522 137.008C113.818 137.008 113.269 137.259 112.874 137.76C112.49 138.251 112.298 138.949 112.298 139.856H111.674C111.674 139.013 111.797 138.288 112.042 137.68C112.288 137.072 112.645 136.608 113.114 136.288C113.584 135.968 114.149 135.808 114.81 135.808C115.77 135.808 116.533 136.107 117.098 136.704C117.664 137.301 117.941 138.208 117.93 139.424L116.65 139.904ZM123.476 144.192C122.698 144.192 122.01 144.016 121.412 143.664C120.826 143.301 120.362 142.805 120.02 142.176C119.679 141.547 119.508 140.821 119.508 140C119.508 139.179 119.674 138.453 120.004 137.824C120.346 137.195 120.815 136.704 121.412 136.352C122.01 135.989 122.687 135.808 123.444 135.808C124.191 135.808 124.836 135.995 125.38 136.368C125.924 136.731 126.346 137.243 126.644 137.904C126.943 138.565 127.092 139.344 127.092 140.24H125.812C125.812 139.557 125.722 138.976 125.54 138.496C125.359 138.005 125.092 137.627 124.74 137.36C124.388 137.093 123.951 136.96 123.428 136.96C122.906 136.96 122.447 137.088 122.052 137.344C121.668 137.589 121.37 137.941 121.156 138.4C120.943 138.859 120.836 139.397 120.836 140.016C120.836 140.624 120.954 141.152 121.188 141.6C121.423 142.037 121.743 142.384 122.148 142.64C122.554 142.885 123.018 143.008 123.54 143.008C124.106 143.008 124.58 142.875 124.964 142.608C125.348 142.341 125.647 141.995 125.86 141.568L126.996 142.128C126.783 142.544 126.506 142.907 126.164 143.216C125.834 143.525 125.444 143.765 124.996 143.936C124.548 144.107 124.042 144.192 123.476 144.192ZM120.372 140.24V139.136H126.308V140.24H120.372ZM128.753 144V136H129.953L130.033 137.472V144H128.753ZM134.369 144V139.904L135.649 139.424V144H134.369ZM134.369 139.904C134.369 139.115 134.278 138.512 134.097 138.096C133.915 137.68 133.665 137.397 133.345 137.248C133.025 137.088 132.662 137.008 132.257 137.008C131.553 137.008 131.003 137.259 130.609 137.76C130.225 138.251 130.033 138.949 130.033 139.856H129.409C129.409 139.013 129.531 138.288 129.777 137.68C130.022 137.072 130.374 136.608 130.833 136.288C131.302 135.968 131.867 135.808 132.529 135.808C133.499 135.808 134.262 136.107 134.817 136.704C135.382 137.301 135.659 138.208 135.649 139.424L134.369 139.904ZM142.332 139.664C142.332 138.8 142.497 138.101 142.828 137.568C143.158 137.024 143.58 136.624 144.092 136.368C144.614 136.101 145.164 135.968 145.74 135.968V137.168C145.27 137.168 144.817 137.248 144.38 137.408C143.953 137.557 143.601 137.808 143.324 138.16C143.046 138.512 142.908 138.992 142.908 139.6L142.332 139.664ZM141.628 144V136H142.908V144H141.628ZM150.57 144.192C149.791 144.192 149.103 144.016 148.506 143.664C147.919 143.301 147.455 142.805 147.114 142.176C146.773 141.547 146.602 140.821 146.602 140C146.602 139.179 146.767 138.453 147.098 137.824C147.439 137.195 147.909 136.704 148.506 136.352C149.103 135.989 149.781 135.808 150.538 135.808C151.285 135.808 151.93 135.995 152.474 136.368C153.018 136.731 153.439 137.243 153.738 137.904C154.037 138.565 154.186 139.344 154.186 140.24H152.906C152.906 139.557 152.815 138.976 152.634 138.496C152.453 138.005 152.186 137.627 151.834 137.36C151.482 137.093 151.045 136.96 150.522 136.96C149.999 136.96 149.541 137.088 149.146 137.344C148.762 137.589 148.463 137.941 148.25 138.4C148.037 138.859 147.93 139.397 147.93 140.016C147.93 140.624 148.047 141.152 148.282 141.6C148.517 142.037 148.837 142.384 149.242 142.64C149.647 142.885 150.111 143.008 150.634 143.008C151.199 143.008 151.674 142.875 152.058 142.608C152.442 142.341 152.741 141.995 152.954 141.568L154.09 142.128C153.877 142.544 153.599 142.907 153.258 143.216C152.927 143.525 152.538 143.765 152.09 143.936C151.642 144.107 151.135 144.192 150.57 144.192ZM147.466 140.24V139.136H153.402V140.24H147.466ZM155.847 144V136H157.047L157.127 137.472V144H155.847ZM161.463 144V139.904L162.743 139.424V144H161.463ZM167.095 144V139.904L168.375 139.424V144H167.095ZM161.463 139.904C161.463 139.115 161.372 138.512 161.191 138.096C161.009 137.68 160.759 137.397 160.439 137.248C160.119 137.088 159.756 137.008 159.351 137.008C158.647 137.008 158.097 137.259 157.703 137.76C157.319 138.251 157.127 138.949 157.127 139.856H156.503C156.503 139.013 156.625 138.288 156.871 137.68C157.116 137.072 157.468 136.608 157.927 136.288C158.396 135.968 158.961 135.808 159.623 135.808C160.593 135.808 161.356 136.107 161.911 136.704C162.476 137.301 162.753 138.208 162.743 139.424L161.463 139.904ZM167.095 139.904C167.095 139.115 166.999 138.512 166.807 138.096C166.625 137.68 166.375 137.397 166.055 137.248C165.735 137.088 165.372 137.008 164.967 137.008C164.263 137.008 163.713 137.259 163.319 137.76C162.935 138.251 162.743 138.949 162.743 139.856H162.119C162.119 139.013 162.241 138.288 162.487 137.68C162.732 137.072 163.089 136.608 163.559 136.288C164.028 135.968 164.593 135.808 165.255 135.808C166.215 135.808 166.972 136.107 167.527 136.704C168.092 137.301 168.375 138.208 168.375 139.424L167.095 139.904ZM173.977 144.192C173.199 144.192 172.505 144.016 171.897 143.664C171.289 143.301 170.815 142.805 170.473 142.176C170.132 141.547 169.961 140.821 169.961 140C169.961 139.179 170.127 138.453 170.457 137.824C170.799 137.195 171.273 136.704 171.881 136.352C172.489 135.989 173.177 135.808 173.945 135.808C174.735 135.808 175.428 135.989 176.025 136.352C176.633 136.704 177.103 137.195 177.433 137.824C177.775 138.453 177.945 139.179 177.945 140C177.945 140.821 177.775 141.547 177.433 142.176C177.103 142.805 176.639 143.301 176.041 143.664C175.444 144.016 174.756 144.192 173.977 144.192ZM173.977 142.976C174.5 142.976 174.959 142.853 175.353 142.608C175.748 142.352 176.057 142 176.281 141.552C176.505 141.104 176.617 140.587 176.617 140C176.617 139.413 176.5 138.896 176.265 138.448C176.041 138 175.727 137.653 175.321 137.408C174.927 137.152 174.468 137.024 173.945 137.024C173.423 137.024 172.964 137.152 172.569 137.408C172.175 137.653 171.86 138 171.625 138.448C171.401 138.896 171.289 139.413 171.289 140C171.289 140.587 171.401 141.104 171.625 141.552C171.86 142 172.18 142.352 172.585 142.608C172.991 142.853 173.455 142.976 173.977 142.976ZM181.998 144L185.262 136H186.606L183.262 144H181.998ZM181.918 144L178.574 136H179.902L183.166 144H181.918ZM187.942 144L187.974 136H189.254L189.222 144H187.942ZM188.598 134.144C188.385 134.144 188.198 134.064 188.038 133.904C187.878 133.744 187.798 133.557 187.798 133.344C187.798 133.12 187.878 132.933 188.038 132.784C188.198 132.624 188.385 132.544 188.598 132.544C188.822 132.544 189.009 132.624 189.158 132.784C189.318 132.933 189.398 133.12 189.398 133.344C189.398 133.557 189.318 133.744 189.158 133.904C189.009 134.064 188.822 134.144 188.598 134.144ZM191.581 144V136H192.781L192.861 137.472V144H191.581ZM197.197 144V139.904L198.477 139.424V144H197.197ZM197.197 139.904C197.197 139.115 197.106 138.512 196.925 138.096C196.744 137.68 196.493 137.397 196.173 137.248C195.853 137.088 195.49 137.008 195.085 137.008C194.381 137.008 193.832 137.259 193.437 137.76C193.053 138.251 192.861 138.949 192.861 139.856H192.237C192.237 139.013 192.36 138.288 192.605 137.68C192.85 137.072 193.202 136.608 193.661 136.288C194.13 135.968 194.696 135.808 195.357 135.808C196.328 135.808 197.09 136.107 197.645 136.704C198.21 137.301 198.488 138.208 198.477 139.424L197.197 139.904ZM203.703 147.392C203.191 147.392 202.721 147.339 202.295 147.232C201.879 147.136 201.521 147.024 201.223 146.896C200.935 146.779 200.727 146.677 200.599 146.592L201.079 145.552C201.217 145.627 201.415 145.717 201.671 145.824C201.927 145.941 202.225 146.037 202.567 146.112C202.919 146.197 203.292 146.24 203.687 146.24C204.199 146.24 204.657 146.133 205.063 145.92C205.479 145.717 205.799 145.392 206.023 144.944C206.257 144.507 206.375 143.941 206.375 143.248V136H207.655V143.232C207.655 144.149 207.484 144.917 207.143 145.536C206.801 146.155 206.332 146.619 205.735 146.928C205.137 147.237 204.46 147.392 203.703 147.392ZM203.655 143.936C202.94 143.936 202.311 143.765 201.767 143.424C201.223 143.083 200.796 142.608 200.487 142C200.188 141.381 200.039 140.677 200.039 139.888C200.039 139.077 200.188 138.368 200.487 137.76C200.796 137.141 201.223 136.661 201.767 136.32C202.311 135.979 202.94 135.808 203.655 135.808C204.327 135.808 204.913 135.979 205.415 136.32C205.916 136.661 206.305 137.141 206.583 137.76C206.871 138.368 207.015 139.077 207.015 139.888C207.015 140.688 206.871 141.392 206.583 142C206.305 142.608 205.916 143.083 205.415 143.424C204.913 143.765 204.327 143.936 203.655 143.936ZM203.959 142.832C204.428 142.832 204.844 142.704 205.207 142.448C205.569 142.192 205.852 141.845 206.055 141.408C206.257 140.96 206.359 140.443 206.359 139.856C206.359 139.291 206.252 138.789 206.039 138.352C205.836 137.904 205.553 137.557 205.191 137.312C204.839 137.056 204.423 136.928 203.943 136.928C203.441 136.928 202.993 137.056 202.599 137.312C202.215 137.557 201.911 137.904 201.687 138.352C201.473 138.789 201.367 139.291 201.367 139.856C201.367 140.443 201.479 140.96 201.703 141.408C201.927 141.845 202.231 142.192 202.615 142.448C203.009 142.704 203.457 142.832 203.959 142.832ZM216.811 144.192C216.033 144.192 215.43 143.989 215.003 143.584C214.577 143.179 214.363 142.608 214.363 141.872V133.504H215.643V141.744C215.643 142.149 215.75 142.464 215.963 142.688C216.187 142.901 216.497 143.008 216.891 143.008C217.019 143.008 217.142 142.992 217.259 142.96C217.387 142.917 217.553 142.821 217.755 142.672L218.251 143.712C217.974 143.893 217.723 144.016 217.499 144.08C217.275 144.155 217.046 144.192 216.811 144.192ZM212.971 137.136V136H218.043V137.136H212.971ZM219.8 144V132.592H221.08V144H219.8ZM225.432 144V139.904L226.712 139.424V144H225.432ZM225.432 139.904C225.432 139.115 225.336 138.512 225.144 138.096C224.962 137.68 224.712 137.397 224.392 137.248C224.072 137.088 223.709 137.008 223.304 137.008C222.6 137.008 222.05 137.259 221.656 137.76C221.272 138.251 221.08 138.949 221.08 139.856H220.456C220.456 139.013 220.578 138.288 220.824 137.68C221.069 137.072 221.426 136.608 221.896 136.288C222.365 135.968 222.93 135.808 223.592 135.808C224.552 135.808 225.314 136.107 225.88 136.704C226.445 137.301 226.722 138.208 226.712 139.424L225.432 139.904ZM232.258 144.192C231.479 144.192 230.791 144.016 230.194 143.664C229.607 143.301 229.143 142.805 228.802 142.176C228.46 141.547 228.29 140.821 228.29 140C228.29 139.179 228.455 138.453 228.786 137.824C229.127 137.195 229.596 136.704 230.194 136.352C230.791 135.989 231.468 135.808 232.226 135.808C232.972 135.808 233.618 135.995 234.162 136.368C234.706 136.731 235.127 137.243 235.426 137.904C235.724 138.565 235.874 139.344 235.874 140.24H234.594C234.594 139.557 234.503 138.976 234.322 138.496C234.14 138.005 233.874 137.627 233.522 137.36C233.17 137.093 232.732 136.96 232.21 136.96C231.687 136.96 231.228 137.088 230.834 137.344C230.45 137.589 230.151 137.941 229.938 138.4C229.724 138.859 229.618 139.397 229.618 140.016C229.618 140.624 229.735 141.152 229.97 141.6C230.204 142.037 230.524 142.384 230.93 142.64C231.335 142.885 231.799 143.008 232.322 143.008C232.887 143.008 233.362 142.875 233.746 142.608C234.13 142.341 234.428 141.995 234.642 141.568L235.778 142.128C235.564 142.544 235.287 142.907 234.946 143.216C234.615 143.525 234.226 143.765 233.778 143.936C233.33 144.107 232.823 144.192 232.258 144.192ZM229.154 140.24V139.136H235.09V140.24H229.154ZM244.287 144.192C243.701 144.192 243.189 144.107 242.751 143.936C242.314 143.755 241.946 143.52 241.647 143.232C241.359 142.944 241.151 142.629 241.023 142.288L242.143 141.824C242.325 142.176 242.597 142.464 242.959 142.688C243.322 142.912 243.722 143.024 244.159 143.024C244.661 143.024 245.077 142.928 245.407 142.736C245.749 142.533 245.919 142.256 245.919 141.904C245.919 141.573 245.791 141.307 245.535 141.104C245.29 140.901 244.927 140.736 244.447 140.608L243.679 140.4C242.954 140.208 242.389 139.92 241.983 139.536C241.578 139.141 241.375 138.699 241.375 138.208C241.375 137.451 241.621 136.864 242.111 136.448C242.613 136.021 243.354 135.808 244.335 135.808C244.805 135.808 245.231 135.877 245.615 136.016C245.999 136.155 246.33 136.352 246.607 136.608C246.885 136.853 247.087 137.147 247.215 137.488L246.095 137.984C245.957 137.621 245.727 137.365 245.407 137.216C245.087 137.056 244.698 136.976 244.239 136.976C243.749 136.976 243.365 137.077 243.087 137.28C242.81 137.483 242.671 137.771 242.671 138.144C242.671 138.357 242.783 138.56 243.007 138.752C243.242 138.933 243.583 139.083 244.031 139.2L244.831 139.408C245.354 139.536 245.791 139.728 246.143 139.984C246.495 140.229 246.762 140.512 246.943 140.832C247.125 141.152 247.215 141.493 247.215 141.856C247.215 142.336 247.087 142.752 246.831 143.104C246.575 143.456 246.229 143.728 245.791 143.92C245.354 144.101 244.853 144.192 244.287 144.192ZM249.66 147.392C249.458 147.392 249.223 147.349 248.956 147.264C248.69 147.189 248.407 147.088 248.108 146.96L248.588 145.888C248.834 145.995 249.047 146.075 249.228 146.128C249.42 146.181 249.57 146.208 249.676 146.208C249.964 146.208 250.199 146.128 250.38 145.968C250.572 145.819 250.732 145.6 250.86 145.312L251.772 143.136L254.732 136H256.108L252.268 145.12C252.066 145.589 251.852 145.995 251.628 146.336C251.415 146.677 251.154 146.939 250.844 147.12C250.535 147.301 250.14 147.392 249.66 147.392ZM251.42 144L247.964 136H249.324L252.3 143.12L252.684 144H251.42ZM258.066 139.664C258.066 138.8 258.232 138.101 258.562 137.568C258.893 137.024 259.314 136.624 259.826 136.368C260.349 136.101 260.898 135.968 261.474 135.968V137.168C261.005 137.168 260.552 137.248 260.114 137.408C259.688 137.557 259.336 137.808 259.058 138.16C258.781 138.512 258.642 138.992 258.642 139.6L258.066 139.664ZM257.362 144V136H258.642V144H257.362ZM262.848 144L262.88 136H264.16L264.128 144H262.848ZM263.504 134.144C263.291 134.144 263.104 134.064 262.944 133.904C262.784 133.744 262.704 133.557 262.704 133.344C262.704 133.12 262.784 132.933 262.944 132.784C263.104 132.624 263.291 132.544 263.504 132.544C263.728 132.544 263.915 132.624 264.064 132.784C264.224 132.933 264.304 133.12 264.304 133.344C264.304 133.557 264.224 133.744 264.064 133.904C263.915 134.064 263.728 134.144 263.504 134.144ZM266.487 144V136H267.687L267.767 137.472V144H266.487ZM272.103 144V139.904L273.383 139.424V144H272.103ZM272.103 139.904C272.103 139.115 272.013 138.512 271.831 138.096C271.65 137.68 271.399 137.397 271.079 137.248C270.759 137.088 270.397 137.008 269.991 137.008C269.287 137.008 268.738 137.259 268.343 137.76C267.959 138.251 267.767 138.949 267.767 139.856H267.143C267.143 139.013 267.266 138.288 267.511 137.68C267.757 137.072 268.109 136.608 268.567 136.288C269.037 135.968 269.602 135.808 270.263 135.808C271.234 135.808 271.997 136.107 272.551 136.704C273.117 137.301 273.394 138.208 273.383 139.424L272.103 139.904ZM278.609 147.392C278.097 147.392 277.628 147.339 277.201 147.232C276.785 147.136 276.428 147.024 276.129 146.896C275.841 146.779 275.633 146.677 275.505 146.592L275.985 145.552C276.124 145.627 276.321 145.717 276.577 145.824C276.833 145.941 277.132 146.037 277.473 146.112C277.825 146.197 278.198 146.24 278.593 146.24C279.105 146.24 279.564 146.133 279.969 145.92C280.385 145.717 280.705 145.392 280.929 144.944C281.164 144.507 281.281 143.941 281.281 143.248V136H282.561V143.232C282.561 144.149 282.39 144.917 282.049 145.536C281.708 146.155 281.238 146.619 280.641 146.928C280.044 147.237 279.366 147.392 278.609 147.392ZM278.561 143.936C277.846 143.936 277.217 143.765 276.673 143.424C276.129 143.083 275.702 142.608 275.393 142C275.094 141.381 274.945 140.677 274.945 139.888C274.945 139.077 275.094 138.368 275.393 137.76C275.702 137.141 276.129 136.661 276.673 136.32C277.217 135.979 277.846 135.808 278.561 135.808C279.233 135.808 279.82 135.979 280.321 136.32C280.822 136.661 281.212 137.141 281.489 137.76C281.777 138.368 281.921 139.077 281.921 139.888C281.921 140.688 281.777 141.392 281.489 142C281.212 142.608 280.822 143.083 280.321 143.424C279.82 143.765 279.233 143.936 278.561 143.936ZM278.865 142.832C279.334 142.832 279.75 142.704 280.113 142.448C280.476 142.192 280.758 141.845 280.961 141.408C281.164 140.96 281.265 140.443 281.265 139.856C281.265 139.291 281.158 138.789 280.945 138.352C280.742 137.904 280.46 137.557 280.097 137.312C279.745 137.056 279.329 136.928 278.849 136.928C278.348 136.928 277.9 137.056 277.505 137.312C277.121 137.557 276.817 137.904 276.593 138.352C276.38 138.789 276.273 139.291 276.273 139.856C276.273 140.443 276.385 140.96 276.609 141.408C276.833 141.845 277.137 142.192 277.521 142.448C277.916 142.704 278.364 142.832 278.865 142.832ZM288.133 144.192C287.354 144.192 286.666 144.016 286.069 143.664C285.482 143.301 285.018 142.805 284.677 142.176C284.335 141.547 284.165 140.821 284.165 140C284.165 139.179 284.33 138.453 284.661 137.824C285.002 137.195 285.471 136.704 286.069 136.352C286.666 135.989 287.343 135.808 288.101 135.808C288.847 135.808 289.493 135.995 290.037 136.368C290.581 136.731 291.002 137.243 291.301 137.904C291.599 138.565 291.749 139.344 291.749 140.24H290.469C290.469 139.557 290.378 138.976 290.197 138.496C290.015 138.005 289.749 137.627 289.397 137.36C289.045 137.093 288.607 136.96 288.085 136.96C287.562 136.96 287.103 137.088 286.709 137.344C286.325 137.589 286.026 137.941 285.813 138.4C285.599 138.859 285.493 139.397 285.493 140.016C285.493 140.624 285.61 141.152 285.845 141.6C286.079 142.037 286.399 142.384 286.805 142.64C287.21 142.885 287.674 143.008 288.197 143.008C288.762 143.008 289.237 142.875 289.621 142.608C290.005 142.341 290.303 141.995 290.517 141.568L291.653 142.128C291.439 142.544 291.162 142.907 290.821 143.216C290.49 143.525 290.101 143.765 289.653 143.936C289.205 144.107 288.698 144.192 288.133 144.192ZM285.029 140.24V139.136H290.965V140.24H285.029ZM294.017 140.752L293.969 132.8H295.361L295.329 140.752H294.017ZM294.673 144.224C294.428 144.224 294.214 144.139 294.033 143.968C293.862 143.797 293.777 143.589 293.777 143.344C293.777 143.099 293.862 142.891 294.033 142.72C294.214 142.539 294.428 142.448 294.673 142.448C294.918 142.448 295.126 142.539 295.297 142.72C295.468 142.891 295.553 143.099 295.553 143.344C295.553 143.589 295.468 143.797 295.297 143.968C295.126 144.139 294.918 144.224 294.673 144.224Z" fill="#5762B8"/>
<defs>
<clipPath id="clip0_473_389">
<rect width="106" height="106" fill="white" transform="translate(101)"/>
</clipPath>
</defs>
</svg>
