<svg width="134" height="159" viewBox="0 0 134 159" fill="none" xmlns="http://www.w3.org/2000/svg">
<g clip-path="url(#clip0_251_685)">
<path fill-rule="evenodd" clip-rule="evenodd" d="M66.9987 34.7306C98.3768 34.7306 123.825 60.2711 123.825 91.7598C123.825 123.248 98.3768 148.792 66.9987 148.792C35.6206 148.792 10.1708 123.25 10.1708 91.7598C10.1708 60.2698 35.6233 34.7306 67 34.7306M74.0788 24.8937C88.2938 26.3931 101.192 32.3546 111.345 41.3603L115.018 37.6773L110.578 33.2219C109.963 32.6085 109.963 31.5995 110.578 30.9862L114.681 26.8648C115.295 26.2514 116.298 26.2488 116.914 26.8648L131.668 41.673C132.284 42.2891 132.282 43.298 131.668 43.9141L127.566 48.0314C126.952 48.6475 125.946 48.6488 125.333 48.0314L120.894 43.5773L117.218 47.263C127.659 59.1205 134.003 74.6985 134.003 91.7611C134.003 128.89 104.001 159.001 67.0013 159.001C30.0012 159.001 0 128.889 0 91.7598C0 57.0318 26.2474 28.4457 59.9225 24.8937V15.447H48.741C47.0405 15.447 45.6423 14.0478 45.6423 12.3359V3.11104C45.6423 1.39917 47.0405 0 48.741 0H85.2564C86.9582 0 88.3551 1.40318 88.3551 3.11104V12.3359C88.3551 14.0438 86.9595 15.447 85.2564 15.447H74.0775V24.8937H74.0788Z" fill="#5762B8"/>
<path fill-rule="evenodd" clip-rule="evenodd" d="M49.9048 59.0484C50.3189 59.762 50.0752 60.6814 49.3615 61.097C48.6477 61.5126 47.7329 61.268 47.3188 60.5518L43.1242 53.2579C42.7101 52.5416 42.9537 51.6235 43.6635 51.2079C44.3812 50.7923 45.2947 51.0369 45.7062 51.7545L49.9048 59.0484ZM35.9002 72.011C36.614 72.4266 36.859 73.3434 36.4448 74.0597C36.0307 74.776 35.1159 75.0219 34.4021 74.6063L27.1342 70.3927C26.4178 69.9798 26.1768 69.0604 26.5909 68.3441C27.005 67.6278 27.9159 67.3832 28.6363 67.7975L35.9002 72.011ZM106.867 113.129C107.581 113.545 107.822 114.462 107.41 115.179C106.996 115.896 106.083 116.138 105.365 115.725L98.1011 111.512C97.3873 111.097 97.1397 110.179 97.5538 109.463C97.9679 108.746 98.8854 108.502 99.5992 108.916L106.867 113.129ZM30.2249 90.2564C31.0531 90.2564 31.7229 90.9325 31.7229 91.7598C31.7229 92.587 31.0531 93.2658 30.2249 93.2658H21.8384C21.0128 93.2658 20.3403 92.591 20.3403 91.7598C20.3403 90.9285 21.0128 90.2564 21.8384 90.2564H30.2249ZM112.159 90.2564C112.987 90.2564 113.657 90.9325 113.657 91.7598C113.657 92.587 112.987 93.2658 112.159 93.2658H103.772C102.944 93.2658 102.274 92.591 102.274 91.7598C102.274 90.9285 102.944 90.2564 103.772 90.2564H112.159ZM34.4008 108.915C35.1146 108.502 36.0294 108.745 36.4435 109.461C36.8576 110.177 36.6126 111.096 35.8989 111.511L28.6349 115.723C27.9145 116.136 27.0037 115.894 26.5896 115.178C26.1755 114.459 26.4165 113.544 27.1329 113.128L34.4008 108.915ZM105.364 67.7975C106.081 67.3846 106.995 67.6278 107.409 68.3441C107.821 69.0604 107.579 69.9784 106.866 70.3927L99.5978 74.6063C98.8841 75.0219 97.9666 74.776 97.5525 74.0597C97.1383 73.3434 97.386 72.4266 98.0998 72.011L105.364 67.7975ZM47.3174 122.973C47.7316 122.257 48.6464 122.011 49.3601 122.427C50.0739 122.842 50.3176 123.763 49.9034 124.476L45.7049 131.77C45.2934 132.487 44.3799 132.731 43.6622 132.316C42.9524 131.903 42.7087 130.982 43.1229 130.267L47.3174 122.973ZM88.2924 51.7545C88.7066 51.0355 89.6201 50.7923 90.3338 51.2079C91.0475 51.6235 91.2886 52.5416 90.8744 53.2579L86.6825 60.5518C86.2684 61.268 85.3509 61.5126 84.6372 61.097C83.9234 60.6814 83.6824 59.7633 84.0939 59.0484L88.2924 51.7545ZM65.5006 128.665C65.5006 127.833 66.1731 127.161 66.9986 127.161C67.8242 127.161 68.4967 127.833 68.4967 128.665V137.084C68.4967 137.915 67.8269 138.587 66.9986 138.587C66.1704 138.587 65.5006 137.915 65.5006 137.084V128.665ZM66.9986 91.7598L93.2727 137.442C109.53 128.025 119.556 110.602 119.556 91.7598C119.556 62.6378 96.0158 39.0177 66.9986 39.0177V91.7598Z" fill="#F9897A"/>
</g>
<defs>
<clipPath id="clip0_251_685">
<rect width="134" height="159" fill="white"/>
</clipPath>
</defs>
</svg>
